%TF.GenerationSoftware,KiCad,Pcbnew,9.0.7*%
%TF.CreationDate,2026-04-26T23:32:49-07:00*%
%TF.ProjectId,System PCB-Charging Mk.2,53797374-656d-4205-9043-422d43686172,rev?*%
%TF.SameCoordinates,Original*%
%TF.FileFunction,Legend,Top*%
%TF.FilePolarity,Positive*%
%FSLAX46Y46*%
G04 Gerber Fmt 4.6, Leading zero omitted, Abs format (unit mm)*
G04 Created by KiCad (PCBNEW 9.0.7) date 2026-04-26 23:32:49*
%MOMM*%
%LPD*%
G01*
G04 APERTURE LIST*
%ADD10C,0.150000*%
%ADD11C,0.153000*%
%ADD12C,0.120000*%
%ADD13C,0.152400*%
%ADD14C,0.000000*%
%ADD15C,0.127000*%
%ADD16C,0.200000*%
%ADD17C,0.100000*%
G04 APERTURE END LIST*
D10*
X166884398Y-164939987D02*
X167074874Y-164939987D01*
X167074874Y-164939987D02*
X167170112Y-164892368D01*
X167170112Y-164892368D02*
X167217731Y-164844748D01*
X167217731Y-164844748D02*
X167312969Y-164701891D01*
X167312969Y-164701891D02*
X167360588Y-164511415D01*
X167360588Y-164511415D02*
X167360588Y-164130463D01*
X167360588Y-164130463D02*
X167312969Y-164035225D01*
X167312969Y-164035225D02*
X167265350Y-163987606D01*
X167265350Y-163987606D02*
X167170112Y-163939987D01*
X167170112Y-163939987D02*
X166979636Y-163939987D01*
X166979636Y-163939987D02*
X166884398Y-163987606D01*
X166884398Y-163987606D02*
X166836779Y-164035225D01*
X166836779Y-164035225D02*
X166789160Y-164130463D01*
X166789160Y-164130463D02*
X166789160Y-164368558D01*
X166789160Y-164368558D02*
X166836779Y-164463796D01*
X166836779Y-164463796D02*
X166884398Y-164511415D01*
X166884398Y-164511415D02*
X166979636Y-164559034D01*
X166979636Y-164559034D02*
X167170112Y-164559034D01*
X167170112Y-164559034D02*
X167265350Y-164511415D01*
X167265350Y-164511415D02*
X167312969Y-164463796D01*
X167312969Y-164463796D02*
X167360588Y-164368558D01*
X167789160Y-164939987D02*
X167789160Y-164273320D01*
X167789160Y-164368558D02*
X167836779Y-164320939D01*
X167836779Y-164320939D02*
X167932017Y-164273320D01*
X167932017Y-164273320D02*
X168074874Y-164273320D01*
X168074874Y-164273320D02*
X168170112Y-164320939D01*
X168170112Y-164320939D02*
X168217731Y-164416177D01*
X168217731Y-164416177D02*
X168217731Y-164939987D01*
X168217731Y-164416177D02*
X168265350Y-164320939D01*
X168265350Y-164320939D02*
X168360588Y-164273320D01*
X168360588Y-164273320D02*
X168503445Y-164273320D01*
X168503445Y-164273320D02*
X168598684Y-164320939D01*
X168598684Y-164320939D02*
X168646303Y-164416177D01*
X168646303Y-164416177D02*
X168646303Y-164939987D01*
X169122493Y-164939987D02*
X169122493Y-164273320D01*
X169122493Y-164368558D02*
X169170112Y-164320939D01*
X169170112Y-164320939D02*
X169265350Y-164273320D01*
X169265350Y-164273320D02*
X169408207Y-164273320D01*
X169408207Y-164273320D02*
X169503445Y-164320939D01*
X169503445Y-164320939D02*
X169551064Y-164416177D01*
X169551064Y-164416177D02*
X169551064Y-164939987D01*
X169551064Y-164416177D02*
X169598683Y-164320939D01*
X169598683Y-164320939D02*
X169693921Y-164273320D01*
X169693921Y-164273320D02*
X169836778Y-164273320D01*
X169836778Y-164273320D02*
X169932017Y-164320939D01*
X169932017Y-164320939D02*
X169979636Y-164416177D01*
X169979636Y-164416177D02*
X169979636Y-164939987D01*
X171170112Y-164892368D02*
X171312969Y-164939987D01*
X171312969Y-164939987D02*
X171551064Y-164939987D01*
X171551064Y-164939987D02*
X171646302Y-164892368D01*
X171646302Y-164892368D02*
X171693921Y-164844748D01*
X171693921Y-164844748D02*
X171741540Y-164749510D01*
X171741540Y-164749510D02*
X171741540Y-164654272D01*
X171741540Y-164654272D02*
X171693921Y-164559034D01*
X171693921Y-164559034D02*
X171646302Y-164511415D01*
X171646302Y-164511415D02*
X171551064Y-164463796D01*
X171551064Y-164463796D02*
X171360588Y-164416177D01*
X171360588Y-164416177D02*
X171265350Y-164368558D01*
X171265350Y-164368558D02*
X171217731Y-164320939D01*
X171217731Y-164320939D02*
X171170112Y-164225701D01*
X171170112Y-164225701D02*
X171170112Y-164130463D01*
X171170112Y-164130463D02*
X171217731Y-164035225D01*
X171217731Y-164035225D02*
X171265350Y-163987606D01*
X171265350Y-163987606D02*
X171360588Y-163939987D01*
X171360588Y-163939987D02*
X171598683Y-163939987D01*
X171598683Y-163939987D02*
X171741540Y-163987606D01*
X172312969Y-164939987D02*
X172217731Y-164892368D01*
X172217731Y-164892368D02*
X172170112Y-164844748D01*
X172170112Y-164844748D02*
X172122493Y-164749510D01*
X172122493Y-164749510D02*
X172122493Y-164463796D01*
X172122493Y-164463796D02*
X172170112Y-164368558D01*
X172170112Y-164368558D02*
X172217731Y-164320939D01*
X172217731Y-164320939D02*
X172312969Y-164273320D01*
X172312969Y-164273320D02*
X172455826Y-164273320D01*
X172455826Y-164273320D02*
X172551064Y-164320939D01*
X172551064Y-164320939D02*
X172598683Y-164368558D01*
X172598683Y-164368558D02*
X172646302Y-164463796D01*
X172646302Y-164463796D02*
X172646302Y-164749510D01*
X172646302Y-164749510D02*
X172598683Y-164844748D01*
X172598683Y-164844748D02*
X172551064Y-164892368D01*
X172551064Y-164892368D02*
X172455826Y-164939987D01*
X172455826Y-164939987D02*
X172312969Y-164939987D01*
X173074874Y-164939987D02*
X173074874Y-164273320D01*
X173074874Y-164463796D02*
X173122493Y-164368558D01*
X173122493Y-164368558D02*
X173170112Y-164320939D01*
X173170112Y-164320939D02*
X173265350Y-164273320D01*
X173265350Y-164273320D02*
X173360588Y-164273320D01*
X173551065Y-164273320D02*
X173932017Y-164273320D01*
X173693922Y-163939987D02*
X173693922Y-164797129D01*
X173693922Y-164797129D02*
X173741541Y-164892368D01*
X173741541Y-164892368D02*
X173836779Y-164939987D01*
X173836779Y-164939987D02*
X173932017Y-164939987D01*
X174265351Y-164939987D02*
X174265351Y-164273320D01*
X174265351Y-163939987D02*
X174217732Y-163987606D01*
X174217732Y-163987606D02*
X174265351Y-164035225D01*
X174265351Y-164035225D02*
X174312970Y-163987606D01*
X174312970Y-163987606D02*
X174265351Y-163939987D01*
X174265351Y-163939987D02*
X174265351Y-164035225D01*
X174741541Y-164273320D02*
X174741541Y-164939987D01*
X174741541Y-164368558D02*
X174789160Y-164320939D01*
X174789160Y-164320939D02*
X174884398Y-164273320D01*
X174884398Y-164273320D02*
X175027255Y-164273320D01*
X175027255Y-164273320D02*
X175122493Y-164320939D01*
X175122493Y-164320939D02*
X175170112Y-164416177D01*
X175170112Y-164416177D02*
X175170112Y-164939987D01*
X176074874Y-164273320D02*
X176074874Y-165082844D01*
X176074874Y-165082844D02*
X176027255Y-165178082D01*
X176027255Y-165178082D02*
X175979636Y-165225701D01*
X175979636Y-165225701D02*
X175884398Y-165273320D01*
X175884398Y-165273320D02*
X175741541Y-165273320D01*
X175741541Y-165273320D02*
X175646303Y-165225701D01*
X176074874Y-164892368D02*
X175979636Y-164939987D01*
X175979636Y-164939987D02*
X175789160Y-164939987D01*
X175789160Y-164939987D02*
X175693922Y-164892368D01*
X175693922Y-164892368D02*
X175646303Y-164844748D01*
X175646303Y-164844748D02*
X175598684Y-164749510D01*
X175598684Y-164749510D02*
X175598684Y-164463796D01*
X175598684Y-164463796D02*
X175646303Y-164368558D01*
X175646303Y-164368558D02*
X175693922Y-164320939D01*
X175693922Y-164320939D02*
X175789160Y-164273320D01*
X175789160Y-164273320D02*
X175979636Y-164273320D01*
X175979636Y-164273320D02*
X176074874Y-164320939D01*
X177312970Y-164939987D02*
X177312970Y-163939987D01*
X177312970Y-163939987D02*
X177693922Y-163939987D01*
X177693922Y-163939987D02*
X177789160Y-163987606D01*
X177789160Y-163987606D02*
X177836779Y-164035225D01*
X177836779Y-164035225D02*
X177884398Y-164130463D01*
X177884398Y-164130463D02*
X177884398Y-164273320D01*
X177884398Y-164273320D02*
X177836779Y-164368558D01*
X177836779Y-164368558D02*
X177789160Y-164416177D01*
X177789160Y-164416177D02*
X177693922Y-164463796D01*
X177693922Y-164463796D02*
X177312970Y-164463796D01*
X178884398Y-164844748D02*
X178836779Y-164892368D01*
X178836779Y-164892368D02*
X178693922Y-164939987D01*
X178693922Y-164939987D02*
X178598684Y-164939987D01*
X178598684Y-164939987D02*
X178455827Y-164892368D01*
X178455827Y-164892368D02*
X178360589Y-164797129D01*
X178360589Y-164797129D02*
X178312970Y-164701891D01*
X178312970Y-164701891D02*
X178265351Y-164511415D01*
X178265351Y-164511415D02*
X178265351Y-164368558D01*
X178265351Y-164368558D02*
X178312970Y-164178082D01*
X178312970Y-164178082D02*
X178360589Y-164082844D01*
X178360589Y-164082844D02*
X178455827Y-163987606D01*
X178455827Y-163987606D02*
X178598684Y-163939987D01*
X178598684Y-163939987D02*
X178693922Y-163939987D01*
X178693922Y-163939987D02*
X178836779Y-163987606D01*
X178836779Y-163987606D02*
X178884398Y-164035225D01*
X179646303Y-164416177D02*
X179789160Y-164463796D01*
X179789160Y-164463796D02*
X179836779Y-164511415D01*
X179836779Y-164511415D02*
X179884398Y-164606653D01*
X179884398Y-164606653D02*
X179884398Y-164749510D01*
X179884398Y-164749510D02*
X179836779Y-164844748D01*
X179836779Y-164844748D02*
X179789160Y-164892368D01*
X179789160Y-164892368D02*
X179693922Y-164939987D01*
X179693922Y-164939987D02*
X179312970Y-164939987D01*
X179312970Y-164939987D02*
X179312970Y-163939987D01*
X179312970Y-163939987D02*
X179646303Y-163939987D01*
X179646303Y-163939987D02*
X179741541Y-163987606D01*
X179741541Y-163987606D02*
X179789160Y-164035225D01*
X179789160Y-164035225D02*
X179836779Y-164130463D01*
X179836779Y-164130463D02*
X179836779Y-164225701D01*
X179836779Y-164225701D02*
X179789160Y-164320939D01*
X179789160Y-164320939D02*
X179741541Y-164368558D01*
X179741541Y-164368558D02*
X179646303Y-164416177D01*
X179646303Y-164416177D02*
X179312970Y-164416177D01*
X180312970Y-164559034D02*
X181074875Y-164559034D01*
X182122493Y-164844748D02*
X182074874Y-164892368D01*
X182074874Y-164892368D02*
X181932017Y-164939987D01*
X181932017Y-164939987D02*
X181836779Y-164939987D01*
X181836779Y-164939987D02*
X181693922Y-164892368D01*
X181693922Y-164892368D02*
X181598684Y-164797129D01*
X181598684Y-164797129D02*
X181551065Y-164701891D01*
X181551065Y-164701891D02*
X181503446Y-164511415D01*
X181503446Y-164511415D02*
X181503446Y-164368558D01*
X181503446Y-164368558D02*
X181551065Y-164178082D01*
X181551065Y-164178082D02*
X181598684Y-164082844D01*
X181598684Y-164082844D02*
X181693922Y-163987606D01*
X181693922Y-163987606D02*
X181836779Y-163939987D01*
X181836779Y-163939987D02*
X181932017Y-163939987D01*
X181932017Y-163939987D02*
X182074874Y-163987606D01*
X182074874Y-163987606D02*
X182122493Y-164035225D01*
X182551065Y-164939987D02*
X182551065Y-163939987D01*
X182979636Y-164939987D02*
X182979636Y-164416177D01*
X182979636Y-164416177D02*
X182932017Y-164320939D01*
X182932017Y-164320939D02*
X182836779Y-164273320D01*
X182836779Y-164273320D02*
X182693922Y-164273320D01*
X182693922Y-164273320D02*
X182598684Y-164320939D01*
X182598684Y-164320939D02*
X182551065Y-164368558D01*
X183884398Y-164939987D02*
X183884398Y-164416177D01*
X183884398Y-164416177D02*
X183836779Y-164320939D01*
X183836779Y-164320939D02*
X183741541Y-164273320D01*
X183741541Y-164273320D02*
X183551065Y-164273320D01*
X183551065Y-164273320D02*
X183455827Y-164320939D01*
X183884398Y-164892368D02*
X183789160Y-164939987D01*
X183789160Y-164939987D02*
X183551065Y-164939987D01*
X183551065Y-164939987D02*
X183455827Y-164892368D01*
X183455827Y-164892368D02*
X183408208Y-164797129D01*
X183408208Y-164797129D02*
X183408208Y-164701891D01*
X183408208Y-164701891D02*
X183455827Y-164606653D01*
X183455827Y-164606653D02*
X183551065Y-164559034D01*
X183551065Y-164559034D02*
X183789160Y-164559034D01*
X183789160Y-164559034D02*
X183884398Y-164511415D01*
X184360589Y-164939987D02*
X184360589Y-164273320D01*
X184360589Y-164463796D02*
X184408208Y-164368558D01*
X184408208Y-164368558D02*
X184455827Y-164320939D01*
X184455827Y-164320939D02*
X184551065Y-164273320D01*
X184551065Y-164273320D02*
X184646303Y-164273320D01*
X185408208Y-164273320D02*
X185408208Y-165082844D01*
X185408208Y-165082844D02*
X185360589Y-165178082D01*
X185360589Y-165178082D02*
X185312970Y-165225701D01*
X185312970Y-165225701D02*
X185217732Y-165273320D01*
X185217732Y-165273320D02*
X185074875Y-165273320D01*
X185074875Y-165273320D02*
X184979637Y-165225701D01*
X185408208Y-164892368D02*
X185312970Y-164939987D01*
X185312970Y-164939987D02*
X185122494Y-164939987D01*
X185122494Y-164939987D02*
X185027256Y-164892368D01*
X185027256Y-164892368D02*
X184979637Y-164844748D01*
X184979637Y-164844748D02*
X184932018Y-164749510D01*
X184932018Y-164749510D02*
X184932018Y-164463796D01*
X184932018Y-164463796D02*
X184979637Y-164368558D01*
X184979637Y-164368558D02*
X185027256Y-164320939D01*
X185027256Y-164320939D02*
X185122494Y-164273320D01*
X185122494Y-164273320D02*
X185312970Y-164273320D01*
X185312970Y-164273320D02*
X185408208Y-164320939D01*
X186265351Y-164892368D02*
X186170113Y-164939987D01*
X186170113Y-164939987D02*
X185979637Y-164939987D01*
X185979637Y-164939987D02*
X185884399Y-164892368D01*
X185884399Y-164892368D02*
X185836780Y-164797129D01*
X185836780Y-164797129D02*
X185836780Y-164416177D01*
X185836780Y-164416177D02*
X185884399Y-164320939D01*
X185884399Y-164320939D02*
X185979637Y-164273320D01*
X185979637Y-164273320D02*
X186170113Y-164273320D01*
X186170113Y-164273320D02*
X186265351Y-164320939D01*
X186265351Y-164320939D02*
X186312970Y-164416177D01*
X186312970Y-164416177D02*
X186312970Y-164511415D01*
X186312970Y-164511415D02*
X185836780Y-164606653D01*
X186741542Y-164939987D02*
X186741542Y-164273320D01*
X186741542Y-164463796D02*
X186789161Y-164368558D01*
X186789161Y-164368558D02*
X186836780Y-164320939D01*
X186836780Y-164320939D02*
X186932018Y-164273320D01*
X186932018Y-164273320D02*
X187027256Y-164273320D01*
X188122495Y-164939987D02*
X188122495Y-163939987D01*
X188122495Y-163939987D02*
X188455828Y-164654272D01*
X188455828Y-164654272D02*
X188789161Y-163939987D01*
X188789161Y-163939987D02*
X188789161Y-164939987D01*
X189265352Y-164939987D02*
X189265352Y-163939987D01*
X189360590Y-164559034D02*
X189646304Y-164939987D01*
X189646304Y-164273320D02*
X189265352Y-164654272D01*
X190074876Y-164844748D02*
X190122495Y-164892368D01*
X190122495Y-164892368D02*
X190074876Y-164939987D01*
X190074876Y-164939987D02*
X190027257Y-164892368D01*
X190027257Y-164892368D02*
X190074876Y-164844748D01*
X190074876Y-164844748D02*
X190074876Y-164939987D01*
X190503447Y-164035225D02*
X190551066Y-163987606D01*
X190551066Y-163987606D02*
X190646304Y-163939987D01*
X190646304Y-163939987D02*
X190884399Y-163939987D01*
X190884399Y-163939987D02*
X190979637Y-163987606D01*
X190979637Y-163987606D02*
X191027256Y-164035225D01*
X191027256Y-164035225D02*
X191074875Y-164130463D01*
X191074875Y-164130463D02*
X191074875Y-164225701D01*
X191074875Y-164225701D02*
X191027256Y-164368558D01*
X191027256Y-164368558D02*
X190455828Y-164939987D01*
X190455828Y-164939987D02*
X191074875Y-164939987D01*
X167027255Y-165549931D02*
X167217731Y-165549931D01*
X167217731Y-165549931D02*
X167312969Y-165597550D01*
X167312969Y-165597550D02*
X167408207Y-165692788D01*
X167408207Y-165692788D02*
X167455826Y-165883264D01*
X167455826Y-165883264D02*
X167455826Y-166216597D01*
X167455826Y-166216597D02*
X167408207Y-166407073D01*
X167408207Y-166407073D02*
X167312969Y-166502312D01*
X167312969Y-166502312D02*
X167217731Y-166549931D01*
X167217731Y-166549931D02*
X167027255Y-166549931D01*
X167027255Y-166549931D02*
X166932017Y-166502312D01*
X166932017Y-166502312D02*
X166836779Y-166407073D01*
X166836779Y-166407073D02*
X166789160Y-166216597D01*
X166789160Y-166216597D02*
X166789160Y-165883264D01*
X166789160Y-165883264D02*
X166836779Y-165692788D01*
X166836779Y-165692788D02*
X166932017Y-165597550D01*
X166932017Y-165597550D02*
X167027255Y-165549931D01*
X167884398Y-166549931D02*
X167884398Y-165883264D01*
X167884398Y-166073740D02*
X167932017Y-165978502D01*
X167932017Y-165978502D02*
X167979636Y-165930883D01*
X167979636Y-165930883D02*
X168074874Y-165883264D01*
X168074874Y-165883264D02*
X168170112Y-165883264D01*
X168884398Y-166502312D02*
X168789160Y-166549931D01*
X168789160Y-166549931D02*
X168598684Y-166549931D01*
X168598684Y-166549931D02*
X168503446Y-166502312D01*
X168503446Y-166502312D02*
X168455827Y-166407073D01*
X168455827Y-166407073D02*
X168455827Y-166026121D01*
X168455827Y-166026121D02*
X168503446Y-165930883D01*
X168503446Y-165930883D02*
X168598684Y-165883264D01*
X168598684Y-165883264D02*
X168789160Y-165883264D01*
X168789160Y-165883264D02*
X168884398Y-165930883D01*
X168884398Y-165930883D02*
X168932017Y-166026121D01*
X168932017Y-166026121D02*
X168932017Y-166121359D01*
X168932017Y-166121359D02*
X168455827Y-166216597D01*
X169789160Y-165883264D02*
X169789160Y-166692788D01*
X169789160Y-166692788D02*
X169741541Y-166788026D01*
X169741541Y-166788026D02*
X169693922Y-166835645D01*
X169693922Y-166835645D02*
X169598684Y-166883264D01*
X169598684Y-166883264D02*
X169455827Y-166883264D01*
X169455827Y-166883264D02*
X169360589Y-166835645D01*
X169789160Y-166502312D02*
X169693922Y-166549931D01*
X169693922Y-166549931D02*
X169503446Y-166549931D01*
X169503446Y-166549931D02*
X169408208Y-166502312D01*
X169408208Y-166502312D02*
X169360589Y-166454692D01*
X169360589Y-166454692D02*
X169312970Y-166359454D01*
X169312970Y-166359454D02*
X169312970Y-166073740D01*
X169312970Y-166073740D02*
X169360589Y-165978502D01*
X169360589Y-165978502D02*
X169408208Y-165930883D01*
X169408208Y-165930883D02*
X169503446Y-165883264D01*
X169503446Y-165883264D02*
X169693922Y-165883264D01*
X169693922Y-165883264D02*
X169789160Y-165930883D01*
X170408208Y-166549931D02*
X170312970Y-166502312D01*
X170312970Y-166502312D02*
X170265351Y-166454692D01*
X170265351Y-166454692D02*
X170217732Y-166359454D01*
X170217732Y-166359454D02*
X170217732Y-166073740D01*
X170217732Y-166073740D02*
X170265351Y-165978502D01*
X170265351Y-165978502D02*
X170312970Y-165930883D01*
X170312970Y-165930883D02*
X170408208Y-165883264D01*
X170408208Y-165883264D02*
X170551065Y-165883264D01*
X170551065Y-165883264D02*
X170646303Y-165930883D01*
X170646303Y-165930883D02*
X170693922Y-165978502D01*
X170693922Y-165978502D02*
X170741541Y-166073740D01*
X170741541Y-166073740D02*
X170741541Y-166359454D01*
X170741541Y-166359454D02*
X170693922Y-166454692D01*
X170693922Y-166454692D02*
X170646303Y-166502312D01*
X170646303Y-166502312D02*
X170551065Y-166549931D01*
X170551065Y-166549931D02*
X170408208Y-166549931D01*
X171170113Y-165883264D02*
X171170113Y-166549931D01*
X171170113Y-165978502D02*
X171217732Y-165930883D01*
X171217732Y-165930883D02*
X171312970Y-165883264D01*
X171312970Y-165883264D02*
X171455827Y-165883264D01*
X171455827Y-165883264D02*
X171551065Y-165930883D01*
X171551065Y-165930883D02*
X171598684Y-166026121D01*
X171598684Y-166026121D02*
X171598684Y-166549931D01*
X172789161Y-166502312D02*
X172932018Y-166549931D01*
X172932018Y-166549931D02*
X173170113Y-166549931D01*
X173170113Y-166549931D02*
X173265351Y-166502312D01*
X173265351Y-166502312D02*
X173312970Y-166454692D01*
X173312970Y-166454692D02*
X173360589Y-166359454D01*
X173360589Y-166359454D02*
X173360589Y-166264216D01*
X173360589Y-166264216D02*
X173312970Y-166168978D01*
X173312970Y-166168978D02*
X173265351Y-166121359D01*
X173265351Y-166121359D02*
X173170113Y-166073740D01*
X173170113Y-166073740D02*
X172979637Y-166026121D01*
X172979637Y-166026121D02*
X172884399Y-165978502D01*
X172884399Y-165978502D02*
X172836780Y-165930883D01*
X172836780Y-165930883D02*
X172789161Y-165835645D01*
X172789161Y-165835645D02*
X172789161Y-165740407D01*
X172789161Y-165740407D02*
X172836780Y-165645169D01*
X172836780Y-165645169D02*
X172884399Y-165597550D01*
X172884399Y-165597550D02*
X172979637Y-165549931D01*
X172979637Y-165549931D02*
X173217732Y-165549931D01*
X173217732Y-165549931D02*
X173360589Y-165597550D01*
X173646304Y-165883264D02*
X174027256Y-165883264D01*
X173789161Y-165549931D02*
X173789161Y-166407073D01*
X173789161Y-166407073D02*
X173836780Y-166502312D01*
X173836780Y-166502312D02*
X173932018Y-166549931D01*
X173932018Y-166549931D02*
X174027256Y-166549931D01*
X174789161Y-166549931D02*
X174789161Y-166026121D01*
X174789161Y-166026121D02*
X174741542Y-165930883D01*
X174741542Y-165930883D02*
X174646304Y-165883264D01*
X174646304Y-165883264D02*
X174455828Y-165883264D01*
X174455828Y-165883264D02*
X174360590Y-165930883D01*
X174789161Y-166502312D02*
X174693923Y-166549931D01*
X174693923Y-166549931D02*
X174455828Y-166549931D01*
X174455828Y-166549931D02*
X174360590Y-166502312D01*
X174360590Y-166502312D02*
X174312971Y-166407073D01*
X174312971Y-166407073D02*
X174312971Y-166311835D01*
X174312971Y-166311835D02*
X174360590Y-166216597D01*
X174360590Y-166216597D02*
X174455828Y-166168978D01*
X174455828Y-166168978D02*
X174693923Y-166168978D01*
X174693923Y-166168978D02*
X174789161Y-166121359D01*
X175122495Y-165883264D02*
X175503447Y-165883264D01*
X175265352Y-165549931D02*
X175265352Y-166407073D01*
X175265352Y-166407073D02*
X175312971Y-166502312D01*
X175312971Y-166502312D02*
X175408209Y-166549931D01*
X175408209Y-166549931D02*
X175503447Y-166549931D01*
X176217733Y-166502312D02*
X176122495Y-166549931D01*
X176122495Y-166549931D02*
X175932019Y-166549931D01*
X175932019Y-166549931D02*
X175836781Y-166502312D01*
X175836781Y-166502312D02*
X175789162Y-166407073D01*
X175789162Y-166407073D02*
X175789162Y-166026121D01*
X175789162Y-166026121D02*
X175836781Y-165930883D01*
X175836781Y-165930883D02*
X175932019Y-165883264D01*
X175932019Y-165883264D02*
X176122495Y-165883264D01*
X176122495Y-165883264D02*
X176217733Y-165930883D01*
X176217733Y-165930883D02*
X176265352Y-166026121D01*
X176265352Y-166026121D02*
X176265352Y-166121359D01*
X176265352Y-166121359D02*
X175789162Y-166216597D01*
X177455829Y-165549931D02*
X177455829Y-166359454D01*
X177455829Y-166359454D02*
X177503448Y-166454692D01*
X177503448Y-166454692D02*
X177551067Y-166502312D01*
X177551067Y-166502312D02*
X177646305Y-166549931D01*
X177646305Y-166549931D02*
X177836781Y-166549931D01*
X177836781Y-166549931D02*
X177932019Y-166502312D01*
X177932019Y-166502312D02*
X177979638Y-166454692D01*
X177979638Y-166454692D02*
X178027257Y-166359454D01*
X178027257Y-166359454D02*
X178027257Y-165549931D01*
X178503448Y-165883264D02*
X178503448Y-166549931D01*
X178503448Y-165978502D02*
X178551067Y-165930883D01*
X178551067Y-165930883D02*
X178646305Y-165883264D01*
X178646305Y-165883264D02*
X178789162Y-165883264D01*
X178789162Y-165883264D02*
X178884400Y-165930883D01*
X178884400Y-165930883D02*
X178932019Y-166026121D01*
X178932019Y-166026121D02*
X178932019Y-166549931D01*
X179408210Y-166549931D02*
X179408210Y-165883264D01*
X179408210Y-165549931D02*
X179360591Y-165597550D01*
X179360591Y-165597550D02*
X179408210Y-165645169D01*
X179408210Y-165645169D02*
X179455829Y-165597550D01*
X179455829Y-165597550D02*
X179408210Y-165549931D01*
X179408210Y-165549931D02*
X179408210Y-165645169D01*
X179789162Y-165883264D02*
X180027257Y-166549931D01*
X180027257Y-166549931D02*
X180265352Y-165883264D01*
X181027257Y-166502312D02*
X180932019Y-166549931D01*
X180932019Y-166549931D02*
X180741543Y-166549931D01*
X180741543Y-166549931D02*
X180646305Y-166502312D01*
X180646305Y-166502312D02*
X180598686Y-166407073D01*
X180598686Y-166407073D02*
X180598686Y-166026121D01*
X180598686Y-166026121D02*
X180646305Y-165930883D01*
X180646305Y-165930883D02*
X180741543Y-165883264D01*
X180741543Y-165883264D02*
X180932019Y-165883264D01*
X180932019Y-165883264D02*
X181027257Y-165930883D01*
X181027257Y-165930883D02*
X181074876Y-166026121D01*
X181074876Y-166026121D02*
X181074876Y-166121359D01*
X181074876Y-166121359D02*
X180598686Y-166216597D01*
X181503448Y-166549931D02*
X181503448Y-165883264D01*
X181503448Y-166073740D02*
X181551067Y-165978502D01*
X181551067Y-165978502D02*
X181598686Y-165930883D01*
X181598686Y-165930883D02*
X181693924Y-165883264D01*
X181693924Y-165883264D02*
X181789162Y-165883264D01*
X182074877Y-166502312D02*
X182170115Y-166549931D01*
X182170115Y-166549931D02*
X182360591Y-166549931D01*
X182360591Y-166549931D02*
X182455829Y-166502312D01*
X182455829Y-166502312D02*
X182503448Y-166407073D01*
X182503448Y-166407073D02*
X182503448Y-166359454D01*
X182503448Y-166359454D02*
X182455829Y-166264216D01*
X182455829Y-166264216D02*
X182360591Y-166216597D01*
X182360591Y-166216597D02*
X182217734Y-166216597D01*
X182217734Y-166216597D02*
X182122496Y-166168978D01*
X182122496Y-166168978D02*
X182074877Y-166073740D01*
X182074877Y-166073740D02*
X182074877Y-166026121D01*
X182074877Y-166026121D02*
X182122496Y-165930883D01*
X182122496Y-165930883D02*
X182217734Y-165883264D01*
X182217734Y-165883264D02*
X182360591Y-165883264D01*
X182360591Y-165883264D02*
X182455829Y-165930883D01*
X182932020Y-166549931D02*
X182932020Y-165883264D01*
X182932020Y-165549931D02*
X182884401Y-165597550D01*
X182884401Y-165597550D02*
X182932020Y-165645169D01*
X182932020Y-165645169D02*
X182979639Y-165597550D01*
X182979639Y-165597550D02*
X182932020Y-165549931D01*
X182932020Y-165549931D02*
X182932020Y-165645169D01*
X183265353Y-165883264D02*
X183646305Y-165883264D01*
X183408210Y-165549931D02*
X183408210Y-166407073D01*
X183408210Y-166407073D02*
X183455829Y-166502312D01*
X183455829Y-166502312D02*
X183551067Y-166549931D01*
X183551067Y-166549931D02*
X183646305Y-166549931D01*
X183884401Y-165883264D02*
X184122496Y-166549931D01*
X184360591Y-165883264D02*
X184122496Y-166549931D01*
X184122496Y-166549931D02*
X184027258Y-166788026D01*
X184027258Y-166788026D02*
X183979639Y-166835645D01*
X183979639Y-166835645D02*
X183884401Y-166883264D01*
X167408207Y-168064636D02*
X167360588Y-168112256D01*
X167360588Y-168112256D02*
X167217731Y-168159875D01*
X167217731Y-168159875D02*
X167122493Y-168159875D01*
X167122493Y-168159875D02*
X166979636Y-168112256D01*
X166979636Y-168112256D02*
X166884398Y-168017017D01*
X166884398Y-168017017D02*
X166836779Y-167921779D01*
X166836779Y-167921779D02*
X166789160Y-167731303D01*
X166789160Y-167731303D02*
X166789160Y-167588446D01*
X166789160Y-167588446D02*
X166836779Y-167397970D01*
X166836779Y-167397970D02*
X166884398Y-167302732D01*
X166884398Y-167302732D02*
X166979636Y-167207494D01*
X166979636Y-167207494D02*
X167122493Y-167159875D01*
X167122493Y-167159875D02*
X167217731Y-167159875D01*
X167217731Y-167159875D02*
X167360588Y-167207494D01*
X167360588Y-167207494D02*
X167408207Y-167255113D01*
X167836779Y-168159875D02*
X167836779Y-167493208D01*
X167836779Y-167159875D02*
X167789160Y-167207494D01*
X167789160Y-167207494D02*
X167836779Y-167255113D01*
X167836779Y-167255113D02*
X167884398Y-167207494D01*
X167884398Y-167207494D02*
X167836779Y-167159875D01*
X167836779Y-167159875D02*
X167836779Y-167255113D01*
X168741540Y-168159875D02*
X168741540Y-167636065D01*
X168741540Y-167636065D02*
X168693921Y-167540827D01*
X168693921Y-167540827D02*
X168598683Y-167493208D01*
X168598683Y-167493208D02*
X168408207Y-167493208D01*
X168408207Y-167493208D02*
X168312969Y-167540827D01*
X168741540Y-168112256D02*
X168646302Y-168159875D01*
X168646302Y-168159875D02*
X168408207Y-168159875D01*
X168408207Y-168159875D02*
X168312969Y-168112256D01*
X168312969Y-168112256D02*
X168265350Y-168017017D01*
X168265350Y-168017017D02*
X168265350Y-167921779D01*
X168265350Y-167921779D02*
X168312969Y-167826541D01*
X168312969Y-167826541D02*
X168408207Y-167778922D01*
X168408207Y-167778922D02*
X168646302Y-167778922D01*
X168646302Y-167778922D02*
X168741540Y-167731303D01*
X169217731Y-168159875D02*
X169217731Y-167493208D01*
X169217731Y-167683684D02*
X169265350Y-167588446D01*
X169265350Y-167588446D02*
X169312969Y-167540827D01*
X169312969Y-167540827D02*
X169408207Y-167493208D01*
X169408207Y-167493208D02*
X169503445Y-167493208D01*
X170265350Y-168159875D02*
X170265350Y-167636065D01*
X170265350Y-167636065D02*
X170217731Y-167540827D01*
X170217731Y-167540827D02*
X170122493Y-167493208D01*
X170122493Y-167493208D02*
X169932017Y-167493208D01*
X169932017Y-167493208D02*
X169836779Y-167540827D01*
X170265350Y-168112256D02*
X170170112Y-168159875D01*
X170170112Y-168159875D02*
X169932017Y-168159875D01*
X169932017Y-168159875D02*
X169836779Y-168112256D01*
X169836779Y-168112256D02*
X169789160Y-168017017D01*
X169789160Y-168017017D02*
X169789160Y-167921779D01*
X169789160Y-167921779D02*
X169836779Y-167826541D01*
X169836779Y-167826541D02*
X169932017Y-167778922D01*
X169932017Y-167778922D02*
X170170112Y-167778922D01*
X170170112Y-167778922D02*
X170265350Y-167731303D01*
X170741541Y-167493208D02*
X170741541Y-168159875D01*
X170741541Y-167588446D02*
X170789160Y-167540827D01*
X170789160Y-167540827D02*
X170884398Y-167493208D01*
X170884398Y-167493208D02*
X171027255Y-167493208D01*
X171027255Y-167493208D02*
X171122493Y-167540827D01*
X171122493Y-167540827D02*
X171170112Y-167636065D01*
X171170112Y-167636065D02*
X171170112Y-168159875D01*
X171693922Y-168112256D02*
X171693922Y-168159875D01*
X171693922Y-168159875D02*
X171646303Y-168255113D01*
X171646303Y-168255113D02*
X171598684Y-168302732D01*
X172884398Y-167636065D02*
X173217731Y-167636065D01*
X173360588Y-168159875D02*
X172884398Y-168159875D01*
X172884398Y-168159875D02*
X172884398Y-167159875D01*
X172884398Y-167159875D02*
X173360588Y-167159875D01*
X174217731Y-168159875D02*
X174217731Y-167159875D01*
X174217731Y-168112256D02*
X174122493Y-168159875D01*
X174122493Y-168159875D02*
X173932017Y-168159875D01*
X173932017Y-168159875D02*
X173836779Y-168112256D01*
X173836779Y-168112256D02*
X173789160Y-168064636D01*
X173789160Y-168064636D02*
X173741541Y-167969398D01*
X173741541Y-167969398D02*
X173741541Y-167683684D01*
X173741541Y-167683684D02*
X173789160Y-167588446D01*
X173789160Y-167588446D02*
X173836779Y-167540827D01*
X173836779Y-167540827D02*
X173932017Y-167493208D01*
X173932017Y-167493208D02*
X174122493Y-167493208D01*
X174122493Y-167493208D02*
X174217731Y-167540827D01*
X175122493Y-168159875D02*
X175122493Y-167159875D01*
X175122493Y-168112256D02*
X175027255Y-168159875D01*
X175027255Y-168159875D02*
X174836779Y-168159875D01*
X174836779Y-168159875D02*
X174741541Y-168112256D01*
X174741541Y-168112256D02*
X174693922Y-168064636D01*
X174693922Y-168064636D02*
X174646303Y-167969398D01*
X174646303Y-167969398D02*
X174646303Y-167683684D01*
X174646303Y-167683684D02*
X174693922Y-167588446D01*
X174693922Y-167588446D02*
X174741541Y-167540827D01*
X174741541Y-167540827D02*
X174836779Y-167493208D01*
X174836779Y-167493208D02*
X175027255Y-167493208D01*
X175027255Y-167493208D02*
X175122493Y-167540827D01*
X175598684Y-168159875D02*
X175598684Y-167493208D01*
X175598684Y-167159875D02*
X175551065Y-167207494D01*
X175551065Y-167207494D02*
X175598684Y-167255113D01*
X175598684Y-167255113D02*
X175646303Y-167207494D01*
X175646303Y-167207494D02*
X175598684Y-167159875D01*
X175598684Y-167159875D02*
X175598684Y-167255113D01*
X176455826Y-168112256D02*
X176360588Y-168159875D01*
X176360588Y-168159875D02*
X176170112Y-168159875D01*
X176170112Y-168159875D02*
X176074874Y-168112256D01*
X176074874Y-168112256D02*
X176027255Y-168017017D01*
X176027255Y-168017017D02*
X176027255Y-167636065D01*
X176027255Y-167636065D02*
X176074874Y-167540827D01*
X176074874Y-167540827D02*
X176170112Y-167493208D01*
X176170112Y-167493208D02*
X176360588Y-167493208D01*
X176360588Y-167493208D02*
X176455826Y-167540827D01*
X176455826Y-167540827D02*
X176503445Y-167636065D01*
X176503445Y-167636065D02*
X176503445Y-167731303D01*
X176503445Y-167731303D02*
X176027255Y-167826541D01*
X176979636Y-168112256D02*
X176979636Y-168159875D01*
X176979636Y-168159875D02*
X176932017Y-168255113D01*
X176932017Y-168255113D02*
X176884398Y-168302732D01*
X178741540Y-168064636D02*
X178693921Y-168112256D01*
X178693921Y-168112256D02*
X178551064Y-168159875D01*
X178551064Y-168159875D02*
X178455826Y-168159875D01*
X178455826Y-168159875D02*
X178312969Y-168112256D01*
X178312969Y-168112256D02*
X178217731Y-168017017D01*
X178217731Y-168017017D02*
X178170112Y-167921779D01*
X178170112Y-167921779D02*
X178122493Y-167731303D01*
X178122493Y-167731303D02*
X178122493Y-167588446D01*
X178122493Y-167588446D02*
X178170112Y-167397970D01*
X178170112Y-167397970D02*
X178217731Y-167302732D01*
X178217731Y-167302732D02*
X178312969Y-167207494D01*
X178312969Y-167207494D02*
X178455826Y-167159875D01*
X178455826Y-167159875D02*
X178551064Y-167159875D01*
X178551064Y-167159875D02*
X178693921Y-167207494D01*
X178693921Y-167207494D02*
X178741540Y-167255113D01*
X179598683Y-168159875D02*
X179598683Y-167636065D01*
X179598683Y-167636065D02*
X179551064Y-167540827D01*
X179551064Y-167540827D02*
X179455826Y-167493208D01*
X179455826Y-167493208D02*
X179265350Y-167493208D01*
X179265350Y-167493208D02*
X179170112Y-167540827D01*
X179598683Y-168112256D02*
X179503445Y-168159875D01*
X179503445Y-168159875D02*
X179265350Y-168159875D01*
X179265350Y-168159875D02*
X179170112Y-168112256D01*
X179170112Y-168112256D02*
X179122493Y-168017017D01*
X179122493Y-168017017D02*
X179122493Y-167921779D01*
X179122493Y-167921779D02*
X179170112Y-167826541D01*
X179170112Y-167826541D02*
X179265350Y-167778922D01*
X179265350Y-167778922D02*
X179503445Y-167778922D01*
X179503445Y-167778922D02*
X179598683Y-167731303D01*
X180074874Y-168159875D02*
X180074874Y-167493208D01*
X180074874Y-167683684D02*
X180122493Y-167588446D01*
X180122493Y-167588446D02*
X180170112Y-167540827D01*
X180170112Y-167540827D02*
X180265350Y-167493208D01*
X180265350Y-167493208D02*
X180360588Y-167493208D01*
X180551065Y-167493208D02*
X180932017Y-167493208D01*
X180693922Y-167159875D02*
X180693922Y-168017017D01*
X180693922Y-168017017D02*
X180741541Y-168112256D01*
X180741541Y-168112256D02*
X180836779Y-168159875D01*
X180836779Y-168159875D02*
X180932017Y-168159875D01*
X181646303Y-168112256D02*
X181551065Y-168159875D01*
X181551065Y-168159875D02*
X181360589Y-168159875D01*
X181360589Y-168159875D02*
X181265351Y-168112256D01*
X181265351Y-168112256D02*
X181217732Y-168017017D01*
X181217732Y-168017017D02*
X181217732Y-167636065D01*
X181217732Y-167636065D02*
X181265351Y-167540827D01*
X181265351Y-167540827D02*
X181360589Y-167493208D01*
X181360589Y-167493208D02*
X181551065Y-167493208D01*
X181551065Y-167493208D02*
X181646303Y-167540827D01*
X181646303Y-167540827D02*
X181693922Y-167636065D01*
X181693922Y-167636065D02*
X181693922Y-167731303D01*
X181693922Y-167731303D02*
X181217732Y-167826541D01*
X182122494Y-168159875D02*
X182122494Y-167493208D01*
X182122494Y-167683684D02*
X182170113Y-167588446D01*
X182170113Y-167588446D02*
X182217732Y-167540827D01*
X182217732Y-167540827D02*
X182312970Y-167493208D01*
X182312970Y-167493208D02*
X182408208Y-167493208D01*
X182789161Y-168112256D02*
X182789161Y-168159875D01*
X182789161Y-168159875D02*
X182741542Y-168255113D01*
X182741542Y-168255113D02*
X182693923Y-168302732D01*
X183932018Y-167874160D02*
X184408208Y-167874160D01*
X183836780Y-168159875D02*
X184170113Y-167159875D01*
X184170113Y-167159875D02*
X184503446Y-168159875D01*
X184741542Y-167493208D02*
X184979637Y-168159875D01*
X184979637Y-168159875D02*
X185217732Y-167493208D01*
X186027256Y-168159875D02*
X186027256Y-167636065D01*
X186027256Y-167636065D02*
X185979637Y-167540827D01*
X185979637Y-167540827D02*
X185884399Y-167493208D01*
X185884399Y-167493208D02*
X185693923Y-167493208D01*
X185693923Y-167493208D02*
X185598685Y-167540827D01*
X186027256Y-168112256D02*
X185932018Y-168159875D01*
X185932018Y-168159875D02*
X185693923Y-168159875D01*
X185693923Y-168159875D02*
X185598685Y-168112256D01*
X185598685Y-168112256D02*
X185551066Y-168017017D01*
X185551066Y-168017017D02*
X185551066Y-167921779D01*
X185551066Y-167921779D02*
X185598685Y-167826541D01*
X185598685Y-167826541D02*
X185693923Y-167778922D01*
X185693923Y-167778922D02*
X185932018Y-167778922D01*
X185932018Y-167778922D02*
X186027256Y-167731303D01*
X166789160Y-169484104D02*
X167265350Y-169484104D01*
X166693922Y-169769819D02*
X167027255Y-168769819D01*
X167027255Y-168769819D02*
X167360588Y-169769819D01*
X167693922Y-169103152D02*
X167693922Y-170103152D01*
X167693922Y-169150771D02*
X167789160Y-169103152D01*
X167789160Y-169103152D02*
X167979636Y-169103152D01*
X167979636Y-169103152D02*
X168074874Y-169150771D01*
X168074874Y-169150771D02*
X168122493Y-169198390D01*
X168122493Y-169198390D02*
X168170112Y-169293628D01*
X168170112Y-169293628D02*
X168170112Y-169579342D01*
X168170112Y-169579342D02*
X168122493Y-169674580D01*
X168122493Y-169674580D02*
X168074874Y-169722200D01*
X168074874Y-169722200D02*
X167979636Y-169769819D01*
X167979636Y-169769819D02*
X167789160Y-169769819D01*
X167789160Y-169769819D02*
X167693922Y-169722200D01*
X168598684Y-169769819D02*
X168598684Y-169103152D01*
X168598684Y-169293628D02*
X168646303Y-169198390D01*
X168646303Y-169198390D02*
X168693922Y-169150771D01*
X168693922Y-169150771D02*
X168789160Y-169103152D01*
X168789160Y-169103152D02*
X168884398Y-169103152D01*
X169217732Y-169769819D02*
X169217732Y-169103152D01*
X169217732Y-168769819D02*
X169170113Y-168817438D01*
X169170113Y-168817438D02*
X169217732Y-168865057D01*
X169217732Y-168865057D02*
X169265351Y-168817438D01*
X169265351Y-168817438D02*
X169217732Y-168769819D01*
X169217732Y-168769819D02*
X169217732Y-168865057D01*
X169836779Y-169769819D02*
X169741541Y-169722200D01*
X169741541Y-169722200D02*
X169693922Y-169626961D01*
X169693922Y-169626961D02*
X169693922Y-168769819D01*
X170932018Y-168865057D02*
X170979637Y-168817438D01*
X170979637Y-168817438D02*
X171074875Y-168769819D01*
X171074875Y-168769819D02*
X171312970Y-168769819D01*
X171312970Y-168769819D02*
X171408208Y-168817438D01*
X171408208Y-168817438D02*
X171455827Y-168865057D01*
X171455827Y-168865057D02*
X171503446Y-168960295D01*
X171503446Y-168960295D02*
X171503446Y-169055533D01*
X171503446Y-169055533D02*
X171455827Y-169198390D01*
X171455827Y-169198390D02*
X170884399Y-169769819D01*
X170884399Y-169769819D02*
X171503446Y-169769819D01*
X172360589Y-168769819D02*
X172170113Y-168769819D01*
X172170113Y-168769819D02*
X172074875Y-168817438D01*
X172074875Y-168817438D02*
X172027256Y-168865057D01*
X172027256Y-168865057D02*
X171932018Y-169007914D01*
X171932018Y-169007914D02*
X171884399Y-169198390D01*
X171884399Y-169198390D02*
X171884399Y-169579342D01*
X171884399Y-169579342D02*
X171932018Y-169674580D01*
X171932018Y-169674580D02*
X171979637Y-169722200D01*
X171979637Y-169722200D02*
X172074875Y-169769819D01*
X172074875Y-169769819D02*
X172265351Y-169769819D01*
X172265351Y-169769819D02*
X172360589Y-169722200D01*
X172360589Y-169722200D02*
X172408208Y-169674580D01*
X172408208Y-169674580D02*
X172455827Y-169579342D01*
X172455827Y-169579342D02*
X172455827Y-169341247D01*
X172455827Y-169341247D02*
X172408208Y-169246009D01*
X172408208Y-169246009D02*
X172360589Y-169198390D01*
X172360589Y-169198390D02*
X172265351Y-169150771D01*
X172265351Y-169150771D02*
X172074875Y-169150771D01*
X172074875Y-169150771D02*
X171979637Y-169198390D01*
X171979637Y-169198390D02*
X171932018Y-169246009D01*
X171932018Y-169246009D02*
X171884399Y-169341247D01*
X172741542Y-169103152D02*
X173122494Y-169103152D01*
X172884399Y-168769819D02*
X172884399Y-169626961D01*
X172884399Y-169626961D02*
X172932018Y-169722200D01*
X172932018Y-169722200D02*
X173027256Y-169769819D01*
X173027256Y-169769819D02*
X173122494Y-169769819D01*
X173455828Y-169769819D02*
X173455828Y-168769819D01*
X173884399Y-169769819D02*
X173884399Y-169246009D01*
X173884399Y-169246009D02*
X173836780Y-169150771D01*
X173836780Y-169150771D02*
X173741542Y-169103152D01*
X173741542Y-169103152D02*
X173598685Y-169103152D01*
X173598685Y-169103152D02*
X173503447Y-169150771D01*
X173503447Y-169150771D02*
X173455828Y-169198390D01*
X174408209Y-169722200D02*
X174408209Y-169769819D01*
X174408209Y-169769819D02*
X174360590Y-169865057D01*
X174360590Y-169865057D02*
X174312971Y-169912676D01*
X175551066Y-168865057D02*
X175598685Y-168817438D01*
X175598685Y-168817438D02*
X175693923Y-168769819D01*
X175693923Y-168769819D02*
X175932018Y-168769819D01*
X175932018Y-168769819D02*
X176027256Y-168817438D01*
X176027256Y-168817438D02*
X176074875Y-168865057D01*
X176074875Y-168865057D02*
X176122494Y-168960295D01*
X176122494Y-168960295D02*
X176122494Y-169055533D01*
X176122494Y-169055533D02*
X176074875Y-169198390D01*
X176074875Y-169198390D02*
X175503447Y-169769819D01*
X175503447Y-169769819D02*
X176122494Y-169769819D01*
X176741542Y-168769819D02*
X176836780Y-168769819D01*
X176836780Y-168769819D02*
X176932018Y-168817438D01*
X176932018Y-168817438D02*
X176979637Y-168865057D01*
X176979637Y-168865057D02*
X177027256Y-168960295D01*
X177027256Y-168960295D02*
X177074875Y-169150771D01*
X177074875Y-169150771D02*
X177074875Y-169388866D01*
X177074875Y-169388866D02*
X177027256Y-169579342D01*
X177027256Y-169579342D02*
X176979637Y-169674580D01*
X176979637Y-169674580D02*
X176932018Y-169722200D01*
X176932018Y-169722200D02*
X176836780Y-169769819D01*
X176836780Y-169769819D02*
X176741542Y-169769819D01*
X176741542Y-169769819D02*
X176646304Y-169722200D01*
X176646304Y-169722200D02*
X176598685Y-169674580D01*
X176598685Y-169674580D02*
X176551066Y-169579342D01*
X176551066Y-169579342D02*
X176503447Y-169388866D01*
X176503447Y-169388866D02*
X176503447Y-169150771D01*
X176503447Y-169150771D02*
X176551066Y-168960295D01*
X176551066Y-168960295D02*
X176598685Y-168865057D01*
X176598685Y-168865057D02*
X176646304Y-168817438D01*
X176646304Y-168817438D02*
X176741542Y-168769819D01*
X177455828Y-168865057D02*
X177503447Y-168817438D01*
X177503447Y-168817438D02*
X177598685Y-168769819D01*
X177598685Y-168769819D02*
X177836780Y-168769819D01*
X177836780Y-168769819D02*
X177932018Y-168817438D01*
X177932018Y-168817438D02*
X177979637Y-168865057D01*
X177979637Y-168865057D02*
X178027256Y-168960295D01*
X178027256Y-168960295D02*
X178027256Y-169055533D01*
X178027256Y-169055533D02*
X177979637Y-169198390D01*
X177979637Y-169198390D02*
X177408209Y-169769819D01*
X177408209Y-169769819D02*
X178027256Y-169769819D01*
X178884399Y-168769819D02*
X178693923Y-168769819D01*
X178693923Y-168769819D02*
X178598685Y-168817438D01*
X178598685Y-168817438D02*
X178551066Y-168865057D01*
X178551066Y-168865057D02*
X178455828Y-169007914D01*
X178455828Y-169007914D02*
X178408209Y-169198390D01*
X178408209Y-169198390D02*
X178408209Y-169579342D01*
X178408209Y-169579342D02*
X178455828Y-169674580D01*
X178455828Y-169674580D02*
X178503447Y-169722200D01*
X178503447Y-169722200D02*
X178598685Y-169769819D01*
X178598685Y-169769819D02*
X178789161Y-169769819D01*
X178789161Y-169769819D02*
X178884399Y-169722200D01*
X178884399Y-169722200D02*
X178932018Y-169674580D01*
X178932018Y-169674580D02*
X178979637Y-169579342D01*
X178979637Y-169579342D02*
X178979637Y-169341247D01*
X178979637Y-169341247D02*
X178932018Y-169246009D01*
X178932018Y-169246009D02*
X178884399Y-169198390D01*
X178884399Y-169198390D02*
X178789161Y-169150771D01*
X178789161Y-169150771D02*
X178598685Y-169150771D01*
X178598685Y-169150771D02*
X178503447Y-169198390D01*
X178503447Y-169198390D02*
X178455828Y-169246009D01*
X178455828Y-169246009D02*
X178408209Y-169341247D01*
D11*
X168904663Y-216642857D02*
X168428472Y-216976190D01*
X168904663Y-217214285D02*
X167904663Y-217214285D01*
X167904663Y-217214285D02*
X167904663Y-216833333D01*
X167904663Y-216833333D02*
X167952282Y-216738095D01*
X167952282Y-216738095D02*
X167999901Y-216690476D01*
X167999901Y-216690476D02*
X168095139Y-216642857D01*
X168095139Y-216642857D02*
X168237996Y-216642857D01*
X168237996Y-216642857D02*
X168333234Y-216690476D01*
X168333234Y-216690476D02*
X168380853Y-216738095D01*
X168380853Y-216738095D02*
X168428472Y-216833333D01*
X168428472Y-216833333D02*
X168428472Y-217214285D01*
X167904663Y-216309523D02*
X167904663Y-215690476D01*
X167904663Y-215690476D02*
X168285615Y-216023809D01*
X168285615Y-216023809D02*
X168285615Y-215880952D01*
X168285615Y-215880952D02*
X168333234Y-215785714D01*
X168333234Y-215785714D02*
X168380853Y-215738095D01*
X168380853Y-215738095D02*
X168476091Y-215690476D01*
X168476091Y-215690476D02*
X168714186Y-215690476D01*
X168714186Y-215690476D02*
X168809424Y-215738095D01*
X168809424Y-215738095D02*
X168857044Y-215785714D01*
X168857044Y-215785714D02*
X168904663Y-215880952D01*
X168904663Y-215880952D02*
X168904663Y-216166666D01*
X168904663Y-216166666D02*
X168857044Y-216261904D01*
X168857044Y-216261904D02*
X168809424Y-216309523D01*
X168904663Y-214738095D02*
X168904663Y-215309523D01*
X168904663Y-215023809D02*
X167904663Y-215023809D01*
X167904663Y-215023809D02*
X168047520Y-215119047D01*
X168047520Y-215119047D02*
X168142758Y-215214285D01*
X168142758Y-215214285D02*
X168190377Y-215309523D01*
X162557142Y-186354663D02*
X162223809Y-185878472D01*
X161985714Y-186354663D02*
X161985714Y-185354663D01*
X161985714Y-185354663D02*
X162366666Y-185354663D01*
X162366666Y-185354663D02*
X162461904Y-185402282D01*
X162461904Y-185402282D02*
X162509523Y-185449901D01*
X162509523Y-185449901D02*
X162557142Y-185545139D01*
X162557142Y-185545139D02*
X162557142Y-185687996D01*
X162557142Y-185687996D02*
X162509523Y-185783234D01*
X162509523Y-185783234D02*
X162461904Y-185830853D01*
X162461904Y-185830853D02*
X162366666Y-185878472D01*
X162366666Y-185878472D02*
X161985714Y-185878472D01*
X162890476Y-185354663D02*
X163509523Y-185354663D01*
X163509523Y-185354663D02*
X163176190Y-185735615D01*
X163176190Y-185735615D02*
X163319047Y-185735615D01*
X163319047Y-185735615D02*
X163414285Y-185783234D01*
X163414285Y-185783234D02*
X163461904Y-185830853D01*
X163461904Y-185830853D02*
X163509523Y-185926091D01*
X163509523Y-185926091D02*
X163509523Y-186164186D01*
X163509523Y-186164186D02*
X163461904Y-186259424D01*
X163461904Y-186259424D02*
X163414285Y-186307044D01*
X163414285Y-186307044D02*
X163319047Y-186354663D01*
X163319047Y-186354663D02*
X163033333Y-186354663D01*
X163033333Y-186354663D02*
X162938095Y-186307044D01*
X162938095Y-186307044D02*
X162890476Y-186259424D01*
X163985714Y-186354663D02*
X164176190Y-186354663D01*
X164176190Y-186354663D02*
X164271428Y-186307044D01*
X164271428Y-186307044D02*
X164319047Y-186259424D01*
X164319047Y-186259424D02*
X164414285Y-186116567D01*
X164414285Y-186116567D02*
X164461904Y-185926091D01*
X164461904Y-185926091D02*
X164461904Y-185545139D01*
X164461904Y-185545139D02*
X164414285Y-185449901D01*
X164414285Y-185449901D02*
X164366666Y-185402282D01*
X164366666Y-185402282D02*
X164271428Y-185354663D01*
X164271428Y-185354663D02*
X164080952Y-185354663D01*
X164080952Y-185354663D02*
X163985714Y-185402282D01*
X163985714Y-185402282D02*
X163938095Y-185449901D01*
X163938095Y-185449901D02*
X163890476Y-185545139D01*
X163890476Y-185545139D02*
X163890476Y-185783234D01*
X163890476Y-185783234D02*
X163938095Y-185878472D01*
X163938095Y-185878472D02*
X163985714Y-185926091D01*
X163985714Y-185926091D02*
X164080952Y-185973710D01*
X164080952Y-185973710D02*
X164271428Y-185973710D01*
X164271428Y-185973710D02*
X164366666Y-185926091D01*
X164366666Y-185926091D02*
X164414285Y-185878472D01*
X164414285Y-185878472D02*
X164461904Y-185783234D01*
X142390476Y-223604663D02*
X142390476Y-224318948D01*
X142390476Y-224318948D02*
X142342857Y-224461805D01*
X142342857Y-224461805D02*
X142247619Y-224557044D01*
X142247619Y-224557044D02*
X142104762Y-224604663D01*
X142104762Y-224604663D02*
X142009524Y-224604663D01*
X143390476Y-224604663D02*
X142819048Y-224604663D01*
X143104762Y-224604663D02*
X143104762Y-223604663D01*
X143104762Y-223604663D02*
X143009524Y-223747520D01*
X143009524Y-223747520D02*
X142914286Y-223842758D01*
X142914286Y-223842758D02*
X142819048Y-223890377D01*
X144247619Y-223604663D02*
X144057143Y-223604663D01*
X144057143Y-223604663D02*
X143961905Y-223652282D01*
X143961905Y-223652282D02*
X143914286Y-223699901D01*
X143914286Y-223699901D02*
X143819048Y-223842758D01*
X143819048Y-223842758D02*
X143771429Y-224033234D01*
X143771429Y-224033234D02*
X143771429Y-224414186D01*
X143771429Y-224414186D02*
X143819048Y-224509424D01*
X143819048Y-224509424D02*
X143866667Y-224557044D01*
X143866667Y-224557044D02*
X143961905Y-224604663D01*
X143961905Y-224604663D02*
X144152381Y-224604663D01*
X144152381Y-224604663D02*
X144247619Y-224557044D01*
X144247619Y-224557044D02*
X144295238Y-224509424D01*
X144295238Y-224509424D02*
X144342857Y-224414186D01*
X144342857Y-224414186D02*
X144342857Y-224176091D01*
X144342857Y-224176091D02*
X144295238Y-224080853D01*
X144295238Y-224080853D02*
X144247619Y-224033234D01*
X144247619Y-224033234D02*
X144152381Y-223985615D01*
X144152381Y-223985615D02*
X143961905Y-223985615D01*
X143961905Y-223985615D02*
X143866667Y-224033234D01*
X143866667Y-224033234D02*
X143819048Y-224080853D01*
X143819048Y-224080853D02*
X143771429Y-224176091D01*
D10*
X141630952Y-232123866D02*
X142392857Y-232123866D01*
X142011904Y-232504819D02*
X142011904Y-231742914D01*
X143202380Y-231981009D02*
X143345237Y-232028628D01*
X143345237Y-232028628D02*
X143392856Y-232076247D01*
X143392856Y-232076247D02*
X143440475Y-232171485D01*
X143440475Y-232171485D02*
X143440475Y-232314342D01*
X143440475Y-232314342D02*
X143392856Y-232409580D01*
X143392856Y-232409580D02*
X143345237Y-232457200D01*
X143345237Y-232457200D02*
X143249999Y-232504819D01*
X143249999Y-232504819D02*
X142869047Y-232504819D01*
X142869047Y-232504819D02*
X142869047Y-231504819D01*
X142869047Y-231504819D02*
X143202380Y-231504819D01*
X143202380Y-231504819D02*
X143297618Y-231552438D01*
X143297618Y-231552438D02*
X143345237Y-231600057D01*
X143345237Y-231600057D02*
X143392856Y-231695295D01*
X143392856Y-231695295D02*
X143392856Y-231790533D01*
X143392856Y-231790533D02*
X143345237Y-231885771D01*
X143345237Y-231885771D02*
X143297618Y-231933390D01*
X143297618Y-231933390D02*
X143202380Y-231981009D01*
X143202380Y-231981009D02*
X142869047Y-231981009D01*
X144297618Y-232504819D02*
X144297618Y-231981009D01*
X144297618Y-231981009D02*
X144249999Y-231885771D01*
X144249999Y-231885771D02*
X144154761Y-231838152D01*
X144154761Y-231838152D02*
X143964285Y-231838152D01*
X143964285Y-231838152D02*
X143869047Y-231885771D01*
X144297618Y-232457200D02*
X144202380Y-232504819D01*
X144202380Y-232504819D02*
X143964285Y-232504819D01*
X143964285Y-232504819D02*
X143869047Y-232457200D01*
X143869047Y-232457200D02*
X143821428Y-232361961D01*
X143821428Y-232361961D02*
X143821428Y-232266723D01*
X143821428Y-232266723D02*
X143869047Y-232171485D01*
X143869047Y-232171485D02*
X143964285Y-232123866D01*
X143964285Y-232123866D02*
X144202380Y-232123866D01*
X144202380Y-232123866D02*
X144297618Y-232076247D01*
X144630952Y-231838152D02*
X145011904Y-231838152D01*
X144773809Y-231504819D02*
X144773809Y-232361961D01*
X144773809Y-232361961D02*
X144821428Y-232457200D01*
X144821428Y-232457200D02*
X144916666Y-232504819D01*
X144916666Y-232504819D02*
X145011904Y-232504819D01*
D11*
X173459424Y-205142857D02*
X173507044Y-205190476D01*
X173507044Y-205190476D02*
X173554663Y-205333333D01*
X173554663Y-205333333D02*
X173554663Y-205428571D01*
X173554663Y-205428571D02*
X173507044Y-205571428D01*
X173507044Y-205571428D02*
X173411805Y-205666666D01*
X173411805Y-205666666D02*
X173316567Y-205714285D01*
X173316567Y-205714285D02*
X173126091Y-205761904D01*
X173126091Y-205761904D02*
X172983234Y-205761904D01*
X172983234Y-205761904D02*
X172792758Y-205714285D01*
X172792758Y-205714285D02*
X172697520Y-205666666D01*
X172697520Y-205666666D02*
X172602282Y-205571428D01*
X172602282Y-205571428D02*
X172554663Y-205428571D01*
X172554663Y-205428571D02*
X172554663Y-205333333D01*
X172554663Y-205333333D02*
X172602282Y-205190476D01*
X172602282Y-205190476D02*
X172649901Y-205142857D01*
X172887996Y-204285714D02*
X173554663Y-204285714D01*
X172507044Y-204523809D02*
X173221329Y-204761904D01*
X173221329Y-204761904D02*
X173221329Y-204142857D01*
X173554663Y-203238095D02*
X173554663Y-203809523D01*
X173554663Y-203523809D02*
X172554663Y-203523809D01*
X172554663Y-203523809D02*
X172697520Y-203619047D01*
X172697520Y-203619047D02*
X172792758Y-203714285D01*
X172792758Y-203714285D02*
X172840377Y-203809523D01*
X161457142Y-194854663D02*
X161123809Y-194378472D01*
X160885714Y-194854663D02*
X160885714Y-193854663D01*
X160885714Y-193854663D02*
X161266666Y-193854663D01*
X161266666Y-193854663D02*
X161361904Y-193902282D01*
X161361904Y-193902282D02*
X161409523Y-193949901D01*
X161409523Y-193949901D02*
X161457142Y-194045139D01*
X161457142Y-194045139D02*
X161457142Y-194187996D01*
X161457142Y-194187996D02*
X161409523Y-194283234D01*
X161409523Y-194283234D02*
X161361904Y-194330853D01*
X161361904Y-194330853D02*
X161266666Y-194378472D01*
X161266666Y-194378472D02*
X160885714Y-194378472D01*
X162314285Y-194187996D02*
X162314285Y-194854663D01*
X162076190Y-193807044D02*
X161838095Y-194521329D01*
X161838095Y-194521329D02*
X162457142Y-194521329D01*
X162742857Y-193854663D02*
X163409523Y-193854663D01*
X163409523Y-193854663D02*
X162980952Y-194854663D01*
X139857142Y-204454663D02*
X139523809Y-203978472D01*
X139285714Y-204454663D02*
X139285714Y-203454663D01*
X139285714Y-203454663D02*
X139666666Y-203454663D01*
X139666666Y-203454663D02*
X139761904Y-203502282D01*
X139761904Y-203502282D02*
X139809523Y-203549901D01*
X139809523Y-203549901D02*
X139857142Y-203645139D01*
X139857142Y-203645139D02*
X139857142Y-203787996D01*
X139857142Y-203787996D02*
X139809523Y-203883234D01*
X139809523Y-203883234D02*
X139761904Y-203930853D01*
X139761904Y-203930853D02*
X139666666Y-203978472D01*
X139666666Y-203978472D02*
X139285714Y-203978472D01*
X140238095Y-203549901D02*
X140285714Y-203502282D01*
X140285714Y-203502282D02*
X140380952Y-203454663D01*
X140380952Y-203454663D02*
X140619047Y-203454663D01*
X140619047Y-203454663D02*
X140714285Y-203502282D01*
X140714285Y-203502282D02*
X140761904Y-203549901D01*
X140761904Y-203549901D02*
X140809523Y-203645139D01*
X140809523Y-203645139D02*
X140809523Y-203740377D01*
X140809523Y-203740377D02*
X140761904Y-203883234D01*
X140761904Y-203883234D02*
X140190476Y-204454663D01*
X140190476Y-204454663D02*
X140809523Y-204454663D01*
X141666666Y-203454663D02*
X141476190Y-203454663D01*
X141476190Y-203454663D02*
X141380952Y-203502282D01*
X141380952Y-203502282D02*
X141333333Y-203549901D01*
X141333333Y-203549901D02*
X141238095Y-203692758D01*
X141238095Y-203692758D02*
X141190476Y-203883234D01*
X141190476Y-203883234D02*
X141190476Y-204264186D01*
X141190476Y-204264186D02*
X141238095Y-204359424D01*
X141238095Y-204359424D02*
X141285714Y-204407044D01*
X141285714Y-204407044D02*
X141380952Y-204454663D01*
X141380952Y-204454663D02*
X141571428Y-204454663D01*
X141571428Y-204454663D02*
X141666666Y-204407044D01*
X141666666Y-204407044D02*
X141714285Y-204359424D01*
X141714285Y-204359424D02*
X141761904Y-204264186D01*
X141761904Y-204264186D02*
X141761904Y-204026091D01*
X141761904Y-204026091D02*
X141714285Y-203930853D01*
X141714285Y-203930853D02*
X141666666Y-203883234D01*
X141666666Y-203883234D02*
X141571428Y-203835615D01*
X141571428Y-203835615D02*
X141380952Y-203835615D01*
X141380952Y-203835615D02*
X141285714Y-203883234D01*
X141285714Y-203883234D02*
X141238095Y-203930853D01*
X141238095Y-203930853D02*
X141190476Y-204026091D01*
X179004663Y-186442857D02*
X178528472Y-186776190D01*
X179004663Y-187014285D02*
X178004663Y-187014285D01*
X178004663Y-187014285D02*
X178004663Y-186633333D01*
X178004663Y-186633333D02*
X178052282Y-186538095D01*
X178052282Y-186538095D02*
X178099901Y-186490476D01*
X178099901Y-186490476D02*
X178195139Y-186442857D01*
X178195139Y-186442857D02*
X178337996Y-186442857D01*
X178337996Y-186442857D02*
X178433234Y-186490476D01*
X178433234Y-186490476D02*
X178480853Y-186538095D01*
X178480853Y-186538095D02*
X178528472Y-186633333D01*
X178528472Y-186633333D02*
X178528472Y-187014285D01*
X178099901Y-186061904D02*
X178052282Y-186014285D01*
X178052282Y-186014285D02*
X178004663Y-185919047D01*
X178004663Y-185919047D02*
X178004663Y-185680952D01*
X178004663Y-185680952D02*
X178052282Y-185585714D01*
X178052282Y-185585714D02*
X178099901Y-185538095D01*
X178099901Y-185538095D02*
X178195139Y-185490476D01*
X178195139Y-185490476D02*
X178290377Y-185490476D01*
X178290377Y-185490476D02*
X178433234Y-185538095D01*
X178433234Y-185538095D02*
X179004663Y-186109523D01*
X179004663Y-186109523D02*
X179004663Y-185490476D01*
X178099901Y-185109523D02*
X178052282Y-185061904D01*
X178052282Y-185061904D02*
X178004663Y-184966666D01*
X178004663Y-184966666D02*
X178004663Y-184728571D01*
X178004663Y-184728571D02*
X178052282Y-184633333D01*
X178052282Y-184633333D02*
X178099901Y-184585714D01*
X178099901Y-184585714D02*
X178195139Y-184538095D01*
X178195139Y-184538095D02*
X178290377Y-184538095D01*
X178290377Y-184538095D02*
X178433234Y-184585714D01*
X178433234Y-184585714D02*
X179004663Y-185157142D01*
X179004663Y-185157142D02*
X179004663Y-184538095D01*
X181457142Y-221459424D02*
X181409523Y-221507044D01*
X181409523Y-221507044D02*
X181266666Y-221554663D01*
X181266666Y-221554663D02*
X181171428Y-221554663D01*
X181171428Y-221554663D02*
X181028571Y-221507044D01*
X181028571Y-221507044D02*
X180933333Y-221411805D01*
X180933333Y-221411805D02*
X180885714Y-221316567D01*
X180885714Y-221316567D02*
X180838095Y-221126091D01*
X180838095Y-221126091D02*
X180838095Y-220983234D01*
X180838095Y-220983234D02*
X180885714Y-220792758D01*
X180885714Y-220792758D02*
X180933333Y-220697520D01*
X180933333Y-220697520D02*
X181028571Y-220602282D01*
X181028571Y-220602282D02*
X181171428Y-220554663D01*
X181171428Y-220554663D02*
X181266666Y-220554663D01*
X181266666Y-220554663D02*
X181409523Y-220602282D01*
X181409523Y-220602282D02*
X181457142Y-220649901D01*
X181790476Y-220554663D02*
X182409523Y-220554663D01*
X182409523Y-220554663D02*
X182076190Y-220935615D01*
X182076190Y-220935615D02*
X182219047Y-220935615D01*
X182219047Y-220935615D02*
X182314285Y-220983234D01*
X182314285Y-220983234D02*
X182361904Y-221030853D01*
X182361904Y-221030853D02*
X182409523Y-221126091D01*
X182409523Y-221126091D02*
X182409523Y-221364186D01*
X182409523Y-221364186D02*
X182361904Y-221459424D01*
X182361904Y-221459424D02*
X182314285Y-221507044D01*
X182314285Y-221507044D02*
X182219047Y-221554663D01*
X182219047Y-221554663D02*
X181933333Y-221554663D01*
X181933333Y-221554663D02*
X181838095Y-221507044D01*
X181838095Y-221507044D02*
X181790476Y-221459424D01*
X182885714Y-221554663D02*
X183076190Y-221554663D01*
X183076190Y-221554663D02*
X183171428Y-221507044D01*
X183171428Y-221507044D02*
X183219047Y-221459424D01*
X183219047Y-221459424D02*
X183314285Y-221316567D01*
X183314285Y-221316567D02*
X183361904Y-221126091D01*
X183361904Y-221126091D02*
X183361904Y-220745139D01*
X183361904Y-220745139D02*
X183314285Y-220649901D01*
X183314285Y-220649901D02*
X183266666Y-220602282D01*
X183266666Y-220602282D02*
X183171428Y-220554663D01*
X183171428Y-220554663D02*
X182980952Y-220554663D01*
X182980952Y-220554663D02*
X182885714Y-220602282D01*
X182885714Y-220602282D02*
X182838095Y-220649901D01*
X182838095Y-220649901D02*
X182790476Y-220745139D01*
X182790476Y-220745139D02*
X182790476Y-220983234D01*
X182790476Y-220983234D02*
X182838095Y-221078472D01*
X182838095Y-221078472D02*
X182885714Y-221126091D01*
X182885714Y-221126091D02*
X182980952Y-221173710D01*
X182980952Y-221173710D02*
X183171428Y-221173710D01*
X183171428Y-221173710D02*
X183266666Y-221126091D01*
X183266666Y-221126091D02*
X183314285Y-221078472D01*
X183314285Y-221078472D02*
X183361904Y-220983234D01*
X160688095Y-204154663D02*
X160688095Y-204964186D01*
X160688095Y-204964186D02*
X160735714Y-205059424D01*
X160735714Y-205059424D02*
X160783333Y-205107044D01*
X160783333Y-205107044D02*
X160878571Y-205154663D01*
X160878571Y-205154663D02*
X161069047Y-205154663D01*
X161069047Y-205154663D02*
X161164285Y-205107044D01*
X161164285Y-205107044D02*
X161211904Y-205059424D01*
X161211904Y-205059424D02*
X161259523Y-204964186D01*
X161259523Y-204964186D02*
X161259523Y-204154663D01*
X162164285Y-204487996D02*
X162164285Y-205154663D01*
X161926190Y-204107044D02*
X161688095Y-204821329D01*
X161688095Y-204821329D02*
X162307142Y-204821329D01*
X169454663Y-200399999D02*
X169692758Y-200399999D01*
X169597520Y-200638094D02*
X169692758Y-200399999D01*
X169692758Y-200399999D02*
X169597520Y-200161904D01*
X169883234Y-200542856D02*
X169692758Y-200399999D01*
X169692758Y-200399999D02*
X169883234Y-200257142D01*
X170695336Y-200400000D02*
X170457241Y-200400000D01*
X170552479Y-200161905D02*
X170457241Y-200400000D01*
X170457241Y-200400000D02*
X170552479Y-200638095D01*
X170266765Y-200257143D02*
X170457241Y-200400000D01*
X170457241Y-200400000D02*
X170266765Y-200542857D01*
X150454663Y-207342857D02*
X149978472Y-207676190D01*
X150454663Y-207914285D02*
X149454663Y-207914285D01*
X149454663Y-207914285D02*
X149454663Y-207533333D01*
X149454663Y-207533333D02*
X149502282Y-207438095D01*
X149502282Y-207438095D02*
X149549901Y-207390476D01*
X149549901Y-207390476D02*
X149645139Y-207342857D01*
X149645139Y-207342857D02*
X149787996Y-207342857D01*
X149787996Y-207342857D02*
X149883234Y-207390476D01*
X149883234Y-207390476D02*
X149930853Y-207438095D01*
X149930853Y-207438095D02*
X149978472Y-207533333D01*
X149978472Y-207533333D02*
X149978472Y-207914285D01*
X149549901Y-206961904D02*
X149502282Y-206914285D01*
X149502282Y-206914285D02*
X149454663Y-206819047D01*
X149454663Y-206819047D02*
X149454663Y-206580952D01*
X149454663Y-206580952D02*
X149502282Y-206485714D01*
X149502282Y-206485714D02*
X149549901Y-206438095D01*
X149549901Y-206438095D02*
X149645139Y-206390476D01*
X149645139Y-206390476D02*
X149740377Y-206390476D01*
X149740377Y-206390476D02*
X149883234Y-206438095D01*
X149883234Y-206438095D02*
X150454663Y-207009523D01*
X150454663Y-207009523D02*
X150454663Y-206390476D01*
X149883234Y-205819047D02*
X149835615Y-205914285D01*
X149835615Y-205914285D02*
X149787996Y-205961904D01*
X149787996Y-205961904D02*
X149692758Y-206009523D01*
X149692758Y-206009523D02*
X149645139Y-206009523D01*
X149645139Y-206009523D02*
X149549901Y-205961904D01*
X149549901Y-205961904D02*
X149502282Y-205914285D01*
X149502282Y-205914285D02*
X149454663Y-205819047D01*
X149454663Y-205819047D02*
X149454663Y-205628571D01*
X149454663Y-205628571D02*
X149502282Y-205533333D01*
X149502282Y-205533333D02*
X149549901Y-205485714D01*
X149549901Y-205485714D02*
X149645139Y-205438095D01*
X149645139Y-205438095D02*
X149692758Y-205438095D01*
X149692758Y-205438095D02*
X149787996Y-205485714D01*
X149787996Y-205485714D02*
X149835615Y-205533333D01*
X149835615Y-205533333D02*
X149883234Y-205628571D01*
X149883234Y-205628571D02*
X149883234Y-205819047D01*
X149883234Y-205819047D02*
X149930853Y-205914285D01*
X149930853Y-205914285D02*
X149978472Y-205961904D01*
X149978472Y-205961904D02*
X150073710Y-206009523D01*
X150073710Y-206009523D02*
X150264186Y-206009523D01*
X150264186Y-206009523D02*
X150359424Y-205961904D01*
X150359424Y-205961904D02*
X150407044Y-205914285D01*
X150407044Y-205914285D02*
X150454663Y-205819047D01*
X150454663Y-205819047D02*
X150454663Y-205628571D01*
X150454663Y-205628571D02*
X150407044Y-205533333D01*
X150407044Y-205533333D02*
X150359424Y-205485714D01*
X150359424Y-205485714D02*
X150264186Y-205438095D01*
X150264186Y-205438095D02*
X150073710Y-205438095D01*
X150073710Y-205438095D02*
X149978472Y-205485714D01*
X149978472Y-205485714D02*
X149930853Y-205533333D01*
X149930853Y-205533333D02*
X149883234Y-205628571D01*
X181138095Y-215474663D02*
X181138095Y-216284186D01*
X181138095Y-216284186D02*
X181185714Y-216379424D01*
X181185714Y-216379424D02*
X181233333Y-216427044D01*
X181233333Y-216427044D02*
X181328571Y-216474663D01*
X181328571Y-216474663D02*
X181519047Y-216474663D01*
X181519047Y-216474663D02*
X181614285Y-216427044D01*
X181614285Y-216427044D02*
X181661904Y-216379424D01*
X181661904Y-216379424D02*
X181709523Y-216284186D01*
X181709523Y-216284186D02*
X181709523Y-215474663D01*
X182328571Y-215903234D02*
X182233333Y-215855615D01*
X182233333Y-215855615D02*
X182185714Y-215807996D01*
X182185714Y-215807996D02*
X182138095Y-215712758D01*
X182138095Y-215712758D02*
X182138095Y-215665139D01*
X182138095Y-215665139D02*
X182185714Y-215569901D01*
X182185714Y-215569901D02*
X182233333Y-215522282D01*
X182233333Y-215522282D02*
X182328571Y-215474663D01*
X182328571Y-215474663D02*
X182519047Y-215474663D01*
X182519047Y-215474663D02*
X182614285Y-215522282D01*
X182614285Y-215522282D02*
X182661904Y-215569901D01*
X182661904Y-215569901D02*
X182709523Y-215665139D01*
X182709523Y-215665139D02*
X182709523Y-215712758D01*
X182709523Y-215712758D02*
X182661904Y-215807996D01*
X182661904Y-215807996D02*
X182614285Y-215855615D01*
X182614285Y-215855615D02*
X182519047Y-215903234D01*
X182519047Y-215903234D02*
X182328571Y-215903234D01*
X182328571Y-215903234D02*
X182233333Y-215950853D01*
X182233333Y-215950853D02*
X182185714Y-215998472D01*
X182185714Y-215998472D02*
X182138095Y-216093710D01*
X182138095Y-216093710D02*
X182138095Y-216284186D01*
X182138095Y-216284186D02*
X182185714Y-216379424D01*
X182185714Y-216379424D02*
X182233333Y-216427044D01*
X182233333Y-216427044D02*
X182328571Y-216474663D01*
X182328571Y-216474663D02*
X182519047Y-216474663D01*
X182519047Y-216474663D02*
X182614285Y-216427044D01*
X182614285Y-216427044D02*
X182661904Y-216379424D01*
X182661904Y-216379424D02*
X182709523Y-216284186D01*
X182709523Y-216284186D02*
X182709523Y-216093710D01*
X182709523Y-216093710D02*
X182661904Y-215998472D01*
X182661904Y-215998472D02*
X182614285Y-215950853D01*
X182614285Y-215950853D02*
X182519047Y-215903234D01*
X144754663Y-212542857D02*
X144278472Y-212876190D01*
X144754663Y-213114285D02*
X143754663Y-213114285D01*
X143754663Y-213114285D02*
X143754663Y-212733333D01*
X143754663Y-212733333D02*
X143802282Y-212638095D01*
X143802282Y-212638095D02*
X143849901Y-212590476D01*
X143849901Y-212590476D02*
X143945139Y-212542857D01*
X143945139Y-212542857D02*
X144087996Y-212542857D01*
X144087996Y-212542857D02*
X144183234Y-212590476D01*
X144183234Y-212590476D02*
X144230853Y-212638095D01*
X144230853Y-212638095D02*
X144278472Y-212733333D01*
X144278472Y-212733333D02*
X144278472Y-213114285D01*
X144087996Y-211685714D02*
X144754663Y-211685714D01*
X143707044Y-211923809D02*
X144421329Y-212161904D01*
X144421329Y-212161904D02*
X144421329Y-211542857D01*
X143754663Y-210685714D02*
X143754663Y-211161904D01*
X143754663Y-211161904D02*
X144230853Y-211209523D01*
X144230853Y-211209523D02*
X144183234Y-211161904D01*
X144183234Y-211161904D02*
X144135615Y-211066666D01*
X144135615Y-211066666D02*
X144135615Y-210828571D01*
X144135615Y-210828571D02*
X144183234Y-210733333D01*
X144183234Y-210733333D02*
X144230853Y-210685714D01*
X144230853Y-210685714D02*
X144326091Y-210638095D01*
X144326091Y-210638095D02*
X144564186Y-210638095D01*
X144564186Y-210638095D02*
X144659424Y-210685714D01*
X144659424Y-210685714D02*
X144707044Y-210733333D01*
X144707044Y-210733333D02*
X144754663Y-210828571D01*
X144754663Y-210828571D02*
X144754663Y-211066666D01*
X144754663Y-211066666D02*
X144707044Y-211161904D01*
X144707044Y-211161904D02*
X144659424Y-211209523D01*
X152954663Y-207342857D02*
X152478472Y-207676190D01*
X152954663Y-207914285D02*
X151954663Y-207914285D01*
X151954663Y-207914285D02*
X151954663Y-207533333D01*
X151954663Y-207533333D02*
X152002282Y-207438095D01*
X152002282Y-207438095D02*
X152049901Y-207390476D01*
X152049901Y-207390476D02*
X152145139Y-207342857D01*
X152145139Y-207342857D02*
X152287996Y-207342857D01*
X152287996Y-207342857D02*
X152383234Y-207390476D01*
X152383234Y-207390476D02*
X152430853Y-207438095D01*
X152430853Y-207438095D02*
X152478472Y-207533333D01*
X152478472Y-207533333D02*
X152478472Y-207914285D01*
X152049901Y-206961904D02*
X152002282Y-206914285D01*
X152002282Y-206914285D02*
X151954663Y-206819047D01*
X151954663Y-206819047D02*
X151954663Y-206580952D01*
X151954663Y-206580952D02*
X152002282Y-206485714D01*
X152002282Y-206485714D02*
X152049901Y-206438095D01*
X152049901Y-206438095D02*
X152145139Y-206390476D01*
X152145139Y-206390476D02*
X152240377Y-206390476D01*
X152240377Y-206390476D02*
X152383234Y-206438095D01*
X152383234Y-206438095D02*
X152954663Y-207009523D01*
X152954663Y-207009523D02*
X152954663Y-206390476D01*
X151954663Y-206057142D02*
X151954663Y-205390476D01*
X151954663Y-205390476D02*
X152954663Y-205819047D01*
D10*
X194238095Y-163304819D02*
X194238095Y-162304819D01*
X194238095Y-162781009D02*
X194809523Y-162781009D01*
X194809523Y-163304819D02*
X194809523Y-162304819D01*
X195714285Y-162304819D02*
X195523809Y-162304819D01*
X195523809Y-162304819D02*
X195428571Y-162352438D01*
X195428571Y-162352438D02*
X195380952Y-162400057D01*
X195380952Y-162400057D02*
X195285714Y-162542914D01*
X195285714Y-162542914D02*
X195238095Y-162733390D01*
X195238095Y-162733390D02*
X195238095Y-163114342D01*
X195238095Y-163114342D02*
X195285714Y-163209580D01*
X195285714Y-163209580D02*
X195333333Y-163257200D01*
X195333333Y-163257200D02*
X195428571Y-163304819D01*
X195428571Y-163304819D02*
X195619047Y-163304819D01*
X195619047Y-163304819D02*
X195714285Y-163257200D01*
X195714285Y-163257200D02*
X195761904Y-163209580D01*
X195761904Y-163209580D02*
X195809523Y-163114342D01*
X195809523Y-163114342D02*
X195809523Y-162876247D01*
X195809523Y-162876247D02*
X195761904Y-162781009D01*
X195761904Y-162781009D02*
X195714285Y-162733390D01*
X195714285Y-162733390D02*
X195619047Y-162685771D01*
X195619047Y-162685771D02*
X195428571Y-162685771D01*
X195428571Y-162685771D02*
X195333333Y-162733390D01*
X195333333Y-162733390D02*
X195285714Y-162781009D01*
X195285714Y-162781009D02*
X195238095Y-162876247D01*
D11*
X181133333Y-218359424D02*
X181085714Y-218407044D01*
X181085714Y-218407044D02*
X180942857Y-218454663D01*
X180942857Y-218454663D02*
X180847619Y-218454663D01*
X180847619Y-218454663D02*
X180704762Y-218407044D01*
X180704762Y-218407044D02*
X180609524Y-218311805D01*
X180609524Y-218311805D02*
X180561905Y-218216567D01*
X180561905Y-218216567D02*
X180514286Y-218026091D01*
X180514286Y-218026091D02*
X180514286Y-217883234D01*
X180514286Y-217883234D02*
X180561905Y-217692758D01*
X180561905Y-217692758D02*
X180609524Y-217597520D01*
X180609524Y-217597520D02*
X180704762Y-217502282D01*
X180704762Y-217502282D02*
X180847619Y-217454663D01*
X180847619Y-217454663D02*
X180942857Y-217454663D01*
X180942857Y-217454663D02*
X181085714Y-217502282D01*
X181085714Y-217502282D02*
X181133333Y-217549901D01*
X182133333Y-218454663D02*
X181800000Y-217978472D01*
X181561905Y-218454663D02*
X181561905Y-217454663D01*
X181561905Y-217454663D02*
X181942857Y-217454663D01*
X181942857Y-217454663D02*
X182038095Y-217502282D01*
X182038095Y-217502282D02*
X182085714Y-217549901D01*
X182085714Y-217549901D02*
X182133333Y-217645139D01*
X182133333Y-217645139D02*
X182133333Y-217787996D01*
X182133333Y-217787996D02*
X182085714Y-217883234D01*
X182085714Y-217883234D02*
X182038095Y-217930853D01*
X182038095Y-217930853D02*
X181942857Y-217978472D01*
X181942857Y-217978472D02*
X181561905Y-217978472D01*
X183038095Y-217454663D02*
X182561905Y-217454663D01*
X182561905Y-217454663D02*
X182514286Y-217930853D01*
X182514286Y-217930853D02*
X182561905Y-217883234D01*
X182561905Y-217883234D02*
X182657143Y-217835615D01*
X182657143Y-217835615D02*
X182895238Y-217835615D01*
X182895238Y-217835615D02*
X182990476Y-217883234D01*
X182990476Y-217883234D02*
X183038095Y-217930853D01*
X183038095Y-217930853D02*
X183085714Y-218026091D01*
X183085714Y-218026091D02*
X183085714Y-218264186D01*
X183085714Y-218264186D02*
X183038095Y-218359424D01*
X183038095Y-218359424D02*
X182990476Y-218407044D01*
X182990476Y-218407044D02*
X182895238Y-218454663D01*
X182895238Y-218454663D02*
X182657143Y-218454663D01*
X182657143Y-218454663D02*
X182561905Y-218407044D01*
X182561905Y-218407044D02*
X182514286Y-218359424D01*
X146457142Y-199854663D02*
X146123809Y-199378472D01*
X145885714Y-199854663D02*
X145885714Y-198854663D01*
X145885714Y-198854663D02*
X146266666Y-198854663D01*
X146266666Y-198854663D02*
X146361904Y-198902282D01*
X146361904Y-198902282D02*
X146409523Y-198949901D01*
X146409523Y-198949901D02*
X146457142Y-199045139D01*
X146457142Y-199045139D02*
X146457142Y-199187996D01*
X146457142Y-199187996D02*
X146409523Y-199283234D01*
X146409523Y-199283234D02*
X146361904Y-199330853D01*
X146361904Y-199330853D02*
X146266666Y-199378472D01*
X146266666Y-199378472D02*
X145885714Y-199378472D01*
X146838095Y-198949901D02*
X146885714Y-198902282D01*
X146885714Y-198902282D02*
X146980952Y-198854663D01*
X146980952Y-198854663D02*
X147219047Y-198854663D01*
X147219047Y-198854663D02*
X147314285Y-198902282D01*
X147314285Y-198902282D02*
X147361904Y-198949901D01*
X147361904Y-198949901D02*
X147409523Y-199045139D01*
X147409523Y-199045139D02*
X147409523Y-199140377D01*
X147409523Y-199140377D02*
X147361904Y-199283234D01*
X147361904Y-199283234D02*
X146790476Y-199854663D01*
X146790476Y-199854663D02*
X147409523Y-199854663D01*
X148314285Y-198854663D02*
X147838095Y-198854663D01*
X147838095Y-198854663D02*
X147790476Y-199330853D01*
X147790476Y-199330853D02*
X147838095Y-199283234D01*
X147838095Y-199283234D02*
X147933333Y-199235615D01*
X147933333Y-199235615D02*
X148171428Y-199235615D01*
X148171428Y-199235615D02*
X148266666Y-199283234D01*
X148266666Y-199283234D02*
X148314285Y-199330853D01*
X148314285Y-199330853D02*
X148361904Y-199426091D01*
X148361904Y-199426091D02*
X148361904Y-199664186D01*
X148361904Y-199664186D02*
X148314285Y-199759424D01*
X148314285Y-199759424D02*
X148266666Y-199807044D01*
X148266666Y-199807044D02*
X148171428Y-199854663D01*
X148171428Y-199854663D02*
X147933333Y-199854663D01*
X147933333Y-199854663D02*
X147838095Y-199807044D01*
X147838095Y-199807044D02*
X147790476Y-199759424D01*
X149810681Y-223350721D02*
X149715443Y-223303102D01*
X149715443Y-223303102D02*
X149620205Y-223207864D01*
X149620205Y-223207864D02*
X149477348Y-223065006D01*
X149477348Y-223065006D02*
X149382110Y-223017387D01*
X149382110Y-223017387D02*
X149286872Y-223017387D01*
X149334491Y-223255483D02*
X149239253Y-223207864D01*
X149239253Y-223207864D02*
X149144015Y-223112625D01*
X149144015Y-223112625D02*
X149096396Y-222922149D01*
X149096396Y-222922149D02*
X149096396Y-222588816D01*
X149096396Y-222588816D02*
X149144015Y-222398340D01*
X149144015Y-222398340D02*
X149239253Y-222303102D01*
X149239253Y-222303102D02*
X149334491Y-222255483D01*
X149334491Y-222255483D02*
X149524967Y-222255483D01*
X149524967Y-222255483D02*
X149620205Y-222303102D01*
X149620205Y-222303102D02*
X149715443Y-222398340D01*
X149715443Y-222398340D02*
X149763062Y-222588816D01*
X149763062Y-222588816D02*
X149763062Y-222922149D01*
X149763062Y-222922149D02*
X149715443Y-223112625D01*
X149715443Y-223112625D02*
X149620205Y-223207864D01*
X149620205Y-223207864D02*
X149524967Y-223255483D01*
X149524967Y-223255483D02*
X149334491Y-223255483D01*
X150715443Y-223255483D02*
X150144015Y-223255483D01*
X150429729Y-223255483D02*
X150429729Y-222255483D01*
X150429729Y-222255483D02*
X150334491Y-222398340D01*
X150334491Y-222398340D02*
X150239253Y-222493578D01*
X150239253Y-222493578D02*
X150144015Y-222541197D01*
X161457142Y-212859424D02*
X161409523Y-212907044D01*
X161409523Y-212907044D02*
X161266666Y-212954663D01*
X161266666Y-212954663D02*
X161171428Y-212954663D01*
X161171428Y-212954663D02*
X161028571Y-212907044D01*
X161028571Y-212907044D02*
X160933333Y-212811805D01*
X160933333Y-212811805D02*
X160885714Y-212716567D01*
X160885714Y-212716567D02*
X160838095Y-212526091D01*
X160838095Y-212526091D02*
X160838095Y-212383234D01*
X160838095Y-212383234D02*
X160885714Y-212192758D01*
X160885714Y-212192758D02*
X160933333Y-212097520D01*
X160933333Y-212097520D02*
X161028571Y-212002282D01*
X161028571Y-212002282D02*
X161171428Y-211954663D01*
X161171428Y-211954663D02*
X161266666Y-211954663D01*
X161266666Y-211954663D02*
X161409523Y-212002282D01*
X161409523Y-212002282D02*
X161457142Y-212049901D01*
X161790476Y-211954663D02*
X162409523Y-211954663D01*
X162409523Y-211954663D02*
X162076190Y-212335615D01*
X162076190Y-212335615D02*
X162219047Y-212335615D01*
X162219047Y-212335615D02*
X162314285Y-212383234D01*
X162314285Y-212383234D02*
X162361904Y-212430853D01*
X162361904Y-212430853D02*
X162409523Y-212526091D01*
X162409523Y-212526091D02*
X162409523Y-212764186D01*
X162409523Y-212764186D02*
X162361904Y-212859424D01*
X162361904Y-212859424D02*
X162314285Y-212907044D01*
X162314285Y-212907044D02*
X162219047Y-212954663D01*
X162219047Y-212954663D02*
X161933333Y-212954663D01*
X161933333Y-212954663D02*
X161838095Y-212907044D01*
X161838095Y-212907044D02*
X161790476Y-212859424D01*
X163361904Y-212954663D02*
X162790476Y-212954663D01*
X163076190Y-212954663D02*
X163076190Y-211954663D01*
X163076190Y-211954663D02*
X162980952Y-212097520D01*
X162980952Y-212097520D02*
X162885714Y-212192758D01*
X162885714Y-212192758D02*
X162790476Y-212240377D01*
X137507142Y-188978124D02*
X137459523Y-189025744D01*
X137459523Y-189025744D02*
X137316666Y-189073363D01*
X137316666Y-189073363D02*
X137221428Y-189073363D01*
X137221428Y-189073363D02*
X137078571Y-189025744D01*
X137078571Y-189025744D02*
X136983333Y-188930505D01*
X136983333Y-188930505D02*
X136935714Y-188835267D01*
X136935714Y-188835267D02*
X136888095Y-188644791D01*
X136888095Y-188644791D02*
X136888095Y-188501934D01*
X136888095Y-188501934D02*
X136935714Y-188311458D01*
X136935714Y-188311458D02*
X136983333Y-188216220D01*
X136983333Y-188216220D02*
X137078571Y-188120982D01*
X137078571Y-188120982D02*
X137221428Y-188073363D01*
X137221428Y-188073363D02*
X137316666Y-188073363D01*
X137316666Y-188073363D02*
X137459523Y-188120982D01*
X137459523Y-188120982D02*
X137507142Y-188168601D01*
X137888095Y-188168601D02*
X137935714Y-188120982D01*
X137935714Y-188120982D02*
X138030952Y-188073363D01*
X138030952Y-188073363D02*
X138269047Y-188073363D01*
X138269047Y-188073363D02*
X138364285Y-188120982D01*
X138364285Y-188120982D02*
X138411904Y-188168601D01*
X138411904Y-188168601D02*
X138459523Y-188263839D01*
X138459523Y-188263839D02*
X138459523Y-188359077D01*
X138459523Y-188359077D02*
X138411904Y-188501934D01*
X138411904Y-188501934D02*
X137840476Y-189073363D01*
X137840476Y-189073363D02*
X138459523Y-189073363D01*
X138792857Y-188073363D02*
X139459523Y-188073363D01*
X139459523Y-188073363D02*
X139030952Y-189073363D01*
X185357142Y-225459424D02*
X185309523Y-225507044D01*
X185309523Y-225507044D02*
X185166666Y-225554663D01*
X185166666Y-225554663D02*
X185071428Y-225554663D01*
X185071428Y-225554663D02*
X184928571Y-225507044D01*
X184928571Y-225507044D02*
X184833333Y-225411805D01*
X184833333Y-225411805D02*
X184785714Y-225316567D01*
X184785714Y-225316567D02*
X184738095Y-225126091D01*
X184738095Y-225126091D02*
X184738095Y-224983234D01*
X184738095Y-224983234D02*
X184785714Y-224792758D01*
X184785714Y-224792758D02*
X184833333Y-224697520D01*
X184833333Y-224697520D02*
X184928571Y-224602282D01*
X184928571Y-224602282D02*
X185071428Y-224554663D01*
X185071428Y-224554663D02*
X185166666Y-224554663D01*
X185166666Y-224554663D02*
X185309523Y-224602282D01*
X185309523Y-224602282D02*
X185357142Y-224649901D01*
X186214285Y-224887996D02*
X186214285Y-225554663D01*
X185976190Y-224507044D02*
X185738095Y-225221329D01*
X185738095Y-225221329D02*
X186357142Y-225221329D01*
X186928571Y-224554663D02*
X187023809Y-224554663D01*
X187023809Y-224554663D02*
X187119047Y-224602282D01*
X187119047Y-224602282D02*
X187166666Y-224649901D01*
X187166666Y-224649901D02*
X187214285Y-224745139D01*
X187214285Y-224745139D02*
X187261904Y-224935615D01*
X187261904Y-224935615D02*
X187261904Y-225173710D01*
X187261904Y-225173710D02*
X187214285Y-225364186D01*
X187214285Y-225364186D02*
X187166666Y-225459424D01*
X187166666Y-225459424D02*
X187119047Y-225507044D01*
X187119047Y-225507044D02*
X187023809Y-225554663D01*
X187023809Y-225554663D02*
X186928571Y-225554663D01*
X186928571Y-225554663D02*
X186833333Y-225507044D01*
X186833333Y-225507044D02*
X186785714Y-225459424D01*
X186785714Y-225459424D02*
X186738095Y-225364186D01*
X186738095Y-225364186D02*
X186690476Y-225173710D01*
X186690476Y-225173710D02*
X186690476Y-224935615D01*
X186690476Y-224935615D02*
X186738095Y-224745139D01*
X186738095Y-224745139D02*
X186785714Y-224649901D01*
X186785714Y-224649901D02*
X186833333Y-224602282D01*
X186833333Y-224602282D02*
X186928571Y-224554663D01*
X164254663Y-172959523D02*
X164968948Y-172959523D01*
X164968948Y-172959523D02*
X165111805Y-173007142D01*
X165111805Y-173007142D02*
X165207044Y-173102380D01*
X165207044Y-173102380D02*
X165254663Y-173245237D01*
X165254663Y-173245237D02*
X165254663Y-173340475D01*
X164349901Y-172530951D02*
X164302282Y-172483332D01*
X164302282Y-172483332D02*
X164254663Y-172388094D01*
X164254663Y-172388094D02*
X164254663Y-172149999D01*
X164254663Y-172149999D02*
X164302282Y-172054761D01*
X164302282Y-172054761D02*
X164349901Y-172007142D01*
X164349901Y-172007142D02*
X164445139Y-171959523D01*
X164445139Y-171959523D02*
X164540377Y-171959523D01*
X164540377Y-171959523D02*
X164683234Y-172007142D01*
X164683234Y-172007142D02*
X165254663Y-172578570D01*
X165254663Y-172578570D02*
X165254663Y-171959523D01*
X165254663Y-171007142D02*
X165254663Y-171578570D01*
X165254663Y-171292856D02*
X164254663Y-171292856D01*
X164254663Y-171292856D02*
X164397520Y-171388094D01*
X164397520Y-171388094D02*
X164492758Y-171483332D01*
X164492758Y-171483332D02*
X164540377Y-171578570D01*
X169957142Y-219159424D02*
X169909523Y-219207044D01*
X169909523Y-219207044D02*
X169766666Y-219254663D01*
X169766666Y-219254663D02*
X169671428Y-219254663D01*
X169671428Y-219254663D02*
X169528571Y-219207044D01*
X169528571Y-219207044D02*
X169433333Y-219111805D01*
X169433333Y-219111805D02*
X169385714Y-219016567D01*
X169385714Y-219016567D02*
X169338095Y-218826091D01*
X169338095Y-218826091D02*
X169338095Y-218683234D01*
X169338095Y-218683234D02*
X169385714Y-218492758D01*
X169385714Y-218492758D02*
X169433333Y-218397520D01*
X169433333Y-218397520D02*
X169528571Y-218302282D01*
X169528571Y-218302282D02*
X169671428Y-218254663D01*
X169671428Y-218254663D02*
X169766666Y-218254663D01*
X169766666Y-218254663D02*
X169909523Y-218302282D01*
X169909523Y-218302282D02*
X169957142Y-218349901D01*
X170290476Y-218254663D02*
X170909523Y-218254663D01*
X170909523Y-218254663D02*
X170576190Y-218635615D01*
X170576190Y-218635615D02*
X170719047Y-218635615D01*
X170719047Y-218635615D02*
X170814285Y-218683234D01*
X170814285Y-218683234D02*
X170861904Y-218730853D01*
X170861904Y-218730853D02*
X170909523Y-218826091D01*
X170909523Y-218826091D02*
X170909523Y-219064186D01*
X170909523Y-219064186D02*
X170861904Y-219159424D01*
X170861904Y-219159424D02*
X170814285Y-219207044D01*
X170814285Y-219207044D02*
X170719047Y-219254663D01*
X170719047Y-219254663D02*
X170433333Y-219254663D01*
X170433333Y-219254663D02*
X170338095Y-219207044D01*
X170338095Y-219207044D02*
X170290476Y-219159424D01*
X171242857Y-218254663D02*
X171909523Y-218254663D01*
X171909523Y-218254663D02*
X171480952Y-219254663D01*
X143661905Y-203754663D02*
X143661905Y-202754663D01*
X143661905Y-202754663D02*
X143900000Y-202754663D01*
X143900000Y-202754663D02*
X144042857Y-202802282D01*
X144042857Y-202802282D02*
X144138095Y-202897520D01*
X144138095Y-202897520D02*
X144185714Y-202992758D01*
X144185714Y-202992758D02*
X144233333Y-203183234D01*
X144233333Y-203183234D02*
X144233333Y-203326091D01*
X144233333Y-203326091D02*
X144185714Y-203516567D01*
X144185714Y-203516567D02*
X144138095Y-203611805D01*
X144138095Y-203611805D02*
X144042857Y-203707044D01*
X144042857Y-203707044D02*
X143900000Y-203754663D01*
X143900000Y-203754663D02*
X143661905Y-203754663D01*
X144614286Y-202849901D02*
X144661905Y-202802282D01*
X144661905Y-202802282D02*
X144757143Y-202754663D01*
X144757143Y-202754663D02*
X144995238Y-202754663D01*
X144995238Y-202754663D02*
X145090476Y-202802282D01*
X145090476Y-202802282D02*
X145138095Y-202849901D01*
X145138095Y-202849901D02*
X145185714Y-202945139D01*
X145185714Y-202945139D02*
X145185714Y-203040377D01*
X145185714Y-203040377D02*
X145138095Y-203183234D01*
X145138095Y-203183234D02*
X144566667Y-203754663D01*
X144566667Y-203754663D02*
X145185714Y-203754663D01*
X163857142Y-210759424D02*
X163809523Y-210807044D01*
X163809523Y-210807044D02*
X163666666Y-210854663D01*
X163666666Y-210854663D02*
X163571428Y-210854663D01*
X163571428Y-210854663D02*
X163428571Y-210807044D01*
X163428571Y-210807044D02*
X163333333Y-210711805D01*
X163333333Y-210711805D02*
X163285714Y-210616567D01*
X163285714Y-210616567D02*
X163238095Y-210426091D01*
X163238095Y-210426091D02*
X163238095Y-210283234D01*
X163238095Y-210283234D02*
X163285714Y-210092758D01*
X163285714Y-210092758D02*
X163333333Y-209997520D01*
X163333333Y-209997520D02*
X163428571Y-209902282D01*
X163428571Y-209902282D02*
X163571428Y-209854663D01*
X163571428Y-209854663D02*
X163666666Y-209854663D01*
X163666666Y-209854663D02*
X163809523Y-209902282D01*
X163809523Y-209902282D02*
X163857142Y-209949901D01*
X164190476Y-209854663D02*
X164809523Y-209854663D01*
X164809523Y-209854663D02*
X164476190Y-210235615D01*
X164476190Y-210235615D02*
X164619047Y-210235615D01*
X164619047Y-210235615D02*
X164714285Y-210283234D01*
X164714285Y-210283234D02*
X164761904Y-210330853D01*
X164761904Y-210330853D02*
X164809523Y-210426091D01*
X164809523Y-210426091D02*
X164809523Y-210664186D01*
X164809523Y-210664186D02*
X164761904Y-210759424D01*
X164761904Y-210759424D02*
X164714285Y-210807044D01*
X164714285Y-210807044D02*
X164619047Y-210854663D01*
X164619047Y-210854663D02*
X164333333Y-210854663D01*
X164333333Y-210854663D02*
X164238095Y-210807044D01*
X164238095Y-210807044D02*
X164190476Y-210759424D01*
X165666666Y-209854663D02*
X165476190Y-209854663D01*
X165476190Y-209854663D02*
X165380952Y-209902282D01*
X165380952Y-209902282D02*
X165333333Y-209949901D01*
X165333333Y-209949901D02*
X165238095Y-210092758D01*
X165238095Y-210092758D02*
X165190476Y-210283234D01*
X165190476Y-210283234D02*
X165190476Y-210664186D01*
X165190476Y-210664186D02*
X165238095Y-210759424D01*
X165238095Y-210759424D02*
X165285714Y-210807044D01*
X165285714Y-210807044D02*
X165380952Y-210854663D01*
X165380952Y-210854663D02*
X165571428Y-210854663D01*
X165571428Y-210854663D02*
X165666666Y-210807044D01*
X165666666Y-210807044D02*
X165714285Y-210759424D01*
X165714285Y-210759424D02*
X165761904Y-210664186D01*
X165761904Y-210664186D02*
X165761904Y-210426091D01*
X165761904Y-210426091D02*
X165714285Y-210330853D01*
X165714285Y-210330853D02*
X165666666Y-210283234D01*
X165666666Y-210283234D02*
X165571428Y-210235615D01*
X165571428Y-210235615D02*
X165380952Y-210235615D01*
X165380952Y-210235615D02*
X165285714Y-210283234D01*
X165285714Y-210283234D02*
X165238095Y-210330853D01*
X165238095Y-210330853D02*
X165190476Y-210426091D01*
X171257142Y-209959424D02*
X171209523Y-210007044D01*
X171209523Y-210007044D02*
X171066666Y-210054663D01*
X171066666Y-210054663D02*
X170971428Y-210054663D01*
X170971428Y-210054663D02*
X170828571Y-210007044D01*
X170828571Y-210007044D02*
X170733333Y-209911805D01*
X170733333Y-209911805D02*
X170685714Y-209816567D01*
X170685714Y-209816567D02*
X170638095Y-209626091D01*
X170638095Y-209626091D02*
X170638095Y-209483234D01*
X170638095Y-209483234D02*
X170685714Y-209292758D01*
X170685714Y-209292758D02*
X170733333Y-209197520D01*
X170733333Y-209197520D02*
X170828571Y-209102282D01*
X170828571Y-209102282D02*
X170971428Y-209054663D01*
X170971428Y-209054663D02*
X171066666Y-209054663D01*
X171066666Y-209054663D02*
X171209523Y-209102282D01*
X171209523Y-209102282D02*
X171257142Y-209149901D01*
X171590476Y-209054663D02*
X172209523Y-209054663D01*
X172209523Y-209054663D02*
X171876190Y-209435615D01*
X171876190Y-209435615D02*
X172019047Y-209435615D01*
X172019047Y-209435615D02*
X172114285Y-209483234D01*
X172114285Y-209483234D02*
X172161904Y-209530853D01*
X172161904Y-209530853D02*
X172209523Y-209626091D01*
X172209523Y-209626091D02*
X172209523Y-209864186D01*
X172209523Y-209864186D02*
X172161904Y-209959424D01*
X172161904Y-209959424D02*
X172114285Y-210007044D01*
X172114285Y-210007044D02*
X172019047Y-210054663D01*
X172019047Y-210054663D02*
X171733333Y-210054663D01*
X171733333Y-210054663D02*
X171638095Y-210007044D01*
X171638095Y-210007044D02*
X171590476Y-209959424D01*
X172780952Y-209483234D02*
X172685714Y-209435615D01*
X172685714Y-209435615D02*
X172638095Y-209387996D01*
X172638095Y-209387996D02*
X172590476Y-209292758D01*
X172590476Y-209292758D02*
X172590476Y-209245139D01*
X172590476Y-209245139D02*
X172638095Y-209149901D01*
X172638095Y-209149901D02*
X172685714Y-209102282D01*
X172685714Y-209102282D02*
X172780952Y-209054663D01*
X172780952Y-209054663D02*
X172971428Y-209054663D01*
X172971428Y-209054663D02*
X173066666Y-209102282D01*
X173066666Y-209102282D02*
X173114285Y-209149901D01*
X173114285Y-209149901D02*
X173161904Y-209245139D01*
X173161904Y-209245139D02*
X173161904Y-209292758D01*
X173161904Y-209292758D02*
X173114285Y-209387996D01*
X173114285Y-209387996D02*
X173066666Y-209435615D01*
X173066666Y-209435615D02*
X172971428Y-209483234D01*
X172971428Y-209483234D02*
X172780952Y-209483234D01*
X172780952Y-209483234D02*
X172685714Y-209530853D01*
X172685714Y-209530853D02*
X172638095Y-209578472D01*
X172638095Y-209578472D02*
X172590476Y-209673710D01*
X172590476Y-209673710D02*
X172590476Y-209864186D01*
X172590476Y-209864186D02*
X172638095Y-209959424D01*
X172638095Y-209959424D02*
X172685714Y-210007044D01*
X172685714Y-210007044D02*
X172780952Y-210054663D01*
X172780952Y-210054663D02*
X172971428Y-210054663D01*
X172971428Y-210054663D02*
X173066666Y-210007044D01*
X173066666Y-210007044D02*
X173114285Y-209959424D01*
X173114285Y-209959424D02*
X173161904Y-209864186D01*
X173161904Y-209864186D02*
X173161904Y-209673710D01*
X173161904Y-209673710D02*
X173114285Y-209578472D01*
X173114285Y-209578472D02*
X173066666Y-209530853D01*
X173066666Y-209530853D02*
X172971428Y-209483234D01*
X176059424Y-208266666D02*
X176107044Y-208314285D01*
X176107044Y-208314285D02*
X176154663Y-208457142D01*
X176154663Y-208457142D02*
X176154663Y-208552380D01*
X176154663Y-208552380D02*
X176107044Y-208695237D01*
X176107044Y-208695237D02*
X176011805Y-208790475D01*
X176011805Y-208790475D02*
X175916567Y-208838094D01*
X175916567Y-208838094D02*
X175726091Y-208885713D01*
X175726091Y-208885713D02*
X175583234Y-208885713D01*
X175583234Y-208885713D02*
X175392758Y-208838094D01*
X175392758Y-208838094D02*
X175297520Y-208790475D01*
X175297520Y-208790475D02*
X175202282Y-208695237D01*
X175202282Y-208695237D02*
X175154663Y-208552380D01*
X175154663Y-208552380D02*
X175154663Y-208457142D01*
X175154663Y-208457142D02*
X175202282Y-208314285D01*
X175202282Y-208314285D02*
X175249901Y-208266666D01*
X176154663Y-207266666D02*
X175678472Y-207599999D01*
X176154663Y-207838094D02*
X175154663Y-207838094D01*
X175154663Y-207838094D02*
X175154663Y-207457142D01*
X175154663Y-207457142D02*
X175202282Y-207361904D01*
X175202282Y-207361904D02*
X175249901Y-207314285D01*
X175249901Y-207314285D02*
X175345139Y-207266666D01*
X175345139Y-207266666D02*
X175487996Y-207266666D01*
X175487996Y-207266666D02*
X175583234Y-207314285D01*
X175583234Y-207314285D02*
X175630853Y-207361904D01*
X175630853Y-207361904D02*
X175678472Y-207457142D01*
X175678472Y-207457142D02*
X175678472Y-207838094D01*
X175249901Y-206885713D02*
X175202282Y-206838094D01*
X175202282Y-206838094D02*
X175154663Y-206742856D01*
X175154663Y-206742856D02*
X175154663Y-206504761D01*
X175154663Y-206504761D02*
X175202282Y-206409523D01*
X175202282Y-206409523D02*
X175249901Y-206361904D01*
X175249901Y-206361904D02*
X175345139Y-206314285D01*
X175345139Y-206314285D02*
X175440377Y-206314285D01*
X175440377Y-206314285D02*
X175583234Y-206361904D01*
X175583234Y-206361904D02*
X176154663Y-206933332D01*
X176154663Y-206933332D02*
X176154663Y-206314285D01*
X149359424Y-188130257D02*
X149407044Y-188177876D01*
X149407044Y-188177876D02*
X149454663Y-188320733D01*
X149454663Y-188320733D02*
X149454663Y-188415971D01*
X149454663Y-188415971D02*
X149407044Y-188558828D01*
X149407044Y-188558828D02*
X149311805Y-188654066D01*
X149311805Y-188654066D02*
X149216567Y-188701685D01*
X149216567Y-188701685D02*
X149026091Y-188749304D01*
X149026091Y-188749304D02*
X148883234Y-188749304D01*
X148883234Y-188749304D02*
X148692758Y-188701685D01*
X148692758Y-188701685D02*
X148597520Y-188654066D01*
X148597520Y-188654066D02*
X148502282Y-188558828D01*
X148502282Y-188558828D02*
X148454663Y-188415971D01*
X148454663Y-188415971D02*
X148454663Y-188320733D01*
X148454663Y-188320733D02*
X148502282Y-188177876D01*
X148502282Y-188177876D02*
X148549901Y-188130257D01*
X148549901Y-187749304D02*
X148502282Y-187701685D01*
X148502282Y-187701685D02*
X148454663Y-187606447D01*
X148454663Y-187606447D02*
X148454663Y-187368352D01*
X148454663Y-187368352D02*
X148502282Y-187273114D01*
X148502282Y-187273114D02*
X148549901Y-187225495D01*
X148549901Y-187225495D02*
X148645139Y-187177876D01*
X148645139Y-187177876D02*
X148740377Y-187177876D01*
X148740377Y-187177876D02*
X148883234Y-187225495D01*
X148883234Y-187225495D02*
X149454663Y-187796923D01*
X149454663Y-187796923D02*
X149454663Y-187177876D01*
X148454663Y-186320733D02*
X148454663Y-186511209D01*
X148454663Y-186511209D02*
X148502282Y-186606447D01*
X148502282Y-186606447D02*
X148549901Y-186654066D01*
X148549901Y-186654066D02*
X148692758Y-186749304D01*
X148692758Y-186749304D02*
X148883234Y-186796923D01*
X148883234Y-186796923D02*
X149264186Y-186796923D01*
X149264186Y-186796923D02*
X149359424Y-186749304D01*
X149359424Y-186749304D02*
X149407044Y-186701685D01*
X149407044Y-186701685D02*
X149454663Y-186606447D01*
X149454663Y-186606447D02*
X149454663Y-186415971D01*
X149454663Y-186415971D02*
X149407044Y-186320733D01*
X149407044Y-186320733D02*
X149359424Y-186273114D01*
X149359424Y-186273114D02*
X149264186Y-186225495D01*
X149264186Y-186225495D02*
X149026091Y-186225495D01*
X149026091Y-186225495D02*
X148930853Y-186273114D01*
X148930853Y-186273114D02*
X148883234Y-186320733D01*
X148883234Y-186320733D02*
X148835615Y-186415971D01*
X148835615Y-186415971D02*
X148835615Y-186606447D01*
X148835615Y-186606447D02*
X148883234Y-186701685D01*
X148883234Y-186701685D02*
X148930853Y-186749304D01*
X148930853Y-186749304D02*
X149026091Y-186796923D01*
X157390476Y-223604663D02*
X157390476Y-224318948D01*
X157390476Y-224318948D02*
X157342857Y-224461805D01*
X157342857Y-224461805D02*
X157247619Y-224557044D01*
X157247619Y-224557044D02*
X157104762Y-224604663D01*
X157104762Y-224604663D02*
X157009524Y-224604663D01*
X158390476Y-224604663D02*
X157819048Y-224604663D01*
X158104762Y-224604663D02*
X158104762Y-223604663D01*
X158104762Y-223604663D02*
X158009524Y-223747520D01*
X158009524Y-223747520D02*
X157914286Y-223842758D01*
X157914286Y-223842758D02*
X157819048Y-223890377D01*
X158723810Y-223604663D02*
X159390476Y-223604663D01*
X159390476Y-223604663D02*
X158961905Y-224604663D01*
D10*
X156630952Y-232123866D02*
X157392857Y-232123866D01*
X158202380Y-231981009D02*
X158345237Y-232028628D01*
X158345237Y-232028628D02*
X158392856Y-232076247D01*
X158392856Y-232076247D02*
X158440475Y-232171485D01*
X158440475Y-232171485D02*
X158440475Y-232314342D01*
X158440475Y-232314342D02*
X158392856Y-232409580D01*
X158392856Y-232409580D02*
X158345237Y-232457200D01*
X158345237Y-232457200D02*
X158249999Y-232504819D01*
X158249999Y-232504819D02*
X157869047Y-232504819D01*
X157869047Y-232504819D02*
X157869047Y-231504819D01*
X157869047Y-231504819D02*
X158202380Y-231504819D01*
X158202380Y-231504819D02*
X158297618Y-231552438D01*
X158297618Y-231552438D02*
X158345237Y-231600057D01*
X158345237Y-231600057D02*
X158392856Y-231695295D01*
X158392856Y-231695295D02*
X158392856Y-231790533D01*
X158392856Y-231790533D02*
X158345237Y-231885771D01*
X158345237Y-231885771D02*
X158297618Y-231933390D01*
X158297618Y-231933390D02*
X158202380Y-231981009D01*
X158202380Y-231981009D02*
X157869047Y-231981009D01*
X159297618Y-232504819D02*
X159297618Y-231981009D01*
X159297618Y-231981009D02*
X159249999Y-231885771D01*
X159249999Y-231885771D02*
X159154761Y-231838152D01*
X159154761Y-231838152D02*
X158964285Y-231838152D01*
X158964285Y-231838152D02*
X158869047Y-231885771D01*
X159297618Y-232457200D02*
X159202380Y-232504819D01*
X159202380Y-232504819D02*
X158964285Y-232504819D01*
X158964285Y-232504819D02*
X158869047Y-232457200D01*
X158869047Y-232457200D02*
X158821428Y-232361961D01*
X158821428Y-232361961D02*
X158821428Y-232266723D01*
X158821428Y-232266723D02*
X158869047Y-232171485D01*
X158869047Y-232171485D02*
X158964285Y-232123866D01*
X158964285Y-232123866D02*
X159202380Y-232123866D01*
X159202380Y-232123866D02*
X159297618Y-232076247D01*
X159630952Y-231838152D02*
X160011904Y-231838152D01*
X159773809Y-231504819D02*
X159773809Y-232361961D01*
X159773809Y-232361961D02*
X159821428Y-232457200D01*
X159821428Y-232457200D02*
X159916666Y-232504819D01*
X159916666Y-232504819D02*
X160011904Y-232504819D01*
D11*
X137779663Y-209159523D02*
X138493948Y-209159523D01*
X138493948Y-209159523D02*
X138636805Y-209207142D01*
X138636805Y-209207142D02*
X138732044Y-209302380D01*
X138732044Y-209302380D02*
X138779663Y-209445237D01*
X138779663Y-209445237D02*
X138779663Y-209540475D01*
X137874901Y-208730951D02*
X137827282Y-208683332D01*
X137827282Y-208683332D02*
X137779663Y-208588094D01*
X137779663Y-208588094D02*
X137779663Y-208349999D01*
X137779663Y-208349999D02*
X137827282Y-208254761D01*
X137827282Y-208254761D02*
X137874901Y-208207142D01*
X137874901Y-208207142D02*
X137970139Y-208159523D01*
X137970139Y-208159523D02*
X138065377Y-208159523D01*
X138065377Y-208159523D02*
X138208234Y-208207142D01*
X138208234Y-208207142D02*
X138779663Y-208778570D01*
X138779663Y-208778570D02*
X138779663Y-208159523D01*
X137779663Y-207540475D02*
X137779663Y-207445237D01*
X137779663Y-207445237D02*
X137827282Y-207349999D01*
X137827282Y-207349999D02*
X137874901Y-207302380D01*
X137874901Y-207302380D02*
X137970139Y-207254761D01*
X137970139Y-207254761D02*
X138160615Y-207207142D01*
X138160615Y-207207142D02*
X138398710Y-207207142D01*
X138398710Y-207207142D02*
X138589186Y-207254761D01*
X138589186Y-207254761D02*
X138684424Y-207302380D01*
X138684424Y-207302380D02*
X138732044Y-207349999D01*
X138732044Y-207349999D02*
X138779663Y-207445237D01*
X138779663Y-207445237D02*
X138779663Y-207540475D01*
X138779663Y-207540475D02*
X138732044Y-207635713D01*
X138732044Y-207635713D02*
X138684424Y-207683332D01*
X138684424Y-207683332D02*
X138589186Y-207730951D01*
X138589186Y-207730951D02*
X138398710Y-207778570D01*
X138398710Y-207778570D02*
X138160615Y-207778570D01*
X138160615Y-207778570D02*
X137970139Y-207730951D01*
X137970139Y-207730951D02*
X137874901Y-207683332D01*
X137874901Y-207683332D02*
X137827282Y-207635713D01*
X137827282Y-207635713D02*
X137779663Y-207540475D01*
X161557142Y-192759424D02*
X161509523Y-192807044D01*
X161509523Y-192807044D02*
X161366666Y-192854663D01*
X161366666Y-192854663D02*
X161271428Y-192854663D01*
X161271428Y-192854663D02*
X161128571Y-192807044D01*
X161128571Y-192807044D02*
X161033333Y-192711805D01*
X161033333Y-192711805D02*
X160985714Y-192616567D01*
X160985714Y-192616567D02*
X160938095Y-192426091D01*
X160938095Y-192426091D02*
X160938095Y-192283234D01*
X160938095Y-192283234D02*
X160985714Y-192092758D01*
X160985714Y-192092758D02*
X161033333Y-191997520D01*
X161033333Y-191997520D02*
X161128571Y-191902282D01*
X161128571Y-191902282D02*
X161271428Y-191854663D01*
X161271428Y-191854663D02*
X161366666Y-191854663D01*
X161366666Y-191854663D02*
X161509523Y-191902282D01*
X161509523Y-191902282D02*
X161557142Y-191949901D01*
X161938095Y-191949901D02*
X161985714Y-191902282D01*
X161985714Y-191902282D02*
X162080952Y-191854663D01*
X162080952Y-191854663D02*
X162319047Y-191854663D01*
X162319047Y-191854663D02*
X162414285Y-191902282D01*
X162414285Y-191902282D02*
X162461904Y-191949901D01*
X162461904Y-191949901D02*
X162509523Y-192045139D01*
X162509523Y-192045139D02*
X162509523Y-192140377D01*
X162509523Y-192140377D02*
X162461904Y-192283234D01*
X162461904Y-192283234D02*
X161890476Y-192854663D01*
X161890476Y-192854663D02*
X162509523Y-192854663D01*
X163080952Y-192283234D02*
X162985714Y-192235615D01*
X162985714Y-192235615D02*
X162938095Y-192187996D01*
X162938095Y-192187996D02*
X162890476Y-192092758D01*
X162890476Y-192092758D02*
X162890476Y-192045139D01*
X162890476Y-192045139D02*
X162938095Y-191949901D01*
X162938095Y-191949901D02*
X162985714Y-191902282D01*
X162985714Y-191902282D02*
X163080952Y-191854663D01*
X163080952Y-191854663D02*
X163271428Y-191854663D01*
X163271428Y-191854663D02*
X163366666Y-191902282D01*
X163366666Y-191902282D02*
X163414285Y-191949901D01*
X163414285Y-191949901D02*
X163461904Y-192045139D01*
X163461904Y-192045139D02*
X163461904Y-192092758D01*
X163461904Y-192092758D02*
X163414285Y-192187996D01*
X163414285Y-192187996D02*
X163366666Y-192235615D01*
X163366666Y-192235615D02*
X163271428Y-192283234D01*
X163271428Y-192283234D02*
X163080952Y-192283234D01*
X163080952Y-192283234D02*
X162985714Y-192330853D01*
X162985714Y-192330853D02*
X162938095Y-192378472D01*
X162938095Y-192378472D02*
X162890476Y-192473710D01*
X162890476Y-192473710D02*
X162890476Y-192664186D01*
X162890476Y-192664186D02*
X162938095Y-192759424D01*
X162938095Y-192759424D02*
X162985714Y-192807044D01*
X162985714Y-192807044D02*
X163080952Y-192854663D01*
X163080952Y-192854663D02*
X163271428Y-192854663D01*
X163271428Y-192854663D02*
X163366666Y-192807044D01*
X163366666Y-192807044D02*
X163414285Y-192759424D01*
X163414285Y-192759424D02*
X163461904Y-192664186D01*
X163461904Y-192664186D02*
X163461904Y-192473710D01*
X163461904Y-192473710D02*
X163414285Y-192378472D01*
X163414285Y-192378472D02*
X163366666Y-192330853D01*
X163366666Y-192330853D02*
X163271428Y-192283234D01*
X140238095Y-238304663D02*
X140238095Y-237304663D01*
X140238095Y-237780853D02*
X140809523Y-237780853D01*
X140809523Y-238304663D02*
X140809523Y-237304663D01*
X141428571Y-237733234D02*
X141333333Y-237685615D01*
X141333333Y-237685615D02*
X141285714Y-237637996D01*
X141285714Y-237637996D02*
X141238095Y-237542758D01*
X141238095Y-237542758D02*
X141238095Y-237495139D01*
X141238095Y-237495139D02*
X141285714Y-237399901D01*
X141285714Y-237399901D02*
X141333333Y-237352282D01*
X141333333Y-237352282D02*
X141428571Y-237304663D01*
X141428571Y-237304663D02*
X141619047Y-237304663D01*
X141619047Y-237304663D02*
X141714285Y-237352282D01*
X141714285Y-237352282D02*
X141761904Y-237399901D01*
X141761904Y-237399901D02*
X141809523Y-237495139D01*
X141809523Y-237495139D02*
X141809523Y-237542758D01*
X141809523Y-237542758D02*
X141761904Y-237637996D01*
X141761904Y-237637996D02*
X141714285Y-237685615D01*
X141714285Y-237685615D02*
X141619047Y-237733234D01*
X141619047Y-237733234D02*
X141428571Y-237733234D01*
X141428571Y-237733234D02*
X141333333Y-237780853D01*
X141333333Y-237780853D02*
X141285714Y-237828472D01*
X141285714Y-237828472D02*
X141238095Y-237923710D01*
X141238095Y-237923710D02*
X141238095Y-238114186D01*
X141238095Y-238114186D02*
X141285714Y-238209424D01*
X141285714Y-238209424D02*
X141333333Y-238257044D01*
X141333333Y-238257044D02*
X141428571Y-238304663D01*
X141428571Y-238304663D02*
X141619047Y-238304663D01*
X141619047Y-238304663D02*
X141714285Y-238257044D01*
X141714285Y-238257044D02*
X141761904Y-238209424D01*
X141761904Y-238209424D02*
X141809523Y-238114186D01*
X141809523Y-238114186D02*
X141809523Y-237923710D01*
X141809523Y-237923710D02*
X141761904Y-237828472D01*
X141761904Y-237828472D02*
X141714285Y-237780853D01*
X141714285Y-237780853D02*
X141619047Y-237733234D01*
D10*
X176109580Y-244127757D02*
X176157200Y-244175376D01*
X176157200Y-244175376D02*
X176204819Y-244318233D01*
X176204819Y-244318233D02*
X176204819Y-244413471D01*
X176204819Y-244413471D02*
X176157200Y-244556328D01*
X176157200Y-244556328D02*
X176061961Y-244651566D01*
X176061961Y-244651566D02*
X175966723Y-244699185D01*
X175966723Y-244699185D02*
X175776247Y-244746804D01*
X175776247Y-244746804D02*
X175633390Y-244746804D01*
X175633390Y-244746804D02*
X175442914Y-244699185D01*
X175442914Y-244699185D02*
X175347676Y-244651566D01*
X175347676Y-244651566D02*
X175252438Y-244556328D01*
X175252438Y-244556328D02*
X175204819Y-244413471D01*
X175204819Y-244413471D02*
X175204819Y-244318233D01*
X175204819Y-244318233D02*
X175252438Y-244175376D01*
X175252438Y-244175376D02*
X175300057Y-244127757D01*
X175204819Y-243794423D02*
X175204819Y-243175376D01*
X175204819Y-243175376D02*
X175585771Y-243508709D01*
X175585771Y-243508709D02*
X175585771Y-243365852D01*
X175585771Y-243365852D02*
X175633390Y-243270614D01*
X175633390Y-243270614D02*
X175681009Y-243222995D01*
X175681009Y-243222995D02*
X175776247Y-243175376D01*
X175776247Y-243175376D02*
X176014342Y-243175376D01*
X176014342Y-243175376D02*
X176109580Y-243222995D01*
X176109580Y-243222995D02*
X176157200Y-243270614D01*
X176157200Y-243270614D02*
X176204819Y-243365852D01*
X176204819Y-243365852D02*
X176204819Y-243651566D01*
X176204819Y-243651566D02*
X176157200Y-243746804D01*
X176157200Y-243746804D02*
X176109580Y-243794423D01*
X175538152Y-242318233D02*
X176204819Y-242318233D01*
X175157200Y-242556328D02*
X175871485Y-242794423D01*
X175871485Y-242794423D02*
X175871485Y-242175376D01*
D11*
X185561905Y-210554663D02*
X185561905Y-209554663D01*
X185561905Y-209554663D02*
X185800000Y-209554663D01*
X185800000Y-209554663D02*
X185942857Y-209602282D01*
X185942857Y-209602282D02*
X186038095Y-209697520D01*
X186038095Y-209697520D02*
X186085714Y-209792758D01*
X186085714Y-209792758D02*
X186133333Y-209983234D01*
X186133333Y-209983234D02*
X186133333Y-210126091D01*
X186133333Y-210126091D02*
X186085714Y-210316567D01*
X186085714Y-210316567D02*
X186038095Y-210411805D01*
X186038095Y-210411805D02*
X185942857Y-210507044D01*
X185942857Y-210507044D02*
X185800000Y-210554663D01*
X185800000Y-210554663D02*
X185561905Y-210554663D01*
X187038095Y-209554663D02*
X186561905Y-209554663D01*
X186561905Y-209554663D02*
X186514286Y-210030853D01*
X186514286Y-210030853D02*
X186561905Y-209983234D01*
X186561905Y-209983234D02*
X186657143Y-209935615D01*
X186657143Y-209935615D02*
X186895238Y-209935615D01*
X186895238Y-209935615D02*
X186990476Y-209983234D01*
X186990476Y-209983234D02*
X187038095Y-210030853D01*
X187038095Y-210030853D02*
X187085714Y-210126091D01*
X187085714Y-210126091D02*
X187085714Y-210364186D01*
X187085714Y-210364186D02*
X187038095Y-210459424D01*
X187038095Y-210459424D02*
X186990476Y-210507044D01*
X186990476Y-210507044D02*
X186895238Y-210554663D01*
X186895238Y-210554663D02*
X186657143Y-210554663D01*
X186657143Y-210554663D02*
X186561905Y-210507044D01*
X186561905Y-210507044D02*
X186514286Y-210459424D01*
D10*
X164857142Y-224284819D02*
X164523809Y-223808628D01*
X164285714Y-224284819D02*
X164285714Y-223284819D01*
X164285714Y-223284819D02*
X164666666Y-223284819D01*
X164666666Y-223284819D02*
X164761904Y-223332438D01*
X164761904Y-223332438D02*
X164809523Y-223380057D01*
X164809523Y-223380057D02*
X164857142Y-223475295D01*
X164857142Y-223475295D02*
X164857142Y-223618152D01*
X164857142Y-223618152D02*
X164809523Y-223713390D01*
X164809523Y-223713390D02*
X164761904Y-223761009D01*
X164761904Y-223761009D02*
X164666666Y-223808628D01*
X164666666Y-223808628D02*
X164285714Y-223808628D01*
X165190476Y-223284819D02*
X165809523Y-223284819D01*
X165809523Y-223284819D02*
X165476190Y-223665771D01*
X165476190Y-223665771D02*
X165619047Y-223665771D01*
X165619047Y-223665771D02*
X165714285Y-223713390D01*
X165714285Y-223713390D02*
X165761904Y-223761009D01*
X165761904Y-223761009D02*
X165809523Y-223856247D01*
X165809523Y-223856247D02*
X165809523Y-224094342D01*
X165809523Y-224094342D02*
X165761904Y-224189580D01*
X165761904Y-224189580D02*
X165714285Y-224237200D01*
X165714285Y-224237200D02*
X165619047Y-224284819D01*
X165619047Y-224284819D02*
X165333333Y-224284819D01*
X165333333Y-224284819D02*
X165238095Y-224237200D01*
X165238095Y-224237200D02*
X165190476Y-224189580D01*
X166428571Y-223284819D02*
X166523809Y-223284819D01*
X166523809Y-223284819D02*
X166619047Y-223332438D01*
X166619047Y-223332438D02*
X166666666Y-223380057D01*
X166666666Y-223380057D02*
X166714285Y-223475295D01*
X166714285Y-223475295D02*
X166761904Y-223665771D01*
X166761904Y-223665771D02*
X166761904Y-223903866D01*
X166761904Y-223903866D02*
X166714285Y-224094342D01*
X166714285Y-224094342D02*
X166666666Y-224189580D01*
X166666666Y-224189580D02*
X166619047Y-224237200D01*
X166619047Y-224237200D02*
X166523809Y-224284819D01*
X166523809Y-224284819D02*
X166428571Y-224284819D01*
X166428571Y-224284819D02*
X166333333Y-224237200D01*
X166333333Y-224237200D02*
X166285714Y-224189580D01*
X166285714Y-224189580D02*
X166238095Y-224094342D01*
X166238095Y-224094342D02*
X166190476Y-223903866D01*
X166190476Y-223903866D02*
X166190476Y-223665771D01*
X166190476Y-223665771D02*
X166238095Y-223475295D01*
X166238095Y-223475295D02*
X166285714Y-223380057D01*
X166285714Y-223380057D02*
X166333333Y-223332438D01*
X166333333Y-223332438D02*
X166428571Y-223284819D01*
D11*
X179157142Y-201654663D02*
X178823809Y-201178472D01*
X178585714Y-201654663D02*
X178585714Y-200654663D01*
X178585714Y-200654663D02*
X178966666Y-200654663D01*
X178966666Y-200654663D02*
X179061904Y-200702282D01*
X179061904Y-200702282D02*
X179109523Y-200749901D01*
X179109523Y-200749901D02*
X179157142Y-200845139D01*
X179157142Y-200845139D02*
X179157142Y-200987996D01*
X179157142Y-200987996D02*
X179109523Y-201083234D01*
X179109523Y-201083234D02*
X179061904Y-201130853D01*
X179061904Y-201130853D02*
X178966666Y-201178472D01*
X178966666Y-201178472D02*
X178585714Y-201178472D01*
X179538095Y-200749901D02*
X179585714Y-200702282D01*
X179585714Y-200702282D02*
X179680952Y-200654663D01*
X179680952Y-200654663D02*
X179919047Y-200654663D01*
X179919047Y-200654663D02*
X180014285Y-200702282D01*
X180014285Y-200702282D02*
X180061904Y-200749901D01*
X180061904Y-200749901D02*
X180109523Y-200845139D01*
X180109523Y-200845139D02*
X180109523Y-200940377D01*
X180109523Y-200940377D02*
X180061904Y-201083234D01*
X180061904Y-201083234D02*
X179490476Y-201654663D01*
X179490476Y-201654663D02*
X180109523Y-201654663D01*
X181061904Y-201654663D02*
X180490476Y-201654663D01*
X180776190Y-201654663D02*
X180776190Y-200654663D01*
X180776190Y-200654663D02*
X180680952Y-200797520D01*
X180680952Y-200797520D02*
X180585714Y-200892758D01*
X180585714Y-200892758D02*
X180490476Y-200940377D01*
D10*
X184159580Y-244181357D02*
X184207200Y-244228976D01*
X184207200Y-244228976D02*
X184254819Y-244371833D01*
X184254819Y-244371833D02*
X184254819Y-244467071D01*
X184254819Y-244467071D02*
X184207200Y-244609928D01*
X184207200Y-244609928D02*
X184111961Y-244705166D01*
X184111961Y-244705166D02*
X184016723Y-244752785D01*
X184016723Y-244752785D02*
X183826247Y-244800404D01*
X183826247Y-244800404D02*
X183683390Y-244800404D01*
X183683390Y-244800404D02*
X183492914Y-244752785D01*
X183492914Y-244752785D02*
X183397676Y-244705166D01*
X183397676Y-244705166D02*
X183302438Y-244609928D01*
X183302438Y-244609928D02*
X183254819Y-244467071D01*
X183254819Y-244467071D02*
X183254819Y-244371833D01*
X183254819Y-244371833D02*
X183302438Y-244228976D01*
X183302438Y-244228976D02*
X183350057Y-244181357D01*
X183254819Y-243848023D02*
X183254819Y-243228976D01*
X183254819Y-243228976D02*
X183635771Y-243562309D01*
X183635771Y-243562309D02*
X183635771Y-243419452D01*
X183635771Y-243419452D02*
X183683390Y-243324214D01*
X183683390Y-243324214D02*
X183731009Y-243276595D01*
X183731009Y-243276595D02*
X183826247Y-243228976D01*
X183826247Y-243228976D02*
X184064342Y-243228976D01*
X184064342Y-243228976D02*
X184159580Y-243276595D01*
X184159580Y-243276595D02*
X184207200Y-243324214D01*
X184207200Y-243324214D02*
X184254819Y-243419452D01*
X184254819Y-243419452D02*
X184254819Y-243705166D01*
X184254819Y-243705166D02*
X184207200Y-243800404D01*
X184207200Y-243800404D02*
X184159580Y-243848023D01*
X183254819Y-242324214D02*
X183254819Y-242800404D01*
X183254819Y-242800404D02*
X183731009Y-242848023D01*
X183731009Y-242848023D02*
X183683390Y-242800404D01*
X183683390Y-242800404D02*
X183635771Y-242705166D01*
X183635771Y-242705166D02*
X183635771Y-242467071D01*
X183635771Y-242467071D02*
X183683390Y-242371833D01*
X183683390Y-242371833D02*
X183731009Y-242324214D01*
X183731009Y-242324214D02*
X183826247Y-242276595D01*
X183826247Y-242276595D02*
X184064342Y-242276595D01*
X184064342Y-242276595D02*
X184159580Y-242324214D01*
X184159580Y-242324214D02*
X184207200Y-242371833D01*
X184207200Y-242371833D02*
X184254819Y-242467071D01*
X184254819Y-242467071D02*
X184254819Y-242705166D01*
X184254819Y-242705166D02*
X184207200Y-242800404D01*
X184207200Y-242800404D02*
X184159580Y-242848023D01*
D11*
X157454663Y-206592857D02*
X156978472Y-206926190D01*
X157454663Y-207164285D02*
X156454663Y-207164285D01*
X156454663Y-207164285D02*
X156454663Y-206783333D01*
X156454663Y-206783333D02*
X156502282Y-206688095D01*
X156502282Y-206688095D02*
X156549901Y-206640476D01*
X156549901Y-206640476D02*
X156645139Y-206592857D01*
X156645139Y-206592857D02*
X156787996Y-206592857D01*
X156787996Y-206592857D02*
X156883234Y-206640476D01*
X156883234Y-206640476D02*
X156930853Y-206688095D01*
X156930853Y-206688095D02*
X156978472Y-206783333D01*
X156978472Y-206783333D02*
X156978472Y-207164285D01*
X156454663Y-206259523D02*
X156454663Y-205640476D01*
X156454663Y-205640476D02*
X156835615Y-205973809D01*
X156835615Y-205973809D02*
X156835615Y-205830952D01*
X156835615Y-205830952D02*
X156883234Y-205735714D01*
X156883234Y-205735714D02*
X156930853Y-205688095D01*
X156930853Y-205688095D02*
X157026091Y-205640476D01*
X157026091Y-205640476D02*
X157264186Y-205640476D01*
X157264186Y-205640476D02*
X157359424Y-205688095D01*
X157359424Y-205688095D02*
X157407044Y-205735714D01*
X157407044Y-205735714D02*
X157454663Y-205830952D01*
X157454663Y-205830952D02*
X157454663Y-206116666D01*
X157454663Y-206116666D02*
X157407044Y-206211904D01*
X157407044Y-206211904D02*
X157359424Y-206259523D01*
X156549901Y-205259523D02*
X156502282Y-205211904D01*
X156502282Y-205211904D02*
X156454663Y-205116666D01*
X156454663Y-205116666D02*
X156454663Y-204878571D01*
X156454663Y-204878571D02*
X156502282Y-204783333D01*
X156502282Y-204783333D02*
X156549901Y-204735714D01*
X156549901Y-204735714D02*
X156645139Y-204688095D01*
X156645139Y-204688095D02*
X156740377Y-204688095D01*
X156740377Y-204688095D02*
X156883234Y-204735714D01*
X156883234Y-204735714D02*
X157454663Y-205307142D01*
X157454663Y-205307142D02*
X157454663Y-204688095D01*
X162557142Y-183854663D02*
X162223809Y-183378472D01*
X161985714Y-183854663D02*
X161985714Y-182854663D01*
X161985714Y-182854663D02*
X162366666Y-182854663D01*
X162366666Y-182854663D02*
X162461904Y-182902282D01*
X162461904Y-182902282D02*
X162509523Y-182949901D01*
X162509523Y-182949901D02*
X162557142Y-183045139D01*
X162557142Y-183045139D02*
X162557142Y-183187996D01*
X162557142Y-183187996D02*
X162509523Y-183283234D01*
X162509523Y-183283234D02*
X162461904Y-183330853D01*
X162461904Y-183330853D02*
X162366666Y-183378472D01*
X162366666Y-183378472D02*
X161985714Y-183378472D01*
X163414285Y-183187996D02*
X163414285Y-183854663D01*
X163176190Y-182807044D02*
X162938095Y-183521329D01*
X162938095Y-183521329D02*
X163557142Y-183521329D01*
X164128571Y-182854663D02*
X164223809Y-182854663D01*
X164223809Y-182854663D02*
X164319047Y-182902282D01*
X164319047Y-182902282D02*
X164366666Y-182949901D01*
X164366666Y-182949901D02*
X164414285Y-183045139D01*
X164414285Y-183045139D02*
X164461904Y-183235615D01*
X164461904Y-183235615D02*
X164461904Y-183473710D01*
X164461904Y-183473710D02*
X164414285Y-183664186D01*
X164414285Y-183664186D02*
X164366666Y-183759424D01*
X164366666Y-183759424D02*
X164319047Y-183807044D01*
X164319047Y-183807044D02*
X164223809Y-183854663D01*
X164223809Y-183854663D02*
X164128571Y-183854663D01*
X164128571Y-183854663D02*
X164033333Y-183807044D01*
X164033333Y-183807044D02*
X163985714Y-183759424D01*
X163985714Y-183759424D02*
X163938095Y-183664186D01*
X163938095Y-183664186D02*
X163890476Y-183473710D01*
X163890476Y-183473710D02*
X163890476Y-183235615D01*
X163890476Y-183235615D02*
X163938095Y-183045139D01*
X163938095Y-183045139D02*
X163985714Y-182949901D01*
X163985714Y-182949901D02*
X164033333Y-182902282D01*
X164033333Y-182902282D02*
X164128571Y-182854663D01*
X174239424Y-188542857D02*
X174287044Y-188590476D01*
X174287044Y-188590476D02*
X174334663Y-188733333D01*
X174334663Y-188733333D02*
X174334663Y-188828571D01*
X174334663Y-188828571D02*
X174287044Y-188971428D01*
X174287044Y-188971428D02*
X174191805Y-189066666D01*
X174191805Y-189066666D02*
X174096567Y-189114285D01*
X174096567Y-189114285D02*
X173906091Y-189161904D01*
X173906091Y-189161904D02*
X173763234Y-189161904D01*
X173763234Y-189161904D02*
X173572758Y-189114285D01*
X173572758Y-189114285D02*
X173477520Y-189066666D01*
X173477520Y-189066666D02*
X173382282Y-188971428D01*
X173382282Y-188971428D02*
X173334663Y-188828571D01*
X173334663Y-188828571D02*
X173334663Y-188733333D01*
X173334663Y-188733333D02*
X173382282Y-188590476D01*
X173382282Y-188590476D02*
X173429901Y-188542857D01*
X173334663Y-188209523D02*
X173334663Y-187590476D01*
X173334663Y-187590476D02*
X173715615Y-187923809D01*
X173715615Y-187923809D02*
X173715615Y-187780952D01*
X173715615Y-187780952D02*
X173763234Y-187685714D01*
X173763234Y-187685714D02*
X173810853Y-187638095D01*
X173810853Y-187638095D02*
X173906091Y-187590476D01*
X173906091Y-187590476D02*
X174144186Y-187590476D01*
X174144186Y-187590476D02*
X174239424Y-187638095D01*
X174239424Y-187638095D02*
X174287044Y-187685714D01*
X174287044Y-187685714D02*
X174334663Y-187780952D01*
X174334663Y-187780952D02*
X174334663Y-188066666D01*
X174334663Y-188066666D02*
X174287044Y-188161904D01*
X174287044Y-188161904D02*
X174239424Y-188209523D01*
X173334663Y-186971428D02*
X173334663Y-186876190D01*
X173334663Y-186876190D02*
X173382282Y-186780952D01*
X173382282Y-186780952D02*
X173429901Y-186733333D01*
X173429901Y-186733333D02*
X173525139Y-186685714D01*
X173525139Y-186685714D02*
X173715615Y-186638095D01*
X173715615Y-186638095D02*
X173953710Y-186638095D01*
X173953710Y-186638095D02*
X174144186Y-186685714D01*
X174144186Y-186685714D02*
X174239424Y-186733333D01*
X174239424Y-186733333D02*
X174287044Y-186780952D01*
X174287044Y-186780952D02*
X174334663Y-186876190D01*
X174334663Y-186876190D02*
X174334663Y-186971428D01*
X174334663Y-186971428D02*
X174287044Y-187066666D01*
X174287044Y-187066666D02*
X174239424Y-187114285D01*
X174239424Y-187114285D02*
X174144186Y-187161904D01*
X174144186Y-187161904D02*
X173953710Y-187209523D01*
X173953710Y-187209523D02*
X173715615Y-187209523D01*
X173715615Y-187209523D02*
X173525139Y-187161904D01*
X173525139Y-187161904D02*
X173429901Y-187114285D01*
X173429901Y-187114285D02*
X173382282Y-187066666D01*
X173382282Y-187066666D02*
X173334663Y-186971428D01*
D10*
X140238095Y-163304819D02*
X140238095Y-162304819D01*
X140238095Y-162781009D02*
X140809523Y-162781009D01*
X140809523Y-163304819D02*
X140809523Y-162304819D01*
X141761904Y-162304819D02*
X141285714Y-162304819D01*
X141285714Y-162304819D02*
X141238095Y-162781009D01*
X141238095Y-162781009D02*
X141285714Y-162733390D01*
X141285714Y-162733390D02*
X141380952Y-162685771D01*
X141380952Y-162685771D02*
X141619047Y-162685771D01*
X141619047Y-162685771D02*
X141714285Y-162733390D01*
X141714285Y-162733390D02*
X141761904Y-162781009D01*
X141761904Y-162781009D02*
X141809523Y-162876247D01*
X141809523Y-162876247D02*
X141809523Y-163114342D01*
X141809523Y-163114342D02*
X141761904Y-163209580D01*
X141761904Y-163209580D02*
X141714285Y-163257200D01*
X141714285Y-163257200D02*
X141619047Y-163304819D01*
X141619047Y-163304819D02*
X141380952Y-163304819D01*
X141380952Y-163304819D02*
X141285714Y-163257200D01*
X141285714Y-163257200D02*
X141238095Y-163209580D01*
D11*
X137654663Y-198842857D02*
X137178472Y-199176190D01*
X137654663Y-199414285D02*
X136654663Y-199414285D01*
X136654663Y-199414285D02*
X136654663Y-199033333D01*
X136654663Y-199033333D02*
X136702282Y-198938095D01*
X136702282Y-198938095D02*
X136749901Y-198890476D01*
X136749901Y-198890476D02*
X136845139Y-198842857D01*
X136845139Y-198842857D02*
X136987996Y-198842857D01*
X136987996Y-198842857D02*
X137083234Y-198890476D01*
X137083234Y-198890476D02*
X137130853Y-198938095D01*
X137130853Y-198938095D02*
X137178472Y-199033333D01*
X137178472Y-199033333D02*
X137178472Y-199414285D01*
X136987996Y-197985714D02*
X137654663Y-197985714D01*
X136607044Y-198223809D02*
X137321329Y-198461904D01*
X137321329Y-198461904D02*
X137321329Y-197842857D01*
X136749901Y-197509523D02*
X136702282Y-197461904D01*
X136702282Y-197461904D02*
X136654663Y-197366666D01*
X136654663Y-197366666D02*
X136654663Y-197128571D01*
X136654663Y-197128571D02*
X136702282Y-197033333D01*
X136702282Y-197033333D02*
X136749901Y-196985714D01*
X136749901Y-196985714D02*
X136845139Y-196938095D01*
X136845139Y-196938095D02*
X136940377Y-196938095D01*
X136940377Y-196938095D02*
X137083234Y-196985714D01*
X137083234Y-196985714D02*
X137654663Y-197557142D01*
X137654663Y-197557142D02*
X137654663Y-196938095D01*
D10*
X193954819Y-202616666D02*
X193954819Y-203092856D01*
X193954819Y-203092856D02*
X192954819Y-203092856D01*
X193288152Y-201854761D02*
X193954819Y-201854761D01*
X192907200Y-202092856D02*
X193621485Y-202330951D01*
X193621485Y-202330951D02*
X193621485Y-201711904D01*
D11*
X146461905Y-201554663D02*
X146461905Y-200554663D01*
X146461905Y-200554663D02*
X146700000Y-200554663D01*
X146700000Y-200554663D02*
X146842857Y-200602282D01*
X146842857Y-200602282D02*
X146938095Y-200697520D01*
X146938095Y-200697520D02*
X146985714Y-200792758D01*
X146985714Y-200792758D02*
X147033333Y-200983234D01*
X147033333Y-200983234D02*
X147033333Y-201126091D01*
X147033333Y-201126091D02*
X146985714Y-201316567D01*
X146985714Y-201316567D02*
X146938095Y-201411805D01*
X146938095Y-201411805D02*
X146842857Y-201507044D01*
X146842857Y-201507044D02*
X146700000Y-201554663D01*
X146700000Y-201554663D02*
X146461905Y-201554663D01*
X147985714Y-201554663D02*
X147414286Y-201554663D01*
X147700000Y-201554663D02*
X147700000Y-200554663D01*
X147700000Y-200554663D02*
X147604762Y-200697520D01*
X147604762Y-200697520D02*
X147509524Y-200792758D01*
X147509524Y-200792758D02*
X147414286Y-200840377D01*
X146457142Y-197254663D02*
X146123809Y-196778472D01*
X145885714Y-197254663D02*
X145885714Y-196254663D01*
X145885714Y-196254663D02*
X146266666Y-196254663D01*
X146266666Y-196254663D02*
X146361904Y-196302282D01*
X146361904Y-196302282D02*
X146409523Y-196349901D01*
X146409523Y-196349901D02*
X146457142Y-196445139D01*
X146457142Y-196445139D02*
X146457142Y-196587996D01*
X146457142Y-196587996D02*
X146409523Y-196683234D01*
X146409523Y-196683234D02*
X146361904Y-196730853D01*
X146361904Y-196730853D02*
X146266666Y-196778472D01*
X146266666Y-196778472D02*
X145885714Y-196778472D01*
X147314285Y-196587996D02*
X147314285Y-197254663D01*
X147076190Y-196207044D02*
X146838095Y-196921329D01*
X146838095Y-196921329D02*
X147457142Y-196921329D01*
X148361904Y-197254663D02*
X147790476Y-197254663D01*
X148076190Y-197254663D02*
X148076190Y-196254663D01*
X148076190Y-196254663D02*
X147980952Y-196397520D01*
X147980952Y-196397520D02*
X147885714Y-196492758D01*
X147885714Y-196492758D02*
X147790476Y-196540377D01*
D10*
X194238095Y-238304819D02*
X194238095Y-237304819D01*
X194238095Y-237781009D02*
X194809523Y-237781009D01*
X194809523Y-238304819D02*
X194809523Y-237304819D01*
X195190476Y-237304819D02*
X195857142Y-237304819D01*
X195857142Y-237304819D02*
X195428571Y-238304819D01*
D11*
X171457142Y-179474663D02*
X171123809Y-178998472D01*
X170885714Y-179474663D02*
X170885714Y-178474663D01*
X170885714Y-178474663D02*
X171266666Y-178474663D01*
X171266666Y-178474663D02*
X171361904Y-178522282D01*
X171361904Y-178522282D02*
X171409523Y-178569901D01*
X171409523Y-178569901D02*
X171457142Y-178665139D01*
X171457142Y-178665139D02*
X171457142Y-178807996D01*
X171457142Y-178807996D02*
X171409523Y-178903234D01*
X171409523Y-178903234D02*
X171361904Y-178950853D01*
X171361904Y-178950853D02*
X171266666Y-178998472D01*
X171266666Y-178998472D02*
X170885714Y-178998472D01*
X171838095Y-178569901D02*
X171885714Y-178522282D01*
X171885714Y-178522282D02*
X171980952Y-178474663D01*
X171980952Y-178474663D02*
X172219047Y-178474663D01*
X172219047Y-178474663D02*
X172314285Y-178522282D01*
X172314285Y-178522282D02*
X172361904Y-178569901D01*
X172361904Y-178569901D02*
X172409523Y-178665139D01*
X172409523Y-178665139D02*
X172409523Y-178760377D01*
X172409523Y-178760377D02*
X172361904Y-178903234D01*
X172361904Y-178903234D02*
X171790476Y-179474663D01*
X171790476Y-179474663D02*
X172409523Y-179474663D01*
X173266666Y-178807996D02*
X173266666Y-179474663D01*
X173028571Y-178427044D02*
X172790476Y-179141329D01*
X172790476Y-179141329D02*
X173409523Y-179141329D01*
X166457142Y-179459663D02*
X166123809Y-178983472D01*
X165885714Y-179459663D02*
X165885714Y-178459663D01*
X165885714Y-178459663D02*
X166266666Y-178459663D01*
X166266666Y-178459663D02*
X166361904Y-178507282D01*
X166361904Y-178507282D02*
X166409523Y-178554901D01*
X166409523Y-178554901D02*
X166457142Y-178650139D01*
X166457142Y-178650139D02*
X166457142Y-178792996D01*
X166457142Y-178792996D02*
X166409523Y-178888234D01*
X166409523Y-178888234D02*
X166361904Y-178935853D01*
X166361904Y-178935853D02*
X166266666Y-178983472D01*
X166266666Y-178983472D02*
X165885714Y-178983472D01*
X166838095Y-178554901D02*
X166885714Y-178507282D01*
X166885714Y-178507282D02*
X166980952Y-178459663D01*
X166980952Y-178459663D02*
X167219047Y-178459663D01*
X167219047Y-178459663D02*
X167314285Y-178507282D01*
X167314285Y-178507282D02*
X167361904Y-178554901D01*
X167361904Y-178554901D02*
X167409523Y-178650139D01*
X167409523Y-178650139D02*
X167409523Y-178745377D01*
X167409523Y-178745377D02*
X167361904Y-178888234D01*
X167361904Y-178888234D02*
X166790476Y-179459663D01*
X166790476Y-179459663D02*
X167409523Y-179459663D01*
X167742857Y-178459663D02*
X168361904Y-178459663D01*
X168361904Y-178459663D02*
X168028571Y-178840615D01*
X168028571Y-178840615D02*
X168171428Y-178840615D01*
X168171428Y-178840615D02*
X168266666Y-178888234D01*
X168266666Y-178888234D02*
X168314285Y-178935853D01*
X168314285Y-178935853D02*
X168361904Y-179031091D01*
X168361904Y-179031091D02*
X168361904Y-179269186D01*
X168361904Y-179269186D02*
X168314285Y-179364424D01*
X168314285Y-179364424D02*
X168266666Y-179412044D01*
X168266666Y-179412044D02*
X168171428Y-179459663D01*
X168171428Y-179459663D02*
X167885714Y-179459663D01*
X167885714Y-179459663D02*
X167790476Y-179412044D01*
X167790476Y-179412044D02*
X167742857Y-179364424D01*
X184633333Y-204559424D02*
X184585714Y-204607044D01*
X184585714Y-204607044D02*
X184442857Y-204654663D01*
X184442857Y-204654663D02*
X184347619Y-204654663D01*
X184347619Y-204654663D02*
X184204762Y-204607044D01*
X184204762Y-204607044D02*
X184109524Y-204511805D01*
X184109524Y-204511805D02*
X184061905Y-204416567D01*
X184061905Y-204416567D02*
X184014286Y-204226091D01*
X184014286Y-204226091D02*
X184014286Y-204083234D01*
X184014286Y-204083234D02*
X184061905Y-203892758D01*
X184061905Y-203892758D02*
X184109524Y-203797520D01*
X184109524Y-203797520D02*
X184204762Y-203702282D01*
X184204762Y-203702282D02*
X184347619Y-203654663D01*
X184347619Y-203654663D02*
X184442857Y-203654663D01*
X184442857Y-203654663D02*
X184585714Y-203702282D01*
X184585714Y-203702282D02*
X184633333Y-203749901D01*
X185633333Y-204654663D02*
X185300000Y-204178472D01*
X185061905Y-204654663D02*
X185061905Y-203654663D01*
X185061905Y-203654663D02*
X185442857Y-203654663D01*
X185442857Y-203654663D02*
X185538095Y-203702282D01*
X185538095Y-203702282D02*
X185585714Y-203749901D01*
X185585714Y-203749901D02*
X185633333Y-203845139D01*
X185633333Y-203845139D02*
X185633333Y-203987996D01*
X185633333Y-203987996D02*
X185585714Y-204083234D01*
X185585714Y-204083234D02*
X185538095Y-204130853D01*
X185538095Y-204130853D02*
X185442857Y-204178472D01*
X185442857Y-204178472D02*
X185061905Y-204178472D01*
X186490476Y-203654663D02*
X186300000Y-203654663D01*
X186300000Y-203654663D02*
X186204762Y-203702282D01*
X186204762Y-203702282D02*
X186157143Y-203749901D01*
X186157143Y-203749901D02*
X186061905Y-203892758D01*
X186061905Y-203892758D02*
X186014286Y-204083234D01*
X186014286Y-204083234D02*
X186014286Y-204464186D01*
X186014286Y-204464186D02*
X186061905Y-204559424D01*
X186061905Y-204559424D02*
X186109524Y-204607044D01*
X186109524Y-204607044D02*
X186204762Y-204654663D01*
X186204762Y-204654663D02*
X186395238Y-204654663D01*
X186395238Y-204654663D02*
X186490476Y-204607044D01*
X186490476Y-204607044D02*
X186538095Y-204559424D01*
X186538095Y-204559424D02*
X186585714Y-204464186D01*
X186585714Y-204464186D02*
X186585714Y-204226091D01*
X186585714Y-204226091D02*
X186538095Y-204130853D01*
X186538095Y-204130853D02*
X186490476Y-204083234D01*
X186490476Y-204083234D02*
X186395238Y-204035615D01*
X186395238Y-204035615D02*
X186204762Y-204035615D01*
X186204762Y-204035615D02*
X186109524Y-204083234D01*
X186109524Y-204083234D02*
X186061905Y-204130853D01*
X186061905Y-204130853D02*
X186014286Y-204226091D01*
X168609424Y-243846457D02*
X168657044Y-243894076D01*
X168657044Y-243894076D02*
X168704663Y-244036933D01*
X168704663Y-244036933D02*
X168704663Y-244132171D01*
X168704663Y-244132171D02*
X168657044Y-244275028D01*
X168657044Y-244275028D02*
X168561805Y-244370266D01*
X168561805Y-244370266D02*
X168466567Y-244417885D01*
X168466567Y-244417885D02*
X168276091Y-244465504D01*
X168276091Y-244465504D02*
X168133234Y-244465504D01*
X168133234Y-244465504D02*
X167942758Y-244417885D01*
X167942758Y-244417885D02*
X167847520Y-244370266D01*
X167847520Y-244370266D02*
X167752282Y-244275028D01*
X167752282Y-244275028D02*
X167704663Y-244132171D01*
X167704663Y-244132171D02*
X167704663Y-244036933D01*
X167704663Y-244036933D02*
X167752282Y-243894076D01*
X167752282Y-243894076D02*
X167799901Y-243846457D01*
X167704663Y-243513123D02*
X167704663Y-242894076D01*
X167704663Y-242894076D02*
X168085615Y-243227409D01*
X168085615Y-243227409D02*
X168085615Y-243084552D01*
X168085615Y-243084552D02*
X168133234Y-242989314D01*
X168133234Y-242989314D02*
X168180853Y-242941695D01*
X168180853Y-242941695D02*
X168276091Y-242894076D01*
X168276091Y-242894076D02*
X168514186Y-242894076D01*
X168514186Y-242894076D02*
X168609424Y-242941695D01*
X168609424Y-242941695D02*
X168657044Y-242989314D01*
X168657044Y-242989314D02*
X168704663Y-243084552D01*
X168704663Y-243084552D02*
X168704663Y-243370266D01*
X168704663Y-243370266D02*
X168657044Y-243465504D01*
X168657044Y-243465504D02*
X168609424Y-243513123D01*
X167704663Y-242560742D02*
X167704663Y-241941695D01*
X167704663Y-241941695D02*
X168085615Y-242275028D01*
X168085615Y-242275028D02*
X168085615Y-242132171D01*
X168085615Y-242132171D02*
X168133234Y-242036933D01*
X168133234Y-242036933D02*
X168180853Y-241989314D01*
X168180853Y-241989314D02*
X168276091Y-241941695D01*
X168276091Y-241941695D02*
X168514186Y-241941695D01*
X168514186Y-241941695D02*
X168609424Y-241989314D01*
X168609424Y-241989314D02*
X168657044Y-242036933D01*
X168657044Y-242036933D02*
X168704663Y-242132171D01*
X168704663Y-242132171D02*
X168704663Y-242417885D01*
X168704663Y-242417885D02*
X168657044Y-242513123D01*
X168657044Y-242513123D02*
X168609424Y-242560742D01*
X172454663Y-214542857D02*
X171978472Y-214876190D01*
X172454663Y-215114285D02*
X171454663Y-215114285D01*
X171454663Y-215114285D02*
X171454663Y-214733333D01*
X171454663Y-214733333D02*
X171502282Y-214638095D01*
X171502282Y-214638095D02*
X171549901Y-214590476D01*
X171549901Y-214590476D02*
X171645139Y-214542857D01*
X171645139Y-214542857D02*
X171787996Y-214542857D01*
X171787996Y-214542857D02*
X171883234Y-214590476D01*
X171883234Y-214590476D02*
X171930853Y-214638095D01*
X171930853Y-214638095D02*
X171978472Y-214733333D01*
X171978472Y-214733333D02*
X171978472Y-215114285D01*
X171454663Y-214209523D02*
X171454663Y-213590476D01*
X171454663Y-213590476D02*
X171835615Y-213923809D01*
X171835615Y-213923809D02*
X171835615Y-213780952D01*
X171835615Y-213780952D02*
X171883234Y-213685714D01*
X171883234Y-213685714D02*
X171930853Y-213638095D01*
X171930853Y-213638095D02*
X172026091Y-213590476D01*
X172026091Y-213590476D02*
X172264186Y-213590476D01*
X172264186Y-213590476D02*
X172359424Y-213638095D01*
X172359424Y-213638095D02*
X172407044Y-213685714D01*
X172407044Y-213685714D02*
X172454663Y-213780952D01*
X172454663Y-213780952D02*
X172454663Y-214066666D01*
X172454663Y-214066666D02*
X172407044Y-214161904D01*
X172407044Y-214161904D02*
X172359424Y-214209523D01*
X171787996Y-212733333D02*
X172454663Y-212733333D01*
X171407044Y-212971428D02*
X172121329Y-213209523D01*
X172121329Y-213209523D02*
X172121329Y-212590476D01*
X161457142Y-197354663D02*
X161123809Y-196878472D01*
X160885714Y-197354663D02*
X160885714Y-196354663D01*
X160885714Y-196354663D02*
X161266666Y-196354663D01*
X161266666Y-196354663D02*
X161361904Y-196402282D01*
X161361904Y-196402282D02*
X161409523Y-196449901D01*
X161409523Y-196449901D02*
X161457142Y-196545139D01*
X161457142Y-196545139D02*
X161457142Y-196687996D01*
X161457142Y-196687996D02*
X161409523Y-196783234D01*
X161409523Y-196783234D02*
X161361904Y-196830853D01*
X161361904Y-196830853D02*
X161266666Y-196878472D01*
X161266666Y-196878472D02*
X160885714Y-196878472D01*
X161790476Y-196354663D02*
X162409523Y-196354663D01*
X162409523Y-196354663D02*
X162076190Y-196735615D01*
X162076190Y-196735615D02*
X162219047Y-196735615D01*
X162219047Y-196735615D02*
X162314285Y-196783234D01*
X162314285Y-196783234D02*
X162361904Y-196830853D01*
X162361904Y-196830853D02*
X162409523Y-196926091D01*
X162409523Y-196926091D02*
X162409523Y-197164186D01*
X162409523Y-197164186D02*
X162361904Y-197259424D01*
X162361904Y-197259424D02*
X162314285Y-197307044D01*
X162314285Y-197307044D02*
X162219047Y-197354663D01*
X162219047Y-197354663D02*
X161933333Y-197354663D01*
X161933333Y-197354663D02*
X161838095Y-197307044D01*
X161838095Y-197307044D02*
X161790476Y-197259424D01*
X162980952Y-196783234D02*
X162885714Y-196735615D01*
X162885714Y-196735615D02*
X162838095Y-196687996D01*
X162838095Y-196687996D02*
X162790476Y-196592758D01*
X162790476Y-196592758D02*
X162790476Y-196545139D01*
X162790476Y-196545139D02*
X162838095Y-196449901D01*
X162838095Y-196449901D02*
X162885714Y-196402282D01*
X162885714Y-196402282D02*
X162980952Y-196354663D01*
X162980952Y-196354663D02*
X163171428Y-196354663D01*
X163171428Y-196354663D02*
X163266666Y-196402282D01*
X163266666Y-196402282D02*
X163314285Y-196449901D01*
X163314285Y-196449901D02*
X163361904Y-196545139D01*
X163361904Y-196545139D02*
X163361904Y-196592758D01*
X163361904Y-196592758D02*
X163314285Y-196687996D01*
X163314285Y-196687996D02*
X163266666Y-196735615D01*
X163266666Y-196735615D02*
X163171428Y-196783234D01*
X163171428Y-196783234D02*
X162980952Y-196783234D01*
X162980952Y-196783234D02*
X162885714Y-196830853D01*
X162885714Y-196830853D02*
X162838095Y-196878472D01*
X162838095Y-196878472D02*
X162790476Y-196973710D01*
X162790476Y-196973710D02*
X162790476Y-197164186D01*
X162790476Y-197164186D02*
X162838095Y-197259424D01*
X162838095Y-197259424D02*
X162885714Y-197307044D01*
X162885714Y-197307044D02*
X162980952Y-197354663D01*
X162980952Y-197354663D02*
X163171428Y-197354663D01*
X163171428Y-197354663D02*
X163266666Y-197307044D01*
X163266666Y-197307044D02*
X163314285Y-197259424D01*
X163314285Y-197259424D02*
X163361904Y-197164186D01*
X163361904Y-197164186D02*
X163361904Y-196973710D01*
X163361904Y-196973710D02*
X163314285Y-196878472D01*
X163314285Y-196878472D02*
X163266666Y-196830853D01*
X163266666Y-196830853D02*
X163171428Y-196783234D01*
X145654663Y-205966666D02*
X145178472Y-206299999D01*
X145654663Y-206538094D02*
X144654663Y-206538094D01*
X144654663Y-206538094D02*
X144654663Y-206157142D01*
X144654663Y-206157142D02*
X144702282Y-206061904D01*
X144702282Y-206061904D02*
X144749901Y-206014285D01*
X144749901Y-206014285D02*
X144845139Y-205966666D01*
X144845139Y-205966666D02*
X144987996Y-205966666D01*
X144987996Y-205966666D02*
X145083234Y-206014285D01*
X145083234Y-206014285D02*
X145130853Y-206061904D01*
X145130853Y-206061904D02*
X145178472Y-206157142D01*
X145178472Y-206157142D02*
X145178472Y-206538094D01*
X144987996Y-205109523D02*
X145654663Y-205109523D01*
X144607044Y-205347618D02*
X145321329Y-205585713D01*
X145321329Y-205585713D02*
X145321329Y-204966666D01*
D10*
X170366666Y-227554819D02*
X170366666Y-228269104D01*
X170366666Y-228269104D02*
X170319047Y-228411961D01*
X170319047Y-228411961D02*
X170223809Y-228507200D01*
X170223809Y-228507200D02*
X170080952Y-228554819D01*
X170080952Y-228554819D02*
X169985714Y-228554819D01*
X171366666Y-228554819D02*
X170795238Y-228554819D01*
X171080952Y-228554819D02*
X171080952Y-227554819D01*
X171080952Y-227554819D02*
X170985714Y-227697676D01*
X170985714Y-227697676D02*
X170890476Y-227792914D01*
X170890476Y-227792914D02*
X170795238Y-227840533D01*
X174890475Y-224294819D02*
X174319047Y-224294819D01*
X174604761Y-224294819D02*
X174604761Y-223294819D01*
X174604761Y-223294819D02*
X174509523Y-223437676D01*
X174509523Y-223437676D02*
X174414285Y-223532914D01*
X174414285Y-223532914D02*
X174319047Y-223580533D01*
X175271428Y-223390057D02*
X175319047Y-223342438D01*
X175319047Y-223342438D02*
X175414285Y-223294819D01*
X175414285Y-223294819D02*
X175652380Y-223294819D01*
X175652380Y-223294819D02*
X175747618Y-223342438D01*
X175747618Y-223342438D02*
X175795237Y-223390057D01*
X175795237Y-223390057D02*
X175842856Y-223485295D01*
X175842856Y-223485295D02*
X175842856Y-223580533D01*
X175842856Y-223580533D02*
X175795237Y-223723390D01*
X175795237Y-223723390D02*
X175223809Y-224294819D01*
X175223809Y-224294819D02*
X175842856Y-224294819D01*
X176128571Y-223294819D02*
X176461904Y-224294819D01*
X176461904Y-224294819D02*
X176795237Y-223294819D01*
X177271428Y-224294819D02*
X177176190Y-224247200D01*
X177176190Y-224247200D02*
X177128571Y-224199580D01*
X177128571Y-224199580D02*
X177080952Y-224104342D01*
X177080952Y-224104342D02*
X177080952Y-223818628D01*
X177080952Y-223818628D02*
X177128571Y-223723390D01*
X177128571Y-223723390D02*
X177176190Y-223675771D01*
X177176190Y-223675771D02*
X177271428Y-223628152D01*
X177271428Y-223628152D02*
X177414285Y-223628152D01*
X177414285Y-223628152D02*
X177509523Y-223675771D01*
X177509523Y-223675771D02*
X177557142Y-223723390D01*
X177557142Y-223723390D02*
X177604761Y-223818628D01*
X177604761Y-223818628D02*
X177604761Y-224104342D01*
X177604761Y-224104342D02*
X177557142Y-224199580D01*
X177557142Y-224199580D02*
X177509523Y-224247200D01*
X177509523Y-224247200D02*
X177414285Y-224294819D01*
X177414285Y-224294819D02*
X177271428Y-224294819D01*
X178461904Y-223628152D02*
X178461904Y-224294819D01*
X178033333Y-223628152D02*
X178033333Y-224151961D01*
X178033333Y-224151961D02*
X178080952Y-224247200D01*
X178080952Y-224247200D02*
X178176190Y-224294819D01*
X178176190Y-224294819D02*
X178319047Y-224294819D01*
X178319047Y-224294819D02*
X178414285Y-224247200D01*
X178414285Y-224247200D02*
X178461904Y-224199580D01*
X178795238Y-223628152D02*
X179176190Y-223628152D01*
X178938095Y-223294819D02*
X178938095Y-224151961D01*
X178938095Y-224151961D02*
X178985714Y-224247200D01*
X178985714Y-224247200D02*
X179080952Y-224294819D01*
X179080952Y-224294819D02*
X179176190Y-224294819D01*
D11*
X169757142Y-197139424D02*
X169709523Y-197187044D01*
X169709523Y-197187044D02*
X169566666Y-197234663D01*
X169566666Y-197234663D02*
X169471428Y-197234663D01*
X169471428Y-197234663D02*
X169328571Y-197187044D01*
X169328571Y-197187044D02*
X169233333Y-197091805D01*
X169233333Y-197091805D02*
X169185714Y-196996567D01*
X169185714Y-196996567D02*
X169138095Y-196806091D01*
X169138095Y-196806091D02*
X169138095Y-196663234D01*
X169138095Y-196663234D02*
X169185714Y-196472758D01*
X169185714Y-196472758D02*
X169233333Y-196377520D01*
X169233333Y-196377520D02*
X169328571Y-196282282D01*
X169328571Y-196282282D02*
X169471428Y-196234663D01*
X169471428Y-196234663D02*
X169566666Y-196234663D01*
X169566666Y-196234663D02*
X169709523Y-196282282D01*
X169709523Y-196282282D02*
X169757142Y-196329901D01*
X170138095Y-196329901D02*
X170185714Y-196282282D01*
X170185714Y-196282282D02*
X170280952Y-196234663D01*
X170280952Y-196234663D02*
X170519047Y-196234663D01*
X170519047Y-196234663D02*
X170614285Y-196282282D01*
X170614285Y-196282282D02*
X170661904Y-196329901D01*
X170661904Y-196329901D02*
X170709523Y-196425139D01*
X170709523Y-196425139D02*
X170709523Y-196520377D01*
X170709523Y-196520377D02*
X170661904Y-196663234D01*
X170661904Y-196663234D02*
X170090476Y-197234663D01*
X170090476Y-197234663D02*
X170709523Y-197234663D01*
X171185714Y-197234663D02*
X171376190Y-197234663D01*
X171376190Y-197234663D02*
X171471428Y-197187044D01*
X171471428Y-197187044D02*
X171519047Y-197139424D01*
X171519047Y-197139424D02*
X171614285Y-196996567D01*
X171614285Y-196996567D02*
X171661904Y-196806091D01*
X171661904Y-196806091D02*
X171661904Y-196425139D01*
X171661904Y-196425139D02*
X171614285Y-196329901D01*
X171614285Y-196329901D02*
X171566666Y-196282282D01*
X171566666Y-196282282D02*
X171471428Y-196234663D01*
X171471428Y-196234663D02*
X171280952Y-196234663D01*
X171280952Y-196234663D02*
X171185714Y-196282282D01*
X171185714Y-196282282D02*
X171138095Y-196329901D01*
X171138095Y-196329901D02*
X171090476Y-196425139D01*
X171090476Y-196425139D02*
X171090476Y-196663234D01*
X171090476Y-196663234D02*
X171138095Y-196758472D01*
X171138095Y-196758472D02*
X171185714Y-196806091D01*
X171185714Y-196806091D02*
X171280952Y-196853710D01*
X171280952Y-196853710D02*
X171471428Y-196853710D01*
X171471428Y-196853710D02*
X171566666Y-196806091D01*
X171566666Y-196806091D02*
X171614285Y-196758472D01*
X171614285Y-196758472D02*
X171661904Y-196663234D01*
D10*
X186366666Y-227254819D02*
X186366666Y-227969104D01*
X186366666Y-227969104D02*
X186319047Y-228111961D01*
X186319047Y-228111961D02*
X186223809Y-228207200D01*
X186223809Y-228207200D02*
X186080952Y-228254819D01*
X186080952Y-228254819D02*
X185985714Y-228254819D01*
X186795238Y-227350057D02*
X186842857Y-227302438D01*
X186842857Y-227302438D02*
X186938095Y-227254819D01*
X186938095Y-227254819D02*
X187176190Y-227254819D01*
X187176190Y-227254819D02*
X187271428Y-227302438D01*
X187271428Y-227302438D02*
X187319047Y-227350057D01*
X187319047Y-227350057D02*
X187366666Y-227445295D01*
X187366666Y-227445295D02*
X187366666Y-227540533D01*
X187366666Y-227540533D02*
X187319047Y-227683390D01*
X187319047Y-227683390D02*
X186747619Y-228254819D01*
X186747619Y-228254819D02*
X187366666Y-228254819D01*
X191042856Y-223602438D02*
X190947618Y-223554819D01*
X190947618Y-223554819D02*
X190804761Y-223554819D01*
X190804761Y-223554819D02*
X190661904Y-223602438D01*
X190661904Y-223602438D02*
X190566666Y-223697676D01*
X190566666Y-223697676D02*
X190519047Y-223792914D01*
X190519047Y-223792914D02*
X190471428Y-223983390D01*
X190471428Y-223983390D02*
X190471428Y-224126247D01*
X190471428Y-224126247D02*
X190519047Y-224316723D01*
X190519047Y-224316723D02*
X190566666Y-224411961D01*
X190566666Y-224411961D02*
X190661904Y-224507200D01*
X190661904Y-224507200D02*
X190804761Y-224554819D01*
X190804761Y-224554819D02*
X190899999Y-224554819D01*
X190899999Y-224554819D02*
X191042856Y-224507200D01*
X191042856Y-224507200D02*
X191090475Y-224459580D01*
X191090475Y-224459580D02*
X191090475Y-224126247D01*
X191090475Y-224126247D02*
X190899999Y-224126247D01*
X191519047Y-224554819D02*
X191519047Y-223888152D01*
X191519047Y-224078628D02*
X191566666Y-223983390D01*
X191566666Y-223983390D02*
X191614285Y-223935771D01*
X191614285Y-223935771D02*
X191709523Y-223888152D01*
X191709523Y-223888152D02*
X191804761Y-223888152D01*
X192280952Y-224554819D02*
X192185714Y-224507200D01*
X192185714Y-224507200D02*
X192138095Y-224459580D01*
X192138095Y-224459580D02*
X192090476Y-224364342D01*
X192090476Y-224364342D02*
X192090476Y-224078628D01*
X192090476Y-224078628D02*
X192138095Y-223983390D01*
X192138095Y-223983390D02*
X192185714Y-223935771D01*
X192185714Y-223935771D02*
X192280952Y-223888152D01*
X192280952Y-223888152D02*
X192423809Y-223888152D01*
X192423809Y-223888152D02*
X192519047Y-223935771D01*
X192519047Y-223935771D02*
X192566666Y-223983390D01*
X192566666Y-223983390D02*
X192614285Y-224078628D01*
X192614285Y-224078628D02*
X192614285Y-224364342D01*
X192614285Y-224364342D02*
X192566666Y-224459580D01*
X192566666Y-224459580D02*
X192519047Y-224507200D01*
X192519047Y-224507200D02*
X192423809Y-224554819D01*
X192423809Y-224554819D02*
X192280952Y-224554819D01*
X193471428Y-223888152D02*
X193471428Y-224554819D01*
X193042857Y-223888152D02*
X193042857Y-224411961D01*
X193042857Y-224411961D02*
X193090476Y-224507200D01*
X193090476Y-224507200D02*
X193185714Y-224554819D01*
X193185714Y-224554819D02*
X193328571Y-224554819D01*
X193328571Y-224554819D02*
X193423809Y-224507200D01*
X193423809Y-224507200D02*
X193471428Y-224459580D01*
X193947619Y-223888152D02*
X193947619Y-224554819D01*
X193947619Y-223983390D02*
X193995238Y-223935771D01*
X193995238Y-223935771D02*
X194090476Y-223888152D01*
X194090476Y-223888152D02*
X194233333Y-223888152D01*
X194233333Y-223888152D02*
X194328571Y-223935771D01*
X194328571Y-223935771D02*
X194376190Y-224031009D01*
X194376190Y-224031009D02*
X194376190Y-224554819D01*
X195280952Y-224554819D02*
X195280952Y-223554819D01*
X195280952Y-224507200D02*
X195185714Y-224554819D01*
X195185714Y-224554819D02*
X194995238Y-224554819D01*
X194995238Y-224554819D02*
X194900000Y-224507200D01*
X194900000Y-224507200D02*
X194852381Y-224459580D01*
X194852381Y-224459580D02*
X194804762Y-224364342D01*
X194804762Y-224364342D02*
X194804762Y-224078628D01*
X194804762Y-224078628D02*
X194852381Y-223983390D01*
X194852381Y-223983390D02*
X194900000Y-223935771D01*
X194900000Y-223935771D02*
X194995238Y-223888152D01*
X194995238Y-223888152D02*
X195185714Y-223888152D01*
X195185714Y-223888152D02*
X195280952Y-223935771D01*
D11*
X181838095Y-195454663D02*
X181838095Y-196264186D01*
X181838095Y-196264186D02*
X181885714Y-196359424D01*
X181885714Y-196359424D02*
X181933333Y-196407044D01*
X181933333Y-196407044D02*
X182028571Y-196454663D01*
X182028571Y-196454663D02*
X182219047Y-196454663D01*
X182219047Y-196454663D02*
X182314285Y-196407044D01*
X182314285Y-196407044D02*
X182361904Y-196359424D01*
X182361904Y-196359424D02*
X182409523Y-196264186D01*
X182409523Y-196264186D02*
X182409523Y-195454663D01*
X182790476Y-195454663D02*
X183457142Y-195454663D01*
X183457142Y-195454663D02*
X183028571Y-196454663D01*
D12*
%TO.C,R31*%
X165790000Y-215272936D02*
X165790000Y-216727064D01*
X167610000Y-215272936D02*
X167610000Y-216727064D01*
%TO.C,R39*%
X166422936Y-184940000D02*
X167877064Y-184940000D01*
X166422936Y-186760000D02*
X167877064Y-186760000D01*
%TO.C,J16*%
X137850000Y-225100000D02*
X143600000Y-225100000D01*
X137850000Y-231100000D02*
X137850000Y-225100000D01*
X139200000Y-229990000D02*
X144280000Y-229990000D01*
X139200000Y-231000000D02*
X139200000Y-229990000D01*
X144280000Y-229990000D02*
X144280000Y-231000000D01*
X144950000Y-225150000D02*
X148150000Y-225150000D01*
X148150000Y-225150000D02*
X148150000Y-231100000D01*
X148150000Y-231100000D02*
X137850000Y-231100000D01*
%TO.C,C41*%
X175451248Y-203590000D02*
X176873752Y-203590000D01*
X175451248Y-205410000D02*
X176873752Y-205410000D01*
%TO.C,R47*%
X157372936Y-193490000D02*
X158827064Y-193490000D01*
X157372936Y-195310000D02*
X158827064Y-195310000D01*
%TO.C,R26*%
X140272936Y-201290000D02*
X141727064Y-201290000D01*
X140272936Y-203110000D02*
X141727064Y-203110000D01*
%TO.C,R22*%
X176890000Y-187977064D02*
X176890000Y-183622936D01*
X180310000Y-187977064D02*
X180310000Y-183622936D01*
%TO.C,C39*%
X185888748Y-220290000D02*
X187311252Y-220290000D01*
X185888748Y-222110000D02*
X187311252Y-222110000D01*
D13*
%TO.C,U4*%
X163323000Y-201623000D02*
X163323000Y-202342660D01*
X163323000Y-206257340D02*
X163323000Y-206977000D01*
X163323000Y-206977000D02*
X163792660Y-206977000D01*
X163792660Y-201623000D02*
X163323000Y-201623000D01*
X170207340Y-206977000D02*
X170677000Y-206977000D01*
X170677000Y-201623000D02*
X170207340Y-201623000D01*
X170677000Y-202342660D02*
X170677000Y-201623000D01*
X170677000Y-206977000D02*
X170677000Y-206257340D01*
D14*
G36*
X164440500Y-207764400D02*
G01*
X164059500Y-207764400D01*
X164059500Y-207510400D01*
X164440500Y-207510400D01*
X164440500Y-207764400D01*
G37*
G36*
X165440501Y-201089600D02*
G01*
X165059501Y-201089600D01*
X165059501Y-200835600D01*
X165440501Y-200835600D01*
X165440501Y-201089600D01*
G37*
G36*
X169440501Y-207764400D02*
G01*
X169059501Y-207764400D01*
X169059501Y-207510400D01*
X169440501Y-207510400D01*
X169440501Y-207764400D01*
G37*
D12*
%TO.C,R28*%
X149090000Y-201872936D02*
X149090000Y-203327064D01*
X150910000Y-201872936D02*
X150910000Y-203327064D01*
D13*
%TO.C,U8*%
X178150801Y-214933900D02*
X184399201Y-214933900D01*
X184399201Y-209676100D02*
X178150801Y-209676100D01*
X177179201Y-210400000D02*
G75*
G02*
X176925201Y-210400000I-127000J0D01*
G01*
X176925201Y-210400000D02*
G75*
G02*
X177179201Y-210400000I127000J0D01*
G01*
D12*
%TO.C,R45*%
X145190000Y-211172936D02*
X145190000Y-212627064D01*
X147010000Y-211172936D02*
X147010000Y-212627064D01*
%TO.C,R27*%
X151590000Y-201872936D02*
X151590000Y-203327064D01*
X153410000Y-201872936D02*
X153410000Y-203327064D01*
D13*
%TO.C,CR5*%
X183982000Y-217365000D02*
X183982000Y-218635000D01*
X183982000Y-218000000D02*
X184744000Y-217365000D01*
X183982000Y-218000000D02*
X184744000Y-217492000D01*
X183982000Y-218000000D02*
X184744000Y-217619000D01*
X183982000Y-218000000D02*
X184744000Y-217746000D01*
X183982000Y-218000000D02*
X184744000Y-217873000D01*
X183982000Y-218000000D02*
X184744000Y-218127000D01*
X183982000Y-218000000D02*
X184744000Y-218254000D01*
X183982000Y-218000000D02*
X184744000Y-218381000D01*
X183982000Y-218000000D02*
X184744000Y-218508000D01*
X183982000Y-218000000D02*
X184744000Y-218635000D01*
X184744000Y-217365000D02*
X184744000Y-218635000D01*
X184919260Y-218000000D02*
X183728000Y-218000000D01*
X185379000Y-216412500D02*
X185379000Y-216778260D01*
X185379000Y-219221740D02*
X185379000Y-219587500D01*
X185379000Y-219587500D02*
X191221000Y-219587500D01*
X191221000Y-216412500D02*
X185379000Y-216412500D01*
X191221000Y-216778260D02*
X191221000Y-216412500D01*
X191221000Y-219587500D02*
X191221000Y-219221740D01*
D12*
%TO.C,R25*%
X142372936Y-198490000D02*
X143827064Y-198490000D01*
X142372936Y-200310000D02*
X143827064Y-200310000D01*
D15*
%TO.C,Q1*%
X152275000Y-216835000D02*
X146385000Y-216835000D01*
X152275000Y-221895000D02*
X146385000Y-221895000D01*
D16*
X153310000Y-221270000D02*
G75*
G02*
X153110000Y-221270000I-100000J0D01*
G01*
X153110000Y-221270000D02*
G75*
G02*
X153310000Y-221270000I100000J0D01*
G01*
D12*
%TO.C,C31*%
X165761252Y-211765000D02*
X165238748Y-211765000D01*
X165761252Y-213235000D02*
X165238748Y-213235000D01*
D13*
%TO.C,C27*%
X140071000Y-185189700D02*
X140071000Y-192047700D01*
X140071000Y-192047700D02*
X142506860Y-192047700D01*
X142506860Y-185189700D02*
X140071000Y-185189700D01*
X144493140Y-192047700D02*
X146929000Y-192047700D01*
X146929000Y-185189700D02*
X144493140Y-185189700D01*
X146929000Y-192047700D02*
X146929000Y-185189700D01*
X143576200Y-183399000D02*
G75*
G02*
X143423800Y-183399000I-76200J0D01*
G01*
X143423800Y-183399000D02*
G75*
G02*
X143576200Y-183399000I76200J0D01*
G01*
D12*
%TO.C,C40*%
X185838748Y-222665000D02*
X186361252Y-222665000D01*
X185838748Y-224135000D02*
X186361252Y-224135000D01*
D15*
%TO.C,J21*%
X150850000Y-162250000D02*
X150850000Y-167972000D01*
X150850000Y-171228000D02*
X150850000Y-173172000D01*
X150850000Y-176428000D02*
X150850000Y-177750000D01*
X163350000Y-162250000D02*
X150850000Y-162250000D01*
X163350000Y-162250000D02*
X163350000Y-167972000D01*
X163350000Y-171228000D02*
X163350000Y-173172000D01*
X163350000Y-176428000D02*
X163350000Y-177750000D01*
X163350000Y-177750000D02*
X150850000Y-177750000D01*
D16*
X157200000Y-182725000D02*
G75*
G02*
X157000000Y-182725000I-100000J0D01*
G01*
X157000000Y-182725000D02*
G75*
G02*
X157200000Y-182725000I100000J0D01*
G01*
D12*
%TO.C,C37*%
X170453733Y-216790000D02*
X170746267Y-216790000D01*
X170453733Y-217810000D02*
X170746267Y-217810000D01*
D17*
%TO.C,D2*%
X145485000Y-202200000D02*
G75*
G02*
X145385000Y-202200000I-50000J0D01*
G01*
X145385000Y-202200000D02*
G75*
G02*
X145485000Y-202200000I50000J0D01*
G01*
D12*
%TO.C,C36*%
X168161252Y-209665000D02*
X167638748Y-209665000D01*
X168161252Y-211135000D02*
X167638748Y-211135000D01*
%TO.C,C38*%
X172246267Y-207690000D02*
X171953733Y-207690000D01*
X172246267Y-208710000D02*
X171953733Y-208710000D01*
%TO.C,CR2*%
X180860000Y-206650000D02*
X177200000Y-206650000D01*
X180860000Y-208550000D02*
X177200000Y-208550000D01*
X180860000Y-208550000D02*
X180860000Y-206650000D01*
D13*
%TO.C,C26*%
X149971000Y-183889700D02*
X149971000Y-190747700D01*
X149971000Y-190747700D02*
X152406860Y-190747700D01*
X152406860Y-183889700D02*
X149971000Y-183889700D01*
X154393140Y-190747700D02*
X156829000Y-190747700D01*
X156829000Y-183889700D02*
X154393140Y-183889700D01*
X156829000Y-190747700D02*
X156829000Y-183889700D01*
X153476200Y-182099000D02*
G75*
G02*
X153323800Y-182099000I-76200J0D01*
G01*
X153323800Y-182099000D02*
G75*
G02*
X153476200Y-182099000I76200J0D01*
G01*
D12*
%TO.C,J17*%
X152850000Y-225100000D02*
X158600000Y-225100000D01*
X152850000Y-231100000D02*
X152850000Y-225100000D01*
X154200000Y-229990000D02*
X159280000Y-229990000D01*
X154200000Y-231000000D02*
X154200000Y-229990000D01*
X159280000Y-229990000D02*
X159280000Y-231000000D01*
X159950000Y-225150000D02*
X163150000Y-225150000D01*
X163150000Y-225150000D02*
X163150000Y-231100000D01*
X163150000Y-231100000D02*
X152850000Y-231100000D01*
%TO.C,J20*%
X139395000Y-208520000D02*
X139395000Y-211120000D01*
X139395000Y-208520000D02*
X142055000Y-208520000D01*
X139395000Y-211120000D02*
X142055000Y-211120000D01*
X140725000Y-205920000D02*
X142055000Y-205920000D01*
X142055000Y-205920000D02*
X142055000Y-207250000D01*
X142055000Y-208520000D02*
X142055000Y-211120000D01*
%TO.C,C28*%
X159046267Y-191890000D02*
X158753733Y-191890000D01*
X159046267Y-192910000D02*
X158753733Y-192910000D01*
D13*
%TO.C,C34*%
X173421000Y-233571000D02*
X173421000Y-240429000D01*
X173421000Y-240429000D02*
X175856860Y-240429000D01*
X175856860Y-233571000D02*
X173421000Y-233571000D01*
X177843140Y-240429000D02*
X180279000Y-240429000D01*
X180279000Y-233571000D02*
X177843140Y-233571000D01*
X180279000Y-240429000D02*
X180279000Y-233571000D01*
X176926200Y-231780300D02*
G75*
G02*
X176773800Y-231780300I-76200J0D01*
G01*
X176773800Y-231780300D02*
G75*
G02*
X176926200Y-231780300I76200J0D01*
G01*
D12*
%TO.C,D5*%
X182840000Y-206020000D02*
X182840000Y-206950000D01*
X182840000Y-206020000D02*
X184300000Y-206020000D01*
X182840000Y-209180000D02*
X182840000Y-208250000D01*
X183640000Y-209180000D02*
X182840000Y-209180000D01*
X183640000Y-209180000D02*
X184440000Y-209180000D01*
X185180000Y-209540000D02*
X184700000Y-209540000D01*
X184940000Y-209210000D01*
X185180000Y-209540000D01*
G36*
X185180000Y-209540000D02*
G01*
X184700000Y-209540000D01*
X184940000Y-209210000D01*
X185180000Y-209540000D01*
G37*
%TO.C,R30*%
X167677064Y-219490000D02*
X163322936Y-219490000D01*
X167677064Y-222910000D02*
X163322936Y-222910000D01*
%TO.C,R21*%
X177622936Y-199490000D02*
X181977064Y-199490000D01*
X177622936Y-202910000D02*
X181977064Y-202910000D01*
D13*
%TO.C,C35*%
X181371000Y-233571000D02*
X181371000Y-240429000D01*
X181371000Y-240429000D02*
X183806860Y-240429000D01*
X183806860Y-233571000D02*
X181371000Y-233571000D01*
X185793140Y-240429000D02*
X188229000Y-240429000D01*
X188229000Y-233571000D02*
X185793140Y-233571000D01*
X188229000Y-240429000D02*
X188229000Y-233571000D01*
X184876200Y-231780300D02*
G75*
G02*
X184723800Y-231780300I-76200J0D01*
G01*
X184723800Y-231780300D02*
G75*
G02*
X184876200Y-231780300I76200J0D01*
G01*
D12*
%TO.C,R32*%
X154090000Y-206727064D02*
X154090000Y-205272936D01*
X155910000Y-206727064D02*
X155910000Y-205272936D01*
D14*
%TO.C,G\u002A\u002A\u002A*%
G36*
X182947942Y-170206491D02*
G01*
X182968380Y-170215968D01*
X182973880Y-170237601D01*
X182966895Y-170282779D01*
X182949615Y-170345043D01*
X182924229Y-170417935D01*
X182892926Y-170494998D01*
X182857895Y-170569772D01*
X182832375Y-170617210D01*
X182786699Y-170702345D01*
X182751447Y-170783717D01*
X182721580Y-170874345D01*
X182697050Y-170966817D01*
X182679191Y-171040425D01*
X182666479Y-171099418D01*
X182658301Y-171151714D01*
X182654046Y-171205232D01*
X182653102Y-171267889D01*
X182654857Y-171347604D01*
X182658699Y-171452294D01*
X182658982Y-171459533D01*
X182663404Y-171555603D01*
X182668551Y-171640336D01*
X182673974Y-171707976D01*
X182679223Y-171752768D01*
X182683128Y-171768474D01*
X182693341Y-171790553D01*
X182710889Y-171836988D01*
X182733033Y-171900289D01*
X182750306Y-171952169D01*
X182789636Y-172071331D01*
X182821892Y-172163808D01*
X182849859Y-172234827D01*
X182876319Y-172289614D01*
X182904055Y-172333397D01*
X182935850Y-172371403D01*
X182974486Y-172408858D01*
X183010120Y-172440156D01*
X183067348Y-172487654D01*
X183119427Y-172527768D01*
X183158412Y-172554507D01*
X183170231Y-172560870D01*
X183197288Y-172569419D01*
X183251756Y-172584255D01*
X183328522Y-172604071D01*
X183422473Y-172627561D01*
X183528495Y-172653418D01*
X183593722Y-172669038D01*
X183718187Y-172698371D01*
X183819174Y-172721096D01*
X183904896Y-172738446D01*
X183983567Y-172751649D01*
X184063400Y-172761937D01*
X184152610Y-172770539D01*
X184259410Y-172778687D01*
X184379987Y-172786821D01*
X184782162Y-172813253D01*
X185014569Y-172731027D01*
X185097868Y-172701577D01*
X185170449Y-172675959D01*
X185226251Y-172656308D01*
X185259213Y-172644760D01*
X185264831Y-172642825D01*
X185282208Y-172629253D01*
X185316606Y-172596862D01*
X185362930Y-172550951D01*
X185416085Y-172496815D01*
X185470977Y-172439750D01*
X185522511Y-172385053D01*
X185565592Y-172338019D01*
X185595125Y-172303945D01*
X185606016Y-172288155D01*
X185615641Y-172264991D01*
X185641378Y-172222241D01*
X185678525Y-172166437D01*
X185722376Y-172104111D01*
X185768229Y-172041794D01*
X185811378Y-171986019D01*
X185847121Y-171943318D01*
X185870754Y-171920223D01*
X185871199Y-171919919D01*
X185905957Y-171884509D01*
X185949646Y-171819566D01*
X186000806Y-171727301D01*
X186009069Y-171711175D01*
X186075243Y-171589669D01*
X186141187Y-171490465D01*
X186214069Y-171405606D01*
X186301059Y-171327130D01*
X186409326Y-171247081D01*
X186454693Y-171216476D01*
X186536203Y-171161502D01*
X186597329Y-171116649D01*
X186646083Y-171074454D01*
X186690478Y-171027457D01*
X186738525Y-170968195D01*
X186780125Y-170913416D01*
X186910512Y-170739571D01*
X186877402Y-170535942D01*
X186844292Y-170332314D01*
X186905152Y-170269407D01*
X186966012Y-170206499D01*
X186996143Y-170265232D01*
X187029618Y-170309706D01*
X187066753Y-170323565D01*
X187103974Y-170305546D01*
X187105635Y-170303925D01*
X187122789Y-170293872D01*
X187125674Y-170301977D01*
X187139420Y-170320737D01*
X187169858Y-170330505D01*
X187200792Y-170328094D01*
X187213067Y-170319161D01*
X187229065Y-170310013D01*
X187248904Y-170328139D01*
X187270370Y-170350886D01*
X187291550Y-170353594D01*
X187322013Y-170335025D01*
X187345814Y-170315614D01*
X187389760Y-170283139D01*
X187414074Y-170276834D01*
X187419887Y-170296710D01*
X187416255Y-170316287D01*
X187418490Y-170365566D01*
X187435225Y-170391435D01*
X187469766Y-170416029D01*
X187506697Y-170423955D01*
X187535060Y-170414862D01*
X187544221Y-170394937D01*
X187547869Y-170380862D01*
X187557966Y-170397631D01*
X187561087Y-170405191D01*
X187582492Y-170434484D01*
X187609546Y-170436131D01*
X187640166Y-170439930D01*
X187652762Y-170460875D01*
X187668993Y-170486247D01*
X187704037Y-170527359D01*
X187751955Y-170577522D01*
X187784178Y-170608955D01*
X187905031Y-170723754D01*
X187880635Y-170823615D01*
X187869130Y-170880710D01*
X187864153Y-170927026D01*
X187865883Y-170948606D01*
X187885844Y-170971126D01*
X187924663Y-170998083D01*
X187942794Y-171008055D01*
X187988889Y-171040419D01*
X188029489Y-171083612D01*
X188055709Y-171127007D01*
X188060849Y-171149285D01*
X188046014Y-171162353D01*
X188008814Y-171171791D01*
X187960205Y-171176253D01*
X187911141Y-171174394D01*
X187888763Y-171170403D01*
X187822079Y-171163343D01*
X187783605Y-171173377D01*
X187733276Y-171188268D01*
X187695865Y-171192340D01*
X187638913Y-171204008D01*
X187605378Y-171234748D01*
X187598485Y-171278161D01*
X187621461Y-171327850D01*
X187625183Y-171332506D01*
X187638746Y-171367143D01*
X187637537Y-171424374D01*
X187635666Y-171438507D01*
X187624642Y-171487586D01*
X187603591Y-171529880D01*
X187566099Y-171576430D01*
X187538970Y-171604970D01*
X187489937Y-171649924D01*
X187442598Y-171684816D01*
X187407043Y-171702226D01*
X187406498Y-171702350D01*
X187360723Y-171723514D01*
X187337230Y-171764223D01*
X187334248Y-171828196D01*
X187336625Y-171849179D01*
X187349358Y-171902038D01*
X187375827Y-171947723D01*
X187419442Y-171995415D01*
X187491972Y-172066598D01*
X187434070Y-172147193D01*
X187402960Y-172193291D01*
X187381942Y-172229785D01*
X187376167Y-172245517D01*
X187379964Y-172267265D01*
X187390413Y-172315244D01*
X187406108Y-172383274D01*
X187425637Y-172465173D01*
X187435312Y-172504952D01*
X187494457Y-172746659D01*
X187475944Y-173601499D01*
X187457431Y-174456339D01*
X187324907Y-174787698D01*
X187192383Y-175119057D01*
X186946775Y-175396000D01*
X186868086Y-175483888D01*
X186799541Y-175557931D01*
X186735653Y-175623224D01*
X186670936Y-175684866D01*
X186599901Y-175747954D01*
X186517063Y-175817584D01*
X186416933Y-175898853D01*
X186334993Y-175964301D01*
X185968818Y-176255660D01*
X185640895Y-176351253D01*
X185312971Y-176446845D01*
X185112978Y-176610372D01*
X185018422Y-176687862D01*
X184946761Y-176747434D01*
X184894978Y-176792245D01*
X184860054Y-176825449D01*
X184838971Y-176850199D01*
X184828712Y-176869651D01*
X184826258Y-176886959D01*
X184828591Y-176905276D01*
X184828958Y-176907214D01*
X184839240Y-176960914D01*
X184847153Y-177002136D01*
X184864252Y-177044701D01*
X184899585Y-177103483D01*
X184947673Y-177171176D01*
X185003037Y-177240477D01*
X185060200Y-177304080D01*
X185107804Y-177349678D01*
X185147842Y-177382699D01*
X185181675Y-177403571D01*
X185219801Y-177416048D01*
X185272716Y-177423883D01*
X185329908Y-177429095D01*
X185404048Y-177436571D01*
X185457562Y-177447029D01*
X185503205Y-177464675D01*
X185553726Y-177493720D01*
X185582935Y-177512604D01*
X185691778Y-177584103D01*
X185907437Y-177596030D01*
X186001791Y-177600508D01*
X186070442Y-177601518D01*
X186120947Y-177598631D01*
X186160865Y-177591417D01*
X186197512Y-177579537D01*
X186243722Y-177563236D01*
X186273062Y-177560265D01*
X186299664Y-177571524D01*
X186323062Y-177587527D01*
X186362076Y-177618288D01*
X186371485Y-177634162D01*
X186351374Y-177635558D01*
X186332179Y-177631438D01*
X186297907Y-177629737D01*
X186278359Y-177652612D01*
X186274817Y-177661258D01*
X186267163Y-177677592D01*
X186254982Y-177689196D01*
X186232649Y-177697301D01*
X186194540Y-177703137D01*
X186135028Y-177707933D01*
X186048489Y-177712921D01*
X186035363Y-177713626D01*
X185929305Y-177717805D01*
X185848745Y-177717755D01*
X185796591Y-177713533D01*
X185779610Y-177708745D01*
X185751247Y-177701785D01*
X185697162Y-177695200D01*
X185625033Y-177689719D01*
X185542534Y-177686070D01*
X185539618Y-177685986D01*
X185331274Y-177680111D01*
X185321596Y-177730210D01*
X185309825Y-177763718D01*
X185288823Y-177773353D01*
X185253736Y-177759014D01*
X185209212Y-177727902D01*
X185167976Y-177701647D01*
X185128641Y-177693305D01*
X185080329Y-177697632D01*
X185017723Y-177711771D01*
X184986613Y-177732843D01*
X184985272Y-177764334D01*
X185011973Y-177809731D01*
X185019816Y-177819890D01*
X185049826Y-177860813D01*
X185068530Y-177892155D01*
X185071631Y-177901611D01*
X185086627Y-177913111D01*
X185125644Y-177926689D01*
X185171828Y-177937622D01*
X185224404Y-177950616D01*
X185260686Y-177964652D01*
X185272025Y-177975039D01*
X185287663Y-177983528D01*
X185331199Y-177987070D01*
X185397567Y-177986087D01*
X185481698Y-177980999D01*
X185578528Y-177972226D01*
X185682988Y-177960192D01*
X185790011Y-177945315D01*
X185894532Y-177928018D01*
X185939139Y-177919608D01*
X186097748Y-177892820D01*
X186232284Y-177879392D01*
X186341057Y-177879341D01*
X186422379Y-177892682D01*
X186468791Y-177914665D01*
X186489351Y-177932248D01*
X186481226Y-177937806D01*
X186463912Y-177938423D01*
X186426048Y-177949002D01*
X186409361Y-177961874D01*
X186384663Y-177974045D01*
X186331345Y-177984225D01*
X186247552Y-177992706D01*
X186186047Y-177996855D01*
X186068312Y-178007059D01*
X185957700Y-178022711D01*
X185858056Y-178042629D01*
X185773223Y-178065631D01*
X185707044Y-178090534D01*
X185663364Y-178116157D01*
X185646026Y-178141317D01*
X185653924Y-178160538D01*
X185675635Y-178170781D01*
X185721892Y-178186243D01*
X185784753Y-178204392D01*
X185823935Y-178214707D01*
X185900171Y-178235356D01*
X185953535Y-178254303D01*
X185993893Y-178276475D01*
X186031108Y-178306801D01*
X186055462Y-178330391D01*
X186095269Y-178374371D01*
X186107863Y-178399025D01*
X186093535Y-178403954D01*
X186052577Y-178388759D01*
X186023505Y-178374179D01*
X185990890Y-178361963D01*
X185935780Y-178346437D01*
X185864992Y-178329015D01*
X185785341Y-178311110D01*
X185703645Y-178294135D01*
X185626721Y-178279504D01*
X185561386Y-178268630D01*
X185514457Y-178262927D01*
X185492750Y-178263807D01*
X185492428Y-178264070D01*
X185475202Y-178260614D01*
X185442729Y-178242023D01*
X185434950Y-178236648D01*
X185411627Y-178221756D01*
X185387065Y-178212314D01*
X185354209Y-178207644D01*
X185306001Y-178207070D01*
X185235385Y-178209915D01*
X185184880Y-178212667D01*
X185098608Y-178218023D01*
X185017447Y-178223913D01*
X184951250Y-178229573D01*
X184913590Y-178233703D01*
X184870171Y-178237688D01*
X184842089Y-178230386D01*
X184816816Y-178205632D01*
X184794385Y-178175036D01*
X184762610Y-178135472D01*
X184735397Y-178110607D01*
X184725352Y-178106306D01*
X184704698Y-178118963D01*
X184675664Y-178151497D01*
X184660510Y-178172748D01*
X184625044Y-178216047D01*
X184592302Y-178238128D01*
X184584027Y-178239546D01*
X184542190Y-178247448D01*
X184519448Y-178256833D01*
X184493114Y-178265199D01*
X184489948Y-178250593D01*
X184510111Y-178214255D01*
X184513322Y-178209608D01*
X184526733Y-178182604D01*
X184532612Y-178145551D01*
X184531728Y-178089715D01*
X184528114Y-178041755D01*
X184523454Y-177968019D01*
X184525524Y-177916873D01*
X184535253Y-177878017D01*
X184544738Y-177857115D01*
X184561018Y-177812859D01*
X184553724Y-177782372D01*
X184519759Y-177762232D01*
X184456024Y-177749019D01*
X184445673Y-177747666D01*
X184389760Y-177737963D01*
X184358767Y-177724048D01*
X184344217Y-177702031D01*
X184343854Y-177700918D01*
X184344530Y-177665058D01*
X184370532Y-177634776D01*
X184398525Y-177597683D01*
X184424043Y-177532367D01*
X184439514Y-177475094D01*
X184470572Y-177346121D01*
X184417120Y-177220874D01*
X184376281Y-177129178D01*
X184340719Y-177063892D01*
X184304412Y-177019993D01*
X184261339Y-176992463D01*
X184205480Y-176976279D01*
X184130813Y-176966420D01*
X184109627Y-176964455D01*
X184072460Y-176960025D01*
X184036007Y-176952434D01*
X183996842Y-176939905D01*
X183951539Y-176920661D01*
X183896670Y-176892926D01*
X183828810Y-176854925D01*
X183744532Y-176804880D01*
X183640409Y-176741014D01*
X183513016Y-176661553D01*
X183454379Y-176624755D01*
X183425689Y-176596033D01*
X183393810Y-176548512D01*
X183374989Y-176512256D01*
X183347667Y-176458982D01*
X183320320Y-176415717D01*
X183305588Y-176398370D01*
X183282360Y-176382509D01*
X183234803Y-176353613D01*
X183167928Y-176314599D01*
X183086748Y-176268387D01*
X182996275Y-176217895D01*
X182984816Y-176211568D01*
X182895234Y-176161788D01*
X182815887Y-176116977D01*
X182751358Y-176079783D01*
X182706230Y-176052853D01*
X182685088Y-176038834D01*
X182684224Y-176037949D01*
X182666974Y-176020854D01*
X182628778Y-175986995D01*
X182574421Y-175940331D01*
X182508684Y-175884823D01*
X182436351Y-175824432D01*
X182362204Y-175763117D01*
X182291026Y-175704841D01*
X182227600Y-175653563D01*
X182176708Y-175613245D01*
X182143134Y-175587846D01*
X182132512Y-175581070D01*
X182114355Y-175565762D01*
X182078943Y-175528741D01*
X182030064Y-175474233D01*
X181971505Y-175406461D01*
X181907068Y-175329666D01*
X181706674Y-175087486D01*
X181573077Y-175033078D01*
X181498496Y-175002114D01*
X181423749Y-174970112D01*
X181363258Y-174943263D01*
X181355733Y-174939798D01*
X181291051Y-174911410D01*
X181223962Y-174884406D01*
X181198234Y-174874905D01*
X181100056Y-174828104D01*
X181027930Y-174768587D01*
X180982758Y-174700299D01*
X180965440Y-174627183D01*
X180976879Y-174553182D01*
X181017973Y-174482238D01*
X181089626Y-174418297D01*
X181093340Y-174415808D01*
X181141705Y-174387315D01*
X181183096Y-174368980D01*
X181200201Y-174365253D01*
X181225954Y-174358505D01*
X181224085Y-174337801D01*
X181194127Y-174302450D01*
X181135614Y-174251758D01*
X181110101Y-174231656D01*
X181005976Y-174141808D01*
X180934014Y-174058293D01*
X180893709Y-173980485D01*
X180886990Y-173954494D01*
X180890460Y-173896613D01*
X180916107Y-173830097D01*
X180958569Y-173765206D01*
X181012484Y-173712201D01*
X181014368Y-173710794D01*
X181053821Y-173669725D01*
X181060030Y-173628959D01*
X181032945Y-173587816D01*
X181003981Y-173564876D01*
X180936960Y-173510191D01*
X180874851Y-173443593D01*
X180825427Y-173374600D01*
X180796463Y-173312731D01*
X180795628Y-173309761D01*
X180789556Y-173224445D01*
X180814855Y-173135864D01*
X180848965Y-173076810D01*
X180874212Y-173033256D01*
X180874537Y-173000757D01*
X180848264Y-172967620D01*
X180831148Y-172952589D01*
X180773589Y-172883647D01*
X180742494Y-172800180D01*
X180739152Y-172709608D01*
X180764849Y-172619354D01*
X180771118Y-172606627D01*
X180783856Y-172576195D01*
X180787152Y-172544254D01*
X180781029Y-172499421D01*
X180771444Y-172455524D01*
X180757326Y-172359969D01*
X180766364Y-172281765D01*
X180801063Y-172212012D01*
X180858253Y-172147222D01*
X180933167Y-172075082D01*
X180914957Y-171970509D01*
X180901827Y-171869819D01*
X180897530Y-171775117D01*
X180902020Y-171694923D01*
X180915253Y-171637754D01*
X180916736Y-171634324D01*
X180949658Y-171593977D01*
X181005709Y-171556173D01*
X181074832Y-171527221D01*
X181097367Y-171521024D01*
X181121444Y-171511107D01*
X181137595Y-171490033D01*
X181150207Y-171449629D01*
X181159194Y-171405932D01*
X181188130Y-171313892D01*
X181235609Y-171249073D01*
X181302786Y-171210182D01*
X181342720Y-171200284D01*
X181397959Y-171190127D01*
X181428855Y-171179433D01*
X181444106Y-171162759D01*
X181452405Y-171134661D01*
X181453158Y-171131152D01*
X181487153Y-171043107D01*
X181546707Y-170976205D01*
X181630966Y-170931144D01*
X181722728Y-170910369D01*
X181806871Y-170900098D01*
X181816339Y-170790071D01*
X181834976Y-170689920D01*
X181873091Y-170613759D01*
X181933370Y-170556712D01*
X181950785Y-170545703D01*
X181988112Y-170513584D01*
X182027103Y-170464759D01*
X182045199Y-170435373D01*
X182078752Y-170384818D01*
X182115979Y-170344619D01*
X182135051Y-170331001D01*
X182204415Y-170309964D01*
X182275492Y-170312869D01*
X182335434Y-170339102D01*
X182337463Y-170340664D01*
X182379424Y-170367433D01*
X182407375Y-170372615D01*
X182416404Y-170357792D01*
X182431650Y-170336962D01*
X182472625Y-170313508D01*
X182532188Y-170290714D01*
X182603195Y-170271863D01*
X182603439Y-170271811D01*
X182669362Y-170254005D01*
X182733950Y-170230624D01*
X182757249Y-170220003D01*
X182818563Y-170200648D01*
X182887164Y-170196047D01*
X182947942Y-170206491D01*
G37*
D12*
%TO.C,R40*%
X166422936Y-182440000D02*
X167877064Y-182440000D01*
X166422936Y-184260000D02*
X167877064Y-184260000D01*
%TO.C,C30*%
X174865000Y-187538748D02*
X174865000Y-188061252D01*
X176335000Y-187538748D02*
X176335000Y-188061252D01*
%TO.C,R42*%
X138390000Y-197472936D02*
X138390000Y-198927064D01*
X140210000Y-197472936D02*
X140210000Y-198927064D01*
D15*
%TO.C,L4*%
X187250000Y-195700000D02*
X190680000Y-195700000D01*
X187250000Y-209200000D02*
X187250000Y-195700000D01*
X187250000Y-209200000D02*
X190680000Y-209200000D01*
X196320000Y-195700000D02*
X199750000Y-195700000D01*
X199750000Y-195700000D02*
X199750000Y-209200000D01*
X199750000Y-209200000D02*
X196320000Y-209200000D01*
D17*
%TO.C,D1*%
X146185000Y-201100000D02*
G75*
G02*
X146085000Y-201100000I-50000J0D01*
G01*
X146085000Y-201100000D02*
G75*
G02*
X146185000Y-201100000I50000J0D01*
G01*
D12*
%TO.C,R41*%
X142372936Y-195790000D02*
X143827064Y-195790000D01*
X142372936Y-197610000D02*
X143827064Y-197610000D01*
%TO.C,R24*%
X171372936Y-179940000D02*
X172827064Y-179940000D01*
X171372936Y-181760000D02*
X172827064Y-181760000D01*
%TO.C,R23*%
X166372936Y-179925000D02*
X167827064Y-179925000D01*
X166372936Y-181745000D02*
X167827064Y-181745000D01*
%TO.C,R29*%
X163390000Y-215272936D02*
X163390000Y-216727064D01*
X165210000Y-215272936D02*
X165210000Y-216727064D01*
%TO.C,CR6*%
X183260000Y-203350000D02*
X179600000Y-203350000D01*
X183260000Y-205250000D02*
X179600000Y-205250000D01*
X183260000Y-205250000D02*
X183260000Y-203350000D01*
D13*
%TO.C,C33*%
X165471878Y-233571000D02*
X165471878Y-240429000D01*
X165471878Y-240429000D02*
X167907738Y-240429000D01*
X167907738Y-233571000D02*
X165471878Y-233571000D01*
X169894018Y-240429000D02*
X172329878Y-240429000D01*
X172329878Y-233571000D02*
X169894018Y-233571000D01*
X172329878Y-240429000D02*
X172329878Y-233571000D01*
X168977078Y-231780300D02*
G75*
G02*
X168824678Y-231780300I-76200J0D01*
G01*
X168824678Y-231780300D02*
G75*
G02*
X168977078Y-231780300I76200J0D01*
G01*
D12*
%TO.C,R34*%
X169290000Y-213272936D02*
X169290000Y-214727064D01*
X171110000Y-213272936D02*
X171110000Y-214727064D01*
%TO.C,R38*%
X157372936Y-195990000D02*
X158827064Y-195990000D01*
X157372936Y-197810000D02*
X158827064Y-197810000D01*
%TO.C,R4*%
X146090000Y-205072936D02*
X146090000Y-206527064D01*
X147910000Y-205072936D02*
X147910000Y-206527064D01*
%TO.C,J1*%
X171970000Y-225100000D02*
X177720000Y-225100000D01*
X171970000Y-231100000D02*
X171970000Y-225100000D01*
X173320000Y-229990000D02*
X178400000Y-229990000D01*
X173320000Y-231000000D02*
X173320000Y-229990000D01*
X178400000Y-229990000D02*
X178400000Y-231000000D01*
X179070000Y-225150000D02*
X182270000Y-225150000D01*
X182270000Y-225150000D02*
X182270000Y-231100000D01*
X182270000Y-231100000D02*
X171970000Y-231100000D01*
%TO.C,C29*%
X171046267Y-197590000D02*
X170753733Y-197590000D01*
X171046267Y-198610000D02*
X170753733Y-198610000D01*
%TO.C,J2*%
X187850000Y-225200000D02*
X193600000Y-225200000D01*
X187850000Y-231200000D02*
X187850000Y-225200000D01*
X189200000Y-230090000D02*
X194280000Y-230090000D01*
X189200000Y-231100000D02*
X189200000Y-230090000D01*
X194280000Y-230090000D02*
X194280000Y-231100000D01*
X194950000Y-225250000D02*
X198150000Y-225250000D01*
X198150000Y-225250000D02*
X198150000Y-231200000D01*
X198150000Y-231200000D02*
X187850000Y-231200000D01*
D13*
%TO.C,U7*%
X174950801Y-198663900D02*
X181199201Y-198663900D01*
X181199201Y-193406100D02*
X174950801Y-193406100D01*
X173979201Y-194130000D02*
G75*
G02*
X173725201Y-194130000I-127000J0D01*
G01*
X173725201Y-194130000D02*
G75*
G02*
X173979201Y-194130000I127000J0D01*
G01*
%TD*%
M02*
