M48
; DRILL file {KiCad 9.0.7} date 2026-04-26T23:33:01-0700
; FORMAT={-:-/ absolute / metric / decimal}
; #@! TF.CreationDate,2026-04-26T23:33:01-07:00
; #@! TF.GenerationSoftware,Kicad,Pcbnew,9.0.7
; #@! TF.FileFunction,Plated,1,2,PTH
FMAT,2
METRIC
; #@! TA.AperFunction,Plated,PTH,ViaDrill
T1C0.300
; #@! TA.AperFunction,Plated,PTH,ViaDrill
T2C0.400
; #@! TA.AperFunction,Plated,PTH,ComponentDrill
T3C0.800
; #@! TA.AperFunction,Plated,PTH,ComponentDrill
T4C1.000
; #@! TA.AperFunction,Plated,PTH,ComponentDrill
T5C1.020
; #@! TA.AperFunction,Plated,PTH,ComponentDrill
T6C1.900
%
G90
G05
T1
X161.5Y-206.1
X162.1Y-203.6
X162.9Y-197.6
X164.539Y-200.361
X165.0Y-195.7
X165.0Y-203.3
X165.0Y-204.3
X165.0Y-205.3
X165.3Y-196.4
X166.0Y-203.3
X166.0Y-204.3
X166.0Y-205.3
X167.0Y-203.3
X167.0Y-204.3
X167.0Y-205.3
X167.0Y-207.9
X167.0Y-241.0
X167.0Y-244.0
X168.0Y-203.3
X168.0Y-204.3
X168.0Y-205.3
X168.5Y-200.4
X169.0Y-203.3
X169.0Y-204.3
X169.0Y-205.3
X169.1Y-192.0
X169.3Y-198.9
X169.611Y-207.789
X169.85Y-199.05
X170.0Y-221.0
X170.0Y-241.0
X170.0Y-244.0
X170.022Y-208.2
X170.136Y-199.971
X170.515Y-200.5
X170.525Y-210.8
X170.7Y-207.1
X170.9Y-191.3
X171.0Y-219.9
X171.0Y-222.0
X171.3Y-207.1
X171.946Y-209.051
X172.0Y-183.0
X172.0Y-185.0
X172.4Y-209.5
X172.4Y-221.0
X173.0Y-241.0
X173.0Y-244.0
X173.075Y-197.975
X173.125Y-202.625
X173.65Y-197.67
X173.734Y-200.466
X173.9Y-202.7
X174.0Y-186.0
X174.0Y-222.0
X174.162Y-200.099
X174.2Y-195.1
X174.3Y-195.6
X174.3Y-201.45
X174.3Y-202.3
X175.0Y-182.0
X175.0Y-184.0
X175.5Y-220.0
X176.0Y-221.5
X176.0Y-244.0
X177.0Y-181.0
X177.6Y-187.4
X178.7Y-205.2
X178.9Y-244.0
X179.0Y-241.0
X180.0Y-181.0
X180.9Y-207.0
X181.0Y-208.2
X181.5Y-201.1
X182.0Y-241.0
X182.0Y-244.0
X183.6Y-204.0
X183.7Y-204.5
X185.0Y-244.0
X187.0Y-225.0
X188.0Y-241.0
X188.0Y-244.0
X190.0Y-222.0
X193.0Y-222.0
X196.0Y-222.0
X199.0Y-222.0
T2
X142.0Y-194.0
X145.0Y-194.0
X148.0Y-195.0
X149.0Y-192.0
X151.0Y-194.0
X151.0Y-196.8
X154.0Y-194.0
X154.3Y-196.8
X155.8Y-192.2
X165.0Y-195.0
X168.25Y-187.535
X172.5Y-203.25
X172.9Y-204.5
X173.5Y-203.9
X173.5Y-205.1
X175.21Y-218.202
X177.5Y-209.3
X177.6Y-210.2
X178.2Y-209.7
X178.9Y-209.3
T4
X140.725Y-207.25
X140.725Y-209.79
T5
X139.2Y-227.7
X141.74Y-227.7
X144.28Y-227.7
X146.82Y-227.7
X154.2Y-227.7
X156.74Y-227.7
X159.28Y-227.7
X161.82Y-227.7
X173.32Y-227.7
X175.86Y-227.7
X178.4Y-227.7
X180.94Y-227.7
X189.2Y-227.8
X191.74Y-227.8
X194.28Y-227.8
X196.82Y-227.8
T6
X157.1Y-180.3
T3
X151.1Y-169.0G85X151.1Y-170.2
G05
X151.1Y-174.2G85X151.1Y-175.4
G05
X157.8Y-173.65G85X156.4Y-173.65
G05
X163.1Y-169.0G85X163.1Y-170.2
G05
X163.1Y-174.2G85X163.1Y-175.4
G05
M30
