%TF.GenerationSoftware,KiCad,Pcbnew,9.0.7*%
%TF.CreationDate,2026-04-26T23:32:49-07:00*%
%TF.ProjectId,System PCB-Charging Mk.2,53797374-656d-4205-9043-422d43686172,rev?*%
%TF.SameCoordinates,Original*%
%TF.FileFunction,Copper,L1,Top*%
%TF.FilePolarity,Positive*%
%FSLAX46Y46*%
G04 Gerber Fmt 4.6, Leading zero omitted, Abs format (unit mm)*
G04 Created by KiCad (PCBNEW 9.0.7) date 2026-04-26 23:32:49*
%MOMM*%
%LPD*%
G01*
G04 APERTURE LIST*
G04 Aperture macros list*
%AMRoundRect*
0 Rectangle with rounded corners*
0 $1 Rounding radius*
0 $2 $3 $4 $5 $6 $7 $8 $9 X,Y pos of 4 corners*
0 Add a 4 corners polygon primitive as box body*
4,1,4,$2,$3,$4,$5,$6,$7,$8,$9,$2,$3,0*
0 Add four circle primitives for the rounded corners*
1,1,$1+$1,$2,$3*
1,1,$1+$1,$4,$5*
1,1,$1+$1,$6,$7*
1,1,$1+$1,$8,$9*
0 Add four rect primitives between the rounded corners*
20,1,$1+$1,$2,$3,$4,$5,0*
20,1,$1+$1,$4,$5,$6,$7,0*
20,1,$1+$1,$6,$7,$8,$9,0*
20,1,$1+$1,$8,$9,$2,$3,0*%
%AMFreePoly0*
4,1,13,-0.355600,0.254000,0.355600,0.254000,0.355600,-0.254000,-0.355600,-0.254000,-0.355600,-1.016000,0.355600,-1.016000,0.355600,-1.524000,-0.355600,-1.524000,-0.355600,-1.321400,-4.191000,-1.321400,-4.191000,0.355000,-0.355600,0.355000,-0.355600,0.254000,-0.355600,0.254000,$1*%
%AMFreePoly1*
4,1,13,0.355600,-0.254000,-0.355600,-0.254000,-0.355600,-1.016000,0.355600,-1.016000,0.355600,-1.524000,-0.355600,-1.524000,-0.355600,-1.625000,-4.191000,-1.625000,-4.191000,0.051400,-0.355600,0.051400,-0.355600,0.254000,0.355600,0.254000,0.355600,-0.254000,0.355600,-0.254000,$1*%
%AMFreePoly2*
4,1,45,2.751036,2.213536,2.752500,2.210000,2.752500,1.600000,2.751036,1.596464,2.747500,1.595000,2.042500,1.595000,2.042500,0.945000,2.747500,0.945000,2.751036,0.943536,2.752500,0.940000,2.752500,0.330000,2.751036,0.326464,2.747500,0.325000,2.042500,0.325000,2.042500,-0.325000,2.747500,-0.325000,2.751036,-0.326464,2.752500,-0.330000,2.752500,-0.940000,2.751036,-0.943536,
2.747500,-0.945000,2.042500,-0.945000,2.042500,-1.595000,2.747500,-1.595000,2.751036,-1.596464,2.752500,-1.600000,2.752500,-2.210000,2.751036,-2.213536,2.747500,-2.215000,1.727500,-2.215000,1.723964,-2.213536,1.722500,-2.210000,1.722500,-1.960000,-1.772500,-1.960000,-1.776036,-1.958536,-1.777500,-1.955000,-1.777500,1.955000,-1.776036,1.958536,-1.772500,1.960000,1.722500,1.960000,
1.722500,2.210000,1.723964,2.213536,1.727500,2.215000,2.747500,2.215000,2.751036,2.213536,2.751036,2.213536,$1*%
G04 Aperture macros list end*
%TA.AperFunction,SMDPad,CuDef*%
%ADD10RoundRect,0.250000X-0.625000X0.400000X-0.625000X-0.400000X0.625000X-0.400000X0.625000X0.400000X0*%
%TD*%
%TA.AperFunction,SMDPad,CuDef*%
%ADD11RoundRect,0.250000X-0.400000X-0.625000X0.400000X-0.625000X0.400000X0.625000X-0.400000X0.625000X0*%
%TD*%
%TA.AperFunction,ComponentPad*%
%ADD12R,1.730000X2.030000*%
%TD*%
%TA.AperFunction,ComponentPad*%
%ADD13O,1.730000X2.030000*%
%TD*%
%TA.AperFunction,SMDPad,CuDef*%
%ADD14RoundRect,0.250000X-0.412500X-0.650000X0.412500X-0.650000X0.412500X0.650000X-0.412500X0.650000X0*%
%TD*%
%TA.AperFunction,SMDPad,CuDef*%
%ADD15RoundRect,0.249999X1.425001X-0.450001X1.425001X0.450001X-1.425001X0.450001X-1.425001X-0.450001X0*%
%TD*%
%TA.AperFunction,SMDPad,CuDef*%
%ADD16R,0.249200X0.906400*%
%TD*%
%TA.AperFunction,SMDPad,CuDef*%
%ADD17R,0.906400X0.249200*%
%TD*%
%TA.AperFunction,SMDPad,CuDef*%
%ADD18R,5.250000X3.250001*%
%TD*%
%TA.AperFunction,SMDPad,CuDef*%
%ADD19R,0.711200X0.508000*%
%TD*%
%TA.AperFunction,SMDPad,CuDef*%
%ADD20FreePoly0,0.000000*%
%TD*%
%TA.AperFunction,SMDPad,CuDef*%
%ADD21FreePoly1,0.000000*%
%TD*%
%TA.AperFunction,SMDPad,CuDef*%
%ADD22R,2.565400X1.778000*%
%TD*%
%TA.AperFunction,SMDPad,CuDef*%
%ADD23R,1.270000X0.610000*%
%TD*%
%TA.AperFunction,SMDPad,CuDef*%
%ADD24FreePoly2,180.000000*%
%TD*%
%TA.AperFunction,SMDPad,CuDef*%
%ADD25RoundRect,0.250000X0.337500X0.475000X-0.337500X0.475000X-0.337500X-0.475000X0.337500X-0.475000X0*%
%TD*%
%TA.AperFunction,SMDPad,CuDef*%
%ADD26R,1.320800X3.352800*%
%TD*%
%TA.AperFunction,SMDPad,CuDef*%
%ADD27RoundRect,0.250000X-0.337500X-0.475000X0.337500X-0.475000X0.337500X0.475000X-0.337500X0.475000X0*%
%TD*%
%TA.AperFunction,ComponentPad*%
%ADD28R,2.850000X2.850000*%
%TD*%
%TA.AperFunction,ComponentPad*%
%ADD29O,2.616000X1.308000*%
%TD*%
%TA.AperFunction,ComponentPad*%
%ADD30O,1.308000X2.616000*%
%TD*%
%TA.AperFunction,SMDPad,CuDef*%
%ADD31RoundRect,0.237500X-0.300000X-0.237500X0.300000X-0.237500X0.300000X0.237500X-0.300000X0.237500X0*%
%TD*%
%TA.AperFunction,SMDPad,CuDef*%
%ADD32RoundRect,0.100000X0.217500X0.100000X-0.217500X0.100000X-0.217500X-0.100000X0.217500X-0.100000X0*%
%TD*%
%TA.AperFunction,SMDPad,CuDef*%
%ADD33RoundRect,0.237500X0.300000X0.237500X-0.300000X0.237500X-0.300000X-0.237500X0.300000X-0.237500X0*%
%TD*%
%TA.AperFunction,SMDPad,CuDef*%
%ADD34R,1.200000X1.200000*%
%TD*%
%TA.AperFunction,ComponentPad*%
%ADD35R,1.700000X1.700000*%
%TD*%
%TA.AperFunction,ComponentPad*%
%ADD36C,1.700000*%
%TD*%
%TA.AperFunction,SMDPad,CuDef*%
%ADD37RoundRect,0.200000X0.750000X0.200000X-0.750000X0.200000X-0.750000X-0.200000X0.750000X-0.200000X0*%
%TD*%
%TA.AperFunction,SMDPad,CuDef*%
%ADD38RoundRect,0.249999X0.450001X1.425001X-0.450001X1.425001X-0.450001X-1.425001X0.450001X-1.425001X0*%
%TD*%
%TA.AperFunction,SMDPad,CuDef*%
%ADD39RoundRect,0.249999X-0.450001X-1.425001X0.450001X-1.425001X0.450001X1.425001X-0.450001X1.425001X0*%
%TD*%
%TA.AperFunction,SMDPad,CuDef*%
%ADD40RoundRect,0.250000X0.625000X-0.400000X0.625000X0.400000X-0.625000X0.400000X-0.625000X-0.400000X0*%
%TD*%
%TA.AperFunction,SMDPad,CuDef*%
%ADD41RoundRect,0.250000X-0.475000X0.337500X-0.475000X-0.337500X0.475000X-0.337500X0.475000X0.337500X0*%
%TD*%
%TA.AperFunction,SMDPad,CuDef*%
%ADD42R,5.000000X3.100000*%
%TD*%
%TA.AperFunction,ViaPad*%
%ADD43C,0.700000*%
%TD*%
%TA.AperFunction,ViaPad*%
%ADD44C,0.600000*%
%TD*%
%TA.AperFunction,Conductor*%
%ADD45C,0.500000*%
%TD*%
%TA.AperFunction,Conductor*%
%ADD46C,0.250000*%
%TD*%
%TA.AperFunction,Conductor*%
%ADD47C,1.000000*%
%TD*%
%TA.AperFunction,Conductor*%
%ADD48C,0.152400*%
%TD*%
%TA.AperFunction,Conductor*%
%ADD49C,0.200000*%
%TD*%
G04 APERTURE END LIST*
D10*
%TO.P,R31,1*%
%TO.N,Net-(U4-CSP)*%
X166700000Y-214450000D03*
%TO.P,R31,2*%
%TO.N,MosD4*%
X166700000Y-217550000D03*
%TD*%
D11*
%TO.P,R39,1*%
%TO.N,WALLVIN*%
X165600000Y-185850000D03*
%TO.P,R39,2*%
%TO.N,Net-(U4-SHDN)*%
X168700000Y-185850000D03*
%TD*%
D12*
%TO.P,J16,1,Pin_1*%
%TO.N,BatteryVIN*%
X139200000Y-227700000D03*
D13*
%TO.P,J16,2,Pin_2*%
X141740000Y-227700000D03*
%TO.P,J16,3,Pin_3*%
X144280000Y-227700000D03*
%TO.P,J16,4,Pin_4*%
X146820000Y-227700000D03*
%TD*%
D14*
%TO.P,C41,1*%
%TO.N,GND*%
X174600000Y-204500000D03*
%TO.P,C41,2*%
%TO.N,Net-(U4-INTVCC)*%
X177725000Y-204500000D03*
%TD*%
D11*
%TO.P,R47,1*%
%TO.N,GND*%
X156550000Y-194400000D03*
%TO.P,R47,2*%
%TO.N,Net-(U4-RT)*%
X159650000Y-194400000D03*
%TD*%
%TO.P,R26,1*%
%TO.N,Net-(R26-Pad1)*%
X139450000Y-202200000D03*
%TO.P,R26,2*%
%TO.N,Net-(D2-A)*%
X142550000Y-202200000D03*
%TD*%
D15*
%TO.P,R22,1*%
%TO.N,MosS1*%
X178600000Y-188850000D03*
%TO.P,R22,2*%
%TO.N,GND*%
X178600000Y-182750000D03*
%TD*%
D14*
%TO.P,C39,1*%
%TO.N,MosD4*%
X185037500Y-221200000D03*
%TO.P,C39,2*%
%TO.N,GND*%
X188162500Y-221200000D03*
%TD*%
D16*
%TO.P,U4,1,TG1*%
%TO.N,MosG2*%
X169750000Y-201796800D03*
%TO.P,U4,2,BST1*%
%TO.N,Net-(U4-BST1)*%
X169250001Y-201796800D03*
%TO.P,U4,3,SGND*%
%TO.N,GND*%
X168749999Y-201796800D03*
%TO.P,U4,4,SENSGND*%
X168250000Y-201796800D03*
%TO.P,U4,5,SENSBOT*%
%TO.N,MosS1*%
X167750001Y-201796800D03*
%TO.P,U4,6,SENSTOP*%
%TO.N,MosD2*%
X167250000Y-201796800D03*
%TO.P,U4,7,SENSVIN*%
%TO.N,WALLVIN*%
X166750000Y-201796800D03*
%TO.P,U4,8,RT*%
%TO.N,Net-(U4-RT)*%
X166249999Y-201796800D03*
%TO.P,U4,9,SHDN*%
%TO.N,Net-(U4-SHDN)*%
X165750000Y-201796800D03*
%TO.P,U4,10,VIN_REG*%
%TO.N,Net-(U4-INTVCC)*%
X165250001Y-201796800D03*
%TO.P,U4,11,MODE*%
X164749999Y-201796800D03*
%TO.P,U4,12,STAT1*%
%TO.N,Net-(D1-K)*%
X164250000Y-201796800D03*
D17*
%TO.P,U4,13,STAT2*%
%TO.N,Net-(D2-K)*%
X163496799Y-202800000D03*
%TO.P,U4,14,TIMER*%
%TO.N,GND*%
X163496799Y-203299999D03*
%TO.P,U4,15,RNG/SS*%
%TO.N,unconnected-(U4-RNG{slash}SS-Pad15)*%
X163496799Y-203800001D03*
%TO.P,U4,16,NTC*%
%TO.N,Net-(J20-Pin_2)*%
X163496799Y-204300000D03*
%TO.P,U4,17,VFB*%
%TO.N,Net-(U4-VFB)*%
X163496799Y-204799999D03*
%TO.P,U4,18,FBG*%
%TO.N,Net-(U4-FBG)*%
X163496799Y-205300001D03*
%TO.P,U4,19,VFBMIN*%
%TO.N,Net-(U4-VFBMAX)*%
X163496799Y-205800000D03*
D16*
%TO.P,U4,20,BAT*%
%TO.N,BatteryVIN*%
X164250000Y-206803200D03*
%TO.P,U4,21,BGATE*%
%TO.N,Net-(U4-BGATE)*%
X164749999Y-206803200D03*
%TO.P,U4,22,CSN*%
%TO.N,Net-(U4-CSN)*%
X165250001Y-206803200D03*
%TO.P,U4,23,CSP*%
%TO.N,Net-(U4-CSP)*%
X165750000Y-206803200D03*
%TO.P,U4,24,CSOUT*%
%TO.N,Net-(U4-CSOUT)*%
X166249999Y-206803200D03*
%TO.P,U4,25,ILIMIT*%
%TO.N,unconnected-(U4-ILIMIT-Pad25)*%
X166750000Y-206803200D03*
%TO.P,U4,26,VFBMAX*%
%TO.N,Net-(U4-VFBMAX)*%
X167250000Y-206803200D03*
%TO.P,U4,27,ITH*%
%TO.N,Net-(U4-ITH)*%
X167750001Y-206803200D03*
%TO.P,U4,28,VC*%
%TO.N,Net-(U4-VC)*%
X168250000Y-206803200D03*
%TO.P,U4,29,SGND*%
%TO.N,GND*%
X168749999Y-206803200D03*
%TO.P,U4,30,BST2*%
%TO.N,Net-(D5-K)*%
X169250001Y-206803200D03*
%TO.P,U4,31,TG2*%
%TO.N,MosG4*%
X169750000Y-206803200D03*
D17*
%TO.P,U4,32,SW2*%
%TO.N,MosD3*%
X170503201Y-205800000D03*
%TO.P,U4,33,BG2*%
%TO.N,MosG3*%
X170503201Y-205300001D03*
%TO.P,U4,34,INTVCC*%
%TO.N,Net-(U4-INTVCC)*%
X170503201Y-204799999D03*
%TO.P,U4,35,PGND*%
%TO.N,GND*%
X170503201Y-204300000D03*
%TO.P,U4,36,PVIN*%
%TO.N,WALLVIN*%
X170503201Y-203800001D03*
%TO.P,U4,37,BG1*%
%TO.N,MosG1*%
X170503201Y-203299999D03*
%TO.P,U4,38,SW1*%
%TO.N,MosD1*%
X170503201Y-202800000D03*
D18*
%TO.P,U4,39,SGND*%
%TO.N,GND*%
X167000000Y-204300000D03*
%TD*%
D10*
%TO.P,R28,1*%
%TO.N,Net-(U4-VFB)*%
X150000000Y-201050000D03*
%TO.P,R28,2*%
%TO.N,Net-(R28-Pad2)*%
X150000000Y-204150000D03*
%TD*%
D19*
%TO.P,U8,1,S1*%
%TO.N,GND*%
X178500000Y-210400000D03*
%TO.P,U8,2,G1*%
%TO.N,MosG3*%
X178500000Y-211670000D03*
%TO.P,U8,3,S2*%
%TO.N,MosD3*%
X178500000Y-212940000D03*
%TO.P,U8,4,G2*%
%TO.N,MosG4*%
X178500000Y-214210000D03*
%TO.P,U8,5,D2*%
%TO.N,MosD4*%
X184050002Y-214210000D03*
D20*
%TO.P,U8,6,D2*%
X184050002Y-212940000D03*
D19*
%TO.P,U8,7,D1*%
%TO.N,MosD3*%
X184050002Y-211670000D03*
D21*
%TO.P,U8,8,D1*%
X184050002Y-210400000D03*
%TD*%
D10*
%TO.P,R45,1*%
%TO.N,Net-(R4-Pad2)*%
X146100000Y-210350000D03*
%TO.P,R45,2*%
%TO.N,BatteryVIN*%
X146100000Y-213450000D03*
%TD*%
%TO.P,R27,1*%
%TO.N,Net-(U4-VFB)*%
X152500000Y-201050000D03*
%TO.P,R27,2*%
%TO.N,Net-(U4-FBG)*%
X152500000Y-204150000D03*
%TD*%
D22*
%TO.P,CR5,1*%
%TO.N,MosD4*%
X186534700Y-218000000D03*
%TO.P,CR5,2*%
%TO.N,MosD3*%
X190065300Y-218000000D03*
%TD*%
D11*
%TO.P,R25,1*%
%TO.N,Net-(R25-Pad1)*%
X141550000Y-199400000D03*
%TO.P,R25,2*%
%TO.N,Net-(D1-A)*%
X144650000Y-199400000D03*
%TD*%
D23*
%TO.P,Q1,1*%
%TO.N,Net-(Q1-Pad1)*%
X152000000Y-221270000D03*
%TO.P,Q1,2*%
X152000000Y-220000000D03*
%TO.P,Q1,3*%
X152000000Y-218730000D03*
%TO.P,Q1,4*%
%TO.N,Net-(U4-BGATE)*%
X152000000Y-217460000D03*
D24*
%TO.P,Q1,5*%
%TO.N,BatteryVIN*%
X148772500Y-219365000D03*
%TD*%
D25*
%TO.P,C31,1*%
%TO.N,Net-(U4-CSP)*%
X166537500Y-212500000D03*
%TO.P,C31,2*%
%TO.N,Net-(U4-CSN)*%
X164462500Y-212500000D03*
%TD*%
D26*
%TO.P,C27,1*%
%TO.N,WALLVIN*%
X143500000Y-185837400D03*
%TO.P,C27,2*%
%TO.N,GND*%
X143500000Y-191400000D03*
%TD*%
D27*
%TO.P,C40,1*%
%TO.N,MosD4*%
X185062500Y-223400000D03*
%TO.P,C40,2*%
%TO.N,GND*%
X187137500Y-223400000D03*
%TD*%
D28*
%TO.P,J21,1*%
%TO.N,WALLVIN*%
X157100000Y-180300000D03*
D29*
%TO.P,J21,2*%
%TO.N,GND*%
X157100000Y-173650000D03*
D30*
%TO.P,J21,SH1,SHIELD*%
X163100000Y-174800000D03*
%TO.P,J21,SH2,SHIELD__1*%
X163100000Y-169600000D03*
%TO.P,J21,SH3,SHIELD__2*%
X151100000Y-174800000D03*
%TO.P,J21,SH4,SHIELD__3*%
X151100000Y-169600000D03*
%TD*%
D31*
%TO.P,C37,1*%
%TO.N,Net-(C37-Pad1)*%
X169737500Y-217300000D03*
%TO.P,C37,2*%
%TO.N,GND*%
X171462500Y-217300000D03*
%TD*%
D32*
%TO.P,D2,1,K*%
%TO.N,Net-(D2-K)*%
X144807500Y-202200000D03*
%TO.P,D2,2,A*%
%TO.N,Net-(D2-A)*%
X143992500Y-202200000D03*
%TD*%
D25*
%TO.P,C36,1*%
%TO.N,Net-(U4-ITH)*%
X168937500Y-210400000D03*
%TO.P,C36,2*%
%TO.N,Net-(U4-CSOUT)*%
X166862500Y-210400000D03*
%TD*%
D33*
%TO.P,C38,1*%
%TO.N,MosD3*%
X172962500Y-208200000D03*
%TO.P,C38,2*%
%TO.N,Net-(D5-K)*%
X171237500Y-208200000D03*
%TD*%
D34*
%TO.P,CR2,1*%
%TO.N,Net-(D5-K)*%
X180000000Y-207600000D03*
%TO.P,CR2,2*%
%TO.N,Net-(U4-INTVCC)*%
X177200000Y-207600000D03*
%TD*%
D26*
%TO.P,C26,1*%
%TO.N,WALLVIN*%
X153400000Y-184537400D03*
%TO.P,C26,2*%
%TO.N,GND*%
X153400000Y-190100000D03*
%TD*%
D12*
%TO.P,J17,1,Pin_1*%
%TO.N,GND*%
X154200000Y-227700000D03*
D13*
%TO.P,J17,2,Pin_2*%
X156740000Y-227700000D03*
%TO.P,J17,3,Pin_3*%
X159280000Y-227700000D03*
%TO.P,J17,4,Pin_4*%
X161820000Y-227700000D03*
%TD*%
D35*
%TO.P,J20,1,Pin_1*%
%TO.N,GND*%
X140725000Y-207250000D03*
D36*
%TO.P,J20,2,Pin_2*%
%TO.N,Net-(J20-Pin_2)*%
X140725000Y-209790000D03*
%TD*%
D33*
%TO.P,C28,1*%
%TO.N,WALLVIN*%
X159762500Y-192400000D03*
%TO.P,C28,2*%
%TO.N,GND*%
X158037500Y-192400000D03*
%TD*%
D26*
%TO.P,C34,1*%
%TO.N,MosD4*%
X176850000Y-234218700D03*
%TO.P,C34,2*%
%TO.N,GND*%
X176850000Y-239781300D03*
%TD*%
D37*
%TO.P,D5,1,A*%
%TO.N,MosD3*%
X185100000Y-208550000D03*
%TO.P,D5,2,NC*%
%TO.N,unconnected-(D5-NC-Pad2)*%
X185100000Y-206650000D03*
%TO.P,D5,3,K*%
%TO.N,Net-(D5-K)*%
X182100000Y-207600000D03*
%TD*%
D38*
%TO.P,R30,1*%
%TO.N,MosD4*%
X168550000Y-221200000D03*
%TO.P,R30,2*%
%TO.N,Net-(Q1-Pad1)*%
X162450000Y-221200000D03*
%TD*%
D39*
%TO.P,R21,1*%
%TO.N,WALLVIN*%
X176750000Y-201200000D03*
%TO.P,R21,2*%
%TO.N,MosD2*%
X182850000Y-201200000D03*
%TD*%
D26*
%TO.P,C35,1*%
%TO.N,MosD4*%
X184800000Y-234218700D03*
%TO.P,C35,2*%
%TO.N,GND*%
X184800000Y-239781300D03*
%TD*%
D40*
%TO.P,R32,1*%
%TO.N,Net-(U4-VFBMAX)*%
X155000000Y-207550000D03*
%TO.P,R32,2*%
%TO.N,Net-(U4-FBG)*%
X155000000Y-204450000D03*
%TD*%
D11*
%TO.P,R40,1*%
%TO.N,WALLVIN*%
X165600000Y-183350000D03*
%TO.P,R40,2*%
%TO.N,Net-(U4-SHDN)*%
X168700000Y-183350000D03*
%TD*%
D41*
%TO.P,C30,1*%
%TO.N,GND*%
X175600000Y-186762500D03*
%TO.P,C30,2*%
%TO.N,MosS1*%
X175600000Y-188837500D03*
%TD*%
D10*
%TO.P,R42,1*%
%TO.N,Net-(U4-INTVCC)*%
X139300000Y-196650000D03*
%TO.P,R42,2*%
%TO.N,Net-(R26-Pad1)*%
X139300000Y-199750000D03*
%TD*%
D42*
%TO.P,L4,1,1*%
%TO.N,MosD1*%
X193500000Y-196900000D03*
%TO.P,L4,2,2*%
%TO.N,MosD3*%
X193500000Y-208000000D03*
%TD*%
D32*
%TO.P,D1,1,K*%
%TO.N,Net-(D1-K)*%
X145507500Y-201100000D03*
%TO.P,D1,2,A*%
%TO.N,Net-(D1-A)*%
X144692500Y-201100000D03*
%TD*%
D11*
%TO.P,R41,1*%
%TO.N,Net-(U4-INTVCC)*%
X141550000Y-196700000D03*
%TO.P,R41,2*%
%TO.N,Net-(R25-Pad1)*%
X144650000Y-196700000D03*
%TD*%
%TO.P,R24,1*%
%TO.N,Net-(U4-SHDN)*%
X170550000Y-180850000D03*
%TO.P,R24,2*%
%TO.N,GND*%
X173650000Y-180850000D03*
%TD*%
%TO.P,R23,1*%
%TO.N,WALLVIN*%
X165550000Y-180835000D03*
%TO.P,R23,2*%
%TO.N,Net-(U4-SHDN)*%
X168650000Y-180835000D03*
%TD*%
D10*
%TO.P,R29,1*%
%TO.N,Net-(U4-CSN)*%
X164300000Y-214450000D03*
%TO.P,R29,2*%
%TO.N,Net-(Q1-Pad1)*%
X164300000Y-217550000D03*
%TD*%
D34*
%TO.P,CR6,1*%
%TO.N,Net-(U4-BST1)*%
X182400000Y-204300000D03*
%TO.P,CR6,2*%
%TO.N,Net-(U4-INTVCC)*%
X179600000Y-204300000D03*
%TD*%
D26*
%TO.P,C33,1*%
%TO.N,MosD4*%
X168900878Y-234218700D03*
%TO.P,C33,2*%
%TO.N,GND*%
X168900878Y-239781300D03*
%TD*%
D10*
%TO.P,R34,1*%
%TO.N,Net-(U4-VC)*%
X170200000Y-212450000D03*
%TO.P,R34,2*%
%TO.N,Net-(C37-Pad1)*%
X170200000Y-215550000D03*
%TD*%
D11*
%TO.P,R38,1*%
%TO.N,GND*%
X156550000Y-196900000D03*
%TO.P,R38,2*%
%TO.N,Net-(U4-RT)*%
X159650000Y-196900000D03*
%TD*%
D10*
%TO.P,R4,1*%
%TO.N,Net-(R28-Pad2)*%
X147000000Y-204250000D03*
%TO.P,R4,2*%
%TO.N,Net-(R4-Pad2)*%
X147000000Y-207350000D03*
%TD*%
D12*
%TO.P,J1,1,Pin_1*%
%TO.N,MosD4*%
X173320000Y-227700000D03*
D13*
%TO.P,J1,2,Pin_2*%
X175860000Y-227700000D03*
%TO.P,J1,3,Pin_3*%
X178400000Y-227700000D03*
%TO.P,J1,4,Pin_4*%
X180940000Y-227700000D03*
%TD*%
D33*
%TO.P,C29,1*%
%TO.N,MosD1*%
X171762500Y-198100000D03*
%TO.P,C29,2*%
%TO.N,Net-(U4-BST1)*%
X170037500Y-198100000D03*
%TD*%
D12*
%TO.P,J2,1,Pin_1*%
%TO.N,GND*%
X189200000Y-227800000D03*
D13*
%TO.P,J2,2,Pin_2*%
X191740000Y-227800000D03*
%TO.P,J2,3,Pin_3*%
X194280000Y-227800000D03*
%TO.P,J2,4,Pin_4*%
X196820000Y-227800000D03*
%TD*%
D19*
%TO.P,U7,1,S1*%
%TO.N,MosS1*%
X175300000Y-194130000D03*
%TO.P,U7,2,G1*%
%TO.N,MosG1*%
X175300000Y-195400000D03*
%TO.P,U7,3,S2*%
%TO.N,MosD1*%
X175300000Y-196670000D03*
%TO.P,U7,4,G2*%
%TO.N,MosG2*%
X175300000Y-197940000D03*
%TO.P,U7,5,D2*%
%TO.N,MosD2*%
X180850002Y-197940000D03*
D20*
%TO.P,U7,6,D2*%
X180850002Y-196670000D03*
D19*
%TO.P,U7,7,D1*%
%TO.N,MosD1*%
X180850002Y-195400000D03*
D21*
%TO.P,U7,8,D1*%
X180850002Y-194130000D03*
%TD*%
D43*
%TO.N,GND*%
X173500000Y-205100000D03*
D44*
X168000000Y-204300000D03*
X167000000Y-204300000D03*
X165000000Y-203300000D03*
X180000000Y-181000000D03*
X173000000Y-241000000D03*
X187000000Y-225000000D03*
X196000000Y-222000000D03*
D43*
X151000000Y-194000000D03*
X148000000Y-195000000D03*
D44*
X170000000Y-241000000D03*
D43*
X154000000Y-194000000D03*
D44*
X166000000Y-203300000D03*
D43*
X172900000Y-204500000D03*
D44*
X168000000Y-205300000D03*
X177000000Y-181000000D03*
X175000000Y-182000000D03*
X193000000Y-222000000D03*
X173000000Y-244000000D03*
X199000000Y-222000000D03*
X169000000Y-204300000D03*
X176000000Y-244000000D03*
X182000000Y-241000000D03*
X172000000Y-185000000D03*
X167000000Y-244000000D03*
X167000000Y-203300000D03*
D43*
X142000000Y-194000000D03*
X154300000Y-196800000D03*
D44*
X178900000Y-244000000D03*
X174000000Y-186000000D03*
X170525000Y-210800000D03*
X166000000Y-205300000D03*
D43*
X151000000Y-196800000D03*
D44*
X172000000Y-183000000D03*
D43*
X173500000Y-203900000D03*
D44*
X165000000Y-205300000D03*
D43*
X145000000Y-194000000D03*
D44*
X169000000Y-205300000D03*
X166000000Y-204300000D03*
D43*
X149000000Y-192000000D03*
X177500000Y-209300000D03*
D44*
X169000000Y-203300000D03*
D43*
X177600000Y-210200000D03*
D44*
X167000000Y-241000000D03*
D43*
X178900000Y-209300000D03*
D44*
X179000000Y-241000000D03*
X168500000Y-200400000D03*
X182000000Y-244000000D03*
D43*
X178200000Y-209700000D03*
X155800000Y-192200000D03*
D44*
X190000000Y-222000000D03*
X188000000Y-241000000D03*
X168000000Y-203300000D03*
X170000000Y-244000000D03*
X165000000Y-204300000D03*
X175000000Y-184000000D03*
X185000000Y-244000000D03*
X188000000Y-244000000D03*
D43*
X175210348Y-218202456D03*
D44*
X167000000Y-205300000D03*
D43*
%TO.N,WALLVIN*%
X165000000Y-195000000D03*
D44*
X174300000Y-201450000D03*
X173900000Y-202700000D03*
X165300000Y-196400000D03*
X165000000Y-195700000D03*
D43*
X172500000Y-203250000D03*
D44*
X173125000Y-202625000D03*
X174300000Y-202300000D03*
%TO.N,Net-(U4-BST1)*%
X183600000Y-204000000D03*
X169300000Y-198900000D03*
X169850000Y-199050000D03*
X183700000Y-204500000D03*
%TO.N,MosS1*%
X170900000Y-191300000D03*
X177600000Y-187400000D03*
%TO.N,MosD4*%
X175500000Y-220000000D03*
X170000000Y-221000000D03*
X171000000Y-222000000D03*
X171000000Y-219900000D03*
X172400000Y-221000000D03*
X176000000Y-221500000D03*
X174000000Y-222000000D03*
%TO.N,Net-(U4-VFBMAX)*%
X167000000Y-207900000D03*
X161500000Y-206100000D03*
%TO.N,Net-(D5-K)*%
X170021694Y-208200000D03*
X169610847Y-207789153D03*
X181000000Y-208200000D03*
X180900000Y-207000000D03*
%TO.N,Net-(U4-INTVCC)*%
X164539100Y-200360900D03*
X178700000Y-205200000D03*
%TO.N,Net-(J20-Pin_2)*%
X162100000Y-203600000D03*
%TO.N,MosD2*%
X169100000Y-192000000D03*
X181500000Y-201100000D03*
%TO.N,Net-(U4-SHDN)*%
X162900000Y-197600000D03*
D43*
X168250000Y-187535000D03*
D44*
%TO.N,MosG1*%
X173074818Y-197974818D03*
X173650000Y-197670000D03*
X174300000Y-195600000D03*
X174200000Y-195100000D03*
%TO.N,MosG4*%
X170700000Y-207100000D03*
X171946457Y-209051229D03*
X171300000Y-207100000D03*
X172400000Y-209500000D03*
%TO.N,MosG2*%
X170136395Y-199971499D03*
X170514798Y-200500000D03*
X173734154Y-200465846D03*
X174161870Y-200099000D03*
%TD*%
D45*
%TO.N,GND*%
X173700000Y-218100000D02*
X172900000Y-217300000D01*
D46*
X168250000Y-200871801D02*
X168250000Y-201796800D01*
X168250000Y-201796800D02*
X168250000Y-201821799D01*
X168500000Y-200671799D02*
X168749999Y-200921798D01*
X168749999Y-207812189D02*
X168749999Y-206803200D01*
X174400000Y-204300000D02*
X174600000Y-204500000D01*
X170525000Y-210800000D02*
X170525000Y-210275000D01*
X168500000Y-200400000D02*
X168500000Y-200671799D01*
X168749999Y-201796800D02*
X168250000Y-201796800D01*
X165999999Y-203299999D02*
X167000000Y-204300000D01*
X163496799Y-203299999D02*
X165999999Y-203299999D01*
D45*
X175210348Y-218202456D02*
X175102456Y-218202456D01*
D47*
X177500000Y-210100000D02*
X177600000Y-210200000D01*
D46*
X170351000Y-209413190D02*
X168749999Y-207812189D01*
X168500000Y-200621801D02*
X168250000Y-200871801D01*
D48*
X163468600Y-203299999D02*
X163471800Y-203296799D01*
D46*
X170351000Y-210101000D02*
X170351000Y-209413190D01*
D47*
X178500000Y-210400000D02*
X177800000Y-210400000D01*
D46*
X168749999Y-200921798D02*
X168749999Y-201796800D01*
D47*
X177500000Y-209300000D02*
X178900000Y-209300000D01*
D46*
X170503201Y-204300000D02*
X174400000Y-204300000D01*
D45*
X172900000Y-217300000D02*
X171462500Y-217300000D01*
D46*
X168500000Y-200400000D02*
X168500000Y-200621801D01*
D47*
X178500000Y-209700000D02*
X178900000Y-209300000D01*
D45*
X175102456Y-218202456D02*
X175000000Y-218100000D01*
D47*
X177800000Y-210400000D02*
X177600000Y-210200000D01*
D46*
X170525000Y-210275000D02*
X170351000Y-210101000D01*
D45*
X175000000Y-218100000D02*
X173700000Y-218100000D01*
D47*
X177500000Y-209300000D02*
X177500000Y-210100000D01*
X178500000Y-210400000D02*
X178500000Y-209700000D01*
D46*
X170503201Y-204300000D02*
X167000000Y-204300000D01*
%TO.N,WALLVIN*%
X170503201Y-203800001D02*
X171499999Y-203800001D01*
D47*
X174300000Y-201450000D02*
X173125000Y-202625000D01*
D46*
X172050000Y-203250000D02*
X172500000Y-203250000D01*
D47*
X173125000Y-202625000D02*
X172500000Y-203250000D01*
D46*
X171499999Y-203800001D02*
X172050000Y-203250000D01*
D45*
%TO.N,Net-(U4-BST1)*%
X183600000Y-204400000D02*
X183700000Y-204500000D01*
X170037500Y-198100000D02*
X170037500Y-198862500D01*
X182600000Y-204500000D02*
X182400000Y-204300000D01*
D46*
X169300000Y-200900000D02*
X169250001Y-200949999D01*
X169250001Y-200949999D02*
X169250001Y-201796800D01*
D45*
X170037500Y-198162500D02*
X169300000Y-198900000D01*
X182700000Y-204000000D02*
X182400000Y-204300000D01*
X169300000Y-199600000D02*
X169300000Y-200455368D01*
X169850000Y-199050000D02*
X169300000Y-199600000D01*
X183700000Y-204500000D02*
X182600000Y-204500000D01*
X170037500Y-198100000D02*
X170037500Y-198162500D01*
X170037500Y-198862500D02*
X169850000Y-199050000D01*
D46*
X169300000Y-200455368D02*
X169300000Y-200900000D01*
D45*
X169300000Y-198900000D02*
X169300000Y-199600000D01*
X183600000Y-204000000D02*
X182700000Y-204000000D01*
X183600000Y-204000000D02*
X183600000Y-204400000D01*
%TO.N,MosD1*%
X171400000Y-201600000D02*
X170700000Y-202300000D01*
X170700000Y-202300000D02*
X170700000Y-202600000D01*
D47*
X171400000Y-201300000D02*
X171700000Y-201000000D01*
D45*
X171400000Y-201300000D02*
X171400000Y-201600000D01*
X170700000Y-202300000D02*
X170400000Y-202600000D01*
X170400000Y-202600000D02*
X170400000Y-202696799D01*
X177840000Y-194130000D02*
X180850002Y-194130000D01*
D47*
X172530000Y-196670000D02*
X175300000Y-196670000D01*
D45*
X175300000Y-196670000D02*
X177840000Y-194130000D01*
D47*
X171700000Y-197500000D02*
X172530000Y-196670000D01*
X171700000Y-201000000D02*
X171700000Y-197500000D01*
D46*
%TO.N,MosS1*%
X177600000Y-187400000D02*
X177700000Y-187300000D01*
X167750001Y-194449999D02*
X167750001Y-201796800D01*
X178100000Y-187300000D02*
X178600000Y-187800000D01*
X170900000Y-191300000D02*
X167750001Y-194449999D01*
X178600000Y-187800000D02*
X178600000Y-188850000D01*
X177700000Y-187300000D02*
X178100000Y-187300000D01*
%TO.N,Net-(U4-CSP)*%
X165750000Y-206803200D02*
X165750000Y-211712500D01*
X166537500Y-214287500D02*
X166700000Y-214450000D01*
X165750000Y-211712500D02*
X166537500Y-212500000D01*
X166537500Y-212500000D02*
X166537500Y-214287500D01*
%TO.N,Net-(U4-CSN)*%
X165250001Y-211712499D02*
X164462500Y-212500000D01*
X164462500Y-212500000D02*
X164462500Y-214287500D01*
X164462500Y-214287500D02*
X164300000Y-214450000D01*
X165250001Y-206803200D02*
X165250001Y-211712499D01*
%TO.N,MosD4*%
X167400000Y-221100000D02*
X166700000Y-220400000D01*
X168550000Y-221100000D02*
X167400000Y-221100000D01*
X166700000Y-220400000D02*
X166700000Y-217550000D01*
%TO.N,Net-(U4-VFBMAX)*%
X167250000Y-207650000D02*
X167250000Y-206803200D01*
D45*
X156650000Y-207550000D02*
X155000000Y-207550000D01*
D47*
X155000000Y-207550000D02*
X156672800Y-207550000D01*
D49*
X162026002Y-205796800D02*
X163471800Y-205796800D01*
D46*
X167000000Y-207900000D02*
X167250000Y-207650000D01*
D49*
X161722802Y-206100000D02*
X162026002Y-205796800D01*
D45*
X158100000Y-206100000D02*
X156650000Y-207550000D01*
X161722802Y-206100000D02*
X158100000Y-206100000D01*
D47*
X156672800Y-207550000D02*
X158100000Y-206122800D01*
D46*
%TO.N,Net-(U4-CSOUT)*%
X166249999Y-208749999D02*
X166862500Y-209362500D01*
X166862500Y-209362500D02*
X166862500Y-210400000D01*
X166249999Y-206803200D02*
X166249999Y-208749999D01*
%TO.N,Net-(U4-ITH)*%
X167750001Y-206803200D02*
X167750001Y-208250001D01*
X168937500Y-209437500D02*
X168937500Y-210400000D01*
X167750001Y-208250001D02*
X168937500Y-209437500D01*
D45*
%TO.N,Net-(C37-Pad1)*%
X169700000Y-216600000D02*
X169700000Y-217262500D01*
X170200000Y-215550000D02*
X170200000Y-216100000D01*
X170200000Y-216100000D02*
X169700000Y-216600000D01*
X169700000Y-217262500D02*
X169737500Y-217300000D01*
%TO.N,Net-(D5-K)*%
X181500000Y-207600000D02*
X180900000Y-207000000D01*
X180900000Y-207000000D02*
X180600000Y-207000000D01*
X180900000Y-207000000D02*
X180900000Y-207600000D01*
X180600000Y-208200000D02*
X180000000Y-207600000D01*
X180600000Y-207000000D02*
X180000000Y-207600000D01*
X180900000Y-207000000D02*
X180900000Y-208100000D01*
X169610847Y-207789153D02*
X170021694Y-208200000D01*
X181000000Y-208200000D02*
X181500000Y-208200000D01*
X181000000Y-208200000D02*
X180600000Y-208200000D01*
X180900000Y-208100000D02*
X181000000Y-208200000D01*
X170021694Y-208200000D02*
X171237500Y-208200000D01*
D46*
X170021694Y-208200000D02*
X169250001Y-207428307D01*
D45*
X182100000Y-207600000D02*
X181500000Y-207600000D01*
X181500000Y-208200000D02*
X182100000Y-207600000D01*
X180900000Y-207600000D02*
X181500000Y-208200000D01*
X182100000Y-207600000D02*
X180000000Y-207600000D01*
D46*
X169250001Y-207428307D02*
X169250001Y-206803200D01*
D47*
%TO.N,MosD3*%
X173200000Y-207900000D02*
X174800000Y-209500000D01*
X176340000Y-212940000D02*
X177900000Y-212940000D01*
D45*
X177900000Y-212940000D02*
X178500000Y-212940000D01*
X178665000Y-212940000D02*
X178500000Y-212940000D01*
X184050002Y-210400000D02*
X181205000Y-210400000D01*
X170450000Y-205900000D02*
X171200000Y-205900000D01*
D47*
X174800000Y-209500000D02*
X174800000Y-211400000D01*
D45*
X181205000Y-210400000D02*
X178665000Y-212940000D01*
X171200000Y-205900000D02*
X173200000Y-207900000D01*
D47*
X174800000Y-211400000D02*
X176340000Y-212940000D01*
D46*
%TO.N,Net-(U4-INTVCC)*%
X142950000Y-195300000D02*
X141550000Y-196700000D01*
X146800000Y-198500000D02*
X145900000Y-197600000D01*
D47*
X178000000Y-204500000D02*
X178700000Y-205200000D01*
D45*
X174000000Y-205900000D02*
X177100000Y-205900000D01*
D46*
X164749999Y-201796800D02*
X164749999Y-201750001D01*
D48*
X164749999Y-201768601D02*
X164725000Y-201793600D01*
D46*
X164749999Y-200571799D02*
X164539100Y-200360900D01*
X163439100Y-199260900D02*
X164539100Y-200360900D01*
D47*
X177100000Y-206800000D02*
X177100000Y-207500000D01*
X177100000Y-205900000D02*
X177100000Y-206800000D01*
D45*
X177100000Y-205900000D02*
X178000000Y-205900000D01*
D47*
X177725000Y-204500000D02*
X178000000Y-204500000D01*
X178700000Y-204300000D02*
X179600000Y-204300000D01*
D46*
X172900000Y-205900000D02*
X171799999Y-204799999D01*
X145900000Y-197600000D02*
X145900000Y-195900000D01*
X165246799Y-201796800D02*
X164974999Y-201525001D01*
X165250001Y-201796800D02*
X164749999Y-201796800D01*
X163439100Y-199260900D02*
X161233319Y-199260900D01*
D45*
X178000000Y-205900000D02*
X178700000Y-205200000D01*
D48*
X165225002Y-201793600D02*
X165250001Y-201768601D01*
D47*
X179600000Y-204300000D02*
X177925000Y-204300000D01*
D46*
X165250001Y-201796800D02*
X165250001Y-201468200D01*
X171799999Y-204799999D02*
X170503201Y-204799999D01*
X164539100Y-200757299D02*
X164539100Y-200360900D01*
X164749999Y-201750001D02*
X164974999Y-201525001D01*
X141550000Y-196700000D02*
X139350000Y-196700000D01*
D47*
X177925000Y-204300000D02*
X177725000Y-204500000D01*
D46*
X165250001Y-201468200D02*
X164539100Y-200757299D01*
X145300000Y-195300000D02*
X142950000Y-195300000D01*
X174000000Y-205900000D02*
X172900000Y-205900000D01*
X164539100Y-200360900D02*
X164749999Y-200571798D01*
D47*
X178700000Y-205200000D02*
X177100000Y-206800000D01*
D46*
X165250001Y-201796800D02*
X165246799Y-201796800D01*
X148524380Y-198500000D02*
X146800000Y-198500000D01*
D47*
X177100000Y-205900000D02*
X178700000Y-204300000D01*
D46*
X145900000Y-195900000D02*
X145300000Y-195300000D01*
X164749999Y-201796800D02*
X164749999Y-201300000D01*
D48*
X164725001Y-200546801D02*
X163439100Y-199260900D01*
D46*
X139350000Y-196700000D02*
X139300000Y-196650000D01*
X160470419Y-198498000D02*
X148526380Y-198498000D01*
X161233319Y-199260900D02*
X160470419Y-198498000D01*
D47*
X177100000Y-207500000D02*
X177200000Y-207600000D01*
D46*
X164749999Y-201300000D02*
X164749999Y-200571799D01*
X148526380Y-198498000D02*
X148524380Y-198500000D01*
X164974999Y-201525001D02*
X164749999Y-201300000D01*
%TO.N,Net-(D1-A)*%
X144692500Y-199442500D02*
X144650000Y-199400000D01*
X144642500Y-199292500D02*
X144550000Y-199200000D01*
X144692500Y-201100000D02*
X144692500Y-199442500D01*
D48*
%TO.N,Net-(D1-K)*%
X164250000Y-201768601D02*
X164225001Y-201793600D01*
D46*
X147554690Y-200107500D02*
X148713190Y-198949000D01*
X160283609Y-198949000D02*
X163131409Y-201796800D01*
X163131409Y-201796800D02*
X164250000Y-201796800D01*
X148713190Y-198949000D02*
X160283609Y-198949000D01*
X146500000Y-200107500D02*
X147554690Y-200107500D01*
X145507500Y-201100000D02*
X146500000Y-200107500D01*
%TO.N,Net-(D2-A)*%
X143992500Y-202200000D02*
X142550000Y-202200000D01*
D48*
%TO.N,Net-(D2-K)*%
X163493599Y-202796800D02*
X163471800Y-202796800D01*
X163496799Y-202800000D02*
X163493599Y-202796800D01*
D46*
X146100000Y-202200000D02*
X144807500Y-202200000D01*
X160096799Y-199400000D02*
X148900000Y-199400000D01*
X163496799Y-202800000D02*
X160096799Y-199400000D01*
X148900000Y-199400000D02*
X146100000Y-202200000D01*
%TO.N,Net-(J20-Pin_2)*%
X162800000Y-204300000D02*
X162100000Y-203600000D01*
X163496799Y-204300000D02*
X162800000Y-204300000D01*
D48*
X163468600Y-204300000D02*
X163471800Y-204296800D01*
D47*
%TO.N,Net-(R4-Pad2)*%
X147000000Y-207350000D02*
X147000000Y-209450000D01*
X147000000Y-209450000D02*
X146100000Y-210350000D01*
%TO.N,Net-(R28-Pad2)*%
X149900000Y-204250000D02*
X150000000Y-204150000D01*
D45*
X147100000Y-204150000D02*
X147000000Y-204250000D01*
D47*
X147000000Y-204250000D02*
X149900000Y-204250000D01*
D46*
%TO.N,MosD2*%
X167250000Y-193850000D02*
X167250000Y-201796800D01*
X181600000Y-201200000D02*
X182850000Y-201200000D01*
X181500000Y-201100000D02*
X181600000Y-201200000D01*
X169100000Y-192000000D02*
X167250000Y-193850000D01*
D45*
%TO.N,Net-(U4-SHDN)*%
X168250000Y-187535000D02*
X168700000Y-187085000D01*
D46*
X165200000Y-200447335D02*
X165750000Y-200997335D01*
X168650000Y-180835000D02*
X168650000Y-183300000D01*
X165750000Y-200997335D02*
X165750000Y-201796800D01*
X165200000Y-199900000D02*
X165200000Y-200447335D01*
D48*
X165750000Y-201768601D02*
X165725001Y-201793600D01*
D46*
X168700000Y-183350000D02*
X168700000Y-185850000D01*
X168650000Y-180835000D02*
X170535000Y-180835000D01*
X162900000Y-197600000D02*
X165200000Y-199900000D01*
D45*
X168700000Y-187085000D02*
X168700000Y-185850000D01*
D46*
X170535000Y-180835000D02*
X170550000Y-180850000D01*
X168650000Y-183300000D02*
X168700000Y-183350000D01*
%TO.N,Net-(R25-Pad1)*%
X141950000Y-199400000D02*
X141550000Y-199400000D01*
X144650000Y-196700000D02*
X141950000Y-199400000D01*
%TO.N,Net-(R26-Pad1)*%
X139300000Y-202050000D02*
X139450000Y-202200000D01*
X139300000Y-199750000D02*
X139300000Y-202050000D01*
D47*
%TO.N,Net-(U4-FBG)*%
X152500000Y-204150000D02*
X154700000Y-204150000D01*
X158325000Y-204875000D02*
X157950000Y-204500000D01*
D49*
X163471800Y-205296801D02*
X163493599Y-205296801D01*
D45*
X158325000Y-204875000D02*
X158672799Y-205222799D01*
D47*
X154700000Y-204150000D02*
X155000000Y-204450000D01*
D46*
X155050000Y-204500000D02*
X155000000Y-204450000D01*
X161901000Y-205222799D02*
X161300000Y-205222799D01*
D45*
X158672799Y-205222799D02*
X161300000Y-205222799D01*
D46*
X163493599Y-205296801D02*
X161975002Y-205296801D01*
D47*
X157950000Y-204500000D02*
X155050000Y-204500000D01*
D46*
X161975002Y-205296801D02*
X161901000Y-205222799D01*
X163496799Y-205300001D02*
X163493599Y-205296801D01*
D47*
%TO.N,Net-(U4-VFB)*%
X156650000Y-201050000D02*
X152500000Y-201050000D01*
D49*
X161996799Y-204796799D02*
X163471800Y-204796799D01*
D45*
X159400000Y-203800000D02*
X159900000Y-204300000D01*
D47*
X159400000Y-203800000D02*
X156650000Y-201050000D01*
D49*
X161700000Y-204500000D02*
X161996799Y-204796799D01*
D45*
X159900000Y-204300000D02*
X161500000Y-204300000D01*
X161500000Y-204300000D02*
X161700000Y-204500000D01*
D47*
X150000000Y-201050000D02*
X152500000Y-201050000D01*
D46*
%TO.N,Net-(Q1-Pad1)*%
X164300000Y-220400000D02*
X164300000Y-217550000D01*
X162450000Y-221100000D02*
X163600000Y-221100000D01*
X163600000Y-221100000D02*
X164300000Y-220400000D01*
%TO.N,Net-(U4-VC)*%
X168250000Y-207950000D02*
X169900000Y-209600000D01*
X168250000Y-206803200D02*
X168250000Y-207950000D01*
X169900000Y-209600000D02*
X169900000Y-212150000D01*
X169900000Y-212150000D02*
X170200000Y-212450000D01*
%TO.N,Net-(U4-RT)*%
X166249999Y-200649999D02*
X165700000Y-200100000D01*
X166249999Y-201796800D02*
X166249999Y-200649999D01*
X163500000Y-196950000D02*
X159700000Y-196950000D01*
D48*
X166249999Y-201768601D02*
X166225000Y-201793600D01*
D46*
X159700000Y-196950000D02*
X159650000Y-196900000D01*
X164400000Y-198300000D02*
X164400000Y-197850000D01*
X164400000Y-197850000D02*
X163500000Y-196950000D01*
X159650000Y-194400000D02*
X159650000Y-196900000D01*
X165700000Y-200100000D02*
X165700000Y-199600000D01*
X165700000Y-199600000D02*
X164400000Y-198300000D01*
%TO.N,MosG1*%
X171100000Y-203300000D02*
X170503202Y-203300000D01*
D45*
X174500000Y-195400000D02*
X174200000Y-195100000D01*
X175300000Y-195400000D02*
X174500000Y-195400000D01*
X173345182Y-197974818D02*
X173074818Y-197974818D01*
X172984154Y-198065482D02*
X172984154Y-201415846D01*
D46*
X171500000Y-202900000D02*
X171100000Y-203300000D01*
D45*
X173650000Y-197670000D02*
X173345182Y-197974818D01*
D46*
X170503202Y-203300000D02*
X170503201Y-203299999D01*
D45*
X174200000Y-195100000D02*
X174200000Y-195500000D01*
X173074818Y-197974818D02*
X172984154Y-198065482D01*
X174200000Y-195500000D02*
X174300000Y-195600000D01*
X172984154Y-201415846D02*
X171500000Y-202900000D01*
%TO.N,MosG4*%
X170046800Y-207100000D02*
X169826001Y-206879201D01*
X169826001Y-206879201D02*
X169826001Y-206803200D01*
X171300000Y-207100000D02*
X170046800Y-207100000D01*
X172400000Y-209500000D02*
X173400000Y-210500000D01*
X173400000Y-210500000D02*
X173400000Y-212200000D01*
X171951229Y-209051229D02*
X172400000Y-209500000D01*
X173400000Y-212200000D02*
X175410000Y-214210000D01*
X175410000Y-214210000D02*
X178500000Y-214210000D01*
X171946457Y-209051229D02*
X171951229Y-209051229D01*
%TO.N,MosG2*%
X174161870Y-200099000D02*
X174161870Y-200038130D01*
X170449245Y-200500000D02*
X170367998Y-200581247D01*
X174161870Y-200038130D02*
X174250000Y-199950000D01*
D46*
X170136395Y-199971499D02*
X170144129Y-199979233D01*
D45*
X170514798Y-200349902D02*
X170514798Y-200500000D01*
X170514798Y-200500000D02*
X170449245Y-200500000D01*
X170300000Y-200714798D02*
X170300000Y-200953200D01*
X174250000Y-199150000D02*
X175300000Y-198100000D01*
X170300000Y-200953200D02*
X169826000Y-201427200D01*
X175300000Y-198100000D02*
X175300000Y-197940000D01*
X169826000Y-201427200D02*
X169826000Y-201796800D01*
D46*
X170144129Y-199979233D02*
X170279233Y-199979233D01*
D45*
X173734154Y-200465846D02*
X174101000Y-200099000D01*
X174250000Y-199950000D02*
X174250000Y-199150000D01*
X170136395Y-199971499D02*
X170514798Y-200349902D01*
X174101000Y-200099000D02*
X174161870Y-200099000D01*
X170514798Y-200500000D02*
X170300000Y-200714798D01*
D46*
%TO.N,Net-(U4-BGATE)*%
X155540000Y-214000000D02*
X152080000Y-217460000D01*
X164749999Y-206803200D02*
X164749999Y-208250001D01*
X164749999Y-208250001D02*
X159000000Y-214000000D01*
X159000000Y-214000000D02*
X155540000Y-214000000D01*
X152080000Y-217460000D02*
X152000000Y-217460000D01*
D45*
%TO.N,MosG3*%
X176300000Y-210600000D02*
X177370000Y-211670000D01*
X172809636Y-206499000D02*
X173390364Y-206499000D01*
D46*
X172809636Y-206499000D02*
X172760636Y-206450000D01*
D45*
X177370000Y-211670000D02*
X178500000Y-211670000D01*
D46*
X172700000Y-206450000D02*
X171550001Y-205300001D01*
D45*
X173390364Y-206499000D02*
X173391364Y-206500000D01*
D46*
X172760636Y-206450000D02*
X172700000Y-206450000D01*
D45*
X173391364Y-206500000D02*
X173600000Y-206500000D01*
X176300000Y-209200000D02*
X176300000Y-210600000D01*
X173600000Y-206500000D02*
X176300000Y-209200000D01*
D46*
X171550001Y-205300001D02*
X170503201Y-205300001D01*
%TD*%
%TA.AperFunction,Conductor*%
%TO.N,GND*%
G36*
X149093047Y-190219685D02*
G01*
X149118251Y-190241131D01*
X149800000Y-191000000D01*
X156670728Y-191000000D01*
X156726182Y-191013091D01*
X158431454Y-191865727D01*
X158482613Y-191913314D01*
X158500000Y-191976636D01*
X158500000Y-192730709D01*
X158480315Y-192797748D01*
X158440988Y-192836315D01*
X157200000Y-193600000D01*
X157102882Y-197678952D01*
X157081607Y-197745503D01*
X157027729Y-197789989D01*
X156978917Y-197800000D01*
X148354072Y-197800000D01*
X148287033Y-197780315D01*
X148263206Y-197760376D01*
X148249395Y-197745503D01*
X147911756Y-197381892D01*
X147033134Y-196435682D01*
X147001941Y-196373161D01*
X147000000Y-196351306D01*
X147000000Y-194700000D01*
X145502020Y-194700000D01*
X145477834Y-194697618D01*
X145422029Y-194686518D01*
X145422025Y-194686517D01*
X145361610Y-194674500D01*
X145361607Y-194674500D01*
X145361606Y-194674500D01*
X143011607Y-194674500D01*
X142888393Y-194674500D01*
X142888389Y-194674500D01*
X142827977Y-194686516D01*
X142827974Y-194686517D01*
X142827971Y-194686518D01*
X142772165Y-194697618D01*
X142747980Y-194700000D01*
X141124000Y-194700000D01*
X141056961Y-194680315D01*
X141011206Y-194627511D01*
X141000000Y-194576000D01*
X141000000Y-192324000D01*
X141019685Y-192256961D01*
X141072489Y-192211206D01*
X141124000Y-192200000D01*
X147099999Y-192200000D01*
X147100000Y-192200000D01*
X147655318Y-190289391D01*
X147692931Y-190230510D01*
X147756406Y-190201311D01*
X147774390Y-190200000D01*
X149026008Y-190200000D01*
X149093047Y-190219685D01*
G37*
%TD.AperFunction*%
%TD*%
%TA.AperFunction,Conductor*%
%TO.N,GND*%
G36*
X174343039Y-203619685D02*
G01*
X174388794Y-203672489D01*
X174400000Y-203724000D01*
X174400000Y-205276000D01*
X174380315Y-205343039D01*
X174327511Y-205388794D01*
X174276000Y-205400000D01*
X173347583Y-205400000D01*
X173280544Y-205380315D01*
X173264631Y-205368168D01*
X172300001Y-204500000D01*
X172299997Y-204499999D01*
X171205950Y-204418967D01*
X171140547Y-204394385D01*
X171098818Y-204338345D01*
X171094010Y-204268641D01*
X171127650Y-204207403D01*
X171189058Y-204174073D01*
X171201398Y-204172066D01*
X172300000Y-204050000D01*
X172642163Y-203935945D01*
X172704328Y-203923580D01*
X172807643Y-203880785D01*
X173630911Y-203606363D01*
X173670123Y-203600000D01*
X174276000Y-203600000D01*
X174343039Y-203619685D01*
G37*
%TD.AperFunction*%
%TD*%
%TA.AperFunction,Conductor*%
%TO.N,MosD3*%
G36*
X186015677Y-208019685D02*
G01*
X186036319Y-208036319D01*
X187000000Y-209000000D01*
X198948638Y-209000000D01*
X199015677Y-209019685D01*
X199036319Y-209036319D01*
X199463181Y-209463181D01*
X199496666Y-209524504D01*
X199499500Y-209550862D01*
X199499500Y-219449138D01*
X199479815Y-219516177D01*
X199463181Y-219536819D01*
X199036319Y-219963681D01*
X198974996Y-219997166D01*
X198948638Y-220000000D01*
X192051362Y-220000000D01*
X191984323Y-219980315D01*
X191963681Y-219963681D01*
X191336319Y-219336319D01*
X191302834Y-219274996D01*
X191300000Y-219248638D01*
X191300000Y-216000000D01*
X186059598Y-216000000D01*
X185992559Y-215980315D01*
X185962770Y-215953462D01*
X185227172Y-215033965D01*
X185200664Y-214969319D01*
X185200000Y-214956503D01*
X185200000Y-212800000D01*
X184855807Y-212455807D01*
X184844016Y-212442162D01*
X184841477Y-212438751D01*
X184787633Y-212354968D01*
X184767161Y-212337229D01*
X184725070Y-212288653D01*
X184616336Y-212194433D01*
X184616332Y-212194431D01*
X184596366Y-212185312D01*
X184560201Y-212160201D01*
X184400000Y-212000000D01*
X180024000Y-212000000D01*
X179956961Y-211980315D01*
X179911206Y-211927511D01*
X179900000Y-211876000D01*
X179900000Y-210502610D01*
X179919685Y-210435571D01*
X179972489Y-210389816D01*
X180000795Y-210380800D01*
X182000000Y-210000000D01*
X183963681Y-208036319D01*
X184025004Y-208002834D01*
X184051362Y-208000000D01*
X185948638Y-208000000D01*
X186015677Y-208019685D01*
G37*
%TD.AperFunction*%
%TD*%
%TA.AperFunction,Conductor*%
%TO.N,GND*%
G36*
X180015677Y-180019685D02*
G01*
X180036319Y-180036319D01*
X180963681Y-180963681D01*
X180997166Y-181025004D01*
X181000000Y-181051362D01*
X181000000Y-183376000D01*
X180980315Y-183443039D01*
X180927511Y-183488794D01*
X180876000Y-183500000D01*
X176800000Y-183500000D01*
X176314513Y-187092606D01*
X176286028Y-187156405D01*
X176227572Y-187194677D01*
X176191630Y-187200000D01*
X174900000Y-187200000D01*
X172061057Y-187200000D01*
X171994018Y-187180315D01*
X171962772Y-187151604D01*
X171025715Y-185933429D01*
X171000442Y-185868290D01*
X171000000Y-185857825D01*
X171000000Y-182686852D01*
X171019685Y-182619813D01*
X171072489Y-182574058D01*
X171081612Y-182570322D01*
X172059335Y-182214787D01*
X173199999Y-181800001D01*
X173199999Y-181800000D01*
X173200000Y-181800000D01*
X173200000Y-180124000D01*
X173219685Y-180056961D01*
X173272489Y-180011206D01*
X173324000Y-180000000D01*
X179948638Y-180000000D01*
X180015677Y-180019685D01*
G37*
%TD.AperFunction*%
%TD*%
%TA.AperFunction,Conductor*%
%TO.N,Net-(Q1-Pad1)*%
G36*
X161011814Y-215019685D02*
G01*
X161036943Y-215041048D01*
X162768168Y-216964631D01*
X162798384Y-217027630D01*
X162800000Y-217047583D01*
X162800000Y-218500000D01*
X163263681Y-218963681D01*
X163297166Y-219025004D01*
X163300000Y-219051362D01*
X163300000Y-222938942D01*
X163280315Y-223005981D01*
X163251604Y-223037227D01*
X162033430Y-223974285D01*
X161968291Y-223999558D01*
X161957826Y-224000000D01*
X152451362Y-224000000D01*
X152384323Y-223980315D01*
X152363681Y-223963681D01*
X151435207Y-223035207D01*
X151401722Y-222973884D01*
X151398918Y-222950229D01*
X151302754Y-218526694D01*
X151320977Y-218459244D01*
X151372774Y-218412352D01*
X151426725Y-218400000D01*
X152999999Y-218400000D01*
X153000000Y-218400000D01*
X155962977Y-215041958D01*
X156022092Y-215004714D01*
X156055957Y-215000000D01*
X160944775Y-215000000D01*
X161011814Y-215019685D01*
G37*
%TD.AperFunction*%
%TD*%
%TA.AperFunction,Conductor*%
%TO.N,GND*%
G36*
X190607441Y-220519685D02*
G01*
X190637230Y-220546538D01*
X190699200Y-220624000D01*
X191000000Y-221000000D01*
X198948638Y-221000000D01*
X199015677Y-221019685D01*
X199036319Y-221036319D01*
X199463181Y-221463181D01*
X199496666Y-221524504D01*
X199499500Y-221550862D01*
X199499500Y-230449138D01*
X199479815Y-230516177D01*
X199463181Y-230536819D01*
X199036319Y-230963681D01*
X198974996Y-230997166D01*
X198948638Y-231000000D01*
X188051362Y-231000000D01*
X187984323Y-230980315D01*
X187963681Y-230963681D01*
X187032507Y-230032507D01*
X186999022Y-229971184D01*
X186996540Y-229954158D01*
X186666152Y-225576512D01*
X186665907Y-225573267D01*
X193602500Y-225573267D01*
X193602500Y-225706732D01*
X193628533Y-225837610D01*
X193628536Y-225837620D01*
X193679607Y-225960917D01*
X193679608Y-225960920D01*
X193753750Y-226071880D01*
X193753753Y-226071884D01*
X193848115Y-226166246D01*
X193848119Y-226166249D01*
X193959079Y-226240391D01*
X193959081Y-226240391D01*
X193959083Y-226240393D01*
X194082381Y-226291464D01*
X194082384Y-226291464D01*
X194082389Y-226291466D01*
X194213267Y-226317499D01*
X194213270Y-226317500D01*
X194213272Y-226317500D01*
X194346730Y-226317500D01*
X194346731Y-226317499D01*
X194411312Y-226304653D01*
X194477610Y-226291466D01*
X194477612Y-226291465D01*
X194477619Y-226291464D01*
X194600917Y-226240393D01*
X194711881Y-226166249D01*
X194806249Y-226071881D01*
X194880393Y-225960917D01*
X194931464Y-225837619D01*
X194957500Y-225706728D01*
X194957500Y-225573272D01*
X194957500Y-225573269D01*
X194957499Y-225573267D01*
X194931466Y-225442389D01*
X194931463Y-225442379D01*
X194880393Y-225319083D01*
X194880391Y-225319081D01*
X194880391Y-225319079D01*
X194806249Y-225208119D01*
X194806246Y-225208115D01*
X194711884Y-225113753D01*
X194711880Y-225113750D01*
X194600920Y-225039608D01*
X194600917Y-225039607D01*
X194477620Y-224988536D01*
X194477610Y-224988533D01*
X194346731Y-224962500D01*
X194346728Y-224962500D01*
X194213272Y-224962500D01*
X194213269Y-224962500D01*
X194082389Y-224988533D01*
X194082379Y-224988536D01*
X193959082Y-225039607D01*
X193959079Y-225039608D01*
X193848119Y-225113750D01*
X193848115Y-225113753D01*
X193753753Y-225208115D01*
X193753750Y-225208119D01*
X193679608Y-225319079D01*
X193679607Y-225319082D01*
X193628536Y-225442379D01*
X193628533Y-225442389D01*
X193602500Y-225573267D01*
X186665907Y-225573267D01*
X186600352Y-224704664D01*
X186600000Y-224695332D01*
X186600000Y-222859597D01*
X186619685Y-222792558D01*
X186646536Y-222762771D01*
X187600000Y-222000000D01*
X187600000Y-220624000D01*
X187619685Y-220556961D01*
X187672489Y-220511206D01*
X187724000Y-220500000D01*
X190540402Y-220500000D01*
X190607441Y-220519685D01*
G37*
%TD.AperFunction*%
%TD*%
%TA.AperFunction,Conductor*%
%TO.N,MosD2*%
G36*
X184723542Y-196319685D02*
G01*
X184733965Y-196327172D01*
X185653462Y-197062770D01*
X185693514Y-197120020D01*
X185700000Y-197159597D01*
X185700000Y-201857453D01*
X185680315Y-201924492D01*
X185673880Y-201933582D01*
X185037233Y-202752129D01*
X184980536Y-202792961D01*
X184939353Y-202800000D01*
X182224000Y-202800000D01*
X182156961Y-202780315D01*
X182111206Y-202727511D01*
X182100000Y-202676000D01*
X182100000Y-199600000D01*
X182099999Y-199599999D01*
X176886127Y-197927625D01*
X176828303Y-197888405D01*
X176800862Y-197824149D01*
X176800000Y-197809550D01*
X176800000Y-196424000D01*
X176819685Y-196356961D01*
X176872489Y-196311206D01*
X176924000Y-196300000D01*
X184656503Y-196300000D01*
X184723542Y-196319685D01*
G37*
%TD.AperFunction*%
%TD*%
%TA.AperFunction,Conductor*%
%TO.N,BatteryVIN*%
G36*
X164149984Y-206434044D02*
G01*
X164208020Y-206472948D01*
X164232450Y-206519937D01*
X164355743Y-206975624D01*
X164354251Y-207045478D01*
X164321662Y-207097710D01*
X161700869Y-209599170D01*
X161699156Y-209600775D01*
X158035580Y-212967305D01*
X157972897Y-212998171D01*
X157951678Y-213000000D01*
X155000000Y-213000000D01*
X150000000Y-217000000D01*
X150000000Y-228948638D01*
X149980315Y-229015677D01*
X149963681Y-229036319D01*
X149036319Y-229963681D01*
X148974996Y-229997166D01*
X148948638Y-230000000D01*
X137051362Y-230000000D01*
X136984323Y-229980315D01*
X136963681Y-229963681D01*
X136536819Y-229536819D01*
X136503334Y-229475496D01*
X136500500Y-229449138D01*
X136500500Y-225473267D01*
X143602500Y-225473267D01*
X143602500Y-225606732D01*
X143628533Y-225737610D01*
X143628536Y-225737620D01*
X143679607Y-225860917D01*
X143679608Y-225860920D01*
X143753750Y-225971880D01*
X143753753Y-225971884D01*
X143848115Y-226066246D01*
X143848119Y-226066249D01*
X143959079Y-226140391D01*
X143959081Y-226140391D01*
X143959083Y-226140393D01*
X144082381Y-226191464D01*
X144082384Y-226191464D01*
X144082389Y-226191466D01*
X144213267Y-226217499D01*
X144213270Y-226217500D01*
X144213272Y-226217500D01*
X144346730Y-226217500D01*
X144346731Y-226217499D01*
X144411312Y-226204653D01*
X144477610Y-226191466D01*
X144477612Y-226191465D01*
X144477619Y-226191464D01*
X144600917Y-226140393D01*
X144711881Y-226066249D01*
X144806249Y-225971881D01*
X144880393Y-225860917D01*
X144931464Y-225737619D01*
X144957500Y-225606728D01*
X144957500Y-225473272D01*
X144957500Y-225473269D01*
X144957499Y-225473267D01*
X144931466Y-225342389D01*
X144931463Y-225342379D01*
X144880393Y-225219083D01*
X144880391Y-225219081D01*
X144880391Y-225219079D01*
X144806249Y-225108119D01*
X144806246Y-225108115D01*
X144711884Y-225013753D01*
X144711880Y-225013750D01*
X144600920Y-224939608D01*
X144600917Y-224939607D01*
X144477620Y-224888536D01*
X144477610Y-224888533D01*
X144346731Y-224862500D01*
X144346728Y-224862500D01*
X144213272Y-224862500D01*
X144213269Y-224862500D01*
X144082389Y-224888533D01*
X144082379Y-224888536D01*
X143959082Y-224939607D01*
X143959079Y-224939608D01*
X143848119Y-225013750D01*
X143848115Y-225013753D01*
X143753753Y-225108115D01*
X143753750Y-225108119D01*
X143679608Y-225219079D01*
X143679607Y-225219082D01*
X143628536Y-225342379D01*
X143628533Y-225342389D01*
X143602500Y-225473267D01*
X136500500Y-225473267D01*
X136500500Y-213550862D01*
X136520185Y-213483823D01*
X136536819Y-213463181D01*
X136963681Y-213036319D01*
X137025004Y-213002834D01*
X137051362Y-213000000D01*
X147000000Y-213000000D01*
X149962800Y-209049600D01*
X150018771Y-209007779D01*
X150062000Y-209000000D01*
X157000000Y-209000000D01*
X158963681Y-207036319D01*
X159025004Y-207002834D01*
X159051362Y-207000000D01*
X162000000Y-207000000D01*
X164080129Y-206432692D01*
X164149984Y-206434044D01*
G37*
%TD.AperFunction*%
%TD*%
%TA.AperFunction,Conductor*%
%TO.N,MosD1*%
G36*
X199015677Y-186019685D02*
G01*
X199036319Y-186036319D01*
X199463181Y-186463181D01*
X199496666Y-186524504D01*
X199499500Y-186550862D01*
X199499500Y-195449138D01*
X199479815Y-195516177D01*
X199463181Y-195536819D01*
X199036319Y-195963681D01*
X198974996Y-195997166D01*
X198948638Y-196000000D01*
X192500000Y-196000000D01*
X186041333Y-196000000D01*
X185974294Y-195980315D01*
X185966933Y-195975200D01*
X185600000Y-195700000D01*
X185599999Y-195700000D01*
X176824000Y-195700000D01*
X176756961Y-195680315D01*
X176711206Y-195627511D01*
X176700000Y-195576000D01*
X176700000Y-194318366D01*
X176719685Y-194251327D01*
X176772489Y-194205572D01*
X176818236Y-194194500D01*
X181000000Y-194000000D01*
X183000000Y-192000000D01*
X183000000Y-187051362D01*
X183019685Y-186984323D01*
X183036319Y-186963681D01*
X183963681Y-186036319D01*
X184025004Y-186002834D01*
X184051362Y-186000000D01*
X198948638Y-186000000D01*
X199015677Y-186019685D01*
G37*
%TD.AperFunction*%
%TD*%
%TA.AperFunction,Conductor*%
%TO.N,WALLVIN*%
G36*
X150188539Y-170019685D02*
G01*
X150234294Y-170072489D01*
X150245500Y-170124000D01*
X150245500Y-170338165D01*
X150278336Y-170503241D01*
X150278338Y-170503249D01*
X150342750Y-170658755D01*
X150342755Y-170658764D01*
X150436265Y-170798711D01*
X150436268Y-170798715D01*
X150555284Y-170917731D01*
X150555288Y-170917734D01*
X150695235Y-171011244D01*
X150695241Y-171011247D01*
X150695242Y-171011248D01*
X150850751Y-171075662D01*
X151015834Y-171108499D01*
X151015838Y-171108500D01*
X151015839Y-171108500D01*
X151184162Y-171108500D01*
X151184163Y-171108499D01*
X151349249Y-171075662D01*
X151504758Y-171011248D01*
X151644712Y-170917734D01*
X151763734Y-170798712D01*
X151857248Y-170658758D01*
X151921662Y-170503249D01*
X151954500Y-170338161D01*
X151954500Y-170124000D01*
X151974185Y-170056961D01*
X152026989Y-170011206D01*
X152078500Y-170000000D01*
X162121500Y-170000000D01*
X162188539Y-170019685D01*
X162234294Y-170072489D01*
X162245500Y-170124000D01*
X162245500Y-170338165D01*
X162278336Y-170503241D01*
X162278338Y-170503249D01*
X162342750Y-170658755D01*
X162342755Y-170658764D01*
X162436265Y-170798711D01*
X162436268Y-170798715D01*
X162555284Y-170917731D01*
X162555288Y-170917734D01*
X162695235Y-171011244D01*
X162695241Y-171011247D01*
X162695242Y-171011248D01*
X162850751Y-171075662D01*
X163015834Y-171108499D01*
X163015838Y-171108500D01*
X163015839Y-171108500D01*
X163184162Y-171108500D01*
X163184163Y-171108499D01*
X163349249Y-171075662D01*
X163504758Y-171011248D01*
X163644712Y-170917734D01*
X163763734Y-170798712D01*
X163857248Y-170658758D01*
X163921662Y-170503249D01*
X163954500Y-170338161D01*
X163954500Y-170124000D01*
X163974185Y-170056961D01*
X164026989Y-170011206D01*
X164078500Y-170000000D01*
X165948638Y-170000000D01*
X166015677Y-170019685D01*
X166036319Y-170036319D01*
X166963681Y-170963681D01*
X166997166Y-171025004D01*
X167000000Y-171051362D01*
X167000000Y-177948638D01*
X166980315Y-178015677D01*
X166963681Y-178036319D01*
X166000000Y-178999999D01*
X166000000Y-197699999D01*
X166868932Y-199776891D01*
X166878540Y-199825047D01*
X166875001Y-201300148D01*
X166875001Y-202122800D01*
X166872450Y-202131485D01*
X166873739Y-202140447D01*
X166862760Y-202164487D01*
X166855316Y-202189839D01*
X166848475Y-202195766D01*
X166844714Y-202204003D01*
X166822479Y-202218292D01*
X166802512Y-202235594D01*
X166791997Y-202237881D01*
X166785936Y-202241777D01*
X166751001Y-202246800D01*
X166749001Y-202246800D01*
X166681962Y-202227115D01*
X166636207Y-202174311D01*
X166625001Y-202122800D01*
X166625001Y-201299993D01*
X166600000Y-200400000D01*
X166236319Y-200036319D01*
X166202834Y-199974996D01*
X166200000Y-199948638D01*
X166200000Y-199400001D01*
X166199999Y-199399999D01*
X165040210Y-198336859D01*
X165004093Y-198277048D01*
X165000000Y-198245452D01*
X165000000Y-197500001D01*
X165000000Y-197500000D01*
X160600000Y-192900000D01*
X159424000Y-192900000D01*
X159356961Y-192880315D01*
X159311206Y-192827511D01*
X159300000Y-192776000D01*
X159300000Y-191499999D01*
X159299999Y-191499997D01*
X158030295Y-190034955D01*
X158001264Y-189971402D01*
X158000000Y-189953744D01*
X158000000Y-184800000D01*
X156900000Y-183700000D01*
X149600000Y-183700000D01*
X147328396Y-184983950D01*
X147267381Y-185000000D01*
X139051362Y-185000000D01*
X138984323Y-184980315D01*
X138963681Y-184963681D01*
X138036319Y-184036319D01*
X138002834Y-183974996D01*
X138000000Y-183948638D01*
X138000000Y-179109828D01*
X138019685Y-179042789D01*
X138033780Y-179024762D01*
X138057128Y-179000000D01*
X138963290Y-178038933D01*
X139023602Y-178003661D01*
X139053510Y-178000000D01*
X147000000Y-178000000D01*
X147000000Y-174061834D01*
X150245500Y-174061834D01*
X150245500Y-175538165D01*
X150278336Y-175703241D01*
X150278338Y-175703249D01*
X150342750Y-175858755D01*
X150342755Y-175858764D01*
X150436265Y-175998711D01*
X150436268Y-175998715D01*
X150555284Y-176117731D01*
X150555288Y-176117734D01*
X150695235Y-176211244D01*
X150695241Y-176211247D01*
X150695242Y-176211248D01*
X150850751Y-176275662D01*
X151015834Y-176308499D01*
X151015838Y-176308500D01*
X151015839Y-176308500D01*
X151184162Y-176308500D01*
X151184163Y-176308499D01*
X151349249Y-176275662D01*
X151504758Y-176211248D01*
X151644712Y-176117734D01*
X151763734Y-175998712D01*
X151857248Y-175858758D01*
X151921662Y-175703249D01*
X151954500Y-175538161D01*
X151954500Y-174061839D01*
X151921662Y-173896751D01*
X151857248Y-173741242D01*
X151857247Y-173741241D01*
X151857244Y-173741235D01*
X151782009Y-173628638D01*
X151763734Y-173601288D01*
X151763731Y-173601284D01*
X151728281Y-173565834D01*
X155591500Y-173565834D01*
X155591500Y-173734165D01*
X155624336Y-173899241D01*
X155624338Y-173899249D01*
X155688750Y-174054755D01*
X155688755Y-174054764D01*
X155782265Y-174194711D01*
X155782268Y-174194715D01*
X155901284Y-174313731D01*
X155901288Y-174313734D01*
X156041235Y-174407244D01*
X156041241Y-174407247D01*
X156041242Y-174407248D01*
X156196751Y-174471662D01*
X156361834Y-174504499D01*
X156361838Y-174504500D01*
X156361839Y-174504500D01*
X157838162Y-174504500D01*
X157838163Y-174504499D01*
X158003249Y-174471662D01*
X158158758Y-174407248D01*
X158298712Y-174313734D01*
X158417734Y-174194712D01*
X158506520Y-174061834D01*
X162245500Y-174061834D01*
X162245500Y-175538165D01*
X162278336Y-175703241D01*
X162278338Y-175703249D01*
X162342750Y-175858755D01*
X162342755Y-175858764D01*
X162436265Y-175998711D01*
X162436268Y-175998715D01*
X162555284Y-176117731D01*
X162555288Y-176117734D01*
X162695235Y-176211244D01*
X162695241Y-176211247D01*
X162695242Y-176211248D01*
X162850751Y-176275662D01*
X163015834Y-176308499D01*
X163015838Y-176308500D01*
X163015839Y-176308500D01*
X163184162Y-176308500D01*
X163184163Y-176308499D01*
X163349249Y-176275662D01*
X163504758Y-176211248D01*
X163644712Y-176117734D01*
X163763734Y-175998712D01*
X163857248Y-175858758D01*
X163921662Y-175703249D01*
X163954500Y-175538161D01*
X163954500Y-174061839D01*
X163921662Y-173896751D01*
X163857248Y-173741242D01*
X163857247Y-173741241D01*
X163857244Y-173741235D01*
X163763734Y-173601288D01*
X163763731Y-173601284D01*
X163644715Y-173482268D01*
X163644711Y-173482265D01*
X163504764Y-173388755D01*
X163504755Y-173388750D01*
X163349249Y-173324338D01*
X163349241Y-173324336D01*
X163184165Y-173291500D01*
X163184161Y-173291500D01*
X163015839Y-173291500D01*
X163015834Y-173291500D01*
X162850758Y-173324336D01*
X162850750Y-173324338D01*
X162695244Y-173388750D01*
X162695235Y-173388755D01*
X162555288Y-173482265D01*
X162555284Y-173482268D01*
X162436268Y-173601284D01*
X162436265Y-173601288D01*
X162342755Y-173741235D01*
X162342750Y-173741244D01*
X162278338Y-173896750D01*
X162278336Y-173896758D01*
X162245500Y-174061834D01*
X158506520Y-174061834D01*
X158511248Y-174054758D01*
X158575662Y-173899249D01*
X158608500Y-173734161D01*
X158608500Y-173565839D01*
X158575662Y-173400751D01*
X158511248Y-173245242D01*
X158511247Y-173245241D01*
X158511244Y-173245235D01*
X158417734Y-173105288D01*
X158417731Y-173105284D01*
X158298715Y-172986268D01*
X158298711Y-172986265D01*
X158158764Y-172892755D01*
X158158755Y-172892750D01*
X158003249Y-172828338D01*
X158003241Y-172828336D01*
X157838165Y-172795500D01*
X157838161Y-172795500D01*
X156361839Y-172795500D01*
X156361834Y-172795500D01*
X156196758Y-172828336D01*
X156196750Y-172828338D01*
X156041244Y-172892750D01*
X156041235Y-172892755D01*
X155901288Y-172986265D01*
X155901284Y-172986268D01*
X155782268Y-173105284D01*
X155782265Y-173105288D01*
X155688755Y-173245235D01*
X155688750Y-173245244D01*
X155624338Y-173400750D01*
X155624336Y-173400758D01*
X155591500Y-173565834D01*
X151728281Y-173565834D01*
X151644715Y-173482268D01*
X151644711Y-173482265D01*
X151504764Y-173388755D01*
X151504755Y-173388750D01*
X151349249Y-173324338D01*
X151349241Y-173324336D01*
X151184165Y-173291500D01*
X151184161Y-173291500D01*
X151015839Y-173291500D01*
X151015834Y-173291500D01*
X150850758Y-173324336D01*
X150850750Y-173324338D01*
X150695244Y-173388750D01*
X150695235Y-173388755D01*
X150555288Y-173482265D01*
X150555284Y-173482268D01*
X150436268Y-173601284D01*
X150436265Y-173601288D01*
X150342755Y-173741235D01*
X150342750Y-173741244D01*
X150278338Y-173896750D01*
X150278336Y-173896758D01*
X150245500Y-174061834D01*
X147000000Y-174061834D01*
X147000000Y-171051362D01*
X147019685Y-170984323D01*
X147036319Y-170963681D01*
X147963681Y-170036319D01*
X148025004Y-170002834D01*
X148051362Y-170000000D01*
X150121500Y-170000000D01*
X150188539Y-170019685D01*
G37*
%TD.AperFunction*%
%TD*%
%TA.AperFunction,Conductor*%
%TO.N,MosS1*%
G36*
X180243039Y-188419685D02*
G01*
X180288794Y-188472489D01*
X180300000Y-188524000D01*
X180300000Y-192401670D01*
X180280315Y-192468709D01*
X180227511Y-192514464D01*
X180204258Y-192522407D01*
X175600000Y-193599999D01*
X175600000Y-194281058D01*
X175580315Y-194348097D01*
X175527511Y-194393852D01*
X175481162Y-194404951D01*
X174692750Y-194437801D01*
X174624949Y-194420924D01*
X174618698Y-194417011D01*
X174579183Y-194390608D01*
X174579172Y-194390602D01*
X174433501Y-194330264D01*
X174433489Y-194330261D01*
X174278845Y-194299500D01*
X174278842Y-194299500D01*
X174121158Y-194299500D01*
X174121155Y-194299500D01*
X173966510Y-194330261D01*
X173966498Y-194330264D01*
X173820827Y-194390602D01*
X173820809Y-194390612D01*
X173716445Y-194460346D01*
X173652717Y-194481136D01*
X173248787Y-194497967D01*
X173180987Y-194481091D01*
X173162927Y-194468223D01*
X172543302Y-193937116D01*
X172505212Y-193878541D01*
X172500000Y-193842968D01*
X172500000Y-189062000D01*
X172519685Y-188994961D01*
X172549600Y-188962800D01*
X173266933Y-188424799D01*
X173332375Y-188400324D01*
X173341333Y-188400000D01*
X180176000Y-188400000D01*
X180243039Y-188419685D01*
G37*
%TD.AperFunction*%
%TD*%
%TA.AperFunction,Conductor*%
%TO.N,WALLVIN*%
G36*
X177443039Y-199519685D02*
G01*
X177488794Y-199572489D01*
X177500000Y-199624000D01*
X177500000Y-202876000D01*
X177480315Y-202943039D01*
X177427511Y-202988794D01*
X177376000Y-203000000D01*
X174500000Y-203000000D01*
X174215661Y-203088856D01*
X174178675Y-203094500D01*
X173802480Y-203094500D01*
X173755028Y-203085061D01*
X173748082Y-203082184D01*
X173748074Y-203082182D01*
X173583771Y-203049500D01*
X173583767Y-203049500D01*
X173416233Y-203049500D01*
X173416228Y-203049500D01*
X173251925Y-203082182D01*
X173251917Y-203082184D01*
X173097139Y-203146295D01*
X172957841Y-203239371D01*
X172957835Y-203239375D01*
X172890781Y-203306428D01*
X172842315Y-203336381D01*
X172647788Y-203401224D01*
X172614200Y-203413761D01*
X172568157Y-203432832D01*
X172546779Y-203439498D01*
X172545778Y-203439713D01*
X172543548Y-203440157D01*
X172542829Y-203440347D01*
X172540395Y-203440871D01*
X172537454Y-203440653D01*
X172496787Y-203442397D01*
X172324204Y-203417743D01*
X172260622Y-203388776D01*
X172222795Y-203330032D01*
X172222731Y-203260162D01*
X172254057Y-203207310D01*
X173567106Y-201894262D01*
X173616340Y-201820575D01*
X173649238Y-201771341D01*
X173704560Y-201637782D01*
X173705813Y-201634758D01*
X173734654Y-201489763D01*
X173734654Y-201416708D01*
X173743297Y-201387270D01*
X173749821Y-201357282D01*
X173753576Y-201352265D01*
X173754339Y-201349669D01*
X173770972Y-201329028D01*
X173812187Y-201287812D01*
X173873507Y-201254328D01*
X173875495Y-201253913D01*
X173967651Y-201235583D01*
X174113333Y-201175240D01*
X174244443Y-201087635D01*
X174355943Y-200976135D01*
X174419180Y-200881491D01*
X174472791Y-200836687D01*
X174474741Y-200835858D01*
X174541049Y-200808394D01*
X174672159Y-200720789D01*
X174783659Y-200609289D01*
X174871264Y-200478179D01*
X174931607Y-200332497D01*
X174954827Y-200215759D01*
X174958435Y-200201881D01*
X174959964Y-200197143D01*
X174971659Y-200168912D01*
X174975800Y-200148090D01*
X174978008Y-200141253D01*
X174993784Y-200118087D01*
X175006774Y-200093252D01*
X175008218Y-200091781D01*
X175563681Y-199536319D01*
X175625004Y-199502834D01*
X175651362Y-199500000D01*
X177376000Y-199500000D01*
X177443039Y-199519685D01*
G37*
%TD.AperFunction*%
%TD*%
%TA.AperFunction,Conductor*%
%TO.N,MosD4*%
G36*
X184343039Y-212619685D02*
G01*
X184388794Y-212672489D01*
X184400000Y-212724000D01*
X184400000Y-216100000D01*
X185363840Y-217063840D01*
X185397325Y-217125163D01*
X185400158Y-217151136D01*
X185449615Y-233076323D01*
X185430139Y-233143423D01*
X185377478Y-233189342D01*
X185326325Y-233200706D01*
X168047386Y-233299443D01*
X167980235Y-233280142D01*
X167934179Y-233227600D01*
X167926381Y-233205526D01*
X167703702Y-232314808D01*
X167700000Y-232284734D01*
X167700000Y-225473267D01*
X177722500Y-225473267D01*
X177722500Y-225606732D01*
X177748533Y-225737610D01*
X177748536Y-225737620D01*
X177799607Y-225860917D01*
X177799608Y-225860920D01*
X177873750Y-225971880D01*
X177873753Y-225971884D01*
X177968115Y-226066246D01*
X177968119Y-226066249D01*
X178079079Y-226140391D01*
X178079081Y-226140391D01*
X178079083Y-226140393D01*
X178202381Y-226191464D01*
X178202384Y-226191464D01*
X178202389Y-226191466D01*
X178333267Y-226217499D01*
X178333270Y-226217500D01*
X178333272Y-226217500D01*
X178466730Y-226217500D01*
X178466731Y-226217499D01*
X178531312Y-226204653D01*
X178597610Y-226191466D01*
X178597612Y-226191465D01*
X178597619Y-226191464D01*
X178720917Y-226140393D01*
X178831881Y-226066249D01*
X178926249Y-225971881D01*
X179000393Y-225860917D01*
X179051464Y-225737619D01*
X179077500Y-225606728D01*
X179077500Y-225473272D01*
X179077500Y-225473269D01*
X179077499Y-225473267D01*
X179051466Y-225342389D01*
X179051463Y-225342379D01*
X179000393Y-225219083D01*
X179000391Y-225219081D01*
X179000391Y-225219079D01*
X178926249Y-225108119D01*
X178926246Y-225108115D01*
X178831884Y-225013753D01*
X178831880Y-225013750D01*
X178720920Y-224939608D01*
X178720917Y-224939607D01*
X178597620Y-224888536D01*
X178597610Y-224888533D01*
X178466731Y-224862500D01*
X178466728Y-224862500D01*
X178333272Y-224862500D01*
X178333269Y-224862500D01*
X178202389Y-224888533D01*
X178202379Y-224888536D01*
X178079082Y-224939607D01*
X178079079Y-224939608D01*
X177968119Y-225013750D01*
X177968115Y-225013753D01*
X177873753Y-225108115D01*
X177873750Y-225108119D01*
X177799608Y-225219079D01*
X177799607Y-225219082D01*
X177748536Y-225342379D01*
X177748533Y-225342389D01*
X177722500Y-225473267D01*
X167700000Y-225473267D01*
X167700000Y-219222887D01*
X167719685Y-219155848D01*
X167772489Y-219110093D01*
X167822878Y-219098892D01*
X178800000Y-219000000D01*
X179500000Y-218000000D01*
X179891493Y-212714838D01*
X179916076Y-212649438D01*
X179972116Y-212607709D01*
X180015154Y-212600000D01*
X184276000Y-212600000D01*
X184343039Y-212619685D01*
G37*
%TD.AperFunction*%
%TD*%
%TA.AperFunction,Conductor*%
%TO.N,GND*%
G36*
X187906698Y-240534785D02*
G01*
X187927340Y-240551419D01*
X188854702Y-241478781D01*
X188888187Y-241540104D01*
X188891021Y-241566462D01*
X188891021Y-244980297D01*
X188871336Y-245047336D01*
X188855135Y-245067543D01*
X187937270Y-245994546D01*
X187876114Y-246028334D01*
X187849156Y-246031300D01*
X166952240Y-246031300D01*
X166885201Y-246011615D01*
X166864559Y-245994981D01*
X165937053Y-245067475D01*
X165903568Y-245006152D01*
X165900734Y-244980147D01*
X165891166Y-241567020D01*
X165910663Y-241499927D01*
X165927911Y-241478569D01*
X166864634Y-240550989D01*
X166926121Y-240517806D01*
X166951884Y-240515100D01*
X187839659Y-240515100D01*
X187906698Y-240534785D01*
G37*
%TD.AperFunction*%
%TD*%
%TA.AperFunction,Conductor*%
%TO.N,GND*%
G36*
X168789888Y-200345817D02*
G01*
X168794842Y-200353276D01*
X168795040Y-200354823D01*
X168822640Y-200812724D01*
X168819717Y-200821188D01*
X168819234Y-200821701D01*
X168654785Y-200986150D01*
X168646512Y-200989577D01*
X168638239Y-200986150D01*
X168637938Y-200985838D01*
X168259823Y-200576695D01*
X168256726Y-200568295D01*
X168260476Y-200560163D01*
X168261880Y-200559052D01*
X168497334Y-200400611D01*
X168501612Y-200398838D01*
X168781110Y-200344046D01*
X168789888Y-200345817D01*
G37*
%TD.AperFunction*%
%TD*%
%TA.AperFunction,Conductor*%
%TO.N,GND*%
G36*
X170568702Y-210149929D02*
G01*
X170571202Y-210153638D01*
X170770676Y-210624444D01*
X170770748Y-210633398D01*
X170766435Y-210638715D01*
X170529756Y-210797981D01*
X170520979Y-210799757D01*
X170520920Y-210799745D01*
X170244151Y-210744161D01*
X170236715Y-210739172D01*
X170234984Y-210730386D01*
X170235473Y-210728655D01*
X170268516Y-210638715D01*
X170386767Y-210316845D01*
X170389474Y-210312611D01*
X170552157Y-210149928D01*
X170560429Y-210146502D01*
X170568702Y-210149929D01*
G37*
%TD.AperFunction*%
%TD*%
%TA.AperFunction,Conductor*%
%TO.N,GND*%
G36*
X166675805Y-203795377D02*
G01*
X167155123Y-204044556D01*
X167160883Y-204051412D01*
X167160107Y-204060333D01*
X167159475Y-204061404D01*
X167002015Y-204298734D01*
X166998734Y-204302015D01*
X166761404Y-204459475D01*
X166752616Y-204461194D01*
X166745187Y-204456194D01*
X166744560Y-204455132D01*
X166495377Y-203975806D01*
X166494602Y-203966887D01*
X166497484Y-203962140D01*
X166662139Y-203797485D01*
X166670411Y-203794059D01*
X166675805Y-203795377D01*
G37*
%TD.AperFunction*%
%TD*%
%TA.AperFunction,Conductor*%
%TO.N,GND*%
G36*
X166254812Y-203143805D02*
G01*
X166255444Y-203144876D01*
X166504621Y-203624191D01*
X166505397Y-203633112D01*
X166502513Y-203637861D01*
X166337861Y-203802513D01*
X166329588Y-203805940D01*
X166324191Y-203804621D01*
X165844876Y-203555444D01*
X165839116Y-203548587D01*
X165839892Y-203539666D01*
X165840516Y-203538607D01*
X165997985Y-203301263D01*
X166001263Y-203297985D01*
X166238596Y-203140523D01*
X166247383Y-203138805D01*
X166254812Y-203143805D01*
G37*
%TD.AperFunction*%
%TD*%
%TA.AperFunction,Conductor*%
%TO.N,GND*%
G36*
X164380908Y-202678655D02*
G01*
X166972157Y-204282152D01*
X166977389Y-204289418D01*
X166975949Y-204298257D01*
X166968682Y-204303489D01*
X166967287Y-204303729D01*
X164381622Y-204589801D01*
X164373022Y-204587305D01*
X164370991Y-204585213D01*
X164152855Y-204295705D01*
X164150499Y-204288664D01*
X164150499Y-204155652D01*
X164138866Y-204097169D01*
X164111690Y-204056499D01*
X164109944Y-204047718D01*
X164111691Y-204043500D01*
X164138866Y-204002832D01*
X164150499Y-203944349D01*
X164150499Y-203655653D01*
X164138866Y-203597170D01*
X164094551Y-203530849D01*
X164028230Y-203486534D01*
X163969747Y-203474901D01*
X163540233Y-203474901D01*
X163531960Y-203471474D01*
X163530889Y-203470242D01*
X163499155Y-203428125D01*
X163496799Y-203421084D01*
X163496799Y-203181801D01*
X163500226Y-203173528D01*
X163502706Y-203171635D01*
X163581751Y-203126632D01*
X163587540Y-203125100D01*
X163969746Y-203125100D01*
X163969747Y-203125100D01*
X164028230Y-203113467D01*
X164094551Y-203069152D01*
X164138866Y-203002831D01*
X164150499Y-202944348D01*
X164150499Y-202809619D01*
X164153926Y-202801346D01*
X164156403Y-202799456D01*
X164368963Y-202678435D01*
X164377847Y-202677321D01*
X164380908Y-202678655D01*
G37*
%TD.AperFunction*%
%TD*%
%TA.AperFunction,Conductor*%
%TO.N,GND*%
G36*
X164992408Y-203190030D02*
G01*
X164994236Y-203196310D01*
X164994236Y-203410296D01*
X164990809Y-203418569D01*
X164982536Y-203421996D01*
X164979909Y-203421697D01*
X164732992Y-203364801D01*
X164725699Y-203359604D01*
X164724218Y-203350773D01*
X164729338Y-203343528D01*
X164976256Y-203186437D01*
X164985075Y-203184889D01*
X164992408Y-203190030D01*
G37*
%TD.AperFunction*%
%TD*%
%TA.AperFunction,Conductor*%
%TO.N,GND*%
G36*
X165937983Y-203010460D02*
G01*
X165943743Y-203017317D01*
X165944054Y-203018521D01*
X166000530Y-203297680D01*
X166000530Y-203302320D01*
X165944054Y-203581478D01*
X165939054Y-203588907D01*
X165930266Y-203590626D01*
X165929062Y-203590315D01*
X165413940Y-203427581D01*
X165407083Y-203421821D01*
X165405764Y-203416424D01*
X165405764Y-203183573D01*
X165409191Y-203175300D01*
X165413940Y-203172416D01*
X165929063Y-203009684D01*
X165937983Y-203010460D01*
G37*
%TD.AperFunction*%
%TD*%
%TA.AperFunction,Conductor*%
%TO.N,GND*%
G36*
X168217849Y-200343835D02*
G01*
X168495209Y-200398063D01*
X168502671Y-200403014D01*
X168502704Y-200403064D01*
X168661101Y-200641072D01*
X168662832Y-200649858D01*
X168659237Y-200656206D01*
X168378349Y-200911877D01*
X168370473Y-200914925D01*
X168138464Y-200914925D01*
X168130191Y-200911498D01*
X168126764Y-200903225D01*
X168126878Y-200901593D01*
X168172501Y-200577649D01*
X168204043Y-200353690D01*
X168208590Y-200345977D01*
X168217261Y-200343737D01*
X168217849Y-200343835D01*
G37*
%TD.AperFunction*%
%TD*%
%TA.AperFunction,Conductor*%
%TO.N,GND*%
G36*
X174593700Y-204491153D02*
G01*
X174596322Y-204499714D01*
X174592299Y-204507473D01*
X174400000Y-204672650D01*
X173937500Y-205069917D01*
X173275000Y-204425000D01*
X173275000Y-204175000D01*
X173969597Y-203734772D01*
X174593700Y-204491153D01*
G37*
%TD.AperFunction*%
%TD*%
%TA.AperFunction,Conductor*%
%TO.N,GND*%
G36*
X172835464Y-204425000D02*
G01*
X172556725Y-204568282D01*
X172835464Y-204175000D01*
X172835464Y-204425000D01*
G37*
%TD.AperFunction*%
%TD*%
%TA.AperFunction,Conductor*%
%TO.N,GND*%
G36*
X171860842Y-216845560D02*
G01*
X172466995Y-217047335D01*
X172473763Y-217053199D01*
X172475000Y-217058436D01*
X172475000Y-217541563D01*
X172471573Y-217549836D01*
X172466995Y-217552664D01*
X171860845Y-217754438D01*
X171851913Y-217753800D01*
X171848269Y-217750954D01*
X171675917Y-217550000D01*
X171468031Y-217307615D01*
X171465247Y-217299106D01*
X171468031Y-217292384D01*
X171848271Y-216849043D01*
X171856256Y-216844996D01*
X171860842Y-216845560D01*
G37*
%TD.AperFunction*%
%TD*%
%TA.AperFunction,Conductor*%
%TO.N,GND*%
G36*
X175264592Y-217859008D02*
G01*
X175272821Y-217862536D01*
X175276146Y-217870851D01*
X175275929Y-217872957D01*
X175211361Y-218202391D01*
X175211348Y-218202456D01*
X175144652Y-218532913D01*
X175139656Y-218540344D01*
X175130868Y-218542067D01*
X175129613Y-218541740D01*
X174539358Y-218352605D01*
X174532525Y-218346817D01*
X174531228Y-218341463D01*
X174531228Y-217861844D01*
X174534655Y-217853571D01*
X174542928Y-217850144D01*
X174542980Y-217850144D01*
X175264592Y-217859008D01*
G37*
%TD.AperFunction*%
%TD*%
%TA.AperFunction,Conductor*%
%TO.N,GND*%
G36*
X169627376Y-203302761D02*
G01*
X169630294Y-203304632D01*
X169866063Y-203510930D01*
X169868086Y-203513235D01*
X169888308Y-203543500D01*
X169890055Y-203552283D01*
X169888308Y-203556500D01*
X169861134Y-203597169D01*
X169861134Y-203597170D01*
X169849501Y-203655653D01*
X169849501Y-203944349D01*
X169861134Y-204002832D01*
X169905449Y-204069153D01*
X169971770Y-204113468D01*
X170030253Y-204125101D01*
X170457315Y-204125101D01*
X170460343Y-204125499D01*
X170460348Y-204125501D01*
X170460349Y-204125501D01*
X170564034Y-204125501D01*
X170571737Y-204128395D01*
X170621005Y-204171504D01*
X170624974Y-204179531D01*
X170625000Y-204180309D01*
X170625000Y-204400000D01*
X170625000Y-204419690D01*
X170621573Y-204427963D01*
X170621005Y-204428495D01*
X170596372Y-204450049D01*
X170571737Y-204471604D01*
X170564034Y-204474499D01*
X170460348Y-204474499D01*
X170460343Y-204474500D01*
X170457315Y-204474899D01*
X170030253Y-204474899D01*
X170001011Y-204480715D01*
X169971769Y-204486532D01*
X169905449Y-204530846D01*
X169905448Y-204530847D01*
X169861134Y-204597167D01*
X169849501Y-204655651D01*
X169849501Y-204944346D01*
X169861134Y-205002830D01*
X169888308Y-205043499D01*
X169890055Y-205052282D01*
X169888308Y-205056499D01*
X169868086Y-205086763D01*
X169866063Y-205089068D01*
X169630294Y-205295367D01*
X169621811Y-205298236D01*
X169618425Y-205297496D01*
X168519334Y-204878954D01*
X167027711Y-204310933D01*
X167021200Y-204304787D01*
X167020942Y-204295836D01*
X167027089Y-204289324D01*
X167027704Y-204289069D01*
X169618426Y-203302503D01*
X169627376Y-203302761D01*
G37*
%TD.AperFunction*%
%TD*%
%TA.AperFunction,Conductor*%
%TO.N,GND*%
G36*
X167070929Y-204009681D02*
G01*
X167586060Y-204172417D01*
X167592917Y-204178177D01*
X167594236Y-204183574D01*
X167594236Y-204416425D01*
X167590809Y-204424698D01*
X167586060Y-204427582D01*
X167070937Y-204590315D01*
X167062016Y-204589539D01*
X167056256Y-204582682D01*
X167055949Y-204581494D01*
X166999469Y-204302318D01*
X166999469Y-204297680D01*
X167022554Y-204183574D01*
X167055946Y-204018518D01*
X167060945Y-204011092D01*
X167069733Y-204009373D01*
X167070929Y-204009681D01*
G37*
%TD.AperFunction*%
%TD*%
%TA.AperFunction,Conductor*%
%TO.N,GND*%
G36*
X168004045Y-204189767D02*
G01*
X168005764Y-204195873D01*
X168005764Y-204410423D01*
X168002337Y-204418696D01*
X167994064Y-204422123D01*
X167991533Y-204421846D01*
X167734073Y-204364799D01*
X167726737Y-204359664D01*
X167725181Y-204350845D01*
X167730316Y-204343509D01*
X167730442Y-204343429D01*
X167987960Y-204185891D01*
X167996804Y-204184498D01*
X168004045Y-204189767D01*
G37*
%TD.AperFunction*%
%TD*%
%TA.AperFunction,Conductor*%
%TO.N,GND*%
G36*
X169004045Y-204189767D02*
G01*
X169005764Y-204195873D01*
X169005764Y-204410423D01*
X169002337Y-204418696D01*
X168994064Y-204422123D01*
X168991533Y-204421846D01*
X168734073Y-204364799D01*
X168726737Y-204359664D01*
X168725181Y-204350845D01*
X168730316Y-204343509D01*
X168730442Y-204343429D01*
X168987960Y-204185891D01*
X168996804Y-204184498D01*
X169004045Y-204189767D01*
G37*
%TD.AperFunction*%
%TD*%
%TA.AperFunction,Conductor*%
%TO.N,WALLVIN*%
G36*
X172500707Y-203249293D02*
G01*
X172462947Y-203437562D01*
X172433969Y-203582049D01*
X172428982Y-203589487D01*
X172420446Y-203591267D01*
X171969987Y-203511053D01*
X171963765Y-203507807D01*
X171799279Y-203343321D01*
X171795852Y-203335048D01*
X171799279Y-203326775D01*
X171800665Y-203325591D01*
X171905743Y-203249293D01*
X172305550Y-202958986D01*
X172500707Y-203249293D01*
G37*
%TD.AperFunction*%
%TD*%
%TA.AperFunction,Conductor*%
%TO.N,Net-(U4-BST1)*%
G36*
X170044824Y-198106337D02*
G01*
X170446768Y-198534244D01*
X170449934Y-198542620D01*
X170448326Y-198548183D01*
X170089358Y-199158820D01*
X170082211Y-199164216D01*
X170073343Y-199162977D01*
X170070999Y-199161164D01*
X169729353Y-198819518D01*
X169727326Y-198816794D01*
X169579620Y-198542620D01*
X169523251Y-198437988D01*
X169522345Y-198429081D01*
X169527294Y-198422556D01*
X170030040Y-198104459D01*
X170038864Y-198102932D01*
X170044824Y-198106337D01*
G37*
%TD.AperFunction*%
%TD*%
%TA.AperFunction,Conductor*%
%TO.N,Net-(U4-BST1)*%
G36*
X170032359Y-198098023D02*
G01*
X170039717Y-198103127D01*
X170040600Y-198104777D01*
X170241860Y-198565904D01*
X170242029Y-198574857D01*
X170237503Y-198580400D01*
X169493340Y-199063005D01*
X169484534Y-199064632D01*
X169478701Y-199061462D01*
X169137820Y-198720581D01*
X169134393Y-198712308D01*
X169135639Y-198707054D01*
X169495927Y-197990588D01*
X169502705Y-197984738D01*
X169508856Y-197984412D01*
X170032359Y-198098023D01*
G37*
%TD.AperFunction*%
%TD*%
%TA.AperFunction,Conductor*%
%TO.N,Net-(U4-BST1)*%
G36*
X183007473Y-203797527D02*
G01*
X183595401Y-204246488D01*
X183599896Y-204254233D01*
X183600000Y-204255787D01*
X183600000Y-204740864D01*
X183596573Y-204749137D01*
X183591138Y-204752215D01*
X183006420Y-204898394D01*
X182997562Y-204897076D01*
X182995316Y-204895323D01*
X182408009Y-204308994D01*
X182404575Y-204300724D01*
X182407995Y-204292448D01*
X182408721Y-204291780D01*
X182992819Y-203797891D01*
X183001348Y-203795167D01*
X183007473Y-203797527D01*
G37*
%TD.AperFunction*%
%TD*%
%TA.AperFunction,Conductor*%
%TO.N,Net-(U4-BST1)*%
G36*
X183005399Y-203700449D02*
G01*
X183589272Y-203749106D01*
X183597232Y-203753208D01*
X183600000Y-203760766D01*
X183600000Y-204244646D01*
X183596573Y-204252919D01*
X183595948Y-204253500D01*
X183007265Y-204762033D01*
X182998765Y-204764848D01*
X182992426Y-204762408D01*
X182409453Y-204308145D01*
X182405033Y-204300357D01*
X182407415Y-204291725D01*
X182408365Y-204290649D01*
X182996164Y-203703829D01*
X183004439Y-203700410D01*
X183005399Y-203700449D01*
G37*
%TD.AperFunction*%
%TD*%
%TA.AperFunction,Conductor*%
%TO.N,Net-(U4-CSP)*%
G36*
X165877081Y-211435066D02*
G01*
X166722128Y-211771154D01*
X166728549Y-211777396D01*
X166729106Y-211785051D01*
X166539135Y-212494888D01*
X166533686Y-212501994D01*
X166531491Y-212502977D01*
X165961866Y-212690454D01*
X165952936Y-212689785D01*
X165947094Y-212682998D01*
X165946885Y-212682284D01*
X165628771Y-211448860D01*
X165630023Y-211439994D01*
X165637178Y-211434610D01*
X165640100Y-211434239D01*
X165872758Y-211434239D01*
X165877081Y-211435066D01*
G37*
%TD.AperFunction*%
%TD*%
%TA.AperFunction,Conductor*%
%TO.N,Net-(U4-CSP)*%
G36*
X166665715Y-213153427D02*
G01*
X166665965Y-213153685D01*
X167266440Y-213792239D01*
X167269611Y-213800613D01*
X167266695Y-213807990D01*
X166707603Y-214442372D01*
X166699562Y-214446313D01*
X166691242Y-214443546D01*
X165974913Y-213833942D01*
X165970834Y-213825971D01*
X165972721Y-213818602D01*
X165979702Y-213807990D01*
X166409034Y-213155270D01*
X166416443Y-213150242D01*
X166418809Y-213150000D01*
X166657442Y-213150000D01*
X166665715Y-213153427D01*
G37*
%TD.AperFunction*%
%TD*%
%TA.AperFunction,Conductor*%
%TO.N,Net-(U4-CSP)*%
G36*
X166545749Y-212507295D02*
G01*
X167028351Y-212992614D01*
X167099558Y-213064223D01*
X167102962Y-213072506D01*
X167101304Y-213078476D01*
X166665906Y-213806803D01*
X166658720Y-213812146D01*
X166655864Y-213812500D01*
X166419136Y-213812500D01*
X166410863Y-213809073D01*
X166409094Y-213806803D01*
X165973694Y-213078474D01*
X165972391Y-213069617D01*
X165975439Y-213064225D01*
X166529205Y-212507341D01*
X166537467Y-212503892D01*
X166545749Y-212507295D01*
G37*
%TD.AperFunction*%
%TD*%
%TA.AperFunction,Conductor*%
%TO.N,Net-(U4-CSN)*%
G36*
X165368174Y-211437666D02*
G01*
X165371601Y-211445939D01*
X165371230Y-211448859D01*
X165287115Y-211775000D01*
X165053120Y-212682263D01*
X165047736Y-212689418D01*
X165038869Y-212690670D01*
X165038133Y-212690455D01*
X164468508Y-212502977D01*
X164461721Y-212497135D01*
X164460864Y-212494888D01*
X164270893Y-211785051D01*
X164272064Y-211776173D01*
X164277869Y-211771155D01*
X165122919Y-211435066D01*
X165127243Y-211434239D01*
X165359901Y-211434239D01*
X165368174Y-211437666D01*
G37*
%TD.AperFunction*%
%TD*%
%TA.AperFunction,Conductor*%
%TO.N,Net-(U4-CSN)*%
G36*
X164470749Y-212507295D02*
G01*
X164953351Y-212992614D01*
X165024558Y-213064223D01*
X165027962Y-213072506D01*
X165026304Y-213078476D01*
X164590906Y-213806803D01*
X164583720Y-213812146D01*
X164580864Y-213812500D01*
X164344136Y-213812500D01*
X164335863Y-213809073D01*
X164334094Y-213806803D01*
X163898694Y-213078474D01*
X163897391Y-213069617D01*
X163900439Y-213064225D01*
X164454205Y-212507341D01*
X164462467Y-212503892D01*
X164470749Y-212507295D01*
G37*
%TD.AperFunction*%
%TD*%
%TA.AperFunction,Conductor*%
%TO.N,Net-(U4-CSN)*%
G36*
X164589464Y-213153427D02*
G01*
X164590966Y-213155270D01*
X165027277Y-213818602D01*
X165028960Y-213827398D01*
X165025085Y-213833942D01*
X164308757Y-214443546D01*
X164300235Y-214446298D01*
X164292396Y-214442372D01*
X163733304Y-213807990D01*
X163730405Y-213799517D01*
X163733557Y-213792241D01*
X164229433Y-213264919D01*
X164334035Y-213153685D01*
X164342199Y-213150006D01*
X164342558Y-213150000D01*
X164581191Y-213150000D01*
X164589464Y-213153427D01*
G37*
%TD.AperFunction*%
%TD*%
%TA.AperFunction,Conductor*%
%TO.N,MosD4*%
G36*
X166708246Y-217557196D02*
G01*
X167079709Y-217926388D01*
X167342542Y-218187615D01*
X167345994Y-218195877D01*
X167343423Y-218203231D01*
X166828512Y-218845618D01*
X166820664Y-218849930D01*
X166819383Y-218850000D01*
X166580617Y-218850000D01*
X166572344Y-218846573D01*
X166571488Y-218845618D01*
X166056576Y-218203231D01*
X166054075Y-218194632D01*
X166057456Y-218187616D01*
X166691753Y-217557196D01*
X166700036Y-217553795D01*
X166708246Y-217557196D01*
G37*
%TD.AperFunction*%
%TD*%
%TA.AperFunction,Conductor*%
%TO.N,Net-(U4-VFBMAX)*%
G36*
X155727600Y-206922312D02*
G01*
X156518308Y-207296830D01*
X156524318Y-207303469D01*
X156525000Y-207307404D01*
X156525000Y-207792595D01*
X156521573Y-207800868D01*
X156518308Y-207803169D01*
X155727604Y-208177686D01*
X155718661Y-208178130D01*
X155714895Y-208175920D01*
X155009074Y-207558808D01*
X155005101Y-207550783D01*
X155007967Y-207542299D01*
X155009074Y-207541192D01*
X155714896Y-206924078D01*
X155723379Y-206921213D01*
X155727600Y-206922312D01*
G37*
%TD.AperFunction*%
%TD*%
%TA.AperFunction,Conductor*%
%TO.N,Net-(U4-VFBMAX)*%
G36*
X155631068Y-206901011D02*
G01*
X156515224Y-207048370D01*
X156522821Y-207053111D01*
X156525000Y-207059911D01*
X156525000Y-208040088D01*
X156521573Y-208048361D01*
X156515223Y-208051629D01*
X155631076Y-208198987D01*
X155622353Y-208196967D01*
X155620726Y-208195562D01*
X155006816Y-207558116D01*
X155003545Y-207549780D01*
X155006816Y-207541884D01*
X155482108Y-207048370D01*
X155620727Y-206904436D01*
X155628933Y-206900855D01*
X155631068Y-206901011D01*
G37*
%TD.AperFunction*%
%TD*%
%TA.AperFunction,Conductor*%
%TO.N,Net-(U4-VFBMAX)*%
G36*
X163046106Y-205676087D02*
G01*
X163456251Y-205788602D01*
X163463322Y-205794094D01*
X163464438Y-205802979D01*
X163458945Y-205810051D01*
X163456192Y-205811183D01*
X163046260Y-205921374D01*
X163040896Y-205921541D01*
X162928372Y-205898702D01*
X162920946Y-205893698D01*
X162918999Y-205887236D01*
X162918999Y-205706661D01*
X162922426Y-205698388D01*
X162928717Y-205695130D01*
X163041036Y-205675840D01*
X163046106Y-205676087D01*
G37*
%TD.AperFunction*%
%TD*%
%TA.AperFunction,Conductor*%
%TO.N,Net-(U4-VFBMAX)*%
G36*
X167369726Y-207412745D02*
G01*
X167373153Y-207421018D01*
X167373029Y-207422720D01*
X167296020Y-207946392D01*
X167291425Y-207954079D01*
X167282742Y-207956266D01*
X167282199Y-207956173D01*
X167004790Y-207901936D01*
X166997328Y-207896985D01*
X166997295Y-207896935D01*
X166839170Y-207659336D01*
X166837439Y-207650550D01*
X166841451Y-207643841D01*
X167121755Y-207412002D01*
X167129212Y-207409318D01*
X167361453Y-207409318D01*
X167369726Y-207412745D01*
G37*
%TD.AperFunction*%
%TD*%
%TA.AperFunction,Conductor*%
%TO.N,Net-(U4-VFBMAX)*%
G36*
X161934874Y-205752609D02*
G01*
X161935871Y-205753498D01*
X162065615Y-205883242D01*
X162069042Y-205891515D01*
X162066204Y-205899154D01*
X161756175Y-206258857D01*
X161748178Y-206262886D01*
X161740845Y-206260967D01*
X161575253Y-206151104D01*
X161503364Y-206103408D01*
X161498366Y-206095982D01*
X161443909Y-205818192D01*
X161445680Y-205809417D01*
X161453139Y-205804463D01*
X161454044Y-205804321D01*
X161926266Y-205750147D01*
X161934874Y-205752609D01*
G37*
%TD.AperFunction*%
%TD*%
%TA.AperFunction,Conductor*%
%TO.N,Net-(U4-VFBMAX)*%
G36*
X161439631Y-205809354D02*
G01*
X161443535Y-205815960D01*
X161500530Y-206097680D01*
X161500530Y-206102320D01*
X161443535Y-206384039D01*
X161438535Y-206391468D01*
X161431104Y-206393379D01*
X160916501Y-206350886D01*
X160908538Y-206346790D01*
X160905764Y-206339226D01*
X160905764Y-205860773D01*
X160909191Y-205852500D01*
X160916499Y-205849113D01*
X161431104Y-205806620D01*
X161439631Y-205809354D01*
G37*
%TD.AperFunction*%
%TD*%
%TA.AperFunction,Conductor*%
%TO.N,Net-(U4-CSOUT)*%
G36*
X166764324Y-209088313D02*
G01*
X166764689Y-209088695D01*
X167345654Y-209724674D01*
X167348704Y-209733092D01*
X167346462Y-209739468D01*
X166871282Y-210389657D01*
X166863634Y-210394314D01*
X166854932Y-210392199D01*
X166853547Y-210391010D01*
X166852199Y-210389657D01*
X166299961Y-209835283D01*
X166296551Y-209827004D01*
X166297780Y-209821807D01*
X166338832Y-209739468D01*
X166578810Y-209258134D01*
X166581002Y-209255089D01*
X166747779Y-209088312D01*
X166756051Y-209084886D01*
X166764324Y-209088313D01*
G37*
%TD.AperFunction*%
%TD*%
%TA.AperFunction,Conductor*%
%TO.N,Net-(U4-ITH)*%
G36*
X168786673Y-209109784D02*
G01*
X169389738Y-209704584D01*
X169393222Y-209712833D01*
X169391265Y-209719393D01*
X168946134Y-210388785D01*
X168938699Y-210393776D01*
X168929912Y-210392049D01*
X168928102Y-210390563D01*
X168926331Y-210388785D01*
X168374575Y-209834896D01*
X168371165Y-209826617D01*
X168372085Y-209822091D01*
X168600737Y-209280502D01*
X168603239Y-209276786D01*
X168770185Y-209109840D01*
X168778457Y-209106414D01*
X168786673Y-209109784D01*
G37*
%TD.AperFunction*%
%TD*%
%TA.AperFunction,Conductor*%
%TO.N,Net-(C37-Pad1)*%
G36*
X169708335Y-216255241D02*
G01*
X169710500Y-216256947D01*
X170052365Y-216598812D01*
X170054356Y-216601468D01*
X170251649Y-216961980D01*
X170252614Y-216970883D01*
X170247641Y-216977484D01*
X169745032Y-217295493D01*
X169736208Y-217297021D01*
X169730179Y-217293542D01*
X169332664Y-216862906D01*
X169329570Y-216854502D01*
X169331280Y-216848865D01*
X169692248Y-216259111D01*
X169699490Y-216253845D01*
X169708335Y-216255241D01*
G37*
%TD.AperFunction*%
%TD*%
%TA.AperFunction,Conductor*%
%TO.N,Net-(C37-Pad1)*%
G36*
X170205504Y-215557461D02*
G01*
X170617450Y-216190640D01*
X170619089Y-216199443D01*
X170614473Y-216206519D01*
X169953061Y-216682114D01*
X169946231Y-216684315D01*
X169459877Y-216684315D01*
X169451604Y-216680888D01*
X169448343Y-216674578D01*
X169326507Y-215958855D01*
X169328497Y-215950125D01*
X169333163Y-215946258D01*
X170190824Y-215553204D01*
X170199771Y-215552873D01*
X170205504Y-215557461D01*
G37*
%TD.AperFunction*%
%TD*%
%TA.AperFunction,Conductor*%
%TO.N,Net-(D5-K)*%
G36*
X181089346Y-206831224D02*
G01*
X182086274Y-207164230D01*
X182183271Y-207196630D01*
X182190032Y-207202501D01*
X182190963Y-207210363D01*
X182102863Y-207591381D01*
X182097661Y-207598669D01*
X182091138Y-207600440D01*
X181154412Y-207574306D01*
X181146770Y-207571178D01*
X180737813Y-207190747D01*
X180734091Y-207182604D01*
X180737216Y-207174212D01*
X180737480Y-207173938D01*
X181077370Y-206834048D01*
X181085642Y-206830622D01*
X181089346Y-206831224D01*
G37*
%TD.AperFunction*%
%TD*%
%TA.AperFunction,Conductor*%
%TO.N,Net-(D5-K)*%
G36*
X180600472Y-207016060D02*
G01*
X180603733Y-207022403D01*
X180649999Y-207300000D01*
X180650000Y-207300000D01*
X181126573Y-207300000D01*
X181134846Y-207303427D01*
X181138273Y-207311700D01*
X181135926Y-207318729D01*
X180606893Y-208022737D01*
X180599184Y-208027292D01*
X180590694Y-208025196D01*
X180011155Y-207607048D01*
X180006451Y-207599428D01*
X180008513Y-207590714D01*
X180009728Y-207589288D01*
X180583928Y-207016045D01*
X180592202Y-207012626D01*
X180600472Y-207016060D01*
G37*
%TD.AperFunction*%
%TD*%
%TA.AperFunction,Conductor*%
%TO.N,Net-(D5-K)*%
G36*
X180605803Y-207270711D02*
G01*
X180998420Y-207947277D01*
X181000000Y-207953149D01*
X181000000Y-208435528D01*
X180996573Y-208443801D01*
X180988300Y-208447228D01*
X180985849Y-208446968D01*
X179845086Y-208202599D01*
X179837714Y-208197516D01*
X179836097Y-208188708D01*
X179836261Y-208188038D01*
X179997705Y-207604678D01*
X180003212Y-207597622D01*
X180589931Y-207266393D01*
X180598820Y-207265311D01*
X180605803Y-207270711D01*
G37*
%TD.AperFunction*%
%TD*%
%TA.AperFunction,Conductor*%
%TO.N,Net-(D5-K)*%
G36*
X180894499Y-206754787D02*
G01*
X180899700Y-206762077D01*
X180900000Y-206764710D01*
X180900000Y-207247502D01*
X180898980Y-207252280D01*
X180605121Y-207909193D01*
X180598615Y-207915345D01*
X180589663Y-207915095D01*
X180588934Y-207914738D01*
X180003285Y-207602286D01*
X179997599Y-207595369D01*
X179821124Y-207011971D01*
X179822009Y-207003062D01*
X179828935Y-206997386D01*
X179829677Y-206997188D01*
X180885667Y-206753310D01*
X180894499Y-206754787D01*
G37*
%TD.AperFunction*%
%TD*%
%TA.AperFunction,Conductor*%
%TO.N,Net-(D5-K)*%
G36*
X180606492Y-207237335D02*
G01*
X181197291Y-207946747D01*
X181200000Y-207954234D01*
X181200000Y-208435920D01*
X181196573Y-208444193D01*
X181188300Y-208447620D01*
X181186158Y-208447422D01*
X179869526Y-208202246D01*
X179862020Y-208197363D01*
X179860166Y-208188602D01*
X179860281Y-208188058D01*
X179997885Y-207604725D01*
X180003117Y-207597461D01*
X180591364Y-207234862D01*
X180600204Y-207233439D01*
X180606492Y-207237335D01*
G37*
%TD.AperFunction*%
%TD*%
%TA.AperFunction,Conductor*%
%TO.N,Net-(D5-K)*%
G36*
X170848086Y-207746199D02*
G01*
X170851730Y-207749045D01*
X171231967Y-208192383D01*
X171234752Y-208200894D01*
X171231967Y-208207617D01*
X170851730Y-208650954D01*
X170843743Y-208655003D01*
X170839154Y-208654438D01*
X170233005Y-208452664D01*
X170226237Y-208446800D01*
X170225000Y-208441563D01*
X170225000Y-207958436D01*
X170228427Y-207950163D01*
X170233003Y-207947335D01*
X170839156Y-207745561D01*
X170848086Y-207746199D01*
G37*
%TD.AperFunction*%
%TD*%
%TA.AperFunction,Conductor*%
%TO.N,Net-(D5-K)*%
G36*
X181277256Y-207216987D02*
G01*
X181939749Y-207525023D01*
X182078183Y-207589391D01*
X182084240Y-207595986D01*
X182083859Y-207604933D01*
X182078183Y-207610609D01*
X181277258Y-207983011D01*
X181269408Y-207983732D01*
X180758783Y-207852261D01*
X180751625Y-207846880D01*
X180750000Y-207840931D01*
X180750000Y-207359068D01*
X180753427Y-207350795D01*
X180758780Y-207347739D01*
X181269410Y-207216267D01*
X181277256Y-207216987D01*
G37*
%TD.AperFunction*%
%TD*%
%TA.AperFunction,Conductor*%
%TO.N,Net-(D5-K)*%
G36*
X180607782Y-207004539D02*
G01*
X181194196Y-207346614D01*
X181199615Y-207353741D01*
X181200000Y-207356719D01*
X181200000Y-207843280D01*
X181196573Y-207851553D01*
X181194195Y-207853386D01*
X180607783Y-208195459D01*
X180598910Y-208196668D01*
X180593622Y-208193633D01*
X180250972Y-207851553D01*
X180007292Y-207608278D01*
X180003859Y-207600010D01*
X180007278Y-207591735D01*
X180593624Y-207006365D01*
X180601898Y-207002946D01*
X180607782Y-207004539D01*
G37*
%TD.AperFunction*%
%TD*%
%TA.AperFunction,Conductor*%
%TO.N,MosD3*%
G36*
X172873452Y-207221342D02*
G01*
X172874113Y-207222060D01*
X173300928Y-207726777D01*
X173303653Y-207735307D01*
X173301416Y-207741268D01*
X172969670Y-208191926D01*
X172962006Y-208196557D01*
X172953993Y-208194877D01*
X172665800Y-208012532D01*
X172450059Y-207876029D01*
X172444900Y-207868710D01*
X172444904Y-207863557D01*
X172511601Y-207569195D01*
X172514736Y-207563512D01*
X172856907Y-207221341D01*
X172865179Y-207217915D01*
X172873452Y-207221342D01*
G37*
%TD.AperFunction*%
%TD*%
%TA.AperFunction,Conductor*%
%TO.N,Net-(U4-INTVCC)*%
G36*
X142569296Y-195509053D02*
G01*
X142572026Y-195511084D01*
X142738287Y-195677345D01*
X142741714Y-195685618D01*
X142740790Y-195690174D01*
X142204517Y-196958554D01*
X142198139Y-196964840D01*
X142189278Y-196964813D01*
X141556147Y-196703535D01*
X141549806Y-196697212D01*
X141548925Y-196693305D01*
X141506216Y-195834147D01*
X141509228Y-195825716D01*
X141514533Y-195822364D01*
X142560388Y-195508152D01*
X142569296Y-195509053D01*
G37*
%TD.AperFunction*%
%TD*%
%TA.AperFunction,Conductor*%
%TO.N,Net-(U4-INTVCC)*%
G36*
X164214905Y-199856277D02*
G01*
X164694223Y-200105456D01*
X164699983Y-200112312D01*
X164699207Y-200121233D01*
X164698575Y-200122304D01*
X164541115Y-200359634D01*
X164537834Y-200362915D01*
X164300504Y-200520375D01*
X164291716Y-200522094D01*
X164284287Y-200517094D01*
X164283660Y-200516032D01*
X164034477Y-200036706D01*
X164033702Y-200027787D01*
X164036584Y-200023040D01*
X164201239Y-199858385D01*
X164209511Y-199854959D01*
X164214905Y-199856277D01*
G37*
%TD.AperFunction*%
%TD*%
%TA.AperFunction,Conductor*%
%TO.N,Net-(U4-INTVCC)*%
G36*
X177041805Y-206176119D02*
G01*
X177735026Y-206869340D01*
X177737251Y-206872448D01*
X177796302Y-206992484D01*
X177796879Y-207001421D01*
X177794077Y-207005922D01*
X177208297Y-207591702D01*
X177200024Y-207595129D01*
X177191751Y-207591702D01*
X177191081Y-207590973D01*
X176697043Y-207005381D01*
X176694328Y-206996848D01*
X176695132Y-206993470D01*
X177022679Y-206180021D01*
X177028948Y-206173627D01*
X177037902Y-206173539D01*
X177041805Y-206176119D01*
G37*
%TD.AperFunction*%
%TD*%
%TA.AperFunction,Conductor*%
%TO.N,Net-(U4-INTVCC)*%
G36*
X179002469Y-203805997D02*
G01*
X179005406Y-203807770D01*
X179445331Y-204171004D01*
X179590782Y-204291098D01*
X179594980Y-204299008D01*
X179592355Y-204307569D01*
X179591606Y-204308393D01*
X179004511Y-204895488D01*
X178996238Y-204898915D01*
X178993764Y-204898650D01*
X178844786Y-204866413D01*
X178838987Y-204863251D01*
X178146740Y-204171004D01*
X178143313Y-204162731D01*
X178146740Y-204154458D01*
X178150568Y-204151908D01*
X178993515Y-203805968D01*
X179002469Y-203805997D01*
G37*
%TD.AperFunction*%
%TD*%
%TA.AperFunction,Conductor*%
%TO.N,Net-(U4-INTVCC)*%
G36*
X178459227Y-205039080D02*
G01*
X178698734Y-205197984D01*
X178702015Y-205201265D01*
X178860919Y-205440772D01*
X178862638Y-205449560D01*
X178858734Y-205456166D01*
X178464807Y-205789998D01*
X178456280Y-205792732D01*
X178448970Y-205789345D01*
X178110654Y-205451029D01*
X178107227Y-205442756D01*
X178110001Y-205435192D01*
X178309913Y-205199293D01*
X178443834Y-205041264D01*
X178451796Y-205037169D01*
X178459227Y-205039080D01*
G37*
%TD.AperFunction*%
%TD*%
%TA.AperFunction,Conductor*%
%TO.N,Net-(U4-INTVCC)*%
G36*
X179039394Y-203799004D02*
G01*
X179047310Y-203803190D01*
X179050000Y-203810653D01*
X179050000Y-204792133D01*
X179046573Y-204800406D01*
X179042714Y-204802968D01*
X178394117Y-205067220D01*
X178385163Y-205067168D01*
X178382079Y-205065260D01*
X177732700Y-204507473D01*
X177728658Y-204499483D01*
X177731297Y-204491155D01*
X178351457Y-203739552D01*
X178359364Y-203735353D01*
X178361567Y-203735351D01*
X179039394Y-203799004D01*
G37*
%TD.AperFunction*%
%TD*%
%TA.AperFunction,Conductor*%
%TO.N,Net-(U4-INTVCC)*%
G36*
X179002790Y-203703008D02*
G01*
X179004256Y-203704249D01*
X179592706Y-204291720D01*
X179596140Y-204299990D01*
X179592720Y-204308266D01*
X179592706Y-204308280D01*
X179004256Y-204895750D01*
X178995980Y-204899170D01*
X178994067Y-204899011D01*
X178409777Y-204801629D01*
X178402179Y-204796888D01*
X178400000Y-204790088D01*
X178400000Y-203809911D01*
X178403427Y-203801638D01*
X178409775Y-203798370D01*
X178994069Y-203700988D01*
X179002790Y-203703008D01*
G37*
%TD.AperFunction*%
%TD*%
%TA.AperFunction,Conductor*%
%TO.N,Net-(U4-INTVCC)*%
G36*
X164822208Y-200417192D02*
G01*
X164829644Y-200422181D01*
X164831440Y-200430617D01*
X164768003Y-200805122D01*
X164764740Y-200811441D01*
X164600763Y-200975418D01*
X164592490Y-200978845D01*
X164584217Y-200975418D01*
X164582712Y-200973570D01*
X164472030Y-200805122D01*
X164296012Y-200537240D01*
X164294334Y-200528446D01*
X164299257Y-200521111D01*
X164534343Y-200362917D01*
X164543119Y-200361142D01*
X164822208Y-200417192D01*
G37*
%TD.AperFunction*%
%TD*%
%TA.AperFunction,Conductor*%
%TO.N,Net-(U4-INTVCC)*%
G36*
X140108564Y-196077932D02*
G01*
X140819969Y-196571509D01*
X140824813Y-196579041D01*
X140825000Y-196581122D01*
X140825000Y-196818183D01*
X140821573Y-196826456D01*
X140819070Y-196828361D01*
X140027892Y-197276876D01*
X140019005Y-197277975D01*
X140014422Y-197275506D01*
X139310100Y-196659705D01*
X139306128Y-196651681D01*
X139308994Y-196643197D01*
X139310975Y-196641396D01*
X140095068Y-196078042D01*
X140103786Y-196075999D01*
X140108564Y-196077932D01*
G37*
%TD.AperFunction*%
%TD*%
%TA.AperFunction,Conductor*%
%TO.N,Net-(U4-INTVCC)*%
G36*
X140912384Y-196057457D02*
G01*
X141542802Y-196691752D01*
X141546204Y-196700036D01*
X141542802Y-196708248D01*
X140912384Y-197342542D01*
X140904122Y-197345994D01*
X140896768Y-197343423D01*
X140254382Y-196828512D01*
X140250070Y-196820664D01*
X140250000Y-196819383D01*
X140250000Y-196580616D01*
X140253427Y-196572343D01*
X140254376Y-196571492D01*
X140896769Y-196056575D01*
X140905367Y-196054075D01*
X140912384Y-196057457D01*
G37*
%TD.AperFunction*%
%TD*%
%TA.AperFunction,Conductor*%
%TO.N,Net-(U4-INTVCC)*%
G36*
X164180045Y-199889887D02*
G01*
X164692759Y-200105975D01*
X164699052Y-200112346D01*
X164698997Y-200121301D01*
X164697964Y-200123225D01*
X164541115Y-200359634D01*
X164537834Y-200362915D01*
X164301425Y-200519764D01*
X164292637Y-200521483D01*
X164285208Y-200516483D01*
X164284175Y-200514559D01*
X164068087Y-200001845D01*
X164068032Y-199992890D01*
X164070594Y-199989030D01*
X164167229Y-199892395D01*
X164175501Y-199888969D01*
X164180045Y-199889887D01*
G37*
%TD.AperFunction*%
%TD*%
%TA.AperFunction,Conductor*%
%TO.N,Net-(D1-A)*%
G36*
X144657725Y-199408300D02*
G01*
X144659706Y-199410101D01*
X145275465Y-200114375D01*
X145278331Y-200122859D01*
X145276794Y-200127917D01*
X144820876Y-200919141D01*
X144813777Y-200924599D01*
X144810739Y-200925000D01*
X144573676Y-200925000D01*
X144565403Y-200921573D01*
X144564016Y-200919902D01*
X144077849Y-200208546D01*
X144076011Y-200199782D01*
X144078005Y-200195120D01*
X144641396Y-199410974D01*
X144649007Y-199406256D01*
X144657725Y-199408300D01*
G37*
%TD.AperFunction*%
%TD*%
%TA.AperFunction,Conductor*%
%TO.N,Net-(D1-A)*%
G36*
X144817665Y-200703427D02*
G01*
X144820347Y-200707592D01*
X144889862Y-200892965D01*
X144889558Y-200901914D01*
X144887201Y-200905325D01*
X144700794Y-201092664D01*
X144692529Y-201096112D01*
X144684248Y-201092706D01*
X144684206Y-201092665D01*
X144684205Y-201092664D01*
X144497796Y-200905323D01*
X144494392Y-200897044D01*
X144495135Y-200892970D01*
X144564653Y-200707592D01*
X144570767Y-200701049D01*
X144575608Y-200700000D01*
X144809392Y-200700000D01*
X144817665Y-200703427D01*
G37*
%TD.AperFunction*%
%TD*%
%TA.AperFunction,Conductor*%
%TO.N,Net-(D1-K)*%
G36*
X145767399Y-200677057D02*
G01*
X145931274Y-200840932D01*
X145934701Y-200849205D01*
X145933406Y-200854556D01*
X145827871Y-201059758D01*
X145821039Y-201065548D01*
X145818758Y-201066035D01*
X145515568Y-201099731D01*
X145506967Y-201097239D01*
X145503448Y-201092534D01*
X145492320Y-201065342D01*
X145428238Y-200908748D01*
X145428276Y-200899795D01*
X145432458Y-200894663D01*
X145752519Y-200675673D01*
X145761282Y-200673830D01*
X145767399Y-200677057D01*
G37*
%TD.AperFunction*%
%TD*%
%TA.AperFunction,Conductor*%
%TO.N,Net-(D2-A)*%
G36*
X143203231Y-201556576D02*
G01*
X143845618Y-202071488D01*
X143849930Y-202079335D01*
X143850000Y-202080616D01*
X143850000Y-202319383D01*
X143846573Y-202327656D01*
X143845618Y-202328512D01*
X143203231Y-202843423D01*
X143194632Y-202845924D01*
X143187615Y-202842542D01*
X142676726Y-202328512D01*
X142557196Y-202208246D01*
X142553795Y-202199964D01*
X142557196Y-202191753D01*
X143187615Y-201557456D01*
X143195877Y-201554005D01*
X143203231Y-201556576D01*
G37*
%TD.AperFunction*%
%TD*%
%TA.AperFunction,Conductor*%
%TO.N,Net-(D2-A)*%
G36*
X143740159Y-202010267D02*
G01*
X143741226Y-202010979D01*
X143981003Y-202190637D01*
X143985569Y-202198340D01*
X143983350Y-202207016D01*
X143981003Y-202209363D01*
X143741226Y-202389020D01*
X143732550Y-202391239D01*
X143731293Y-202390987D01*
X143483783Y-202327261D01*
X143476625Y-202321880D01*
X143475000Y-202315931D01*
X143475000Y-202084068D01*
X143478427Y-202075795D01*
X143483780Y-202072739D01*
X143731293Y-202009012D01*
X143740159Y-202010267D01*
G37*
%TD.AperFunction*%
%TD*%
%TA.AperFunction,Conductor*%
%TO.N,Net-(D2-K)*%
G36*
X145068703Y-202009011D02*
G01*
X145316218Y-202072738D01*
X145323375Y-202078119D01*
X145325000Y-202084068D01*
X145325000Y-202315931D01*
X145321573Y-202324204D01*
X145316217Y-202327261D01*
X145068706Y-202390987D01*
X145059840Y-202389732D01*
X145058773Y-202389020D01*
X144976347Y-202327261D01*
X144818995Y-202209362D01*
X144814430Y-202201660D01*
X144816649Y-202192984D01*
X144818996Y-202190637D01*
X145058774Y-202010978D01*
X145067449Y-202008760D01*
X145068703Y-202009011D01*
G37*
%TD.AperFunction*%
%TD*%
%TA.AperFunction,Conductor*%
%TO.N,Net-(J20-Pin_2)*%
G36*
X162354812Y-203443805D02*
G01*
X162355444Y-203444876D01*
X162604621Y-203924191D01*
X162605397Y-203933112D01*
X162602513Y-203937861D01*
X162437861Y-204102513D01*
X162429588Y-204105940D01*
X162424191Y-204104621D01*
X161944876Y-203855444D01*
X161939116Y-203848587D01*
X161939892Y-203839666D01*
X161940516Y-203838607D01*
X162097985Y-203601263D01*
X162101263Y-203597985D01*
X162338596Y-203440523D01*
X162347383Y-203438805D01*
X162354812Y-203443805D01*
G37*
%TD.AperFunction*%
%TD*%
%TA.AperFunction,Conductor*%
%TO.N,Net-(R4-Pad2)*%
G36*
X147008246Y-207357196D02*
G01*
X147645393Y-207990448D01*
X147648845Y-207998710D01*
X147648550Y-208001358D01*
X147502081Y-208640912D01*
X147496893Y-208648211D01*
X147490676Y-208650000D01*
X146509324Y-208650000D01*
X146501051Y-208646573D01*
X146497919Y-208640912D01*
X146460866Y-208479126D01*
X146351449Y-208001355D01*
X146352943Y-207992529D01*
X146354601Y-207990453D01*
X146991753Y-207357196D01*
X147000036Y-207353795D01*
X147008246Y-207357196D01*
G37*
%TD.AperFunction*%
%TD*%
%TA.AperFunction,Conductor*%
%TO.N,Net-(R4-Pad2)*%
G36*
X147489808Y-209162847D02*
G01*
X147493235Y-209171120D01*
X147492114Y-209176117D01*
X146977855Y-210264947D01*
X146971224Y-210270964D01*
X146968341Y-210271601D01*
X146107984Y-210350269D01*
X146099434Y-210347610D01*
X146096437Y-210343817D01*
X146057320Y-210264947D01*
X145781457Y-209708730D01*
X145780852Y-209699796D01*
X145784931Y-209694164D01*
X146496884Y-209161749D01*
X146503891Y-209159420D01*
X147481535Y-209159420D01*
X147489808Y-209162847D01*
G37*
%TD.AperFunction*%
%TD*%
%TA.AperFunction,Conductor*%
%TO.N,Net-(R28-Pad2)*%
G36*
X149237988Y-203551504D02*
G01*
X149239325Y-203552410D01*
X149492100Y-203750731D01*
X149990811Y-204142006D01*
X149995205Y-204149809D01*
X149992794Y-204158433D01*
X149992016Y-204159327D01*
X149378720Y-204796136D01*
X149370513Y-204799718D01*
X149369644Y-204799702D01*
X148486051Y-204750613D01*
X148477981Y-204746732D01*
X148475000Y-204738931D01*
X148475000Y-203759004D01*
X148478427Y-203750731D01*
X148483702Y-203747695D01*
X149229114Y-203550309D01*
X149237988Y-203551504D01*
G37*
%TD.AperFunction*%
%TD*%
%TA.AperFunction,Conductor*%
%TO.N,Net-(R28-Pad2)*%
G36*
X147631068Y-203601011D02*
G01*
X148515224Y-203748370D01*
X148522821Y-203753111D01*
X148525000Y-203759911D01*
X148525000Y-204740088D01*
X148521573Y-204748361D01*
X148515223Y-204751629D01*
X147631076Y-204898987D01*
X147622353Y-204896967D01*
X147620726Y-204895562D01*
X147006816Y-204258116D01*
X147003545Y-204249780D01*
X147006816Y-204241884D01*
X147482108Y-203748370D01*
X147620727Y-203604436D01*
X147628933Y-203600855D01*
X147631068Y-203601011D01*
G37*
%TD.AperFunction*%
%TD*%
%TA.AperFunction,Conductor*%
%TO.N,Net-(U4-SHDN)*%
G36*
X168937906Y-187031548D02*
G01*
X168941333Y-187039821D01*
X168939740Y-187045715D01*
X168547264Y-187718731D01*
X168540136Y-187724151D01*
X168531263Y-187722944D01*
X168530691Y-187722587D01*
X168251956Y-187537300D01*
X168248696Y-187534042D01*
X168062623Y-187254608D01*
X168060889Y-187245822D01*
X168065876Y-187238385D01*
X168066726Y-187237869D01*
X168447376Y-187029557D01*
X168452993Y-187028121D01*
X168929633Y-187028121D01*
X168937906Y-187031548D01*
G37*
%TD.AperFunction*%
%TD*%
%TA.AperFunction,Conductor*%
%TO.N,Net-(U4-SHDN)*%
G36*
X168777151Y-181828427D02*
G01*
X168778488Y-181830027D01*
X169030352Y-182193045D01*
X169272067Y-182541435D01*
X169273967Y-182550185D01*
X169271956Y-182554931D01*
X168708603Y-183339024D01*
X168700992Y-183343743D01*
X168692274Y-183341699D01*
X168690293Y-183339898D01*
X168689529Y-183339024D01*
X168074492Y-182635576D01*
X168071627Y-182627094D01*
X168073121Y-182622111D01*
X168521638Y-181830929D01*
X168528699Y-181825423D01*
X168531816Y-181825000D01*
X168768878Y-181825000D01*
X168777151Y-181828427D01*
G37*
%TD.AperFunction*%
%TD*%
%TA.AperFunction,Conductor*%
%TO.N,Net-(U4-SHDN)*%
G36*
X168657701Y-180842967D02*
G01*
X168658808Y-180844074D01*
X169275236Y-181549113D01*
X169278102Y-181557597D01*
X169276331Y-181563044D01*
X168778441Y-182354530D01*
X168771136Y-182359708D01*
X168768538Y-182360000D01*
X168531462Y-182360000D01*
X168523189Y-182356573D01*
X168521559Y-182354530D01*
X168023668Y-181563044D01*
X168022163Y-181554216D01*
X168024761Y-181549115D01*
X168641192Y-180844073D01*
X168649217Y-180840101D01*
X168657701Y-180842967D01*
G37*
%TD.AperFunction*%
%TD*%
%TA.AperFunction,Conductor*%
%TO.N,Net-(U4-SHDN)*%
G36*
X168826811Y-184328427D02*
G01*
X168828441Y-184330470D01*
X169326331Y-185121955D01*
X169327836Y-185130783D01*
X169325236Y-185135886D01*
X168708808Y-185840925D01*
X168700783Y-185844898D01*
X168692299Y-185842032D01*
X168691192Y-185840925D01*
X168074763Y-185135886D01*
X168071897Y-185127402D01*
X168073667Y-185121957D01*
X168571559Y-184330469D01*
X168578864Y-184325292D01*
X168581462Y-184325000D01*
X168818538Y-184325000D01*
X168826811Y-184328427D01*
G37*
%TD.AperFunction*%
%TD*%
%TA.AperFunction,Conductor*%
%TO.N,Net-(U4-SHDN)*%
G36*
X168707701Y-183357967D02*
G01*
X168708808Y-183359074D01*
X169325236Y-184064113D01*
X169328102Y-184072597D01*
X169326331Y-184078044D01*
X168828441Y-184869530D01*
X168821136Y-184874708D01*
X168818538Y-184875000D01*
X168581462Y-184875000D01*
X168573189Y-184871573D01*
X168571559Y-184869530D01*
X168073668Y-184078044D01*
X168072163Y-184069216D01*
X168074761Y-184064115D01*
X168691192Y-183359073D01*
X168699217Y-183355101D01*
X168707701Y-183357967D01*
G37*
%TD.AperFunction*%
%TD*%
%TA.AperFunction,Conductor*%
%TO.N,Net-(U4-SHDN)*%
G36*
X169303231Y-180191576D02*
G01*
X169945618Y-180706488D01*
X169949930Y-180714335D01*
X169950000Y-180715616D01*
X169950000Y-180954383D01*
X169946573Y-180962656D01*
X169945618Y-180963512D01*
X169303231Y-181478423D01*
X169294632Y-181480924D01*
X169287615Y-181477542D01*
X168776726Y-180963512D01*
X168657196Y-180843246D01*
X168653795Y-180834964D01*
X168657196Y-180826753D01*
X169287615Y-180192456D01*
X169295877Y-180189005D01*
X169303231Y-180191576D01*
G37*
%TD.AperFunction*%
%TD*%
%TA.AperFunction,Conductor*%
%TO.N,Net-(U4-SHDN)*%
G36*
X169913809Y-180200023D02*
G01*
X170542859Y-180841696D01*
X170546203Y-180850002D01*
X170542745Y-180858191D01*
X169910967Y-181485161D01*
X169902681Y-181488556D01*
X169895335Y-181485926D01*
X169254309Y-180963511D01*
X169250060Y-180955628D01*
X169250000Y-180954441D01*
X169250000Y-180715674D01*
X169253427Y-180707401D01*
X169254450Y-180706491D01*
X169898212Y-180199025D01*
X169906830Y-180196595D01*
X169913809Y-180200023D01*
G37*
%TD.AperFunction*%
%TD*%
%TA.AperFunction,Conductor*%
%TO.N,Net-(U4-SHDN)*%
G36*
X163154812Y-197443805D02*
G01*
X163155444Y-197444876D01*
X163404621Y-197924191D01*
X163405397Y-197933112D01*
X163402513Y-197937861D01*
X163237861Y-198102513D01*
X163229588Y-198105940D01*
X163224191Y-198104621D01*
X162744876Y-197855444D01*
X162739116Y-197848587D01*
X162739892Y-197839666D01*
X162740516Y-197838607D01*
X162897985Y-197601263D01*
X162901263Y-197597985D01*
X163138596Y-197440523D01*
X163147383Y-197438805D01*
X163154812Y-197443805D01*
G37*
%TD.AperFunction*%
%TD*%
%TA.AperFunction,Conductor*%
%TO.N,Net-(U4-SHDN)*%
G36*
X168707034Y-185859827D02*
G01*
X168709134Y-185862249D01*
X169234734Y-186670244D01*
X169236372Y-186679048D01*
X169234429Y-186683450D01*
X168679751Y-187455649D01*
X168672141Y-187460369D01*
X168663422Y-187458326D01*
X168661975Y-187457096D01*
X168319647Y-187114768D01*
X168317287Y-187111377D01*
X168114747Y-186670244D01*
X168072191Y-186577557D01*
X168071854Y-186568609D01*
X168074021Y-186564971D01*
X168690525Y-185860920D01*
X168698552Y-185856955D01*
X168707034Y-185859827D01*
G37*
%TD.AperFunction*%
%TD*%
%TA.AperFunction,Conductor*%
%TO.N,Net-(R25-Pad1)*%
G36*
X142567241Y-198601498D02*
G01*
X142574074Y-198604836D01*
X142741741Y-198772503D01*
X142745168Y-198780776D01*
X142743673Y-198786498D01*
X142205659Y-199745961D01*
X142198624Y-199751501D01*
X142189846Y-199750508D01*
X141558859Y-199405931D01*
X141553241Y-199398958D01*
X141553827Y-199390796D01*
X141946433Y-198532794D01*
X141952989Y-198526700D01*
X141958506Y-198526054D01*
X142567241Y-198601498D01*
G37*
%TD.AperFunction*%
%TD*%
%TA.AperFunction,Conductor*%
%TO.N,Net-(R25-Pad1)*%
G36*
X144010720Y-196435185D02*
G01*
X144643852Y-196696464D01*
X144650193Y-196702787D01*
X144651075Y-196706698D01*
X144693783Y-197565850D01*
X144690771Y-197574283D01*
X144685463Y-197577636D01*
X143639612Y-197891847D01*
X143630703Y-197890946D01*
X143627973Y-197888915D01*
X143461712Y-197722654D01*
X143458285Y-197714381D01*
X143459208Y-197709828D01*
X143995484Y-196441442D01*
X144001860Y-196435159D01*
X144010720Y-196435185D01*
G37*
%TD.AperFunction*%
%TD*%
%TA.AperFunction,Conductor*%
%TO.N,Net-(R26-Pad1)*%
G36*
X139427780Y-200678427D02*
G01*
X139428508Y-200679225D01*
X140018284Y-201389462D01*
X140020933Y-201398017D01*
X140018807Y-201403732D01*
X139458593Y-202188955D01*
X139450999Y-202193700D01*
X139442274Y-202191684D01*
X139440261Y-202189861D01*
X138823939Y-201484944D01*
X138821073Y-201476460D01*
X138822047Y-201472511D01*
X139171918Y-200681965D01*
X139178400Y-200675786D01*
X139182617Y-200675000D01*
X139419507Y-200675000D01*
X139427780Y-200678427D01*
G37*
%TD.AperFunction*%
%TD*%
%TA.AperFunction,Conductor*%
%TO.N,Net-(R26-Pad1)*%
G36*
X139308246Y-199757196D02*
G01*
X139679709Y-200126388D01*
X139942542Y-200387615D01*
X139945994Y-200395877D01*
X139943423Y-200403231D01*
X139428512Y-201045618D01*
X139420664Y-201049930D01*
X139419383Y-201050000D01*
X139180617Y-201050000D01*
X139172344Y-201046573D01*
X139171488Y-201045618D01*
X138656576Y-200403231D01*
X138654075Y-200394632D01*
X138657456Y-200387616D01*
X139291753Y-199757196D01*
X139300036Y-199753795D01*
X139308246Y-199757196D01*
G37*
%TD.AperFunction*%
%TD*%
%TA.AperFunction,Conductor*%
%TO.N,Net-(U4-FBG)*%
G36*
X153131068Y-203501011D02*
G01*
X154015224Y-203648370D01*
X154022821Y-203653111D01*
X154025000Y-203659911D01*
X154025000Y-204640088D01*
X154021573Y-204648361D01*
X154015223Y-204651629D01*
X153131076Y-204798987D01*
X153122353Y-204796967D01*
X153120726Y-204795562D01*
X152506816Y-204158116D01*
X152503545Y-204149780D01*
X152506816Y-204141884D01*
X152982108Y-203648370D01*
X153120727Y-203504436D01*
X153128933Y-203500855D01*
X153131068Y-203501011D01*
G37*
%TD.AperFunction*%
%TD*%
%TA.AperFunction,Conductor*%
%TO.N,Net-(U4-FBG)*%
G36*
X153487777Y-203651206D02*
G01*
X155052603Y-203798897D01*
X155060518Y-203803086D01*
X155063152Y-203811644D01*
X155063149Y-203811679D01*
X155001583Y-204444003D01*
X154997370Y-204451905D01*
X154995778Y-204453007D01*
X154148805Y-204940943D01*
X154139926Y-204942103D01*
X154138257Y-204941516D01*
X154136953Y-204940943D01*
X153481992Y-204653073D01*
X153475797Y-204646607D01*
X153475000Y-204642362D01*
X153475000Y-203662855D01*
X153478427Y-203654582D01*
X153486700Y-203651155D01*
X153487777Y-203651206D01*
G37*
%TD.AperFunction*%
%TD*%
%TA.AperFunction,Conductor*%
%TO.N,Net-(U4-FBG)*%
G36*
X155733091Y-203824779D02*
G01*
X156515829Y-203997970D01*
X156523165Y-204003104D01*
X156525000Y-204009394D01*
X156525000Y-204989528D01*
X156521573Y-204997801D01*
X156514592Y-205001156D01*
X155630724Y-205099363D01*
X155622123Y-205096871D01*
X155621005Y-205095851D01*
X155007585Y-204458914D01*
X155004314Y-204450578D01*
X155007896Y-204442371D01*
X155008348Y-204441959D01*
X155722948Y-203827333D01*
X155731452Y-203824538D01*
X155733091Y-203824779D01*
G37*
%TD.AperFunction*%
%TD*%
%TA.AperFunction,Conductor*%
%TO.N,Net-(U4-VFB)*%
G36*
X153131068Y-200401011D02*
G01*
X154015224Y-200548370D01*
X154022821Y-200553111D01*
X154025000Y-200559911D01*
X154025000Y-201540088D01*
X154021573Y-201548361D01*
X154015223Y-201551629D01*
X153131076Y-201698987D01*
X153122353Y-201696967D01*
X153120726Y-201695562D01*
X152506816Y-201058116D01*
X152503545Y-201049780D01*
X152506816Y-201041884D01*
X152982108Y-200548370D01*
X153120727Y-200404436D01*
X153128933Y-200400855D01*
X153131068Y-200401011D01*
G37*
%TD.AperFunction*%
%TD*%
%TA.AperFunction,Conductor*%
%TO.N,Net-(U4-VFB)*%
G36*
X163046106Y-204676086D02*
G01*
X163456251Y-204788601D01*
X163463322Y-204794093D01*
X163464438Y-204802978D01*
X163458945Y-204810050D01*
X163456192Y-204811182D01*
X163046260Y-204921373D01*
X163040896Y-204921540D01*
X162928372Y-204898701D01*
X162920946Y-204893697D01*
X162918999Y-204887235D01*
X162918999Y-204706660D01*
X162922426Y-204698387D01*
X162928717Y-204695129D01*
X163041036Y-204675839D01*
X163046106Y-204676086D01*
G37*
%TD.AperFunction*%
%TD*%
%TA.AperFunction,Conductor*%
%TO.N,Net-(U4-VFB)*%
G36*
X151877646Y-200403032D02*
G01*
X151879273Y-200404437D01*
X152493183Y-201041884D01*
X152496454Y-201050220D01*
X152493183Y-201058116D01*
X151879273Y-201695562D01*
X151871066Y-201699144D01*
X151868923Y-201698987D01*
X150984777Y-201551629D01*
X150977179Y-201546888D01*
X150975000Y-201540088D01*
X150975000Y-200559911D01*
X150978427Y-200551638D01*
X150984775Y-200548370D01*
X151868925Y-200401012D01*
X151877646Y-200403032D01*
G37*
%TD.AperFunction*%
%TD*%
%TA.AperFunction,Conductor*%
%TO.N,Net-(U4-VFB)*%
G36*
X150631068Y-200401011D02*
G01*
X151515224Y-200548370D01*
X151522821Y-200553111D01*
X151525000Y-200559911D01*
X151525000Y-201540088D01*
X151521573Y-201548361D01*
X151515223Y-201551629D01*
X150631076Y-201698987D01*
X150622353Y-201696967D01*
X150620726Y-201695562D01*
X150006816Y-201058116D01*
X150003545Y-201049780D01*
X150006816Y-201041884D01*
X150482108Y-200548370D01*
X150620727Y-200404436D01*
X150628933Y-200400855D01*
X150631068Y-200401011D01*
G37*
%TD.AperFunction*%
%TD*%
%TA.AperFunction,Conductor*%
%TO.N,Net-(Q1-Pad1)*%
G36*
X164308246Y-217557196D02*
G01*
X164679709Y-217926388D01*
X164942542Y-218187615D01*
X164945994Y-218195877D01*
X164943423Y-218203231D01*
X164428512Y-218845618D01*
X164420664Y-218849930D01*
X164419383Y-218850000D01*
X164180617Y-218850000D01*
X164172344Y-218846573D01*
X164171488Y-218845618D01*
X163656576Y-218203231D01*
X163654075Y-218194632D01*
X163657456Y-218187616D01*
X164291753Y-217557196D01*
X164300036Y-217553795D01*
X164308246Y-217557196D01*
G37*
%TD.AperFunction*%
%TD*%
%TA.AperFunction,Conductor*%
%TO.N,Net-(U4-VC)*%
G36*
X170028377Y-211153172D02*
G01*
X170709094Y-211792628D01*
X170712777Y-211800791D01*
X170710246Y-211808432D01*
X170206953Y-212442242D01*
X170199124Y-212446590D01*
X170190936Y-212444448D01*
X169407698Y-211878276D01*
X169403000Y-211870652D01*
X169404170Y-211863399D01*
X169771723Y-211156303D01*
X169778579Y-211150544D01*
X169782104Y-211150000D01*
X170020366Y-211150000D01*
X170028377Y-211153172D01*
G37*
%TD.AperFunction*%
%TD*%
%TA.AperFunction,Conductor*%
%TO.N,Net-(U4-RT)*%
G36*
X160307963Y-196281356D02*
G01*
X160945861Y-196821495D01*
X160949960Y-196829456D01*
X160950000Y-196830424D01*
X160950000Y-197069186D01*
X160946573Y-197077459D01*
X160945366Y-197078511D01*
X160298374Y-197568793D01*
X160289711Y-197571058D01*
X160282823Y-197567524D01*
X159657007Y-196908433D01*
X159653796Y-196900074D01*
X159657383Y-196891944D01*
X160292295Y-196281848D01*
X160300635Y-196278587D01*
X160307963Y-196281356D01*
G37*
%TD.AperFunction*%
%TD*%
%TA.AperFunction,Conductor*%
%TO.N,Net-(U4-RT)*%
G36*
X159657701Y-194407967D02*
G01*
X159658808Y-194409074D01*
X160275236Y-195114113D01*
X160278102Y-195122597D01*
X160276331Y-195128044D01*
X159778441Y-195919530D01*
X159771136Y-195924708D01*
X159768538Y-195925000D01*
X159531462Y-195925000D01*
X159523189Y-195921573D01*
X159521559Y-195919530D01*
X159023668Y-195128044D01*
X159022163Y-195119216D01*
X159024761Y-195114115D01*
X159641192Y-194409073D01*
X159649217Y-194405101D01*
X159657701Y-194407967D01*
G37*
%TD.AperFunction*%
%TD*%
%TA.AperFunction,Conductor*%
%TO.N,Net-(U4-RT)*%
G36*
X159776811Y-195378427D02*
G01*
X159778441Y-195380470D01*
X160276331Y-196171955D01*
X160277836Y-196180783D01*
X160275236Y-196185886D01*
X159658808Y-196890925D01*
X159650783Y-196894898D01*
X159642299Y-196892032D01*
X159641192Y-196890925D01*
X159024763Y-196185886D01*
X159021897Y-196177402D01*
X159023667Y-196171957D01*
X159521559Y-195380469D01*
X159528864Y-195375292D01*
X159531462Y-195375000D01*
X159768538Y-195375000D01*
X159776811Y-195378427D01*
G37*
%TD.AperFunction*%
%TD*%
%TA.AperFunction,Conductor*%
%TO.N,Net-(U4-BGATE)*%
G36*
X152518170Y-216856836D02*
G01*
X152684681Y-217023347D01*
X152688108Y-217031620D01*
X152687904Y-217033796D01*
X152636419Y-217305736D01*
X152631513Y-217313228D01*
X152627567Y-217314957D01*
X152009336Y-217458377D01*
X152000502Y-217456909D01*
X151995719Y-217451037D01*
X151889979Y-217164945D01*
X151890325Y-217155998D01*
X151895838Y-217150368D01*
X152504785Y-216854584D01*
X152513724Y-216854053D01*
X152518170Y-216856836D01*
G37*
%TD.AperFunction*%
%TD*%
M02*
