%TF.GenerationSoftware,KiCad,Pcbnew,9.0.7*%
%TF.CreationDate,2026-04-26T23:32:49-07:00*%
%TF.ProjectId,System PCB-Charging Mk.2,53797374-656d-4205-9043-422d43686172,rev?*%
%TF.SameCoordinates,Original*%
%TF.FileFunction,Paste,Top*%
%TF.FilePolarity,Positive*%
%FSLAX46Y46*%
G04 Gerber Fmt 4.6, Leading zero omitted, Abs format (unit mm)*
G04 Created by KiCad (PCBNEW 9.0.7) date 2026-04-26 23:32:49*
%MOMM*%
%LPD*%
G01*
G04 APERTURE LIST*
G04 Aperture macros list*
%AMRoundRect*
0 Rectangle with rounded corners*
0 $1 Rounding radius*
0 $2 $3 $4 $5 $6 $7 $8 $9 X,Y pos of 4 corners*
0 Add a 4 corners polygon primitive as box body*
4,1,4,$2,$3,$4,$5,$6,$7,$8,$9,$2,$3,0*
0 Add four circle primitives for the rounded corners*
1,1,$1+$1,$2,$3*
1,1,$1+$1,$4,$5*
1,1,$1+$1,$6,$7*
1,1,$1+$1,$8,$9*
0 Add four rect primitives between the rounded corners*
20,1,$1+$1,$2,$3,$4,$5,0*
20,1,$1+$1,$4,$5,$6,$7,0*
20,1,$1+$1,$6,$7,$8,$9,0*
20,1,$1+$1,$8,$9,$2,$3,0*%
%AMFreePoly0*
4,1,13,-0.355600,0.254000,0.355600,0.254000,0.355600,-0.254000,-0.355600,-0.254000,-0.355600,-1.016000,0.355600,-1.016000,0.355600,-1.524000,-0.355600,-1.524000,-0.355600,-1.321400,-4.191000,-1.321400,-4.191000,0.355000,-0.355600,0.355000,-0.355600,0.254000,-0.355600,0.254000,$1*%
%AMFreePoly1*
4,1,13,0.355600,-0.254000,-0.355600,-0.254000,-0.355600,-1.016000,0.355600,-1.016000,0.355600,-1.524000,-0.355600,-1.524000,-0.355600,-1.625000,-4.191000,-1.625000,-4.191000,0.051400,-0.355600,0.051400,-0.355600,0.254000,0.355600,0.254000,0.355600,-0.254000,0.355600,-0.254000,$1*%
G04 Aperture macros list end*
%ADD10C,0.000000*%
%ADD11C,0.010000*%
%ADD12RoundRect,0.250000X-0.625000X0.400000X-0.625000X-0.400000X0.625000X-0.400000X0.625000X0.400000X0*%
%ADD13RoundRect,0.250000X-0.400000X-0.625000X0.400000X-0.625000X0.400000X0.625000X-0.400000X0.625000X0*%
%ADD14RoundRect,0.250000X-0.412500X-0.650000X0.412500X-0.650000X0.412500X0.650000X-0.412500X0.650000X0*%
%ADD15RoundRect,0.249999X1.425001X-0.450001X1.425001X0.450001X-1.425001X0.450001X-1.425001X-0.450001X0*%
%ADD16R,0.249200X0.906400*%
%ADD17R,0.906400X0.249200*%
%ADD18R,5.250000X3.250001*%
%ADD19R,0.711200X0.508000*%
%ADD20FreePoly0,0.000000*%
%ADD21FreePoly1,0.000000*%
%ADD22R,2.565400X1.778000*%
%ADD23R,1.270000X0.610000*%
%ADD24RoundRect,0.250000X0.337500X0.475000X-0.337500X0.475000X-0.337500X-0.475000X0.337500X-0.475000X0*%
%ADD25R,1.320800X3.352800*%
%ADD26RoundRect,0.250000X-0.337500X-0.475000X0.337500X-0.475000X0.337500X0.475000X-0.337500X0.475000X0*%
%ADD27RoundRect,0.237500X-0.300000X-0.237500X0.300000X-0.237500X0.300000X0.237500X-0.300000X0.237500X0*%
%ADD28RoundRect,0.090000X0.139000X0.090000X-0.139000X0.090000X-0.139000X-0.090000X0.139000X-0.090000X0*%
%ADD29RoundRect,0.237500X0.300000X0.237500X-0.300000X0.237500X-0.300000X-0.237500X0.300000X-0.237500X0*%
%ADD30R,1.200000X1.200000*%
%ADD31RoundRect,0.200000X0.750000X0.200000X-0.750000X0.200000X-0.750000X-0.200000X0.750000X-0.200000X0*%
%ADD32RoundRect,0.249999X0.450001X1.425001X-0.450001X1.425001X-0.450001X-1.425001X0.450001X-1.425001X0*%
%ADD33RoundRect,0.249999X-0.450001X-1.425001X0.450001X-1.425001X0.450001X1.425001X-0.450001X1.425001X0*%
%ADD34RoundRect,0.250000X0.625000X-0.400000X0.625000X0.400000X-0.625000X0.400000X-0.625000X-0.400000X0*%
%ADD35RoundRect,0.250000X-0.475000X0.337500X-0.475000X-0.337500X0.475000X-0.337500X0.475000X0.337500X0*%
%ADD36R,5.000000X3.100000*%
G04 APERTURE END LIST*
D10*
%TO.C,U4*%
G36*
X165587500Y-204200000D02*
G01*
X164475000Y-204200000D01*
X164475000Y-202774999D01*
X165587500Y-202774999D01*
X165587500Y-204200000D01*
G37*
G36*
X165587500Y-205825001D02*
G01*
X164475000Y-205825001D01*
X164475000Y-204400000D01*
X165587500Y-204400000D01*
X165587500Y-205825001D01*
G37*
G36*
X166900000Y-204200000D02*
G01*
X165787500Y-204200000D01*
X165787500Y-202774999D01*
X166900000Y-202774999D01*
X166900000Y-204200000D01*
G37*
G36*
X166900000Y-205825001D02*
G01*
X165787500Y-205825001D01*
X165787500Y-204400000D01*
X166900000Y-204400000D01*
X166900000Y-205825001D01*
G37*
G36*
X168212500Y-204200000D02*
G01*
X167100000Y-204200000D01*
X167100000Y-202774999D01*
X168212500Y-202774999D01*
X168212500Y-204200000D01*
G37*
G36*
X168212500Y-205825001D02*
G01*
X167100000Y-205825001D01*
X167100000Y-204400000D01*
X168212500Y-204400000D01*
X168212500Y-205825001D01*
G37*
G36*
X169525000Y-204200000D02*
G01*
X168412500Y-204200000D01*
X168412500Y-202774999D01*
X169525000Y-202774999D01*
X169525000Y-204200000D01*
G37*
G36*
X169525000Y-205825001D02*
G01*
X168412500Y-205825001D01*
X168412500Y-204400000D01*
X169525000Y-204400000D01*
X169525000Y-205825001D01*
G37*
%TO.C,U8*%
G36*
X184405602Y-210654000D02*
G01*
X183694402Y-210654000D01*
X183694402Y-211416000D01*
X184405602Y-211416000D01*
X184405602Y-211924000D01*
X183694402Y-211924000D01*
X183694402Y-212025000D01*
X179859002Y-212025000D01*
X179859002Y-210348600D01*
X183694402Y-210348600D01*
X183694402Y-210146000D01*
X184405602Y-210146000D01*
X184405602Y-210654000D01*
G37*
G36*
X183694402Y-212686000D02*
G01*
X184405602Y-212686000D01*
X184405602Y-213194000D01*
X183694402Y-213194000D01*
X183694402Y-213956000D01*
X184405602Y-213956000D01*
X184405602Y-214464000D01*
X183694402Y-214464000D01*
X183694402Y-214261400D01*
X179859002Y-214261400D01*
X179859002Y-212585000D01*
X183694402Y-212585000D01*
X183694402Y-212686000D01*
G37*
D11*
%TO.C,Q1*%
X146735000Y-217765000D02*
X146025000Y-217765000D01*
X146025000Y-217155000D01*
X146735000Y-217155000D01*
X146735000Y-217765000D01*
G36*
X146735000Y-217765000D02*
G01*
X146025000Y-217765000D01*
X146025000Y-217155000D01*
X146735000Y-217155000D01*
X146735000Y-217765000D01*
G37*
X146735000Y-219035000D02*
X146025000Y-219035000D01*
X146025000Y-218425000D01*
X146735000Y-218425000D01*
X146735000Y-219035000D01*
G36*
X146735000Y-219035000D02*
G01*
X146025000Y-219035000D01*
X146025000Y-218425000D01*
X146735000Y-218425000D01*
X146735000Y-219035000D01*
G37*
X146735000Y-220305000D02*
X146025000Y-220305000D01*
X146025000Y-219695000D01*
X146735000Y-219695000D01*
X146735000Y-220305000D01*
G36*
X146735000Y-220305000D02*
G01*
X146025000Y-220305000D01*
X146025000Y-219695000D01*
X146735000Y-219695000D01*
X146735000Y-220305000D01*
G37*
X146735000Y-221575000D02*
X146025000Y-221575000D01*
X146025000Y-220965000D01*
X146735000Y-220965000D01*
X146735000Y-221575000D01*
G36*
X146735000Y-221575000D02*
G01*
X146025000Y-221575000D01*
X146025000Y-220965000D01*
X146735000Y-220965000D01*
X146735000Y-221575000D01*
G37*
X149840150Y-220596650D02*
X147439850Y-220596650D01*
X147439850Y-218133350D01*
X149840150Y-218133350D01*
X149840150Y-220596650D01*
G36*
X149840150Y-220596650D02*
G01*
X147439850Y-220596650D01*
X147439850Y-218133350D01*
X149840150Y-218133350D01*
X149840150Y-220596650D01*
G37*
D10*
%TO.C,U7*%
G36*
X181205602Y-194384000D02*
G01*
X180494402Y-194384000D01*
X180494402Y-195146000D01*
X181205602Y-195146000D01*
X181205602Y-195654000D01*
X180494402Y-195654000D01*
X180494402Y-195755000D01*
X176659002Y-195755000D01*
X176659002Y-194078600D01*
X180494402Y-194078600D01*
X180494402Y-193876000D01*
X181205602Y-193876000D01*
X181205602Y-194384000D01*
G37*
G36*
X180494402Y-196416000D02*
G01*
X181205602Y-196416000D01*
X181205602Y-196924000D01*
X180494402Y-196924000D01*
X180494402Y-197686000D01*
X181205602Y-197686000D01*
X181205602Y-198194000D01*
X180494402Y-198194000D01*
X180494402Y-197991400D01*
X176659002Y-197991400D01*
X176659002Y-196315000D01*
X180494402Y-196315000D01*
X180494402Y-196416000D01*
G37*
%TD*%
D12*
%TO.C,R31*%
X166700000Y-214450000D03*
X166700000Y-217550000D03*
%TD*%
D13*
%TO.C,R39*%
X165600000Y-185850000D03*
X168700000Y-185850000D03*
%TD*%
D14*
%TO.C,C41*%
X174600000Y-204500000D03*
X177725000Y-204500000D03*
%TD*%
D13*
%TO.C,R47*%
X156550000Y-194400000D03*
X159650000Y-194400000D03*
%TD*%
%TO.C,R26*%
X139450000Y-202200000D03*
X142550000Y-202200000D03*
%TD*%
D15*
%TO.C,R22*%
X178600000Y-188850000D03*
X178600000Y-182750000D03*
%TD*%
D14*
%TO.C,C39*%
X185037500Y-221200000D03*
X188162500Y-221200000D03*
%TD*%
D16*
%TO.C,U4*%
X169750000Y-201796800D03*
X169250001Y-201796800D03*
X168749999Y-201796800D03*
X168250000Y-201796800D03*
X167750001Y-201796800D03*
X167250000Y-201796800D03*
X166750000Y-201796800D03*
X166249999Y-201796800D03*
X165750000Y-201796800D03*
X165250001Y-201796800D03*
X164749999Y-201796800D03*
X164250000Y-201796800D03*
D17*
X163496799Y-202800000D03*
X163496799Y-203299999D03*
X163496799Y-203800001D03*
X163496799Y-204300000D03*
X163496799Y-204799999D03*
X163496799Y-205300001D03*
X163496799Y-205800000D03*
D16*
X164250000Y-206803200D03*
X164749999Y-206803200D03*
X165250001Y-206803200D03*
X165750000Y-206803200D03*
X166249999Y-206803200D03*
X166750000Y-206803200D03*
X167250000Y-206803200D03*
X167750001Y-206803200D03*
X168250000Y-206803200D03*
X168749999Y-206803200D03*
X169250001Y-206803200D03*
X169750000Y-206803200D03*
D17*
X170503201Y-205800000D03*
X170503201Y-205300001D03*
X170503201Y-204799999D03*
X170503201Y-204300000D03*
X170503201Y-203800001D03*
X170503201Y-203299999D03*
X170503201Y-202800000D03*
D18*
X167000000Y-204300000D03*
%TD*%
D12*
%TO.C,R28*%
X150000000Y-201050000D03*
X150000000Y-204150000D03*
%TD*%
D19*
%TO.C,U8*%
X178500000Y-210400000D03*
X178500000Y-211670000D03*
X178500000Y-212940000D03*
X178500000Y-214210000D03*
X184050002Y-214210000D03*
D20*
X184050002Y-212940000D03*
D19*
X184050002Y-211670000D03*
D21*
X184050002Y-210400000D03*
%TD*%
D12*
%TO.C,R45*%
X146100000Y-210350000D03*
X146100000Y-213450000D03*
%TD*%
%TO.C,R27*%
X152500000Y-201050000D03*
X152500000Y-204150000D03*
%TD*%
D22*
%TO.C,CR5*%
X186534700Y-218000000D03*
X190065300Y-218000000D03*
%TD*%
D13*
%TO.C,R25*%
X141550000Y-199400000D03*
X144650000Y-199400000D03*
%TD*%
D23*
%TO.C,Q1*%
X152000000Y-221270000D03*
X152000000Y-220000000D03*
X152000000Y-218730000D03*
X152000000Y-217460000D03*
%TD*%
D24*
%TO.C,C31*%
X166537500Y-212500000D03*
X164462500Y-212500000D03*
%TD*%
D25*
%TO.C,C27*%
X143500000Y-185837400D03*
X143500000Y-191400000D03*
%TD*%
D26*
%TO.C,C40*%
X185062500Y-223400000D03*
X187137500Y-223400000D03*
%TD*%
D27*
%TO.C,C37*%
X169737500Y-217300000D03*
X171462500Y-217300000D03*
%TD*%
D28*
%TO.C,D2*%
X144832500Y-202200000D03*
X143967500Y-202200000D03*
%TD*%
D24*
%TO.C,C36*%
X168937500Y-210400000D03*
X166862500Y-210400000D03*
%TD*%
D29*
%TO.C,C38*%
X172962500Y-208200000D03*
X171237500Y-208200000D03*
%TD*%
D30*
%TO.C,CR2*%
X180000000Y-207600000D03*
X177200000Y-207600000D03*
%TD*%
D25*
%TO.C,C26*%
X153400000Y-184537400D03*
X153400000Y-190100000D03*
%TD*%
D29*
%TO.C,C28*%
X159762500Y-192400000D03*
X158037500Y-192400000D03*
%TD*%
D25*
%TO.C,C34*%
X176850000Y-234218700D03*
X176850000Y-239781300D03*
%TD*%
D31*
%TO.C,D5*%
X185100000Y-208550000D03*
X185100000Y-206650000D03*
X182100000Y-207600000D03*
%TD*%
D32*
%TO.C,R30*%
X168550000Y-221200000D03*
X162450000Y-221200000D03*
%TD*%
D33*
%TO.C,R21*%
X176750000Y-201200000D03*
X182850000Y-201200000D03*
%TD*%
D25*
%TO.C,C35*%
X184800000Y-234218700D03*
X184800000Y-239781300D03*
%TD*%
D34*
%TO.C,R32*%
X155000000Y-207550000D03*
X155000000Y-204450000D03*
%TD*%
D13*
%TO.C,R40*%
X165600000Y-183350000D03*
X168700000Y-183350000D03*
%TD*%
D35*
%TO.C,C30*%
X175600000Y-186762500D03*
X175600000Y-188837500D03*
%TD*%
D12*
%TO.C,R42*%
X139300000Y-196650000D03*
X139300000Y-199750000D03*
%TD*%
D36*
%TO.C,L4*%
X193500000Y-196900000D03*
X193500000Y-208000000D03*
%TD*%
D28*
%TO.C,D1*%
X145532500Y-201100000D03*
X144667500Y-201100000D03*
%TD*%
D13*
%TO.C,R41*%
X141550000Y-196700000D03*
X144650000Y-196700000D03*
%TD*%
%TO.C,R24*%
X170550000Y-180850000D03*
X173650000Y-180850000D03*
%TD*%
%TO.C,R23*%
X165550000Y-180835000D03*
X168650000Y-180835000D03*
%TD*%
D12*
%TO.C,R29*%
X164300000Y-214450000D03*
X164300000Y-217550000D03*
%TD*%
D30*
%TO.C,CR6*%
X182400000Y-204300000D03*
X179600000Y-204300000D03*
%TD*%
D25*
%TO.C,C33*%
X168900878Y-234218700D03*
X168900878Y-239781300D03*
%TD*%
D12*
%TO.C,R34*%
X170200000Y-212450000D03*
X170200000Y-215550000D03*
%TD*%
D13*
%TO.C,R38*%
X156550000Y-196900000D03*
X159650000Y-196900000D03*
%TD*%
D12*
%TO.C,R4*%
X147000000Y-204250000D03*
X147000000Y-207350000D03*
%TD*%
D29*
%TO.C,C29*%
X171762500Y-198100000D03*
X170037500Y-198100000D03*
%TD*%
D19*
%TO.C,U7*%
X175300000Y-194130000D03*
X175300000Y-195400000D03*
X175300000Y-196670000D03*
X175300000Y-197940000D03*
X180850002Y-197940000D03*
D20*
X180850002Y-196670000D03*
D19*
X180850002Y-195400000D03*
D21*
X180850002Y-194130000D03*
%TD*%
M02*
