%TF.GenerationSoftware,KiCad,Pcbnew,9.0.7*%
%TF.CreationDate,2026-04-26T23:32:49-07:00*%
%TF.ProjectId,System PCB-Charging Mk.2,53797374-656d-4205-9043-422d43686172,rev?*%
%TF.SameCoordinates,Original*%
%TF.FileFunction,Soldermask,Bot*%
%TF.FilePolarity,Negative*%
%FSLAX46Y46*%
G04 Gerber Fmt 4.6, Leading zero omitted, Abs format (unit mm)*
G04 Created by KiCad (PCBNEW 9.0.7) date 2026-04-26 23:32:49*
%MOMM*%
%LPD*%
G01*
G04 APERTURE LIST*
G04 APERTURE END LIST*
G36*
X141118894Y-240355086D02*
G01*
X141129458Y-240355086D01*
X141181477Y-240363325D01*
X141321877Y-240381809D01*
X141356138Y-240390989D01*
X141385185Y-240395590D01*
X141441045Y-240413740D01*
X141530338Y-240437666D01*
X141587309Y-240461264D01*
X141631428Y-240475599D01*
X141672755Y-240496656D01*
X141729733Y-240520257D01*
X141809803Y-240566485D01*
X141862123Y-240593144D01*
X141885909Y-240610425D01*
X141916624Y-240628159D01*
X142028975Y-240714369D01*
X142071589Y-240745330D01*
X142079058Y-240752799D01*
X142087848Y-240759544D01*
X142240455Y-240912151D01*
X142247199Y-240920940D01*
X142254670Y-240928411D01*
X142285634Y-240971030D01*
X142371840Y-241083375D01*
X142389572Y-241114087D01*
X142406856Y-241137877D01*
X142433517Y-241190203D01*
X142479742Y-241270266D01*
X142503340Y-241327237D01*
X142524401Y-241368572D01*
X142538738Y-241412696D01*
X142562333Y-241469661D01*
X142586255Y-241558941D01*
X142604410Y-241614815D01*
X142609011Y-241643867D01*
X142618190Y-241678122D01*
X142636673Y-241818514D01*
X142644914Y-241870542D01*
X142644914Y-241881105D01*
X142646360Y-241892089D01*
X142646360Y-242107910D01*
X142644914Y-242118893D01*
X142644914Y-242129458D01*
X142636672Y-242181490D01*
X142618190Y-242321877D01*
X142609011Y-242356129D01*
X142604410Y-242385185D01*
X142586254Y-242441063D01*
X142562333Y-242530338D01*
X142538739Y-242587298D01*
X142524401Y-242631428D01*
X142503337Y-242672766D01*
X142479742Y-242729733D01*
X142433521Y-242809788D01*
X142406856Y-242862123D01*
X142389569Y-242885916D01*
X142371840Y-242916624D01*
X142285648Y-243028950D01*
X142254670Y-243071589D01*
X142247195Y-243079063D01*
X142240455Y-243087848D01*
X142087848Y-243240455D01*
X142079063Y-243247195D01*
X142071589Y-243254670D01*
X142028950Y-243285648D01*
X141916624Y-243371840D01*
X141885916Y-243389569D01*
X141862123Y-243406856D01*
X141809788Y-243433521D01*
X141729733Y-243479742D01*
X141672766Y-243503337D01*
X141631428Y-243524401D01*
X141587298Y-243538739D01*
X141530338Y-243562333D01*
X141441063Y-243586254D01*
X141385185Y-243604410D01*
X141356129Y-243609011D01*
X141321877Y-243618190D01*
X141181490Y-243636672D01*
X141129458Y-243644914D01*
X141118893Y-243644914D01*
X141107910Y-243646360D01*
X140892090Y-243646360D01*
X140881107Y-243644914D01*
X140870542Y-243644914D01*
X140818511Y-243636672D01*
X140678122Y-243618190D01*
X140643867Y-243609011D01*
X140614815Y-243604410D01*
X140558941Y-243586255D01*
X140469661Y-243562333D01*
X140412696Y-243538738D01*
X140368572Y-243524401D01*
X140327237Y-243503340D01*
X140270266Y-243479742D01*
X140190203Y-243433517D01*
X140137877Y-243406856D01*
X140114087Y-243389572D01*
X140083375Y-243371840D01*
X139971030Y-243285634D01*
X139928411Y-243254670D01*
X139920940Y-243247199D01*
X139912151Y-243240455D01*
X139759544Y-243087848D01*
X139752799Y-243079058D01*
X139745330Y-243071589D01*
X139714369Y-243028975D01*
X139628159Y-242916624D01*
X139610425Y-242885909D01*
X139593144Y-242862123D01*
X139566485Y-242809803D01*
X139520257Y-242729733D01*
X139496656Y-242672755D01*
X139475599Y-242631428D01*
X139461264Y-242587309D01*
X139437666Y-242530338D01*
X139413740Y-242441045D01*
X139395590Y-242385185D01*
X139390989Y-242356138D01*
X139381809Y-242321877D01*
X139363325Y-242181477D01*
X139355086Y-242129458D01*
X139355086Y-242118893D01*
X139353640Y-242107910D01*
X139353640Y-241892089D01*
X139355086Y-241881105D01*
X139355086Y-241870542D01*
X139363324Y-241818527D01*
X139381809Y-241678122D01*
X139390989Y-241643858D01*
X139395590Y-241614815D01*
X139413738Y-241558959D01*
X139437666Y-241469661D01*
X139461265Y-241412685D01*
X139475599Y-241368572D01*
X139496654Y-241327248D01*
X139520257Y-241270266D01*
X139566489Y-241190188D01*
X139593144Y-241137877D01*
X139610423Y-241114094D01*
X139628159Y-241083375D01*
X139714383Y-240971005D01*
X139745330Y-240928411D01*
X139752796Y-240920944D01*
X139759544Y-240912151D01*
X139912151Y-240759544D01*
X139920944Y-240752796D01*
X139928411Y-240745330D01*
X139971005Y-240714383D01*
X140083375Y-240628159D01*
X140114094Y-240610423D01*
X140137877Y-240593144D01*
X140190188Y-240566489D01*
X140270266Y-240520257D01*
X140327248Y-240496654D01*
X140368572Y-240475599D01*
X140412685Y-240461265D01*
X140469661Y-240437666D01*
X140558959Y-240413738D01*
X140614815Y-240395590D01*
X140643858Y-240390989D01*
X140678122Y-240381809D01*
X140818524Y-240363324D01*
X140870542Y-240355086D01*
X140881106Y-240355086D01*
X140892090Y-240353640D01*
X141107910Y-240353640D01*
X141118894Y-240355086D01*
G37*
G36*
X195118894Y-240355086D02*
G01*
X195129458Y-240355086D01*
X195181477Y-240363325D01*
X195321877Y-240381809D01*
X195356138Y-240390989D01*
X195385185Y-240395590D01*
X195441045Y-240413740D01*
X195530338Y-240437666D01*
X195587309Y-240461264D01*
X195631428Y-240475599D01*
X195672755Y-240496656D01*
X195729733Y-240520257D01*
X195809803Y-240566485D01*
X195862123Y-240593144D01*
X195885909Y-240610425D01*
X195916624Y-240628159D01*
X196028975Y-240714369D01*
X196071589Y-240745330D01*
X196079058Y-240752799D01*
X196087848Y-240759544D01*
X196240455Y-240912151D01*
X196247199Y-240920940D01*
X196254670Y-240928411D01*
X196285634Y-240971030D01*
X196371840Y-241083375D01*
X196389572Y-241114087D01*
X196406856Y-241137877D01*
X196433517Y-241190203D01*
X196479742Y-241270266D01*
X196503340Y-241327237D01*
X196524401Y-241368572D01*
X196538738Y-241412696D01*
X196562333Y-241469661D01*
X196586255Y-241558941D01*
X196604410Y-241614815D01*
X196609011Y-241643867D01*
X196618190Y-241678122D01*
X196636673Y-241818514D01*
X196644914Y-241870542D01*
X196644914Y-241881105D01*
X196646360Y-241892089D01*
X196646360Y-242107910D01*
X196644914Y-242118893D01*
X196644914Y-242129458D01*
X196636672Y-242181490D01*
X196618190Y-242321877D01*
X196609011Y-242356129D01*
X196604410Y-242385185D01*
X196586254Y-242441063D01*
X196562333Y-242530338D01*
X196538739Y-242587298D01*
X196524401Y-242631428D01*
X196503337Y-242672766D01*
X196479742Y-242729733D01*
X196433521Y-242809788D01*
X196406856Y-242862123D01*
X196389569Y-242885916D01*
X196371840Y-242916624D01*
X196285648Y-243028950D01*
X196254670Y-243071589D01*
X196247195Y-243079063D01*
X196240455Y-243087848D01*
X196087848Y-243240455D01*
X196079063Y-243247195D01*
X196071589Y-243254670D01*
X196028950Y-243285648D01*
X195916624Y-243371840D01*
X195885916Y-243389569D01*
X195862123Y-243406856D01*
X195809788Y-243433521D01*
X195729733Y-243479742D01*
X195672766Y-243503337D01*
X195631428Y-243524401D01*
X195587298Y-243538739D01*
X195530338Y-243562333D01*
X195441063Y-243586254D01*
X195385185Y-243604410D01*
X195356129Y-243609011D01*
X195321877Y-243618190D01*
X195181490Y-243636672D01*
X195129458Y-243644914D01*
X195118893Y-243644914D01*
X195107910Y-243646360D01*
X194892090Y-243646360D01*
X194881107Y-243644914D01*
X194870542Y-243644914D01*
X194818511Y-243636672D01*
X194678122Y-243618190D01*
X194643867Y-243609011D01*
X194614815Y-243604410D01*
X194558941Y-243586255D01*
X194469661Y-243562333D01*
X194412696Y-243538738D01*
X194368572Y-243524401D01*
X194327237Y-243503340D01*
X194270266Y-243479742D01*
X194190203Y-243433517D01*
X194137877Y-243406856D01*
X194114087Y-243389572D01*
X194083375Y-243371840D01*
X193971030Y-243285634D01*
X193928411Y-243254670D01*
X193920940Y-243247199D01*
X193912151Y-243240455D01*
X193759544Y-243087848D01*
X193752799Y-243079058D01*
X193745330Y-243071589D01*
X193714369Y-243028975D01*
X193628159Y-242916624D01*
X193610425Y-242885909D01*
X193593144Y-242862123D01*
X193566485Y-242809803D01*
X193520257Y-242729733D01*
X193496656Y-242672755D01*
X193475599Y-242631428D01*
X193461264Y-242587309D01*
X193437666Y-242530338D01*
X193413740Y-242441045D01*
X193395590Y-242385185D01*
X193390989Y-242356138D01*
X193381809Y-242321877D01*
X193363325Y-242181477D01*
X193355086Y-242129458D01*
X193355086Y-242118893D01*
X193353640Y-242107910D01*
X193353640Y-241892089D01*
X193355086Y-241881105D01*
X193355086Y-241870542D01*
X193363324Y-241818527D01*
X193381809Y-241678122D01*
X193390989Y-241643858D01*
X193395590Y-241614815D01*
X193413738Y-241558959D01*
X193437666Y-241469661D01*
X193461265Y-241412685D01*
X193475599Y-241368572D01*
X193496654Y-241327248D01*
X193520257Y-241270266D01*
X193566489Y-241190188D01*
X193593144Y-241137877D01*
X193610423Y-241114094D01*
X193628159Y-241083375D01*
X193714383Y-240971005D01*
X193745330Y-240928411D01*
X193752796Y-240920944D01*
X193759544Y-240912151D01*
X193912151Y-240759544D01*
X193920944Y-240752796D01*
X193928411Y-240745330D01*
X193971005Y-240714383D01*
X194083375Y-240628159D01*
X194114094Y-240610423D01*
X194137877Y-240593144D01*
X194190188Y-240566489D01*
X194270266Y-240520257D01*
X194327248Y-240496654D01*
X194368572Y-240475599D01*
X194412685Y-240461265D01*
X194469661Y-240437666D01*
X194558959Y-240413738D01*
X194614815Y-240395590D01*
X194643858Y-240390989D01*
X194678122Y-240381809D01*
X194818524Y-240363324D01*
X194870542Y-240355086D01*
X194881106Y-240355086D01*
X194892090Y-240353640D01*
X195107910Y-240353640D01*
X195118894Y-240355086D01*
G37*
G36*
X190084134Y-226738806D02*
G01*
X190100355Y-226749645D01*
X190111194Y-226765866D01*
X190115000Y-226785000D01*
X190115000Y-228815000D01*
X190111194Y-228834134D01*
X190100355Y-228850355D01*
X190084134Y-228861194D01*
X190065000Y-228865000D01*
X188335000Y-228865000D01*
X188315866Y-228861194D01*
X188299645Y-228850355D01*
X188288806Y-228834134D01*
X188285000Y-228815000D01*
X188285000Y-226785000D01*
X188288806Y-226765866D01*
X188299645Y-226749645D01*
X188315866Y-226738806D01*
X188335000Y-226735000D01*
X190065000Y-226735000D01*
X190084134Y-226738806D01*
G37*
G36*
X192005610Y-226774400D02*
G01*
X192171328Y-226843042D01*
X192320470Y-226942695D01*
X192447305Y-227069530D01*
X192546958Y-227218672D01*
X192615600Y-227384390D01*
X192650594Y-227560314D01*
X192655000Y-227650000D01*
X192655000Y-227950000D01*
X192650594Y-228039686D01*
X192615600Y-228215610D01*
X192546958Y-228381328D01*
X192447305Y-228530470D01*
X192320470Y-228657305D01*
X192171328Y-228756958D01*
X192005610Y-228825600D01*
X191829686Y-228860594D01*
X191650314Y-228860594D01*
X191474390Y-228825600D01*
X191308672Y-228756958D01*
X191159530Y-228657305D01*
X191032695Y-228530470D01*
X190933042Y-228381328D01*
X190864400Y-228215610D01*
X190829406Y-228039686D01*
X190825000Y-227950000D01*
X190825000Y-227650000D01*
X190829406Y-227560314D01*
X190864400Y-227384390D01*
X190933042Y-227218672D01*
X191032695Y-227069530D01*
X191159530Y-226942695D01*
X191308672Y-226843042D01*
X191474390Y-226774400D01*
X191650314Y-226739406D01*
X191829686Y-226739406D01*
X192005610Y-226774400D01*
G37*
G36*
X194545610Y-226774400D02*
G01*
X194711328Y-226843042D01*
X194860470Y-226942695D01*
X194987305Y-227069530D01*
X195086958Y-227218672D01*
X195155600Y-227384390D01*
X195190594Y-227560314D01*
X195195000Y-227650000D01*
X195195000Y-227950000D01*
X195190594Y-228039686D01*
X195155600Y-228215610D01*
X195086958Y-228381328D01*
X194987305Y-228530470D01*
X194860470Y-228657305D01*
X194711328Y-228756958D01*
X194545610Y-228825600D01*
X194369686Y-228860594D01*
X194190314Y-228860594D01*
X194014390Y-228825600D01*
X193848672Y-228756958D01*
X193699530Y-228657305D01*
X193572695Y-228530470D01*
X193473042Y-228381328D01*
X193404400Y-228215610D01*
X193369406Y-228039686D01*
X193365000Y-227950000D01*
X193365000Y-227650000D01*
X193369406Y-227560314D01*
X193404400Y-227384390D01*
X193473042Y-227218672D01*
X193572695Y-227069530D01*
X193699530Y-226942695D01*
X193848672Y-226843042D01*
X194014390Y-226774400D01*
X194190314Y-226739406D01*
X194369686Y-226739406D01*
X194545610Y-226774400D01*
G37*
G36*
X197085610Y-226774400D02*
G01*
X197251328Y-226843042D01*
X197400470Y-226942695D01*
X197527305Y-227069530D01*
X197626958Y-227218672D01*
X197695600Y-227384390D01*
X197730594Y-227560314D01*
X197735000Y-227650000D01*
X197735000Y-227950000D01*
X197730594Y-228039686D01*
X197695600Y-228215610D01*
X197626958Y-228381328D01*
X197527305Y-228530470D01*
X197400470Y-228657305D01*
X197251328Y-228756958D01*
X197085610Y-228825600D01*
X196909686Y-228860594D01*
X196730314Y-228860594D01*
X196554390Y-228825600D01*
X196388672Y-228756958D01*
X196239530Y-228657305D01*
X196112695Y-228530470D01*
X196013042Y-228381328D01*
X195944400Y-228215610D01*
X195909406Y-228039686D01*
X195905000Y-227950000D01*
X195905000Y-227650000D01*
X195909406Y-227560314D01*
X195944400Y-227384390D01*
X196013042Y-227218672D01*
X196112695Y-227069530D01*
X196239530Y-226942695D01*
X196388672Y-226843042D01*
X196554390Y-226774400D01*
X196730314Y-226739406D01*
X196909686Y-226739406D01*
X197085610Y-226774400D01*
G37*
G36*
X140084134Y-226638806D02*
G01*
X140100355Y-226649645D01*
X140111194Y-226665866D01*
X140115000Y-226685000D01*
X140115000Y-228715000D01*
X140111194Y-228734134D01*
X140100355Y-228750355D01*
X140084134Y-228761194D01*
X140065000Y-228765000D01*
X138335000Y-228765000D01*
X138315866Y-228761194D01*
X138299645Y-228750355D01*
X138288806Y-228734134D01*
X138285000Y-228715000D01*
X138285000Y-226685000D01*
X138288806Y-226665866D01*
X138299645Y-226649645D01*
X138315866Y-226638806D01*
X138335000Y-226635000D01*
X140065000Y-226635000D01*
X140084134Y-226638806D01*
G37*
G36*
X155084134Y-226638806D02*
G01*
X155100355Y-226649645D01*
X155111194Y-226665866D01*
X155115000Y-226685000D01*
X155115000Y-228715000D01*
X155111194Y-228734134D01*
X155100355Y-228750355D01*
X155084134Y-228761194D01*
X155065000Y-228765000D01*
X153335000Y-228765000D01*
X153315866Y-228761194D01*
X153299645Y-228750355D01*
X153288806Y-228734134D01*
X153285000Y-228715000D01*
X153285000Y-226685000D01*
X153288806Y-226665866D01*
X153299645Y-226649645D01*
X153315866Y-226638806D01*
X153335000Y-226635000D01*
X155065000Y-226635000D01*
X155084134Y-226638806D01*
G37*
G36*
X174204134Y-226638806D02*
G01*
X174220355Y-226649645D01*
X174231194Y-226665866D01*
X174235000Y-226685000D01*
X174235000Y-228715000D01*
X174231194Y-228734134D01*
X174220355Y-228750355D01*
X174204134Y-228761194D01*
X174185000Y-228765000D01*
X172455000Y-228765000D01*
X172435866Y-228761194D01*
X172419645Y-228750355D01*
X172408806Y-228734134D01*
X172405000Y-228715000D01*
X172405000Y-226685000D01*
X172408806Y-226665866D01*
X172419645Y-226649645D01*
X172435866Y-226638806D01*
X172455000Y-226635000D01*
X174185000Y-226635000D01*
X174204134Y-226638806D01*
G37*
G36*
X142005610Y-226674400D02*
G01*
X142171328Y-226743042D01*
X142320470Y-226842695D01*
X142447305Y-226969530D01*
X142546958Y-227118672D01*
X142615600Y-227284390D01*
X142650594Y-227460314D01*
X142655000Y-227550000D01*
X142655000Y-227850000D01*
X142650594Y-227939686D01*
X142615600Y-228115610D01*
X142546958Y-228281328D01*
X142447305Y-228430470D01*
X142320470Y-228557305D01*
X142171328Y-228656958D01*
X142005610Y-228725600D01*
X141829686Y-228760594D01*
X141650314Y-228760594D01*
X141474390Y-228725600D01*
X141308672Y-228656958D01*
X141159530Y-228557305D01*
X141032695Y-228430470D01*
X140933042Y-228281328D01*
X140864400Y-228115610D01*
X140829406Y-227939686D01*
X140825000Y-227850000D01*
X140825000Y-227550000D01*
X140829406Y-227460314D01*
X140864400Y-227284390D01*
X140933042Y-227118672D01*
X141032695Y-226969530D01*
X141159530Y-226842695D01*
X141308672Y-226743042D01*
X141474390Y-226674400D01*
X141650314Y-226639406D01*
X141829686Y-226639406D01*
X142005610Y-226674400D01*
G37*
G36*
X144545610Y-226674400D02*
G01*
X144711328Y-226743042D01*
X144860470Y-226842695D01*
X144987305Y-226969530D01*
X145086958Y-227118672D01*
X145155600Y-227284390D01*
X145190594Y-227460314D01*
X145195000Y-227550000D01*
X145195000Y-227850000D01*
X145190594Y-227939686D01*
X145155600Y-228115610D01*
X145086958Y-228281328D01*
X144987305Y-228430470D01*
X144860470Y-228557305D01*
X144711328Y-228656958D01*
X144545610Y-228725600D01*
X144369686Y-228760594D01*
X144190314Y-228760594D01*
X144014390Y-228725600D01*
X143848672Y-228656958D01*
X143699530Y-228557305D01*
X143572695Y-228430470D01*
X143473042Y-228281328D01*
X143404400Y-228115610D01*
X143369406Y-227939686D01*
X143365000Y-227850000D01*
X143365000Y-227550000D01*
X143369406Y-227460314D01*
X143404400Y-227284390D01*
X143473042Y-227118672D01*
X143572695Y-226969530D01*
X143699530Y-226842695D01*
X143848672Y-226743042D01*
X144014390Y-226674400D01*
X144190314Y-226639406D01*
X144369686Y-226639406D01*
X144545610Y-226674400D01*
G37*
G36*
X147085610Y-226674400D02*
G01*
X147251328Y-226743042D01*
X147400470Y-226842695D01*
X147527305Y-226969530D01*
X147626958Y-227118672D01*
X147695600Y-227284390D01*
X147730594Y-227460314D01*
X147735000Y-227550000D01*
X147735000Y-227850000D01*
X147730594Y-227939686D01*
X147695600Y-228115610D01*
X147626958Y-228281328D01*
X147527305Y-228430470D01*
X147400470Y-228557305D01*
X147251328Y-228656958D01*
X147085610Y-228725600D01*
X146909686Y-228760594D01*
X146730314Y-228760594D01*
X146554390Y-228725600D01*
X146388672Y-228656958D01*
X146239530Y-228557305D01*
X146112695Y-228430470D01*
X146013042Y-228281328D01*
X145944400Y-228115610D01*
X145909406Y-227939686D01*
X145905000Y-227850000D01*
X145905000Y-227550000D01*
X145909406Y-227460314D01*
X145944400Y-227284390D01*
X146013042Y-227118672D01*
X146112695Y-226969530D01*
X146239530Y-226842695D01*
X146388672Y-226743042D01*
X146554390Y-226674400D01*
X146730314Y-226639406D01*
X146909686Y-226639406D01*
X147085610Y-226674400D01*
G37*
G36*
X157005610Y-226674400D02*
G01*
X157171328Y-226743042D01*
X157320470Y-226842695D01*
X157447305Y-226969530D01*
X157546958Y-227118672D01*
X157615600Y-227284390D01*
X157650594Y-227460314D01*
X157655000Y-227550000D01*
X157655000Y-227850000D01*
X157650594Y-227939686D01*
X157615600Y-228115610D01*
X157546958Y-228281328D01*
X157447305Y-228430470D01*
X157320470Y-228557305D01*
X157171328Y-228656958D01*
X157005610Y-228725600D01*
X156829686Y-228760594D01*
X156650314Y-228760594D01*
X156474390Y-228725600D01*
X156308672Y-228656958D01*
X156159530Y-228557305D01*
X156032695Y-228430470D01*
X155933042Y-228281328D01*
X155864400Y-228115610D01*
X155829406Y-227939686D01*
X155825000Y-227850000D01*
X155825000Y-227550000D01*
X155829406Y-227460314D01*
X155864400Y-227284390D01*
X155933042Y-227118672D01*
X156032695Y-226969530D01*
X156159530Y-226842695D01*
X156308672Y-226743042D01*
X156474390Y-226674400D01*
X156650314Y-226639406D01*
X156829686Y-226639406D01*
X157005610Y-226674400D01*
G37*
G36*
X159545610Y-226674400D02*
G01*
X159711328Y-226743042D01*
X159860470Y-226842695D01*
X159987305Y-226969530D01*
X160086958Y-227118672D01*
X160155600Y-227284390D01*
X160190594Y-227460314D01*
X160195000Y-227550000D01*
X160195000Y-227850000D01*
X160190594Y-227939686D01*
X160155600Y-228115610D01*
X160086958Y-228281328D01*
X159987305Y-228430470D01*
X159860470Y-228557305D01*
X159711328Y-228656958D01*
X159545610Y-228725600D01*
X159369686Y-228760594D01*
X159190314Y-228760594D01*
X159014390Y-228725600D01*
X158848672Y-228656958D01*
X158699530Y-228557305D01*
X158572695Y-228430470D01*
X158473042Y-228281328D01*
X158404400Y-228115610D01*
X158369406Y-227939686D01*
X158365000Y-227850000D01*
X158365000Y-227550000D01*
X158369406Y-227460314D01*
X158404400Y-227284390D01*
X158473042Y-227118672D01*
X158572695Y-226969530D01*
X158699530Y-226842695D01*
X158848672Y-226743042D01*
X159014390Y-226674400D01*
X159190314Y-226639406D01*
X159369686Y-226639406D01*
X159545610Y-226674400D01*
G37*
G36*
X162085610Y-226674400D02*
G01*
X162251328Y-226743042D01*
X162400470Y-226842695D01*
X162527305Y-226969530D01*
X162626958Y-227118672D01*
X162695600Y-227284390D01*
X162730594Y-227460314D01*
X162735000Y-227550000D01*
X162735000Y-227850000D01*
X162730594Y-227939686D01*
X162695600Y-228115610D01*
X162626958Y-228281328D01*
X162527305Y-228430470D01*
X162400470Y-228557305D01*
X162251328Y-228656958D01*
X162085610Y-228725600D01*
X161909686Y-228760594D01*
X161730314Y-228760594D01*
X161554390Y-228725600D01*
X161388672Y-228656958D01*
X161239530Y-228557305D01*
X161112695Y-228430470D01*
X161013042Y-228281328D01*
X160944400Y-228115610D01*
X160909406Y-227939686D01*
X160905000Y-227850000D01*
X160905000Y-227550000D01*
X160909406Y-227460314D01*
X160944400Y-227284390D01*
X161013042Y-227118672D01*
X161112695Y-226969530D01*
X161239530Y-226842695D01*
X161388672Y-226743042D01*
X161554390Y-226674400D01*
X161730314Y-226639406D01*
X161909686Y-226639406D01*
X162085610Y-226674400D01*
G37*
G36*
X176125610Y-226674400D02*
G01*
X176291328Y-226743042D01*
X176440470Y-226842695D01*
X176567305Y-226969530D01*
X176666958Y-227118672D01*
X176735600Y-227284390D01*
X176770594Y-227460314D01*
X176775000Y-227550000D01*
X176775000Y-227850000D01*
X176770594Y-227939686D01*
X176735600Y-228115610D01*
X176666958Y-228281328D01*
X176567305Y-228430470D01*
X176440470Y-228557305D01*
X176291328Y-228656958D01*
X176125610Y-228725600D01*
X175949686Y-228760594D01*
X175770314Y-228760594D01*
X175594390Y-228725600D01*
X175428672Y-228656958D01*
X175279530Y-228557305D01*
X175152695Y-228430470D01*
X175053042Y-228281328D01*
X174984400Y-228115610D01*
X174949406Y-227939686D01*
X174945000Y-227850000D01*
X174945000Y-227550000D01*
X174949406Y-227460314D01*
X174984400Y-227284390D01*
X175053042Y-227118672D01*
X175152695Y-226969530D01*
X175279530Y-226842695D01*
X175428672Y-226743042D01*
X175594390Y-226674400D01*
X175770314Y-226639406D01*
X175949686Y-226639406D01*
X176125610Y-226674400D01*
G37*
G36*
X178665610Y-226674400D02*
G01*
X178831328Y-226743042D01*
X178980470Y-226842695D01*
X179107305Y-226969530D01*
X179206958Y-227118672D01*
X179275600Y-227284390D01*
X179310594Y-227460314D01*
X179315000Y-227550000D01*
X179315000Y-227850000D01*
X179310594Y-227939686D01*
X179275600Y-228115610D01*
X179206958Y-228281328D01*
X179107305Y-228430470D01*
X178980470Y-228557305D01*
X178831328Y-228656958D01*
X178665610Y-228725600D01*
X178489686Y-228760594D01*
X178310314Y-228760594D01*
X178134390Y-228725600D01*
X177968672Y-228656958D01*
X177819530Y-228557305D01*
X177692695Y-228430470D01*
X177593042Y-228281328D01*
X177524400Y-228115610D01*
X177489406Y-227939686D01*
X177485000Y-227850000D01*
X177485000Y-227550000D01*
X177489406Y-227460314D01*
X177524400Y-227284390D01*
X177593042Y-227118672D01*
X177692695Y-226969530D01*
X177819530Y-226842695D01*
X177968672Y-226743042D01*
X178134390Y-226674400D01*
X178310314Y-226639406D01*
X178489686Y-226639406D01*
X178665610Y-226674400D01*
G37*
G36*
X181205610Y-226674400D02*
G01*
X181371328Y-226743042D01*
X181520470Y-226842695D01*
X181647305Y-226969530D01*
X181746958Y-227118672D01*
X181815600Y-227284390D01*
X181850594Y-227460314D01*
X181855000Y-227550000D01*
X181855000Y-227850000D01*
X181850594Y-227939686D01*
X181815600Y-228115610D01*
X181746958Y-228281328D01*
X181647305Y-228430470D01*
X181520470Y-228557305D01*
X181371328Y-228656958D01*
X181205610Y-228725600D01*
X181029686Y-228760594D01*
X180850314Y-228760594D01*
X180674390Y-228725600D01*
X180508672Y-228656958D01*
X180359530Y-228557305D01*
X180232695Y-228430470D01*
X180133042Y-228281328D01*
X180064400Y-228115610D01*
X180029406Y-227939686D01*
X180025000Y-227850000D01*
X180025000Y-227550000D01*
X180029406Y-227460314D01*
X180064400Y-227284390D01*
X180133042Y-227118672D01*
X180232695Y-226969530D01*
X180359530Y-226842695D01*
X180508672Y-226743042D01*
X180674390Y-226674400D01*
X180850314Y-226639406D01*
X181029686Y-226639406D01*
X181205610Y-226674400D01*
G37*
G36*
X194348858Y-225045133D02*
G01*
X194358316Y-225045133D01*
X194385563Y-225052433D01*
X194454099Y-225066066D01*
X194486448Y-225079465D01*
X194509610Y-225085672D01*
X194530377Y-225097662D01*
X194562722Y-225111060D01*
X194620816Y-225149877D01*
X194645257Y-225163988D01*
X194651946Y-225170677D01*
X194660481Y-225176380D01*
X194743619Y-225259518D01*
X194749321Y-225268052D01*
X194756012Y-225274743D01*
X194770124Y-225299186D01*
X194808939Y-225357277D01*
X194822335Y-225389618D01*
X194834328Y-225410390D01*
X194840535Y-225433555D01*
X194853933Y-225465900D01*
X194867565Y-225534433D01*
X194874867Y-225561684D01*
X194874867Y-225571141D01*
X194876870Y-225581211D01*
X194876870Y-225698788D01*
X194874867Y-225708857D01*
X194874867Y-225718316D01*
X194867564Y-225745569D01*
X194853933Y-225814099D01*
X194840535Y-225846441D01*
X194834328Y-225869610D01*
X194822334Y-225890383D01*
X194808939Y-225922722D01*
X194770128Y-225980805D01*
X194756012Y-226005257D01*
X194749319Y-226011949D01*
X194743619Y-226020481D01*
X194660481Y-226103619D01*
X194651949Y-226109319D01*
X194645257Y-226116012D01*
X194620805Y-226130128D01*
X194562722Y-226168939D01*
X194530383Y-226182334D01*
X194509610Y-226194328D01*
X194486441Y-226200535D01*
X194454099Y-226213933D01*
X194385569Y-226227564D01*
X194358316Y-226234867D01*
X194348858Y-226234867D01*
X194338788Y-226236870D01*
X194221212Y-226236870D01*
X194211142Y-226234867D01*
X194201684Y-226234867D01*
X194174432Y-226227564D01*
X194105900Y-226213933D01*
X194073555Y-226200535D01*
X194050390Y-226194328D01*
X194029618Y-226182335D01*
X193997277Y-226168939D01*
X193939186Y-226130124D01*
X193914743Y-226116012D01*
X193908052Y-226109321D01*
X193899518Y-226103619D01*
X193816380Y-226020481D01*
X193810677Y-226011946D01*
X193803988Y-226005257D01*
X193789877Y-225980816D01*
X193751060Y-225922722D01*
X193737662Y-225890377D01*
X193725672Y-225869610D01*
X193719465Y-225846448D01*
X193706066Y-225814099D01*
X193692433Y-225745563D01*
X193685133Y-225718316D01*
X193685133Y-225708858D01*
X193683130Y-225698788D01*
X193683130Y-225581211D01*
X193685133Y-225571140D01*
X193685133Y-225561684D01*
X193692433Y-225534439D01*
X193706066Y-225465900D01*
X193719466Y-225433548D01*
X193725672Y-225410390D01*
X193737660Y-225389624D01*
X193751060Y-225357277D01*
X193789881Y-225299175D01*
X193803988Y-225274743D01*
X193810675Y-225268055D01*
X193816380Y-225259518D01*
X193899518Y-225176380D01*
X193908055Y-225170675D01*
X193914743Y-225163988D01*
X193939175Y-225149881D01*
X193997277Y-225111060D01*
X194029624Y-225097660D01*
X194050390Y-225085672D01*
X194073548Y-225079466D01*
X194105900Y-225066066D01*
X194174437Y-225052433D01*
X194201684Y-225045133D01*
X194211142Y-225045133D01*
X194221212Y-225043130D01*
X194338788Y-225043130D01*
X194348858Y-225045133D01*
G37*
G36*
X144348858Y-224945133D02*
G01*
X144358316Y-224945133D01*
X144385563Y-224952433D01*
X144454099Y-224966066D01*
X144486448Y-224979465D01*
X144509610Y-224985672D01*
X144530377Y-224997662D01*
X144562722Y-225011060D01*
X144620816Y-225049877D01*
X144645257Y-225063988D01*
X144651946Y-225070677D01*
X144660481Y-225076380D01*
X144743619Y-225159518D01*
X144749321Y-225168052D01*
X144756012Y-225174743D01*
X144770124Y-225199186D01*
X144808939Y-225257277D01*
X144822335Y-225289618D01*
X144834328Y-225310390D01*
X144840535Y-225333555D01*
X144853933Y-225365900D01*
X144867565Y-225434433D01*
X144874867Y-225461684D01*
X144874867Y-225471141D01*
X144876870Y-225481211D01*
X144876870Y-225598788D01*
X144874867Y-225608857D01*
X144874867Y-225618316D01*
X144867564Y-225645569D01*
X144853933Y-225714099D01*
X144840535Y-225746441D01*
X144834328Y-225769610D01*
X144822334Y-225790383D01*
X144808939Y-225822722D01*
X144770128Y-225880805D01*
X144756012Y-225905257D01*
X144749319Y-225911949D01*
X144743619Y-225920481D01*
X144660481Y-226003619D01*
X144651949Y-226009319D01*
X144645257Y-226016012D01*
X144620805Y-226030128D01*
X144562722Y-226068939D01*
X144530383Y-226082334D01*
X144509610Y-226094328D01*
X144486441Y-226100535D01*
X144454099Y-226113933D01*
X144385569Y-226127564D01*
X144358316Y-226134867D01*
X144348858Y-226134867D01*
X144338788Y-226136870D01*
X144221212Y-226136870D01*
X144211142Y-226134867D01*
X144201684Y-226134867D01*
X144174432Y-226127564D01*
X144105900Y-226113933D01*
X144073555Y-226100535D01*
X144050390Y-226094328D01*
X144029618Y-226082335D01*
X143997277Y-226068939D01*
X143939186Y-226030124D01*
X143914743Y-226016012D01*
X143908052Y-226009321D01*
X143899518Y-226003619D01*
X143816380Y-225920481D01*
X143810677Y-225911946D01*
X143803988Y-225905257D01*
X143789877Y-225880816D01*
X143751060Y-225822722D01*
X143737662Y-225790377D01*
X143725672Y-225769610D01*
X143719465Y-225746448D01*
X143706066Y-225714099D01*
X143692433Y-225645563D01*
X143685133Y-225618316D01*
X143685133Y-225608858D01*
X143683130Y-225598788D01*
X143683130Y-225481211D01*
X143685133Y-225471140D01*
X143685133Y-225461684D01*
X143692433Y-225434439D01*
X143706066Y-225365900D01*
X143719466Y-225333548D01*
X143725672Y-225310390D01*
X143737660Y-225289624D01*
X143751060Y-225257277D01*
X143789881Y-225199175D01*
X143803988Y-225174743D01*
X143810675Y-225168055D01*
X143816380Y-225159518D01*
X143899518Y-225076380D01*
X143908055Y-225070675D01*
X143914743Y-225063988D01*
X143939175Y-225049881D01*
X143997277Y-225011060D01*
X144029624Y-224997660D01*
X144050390Y-224985672D01*
X144073548Y-224979466D01*
X144105900Y-224966066D01*
X144174437Y-224952433D01*
X144201684Y-224945133D01*
X144211142Y-224945133D01*
X144221212Y-224943130D01*
X144338788Y-224943130D01*
X144348858Y-224945133D01*
G37*
G36*
X159348858Y-224945133D02*
G01*
X159358316Y-224945133D01*
X159385563Y-224952433D01*
X159454099Y-224966066D01*
X159486448Y-224979465D01*
X159509610Y-224985672D01*
X159530377Y-224997662D01*
X159562722Y-225011060D01*
X159620816Y-225049877D01*
X159645257Y-225063988D01*
X159651946Y-225070677D01*
X159660481Y-225076380D01*
X159743619Y-225159518D01*
X159749321Y-225168052D01*
X159756012Y-225174743D01*
X159770124Y-225199186D01*
X159808939Y-225257277D01*
X159822335Y-225289618D01*
X159834328Y-225310390D01*
X159840535Y-225333555D01*
X159853933Y-225365900D01*
X159867565Y-225434433D01*
X159874867Y-225461684D01*
X159874867Y-225471141D01*
X159876870Y-225481211D01*
X159876870Y-225598788D01*
X159874867Y-225608857D01*
X159874867Y-225618316D01*
X159867564Y-225645569D01*
X159853933Y-225714099D01*
X159840535Y-225746441D01*
X159834328Y-225769610D01*
X159822334Y-225790383D01*
X159808939Y-225822722D01*
X159770128Y-225880805D01*
X159756012Y-225905257D01*
X159749319Y-225911949D01*
X159743619Y-225920481D01*
X159660481Y-226003619D01*
X159651949Y-226009319D01*
X159645257Y-226016012D01*
X159620805Y-226030128D01*
X159562722Y-226068939D01*
X159530383Y-226082334D01*
X159509610Y-226094328D01*
X159486441Y-226100535D01*
X159454099Y-226113933D01*
X159385569Y-226127564D01*
X159358316Y-226134867D01*
X159348858Y-226134867D01*
X159338788Y-226136870D01*
X159221212Y-226136870D01*
X159211142Y-226134867D01*
X159201684Y-226134867D01*
X159174432Y-226127564D01*
X159105900Y-226113933D01*
X159073555Y-226100535D01*
X159050390Y-226094328D01*
X159029618Y-226082335D01*
X158997277Y-226068939D01*
X158939186Y-226030124D01*
X158914743Y-226016012D01*
X158908052Y-226009321D01*
X158899518Y-226003619D01*
X158816380Y-225920481D01*
X158810677Y-225911946D01*
X158803988Y-225905257D01*
X158789877Y-225880816D01*
X158751060Y-225822722D01*
X158737662Y-225790377D01*
X158725672Y-225769610D01*
X158719465Y-225746448D01*
X158706066Y-225714099D01*
X158692433Y-225645563D01*
X158685133Y-225618316D01*
X158685133Y-225608858D01*
X158683130Y-225598788D01*
X158683130Y-225481211D01*
X158685133Y-225471140D01*
X158685133Y-225461684D01*
X158692433Y-225434439D01*
X158706066Y-225365900D01*
X158719466Y-225333548D01*
X158725672Y-225310390D01*
X158737660Y-225289624D01*
X158751060Y-225257277D01*
X158789881Y-225199175D01*
X158803988Y-225174743D01*
X158810675Y-225168055D01*
X158816380Y-225159518D01*
X158899518Y-225076380D01*
X158908055Y-225070675D01*
X158914743Y-225063988D01*
X158939175Y-225049881D01*
X158997277Y-225011060D01*
X159029624Y-224997660D01*
X159050390Y-224985672D01*
X159073548Y-224979466D01*
X159105900Y-224966066D01*
X159174437Y-224952433D01*
X159201684Y-224945133D01*
X159211142Y-224945133D01*
X159221212Y-224943130D01*
X159338788Y-224943130D01*
X159348858Y-224945133D01*
G37*
G36*
X178468858Y-224945133D02*
G01*
X178478316Y-224945133D01*
X178505563Y-224952433D01*
X178574099Y-224966066D01*
X178606448Y-224979465D01*
X178629610Y-224985672D01*
X178650377Y-224997662D01*
X178682722Y-225011060D01*
X178740816Y-225049877D01*
X178765257Y-225063988D01*
X178771946Y-225070677D01*
X178780481Y-225076380D01*
X178863619Y-225159518D01*
X178869321Y-225168052D01*
X178876012Y-225174743D01*
X178890124Y-225199186D01*
X178928939Y-225257277D01*
X178942335Y-225289618D01*
X178954328Y-225310390D01*
X178960535Y-225333555D01*
X178973933Y-225365900D01*
X178987565Y-225434433D01*
X178994867Y-225461684D01*
X178994867Y-225471141D01*
X178996870Y-225481211D01*
X178996870Y-225598788D01*
X178994867Y-225608857D01*
X178994867Y-225618316D01*
X178987564Y-225645569D01*
X178973933Y-225714099D01*
X178960535Y-225746441D01*
X178954328Y-225769610D01*
X178942334Y-225790383D01*
X178928939Y-225822722D01*
X178890128Y-225880805D01*
X178876012Y-225905257D01*
X178869319Y-225911949D01*
X178863619Y-225920481D01*
X178780481Y-226003619D01*
X178771949Y-226009319D01*
X178765257Y-226016012D01*
X178740805Y-226030128D01*
X178682722Y-226068939D01*
X178650383Y-226082334D01*
X178629610Y-226094328D01*
X178606441Y-226100535D01*
X178574099Y-226113933D01*
X178505569Y-226127564D01*
X178478316Y-226134867D01*
X178468858Y-226134867D01*
X178458788Y-226136870D01*
X178341212Y-226136870D01*
X178331142Y-226134867D01*
X178321684Y-226134867D01*
X178294432Y-226127564D01*
X178225900Y-226113933D01*
X178193555Y-226100535D01*
X178170390Y-226094328D01*
X178149618Y-226082335D01*
X178117277Y-226068939D01*
X178059186Y-226030124D01*
X178034743Y-226016012D01*
X178028052Y-226009321D01*
X178019518Y-226003619D01*
X177936380Y-225920481D01*
X177930677Y-225911946D01*
X177923988Y-225905257D01*
X177909877Y-225880816D01*
X177871060Y-225822722D01*
X177857662Y-225790377D01*
X177845672Y-225769610D01*
X177839465Y-225746448D01*
X177826066Y-225714099D01*
X177812433Y-225645563D01*
X177805133Y-225618316D01*
X177805133Y-225608858D01*
X177803130Y-225598788D01*
X177803130Y-225481211D01*
X177805133Y-225471140D01*
X177805133Y-225461684D01*
X177812433Y-225434439D01*
X177826066Y-225365900D01*
X177839466Y-225333548D01*
X177845672Y-225310390D01*
X177857660Y-225289624D01*
X177871060Y-225257277D01*
X177909881Y-225199175D01*
X177923988Y-225174743D01*
X177930675Y-225168055D01*
X177936380Y-225159518D01*
X178019518Y-225076380D01*
X178028055Y-225070675D01*
X178034743Y-225063988D01*
X178059175Y-225049881D01*
X178117277Y-225011060D01*
X178149624Y-224997660D01*
X178170390Y-224985672D01*
X178193548Y-224979466D01*
X178225900Y-224966066D01*
X178294437Y-224952433D01*
X178321684Y-224945133D01*
X178331142Y-224945133D01*
X178341212Y-224943130D01*
X178458788Y-224943130D01*
X178468858Y-224945133D01*
G37*
G36*
X174493685Y-220057969D02*
G01*
X174502358Y-220061798D01*
X174509925Y-220062901D01*
X174557223Y-220086023D01*
X174594541Y-220102501D01*
X174597996Y-220105956D01*
X174598920Y-220106408D01*
X174668591Y-220176079D01*
X174669042Y-220177002D01*
X174672499Y-220180459D01*
X174688978Y-220217782D01*
X174712098Y-220265073D01*
X174713200Y-220272639D01*
X174717031Y-220281315D01*
X174725000Y-220350000D01*
X174725000Y-221150000D01*
X174717031Y-221218685D01*
X174713199Y-221227361D01*
X174712098Y-221234925D01*
X174688985Y-221282202D01*
X174672499Y-221319541D01*
X174669041Y-221322998D01*
X174668591Y-221323920D01*
X174598920Y-221393591D01*
X174597998Y-221394041D01*
X174594541Y-221397499D01*
X174557207Y-221413983D01*
X174509926Y-221437098D01*
X174502361Y-221438200D01*
X174493685Y-221442031D01*
X174425000Y-221450000D01*
X173175000Y-221450000D01*
X173106315Y-221442031D01*
X173097638Y-221438200D01*
X173090074Y-221437098D01*
X173042787Y-221413981D01*
X173005459Y-221397499D01*
X173002002Y-221394042D01*
X173001079Y-221393591D01*
X172931408Y-221323920D01*
X172930956Y-221322996D01*
X172927501Y-221319541D01*
X172911025Y-221282228D01*
X172887901Y-221234926D01*
X172886798Y-221227357D01*
X172882969Y-221218685D01*
X172875000Y-221150000D01*
X172875000Y-220350000D01*
X172882969Y-220281315D01*
X172886798Y-220272642D01*
X172887901Y-220265074D01*
X172911028Y-220217766D01*
X172927501Y-220180459D01*
X172930955Y-220177004D01*
X172931408Y-220176079D01*
X173001079Y-220106408D01*
X173002004Y-220105955D01*
X173005459Y-220102501D01*
X173042761Y-220086030D01*
X173090073Y-220062901D01*
X173097642Y-220061798D01*
X173106315Y-220057969D01*
X173175000Y-220050000D01*
X174425000Y-220050000D01*
X174493685Y-220057969D01*
G37*
G36*
X169843685Y-218807969D02*
G01*
X169852358Y-218811798D01*
X169859925Y-218812901D01*
X169907223Y-218836023D01*
X169944541Y-218852501D01*
X169947996Y-218855956D01*
X169948920Y-218856408D01*
X170018591Y-218926079D01*
X170019042Y-218927002D01*
X170022499Y-218930459D01*
X170038978Y-218967782D01*
X170062098Y-219015073D01*
X170063200Y-219022639D01*
X170067031Y-219031315D01*
X170075000Y-219100000D01*
X170075000Y-219775000D01*
X170067031Y-219843685D01*
X170063199Y-219852361D01*
X170062098Y-219859925D01*
X170038985Y-219907202D01*
X170022499Y-219944541D01*
X170019041Y-219947998D01*
X170018591Y-219948920D01*
X169948920Y-220018591D01*
X169947998Y-220019041D01*
X169944541Y-220022499D01*
X169907207Y-220038983D01*
X169859926Y-220062098D01*
X169852361Y-220063200D01*
X169843685Y-220067031D01*
X169775000Y-220075000D01*
X168825000Y-220075000D01*
X168756315Y-220067031D01*
X168747638Y-220063200D01*
X168740074Y-220062098D01*
X168692787Y-220038981D01*
X168655459Y-220022499D01*
X168652002Y-220019042D01*
X168651079Y-220018591D01*
X168581408Y-219948920D01*
X168580956Y-219947996D01*
X168577501Y-219944541D01*
X168561025Y-219907228D01*
X168537901Y-219859926D01*
X168536798Y-219852357D01*
X168532969Y-219843685D01*
X168525000Y-219775000D01*
X168525000Y-219100000D01*
X168532969Y-219031315D01*
X168536798Y-219022642D01*
X168537901Y-219015074D01*
X168561028Y-218967766D01*
X168577501Y-218930459D01*
X168580955Y-218927004D01*
X168581408Y-218926079D01*
X168651079Y-218856408D01*
X168652004Y-218855955D01*
X168655459Y-218852501D01*
X168692761Y-218836030D01*
X168740073Y-218812901D01*
X168747642Y-218811798D01*
X168756315Y-218807969D01*
X168825000Y-218800000D01*
X169775000Y-218800000D01*
X169843685Y-218807969D01*
G37*
G36*
X172193685Y-217757969D02*
G01*
X172202358Y-217761798D01*
X172209925Y-217762901D01*
X172257223Y-217786023D01*
X172294541Y-217802501D01*
X172297996Y-217805956D01*
X172298920Y-217806408D01*
X172368591Y-217876079D01*
X172369042Y-217877002D01*
X172372499Y-217880459D01*
X172388978Y-217917782D01*
X172412098Y-217965073D01*
X172413200Y-217972639D01*
X172417031Y-217981315D01*
X172425000Y-218050000D01*
X172425000Y-218850000D01*
X172417031Y-218918685D01*
X172413199Y-218927361D01*
X172412098Y-218934925D01*
X172388985Y-218982202D01*
X172372499Y-219019541D01*
X172369041Y-219022998D01*
X172368591Y-219023920D01*
X172298920Y-219093591D01*
X172297998Y-219094041D01*
X172294541Y-219097499D01*
X172257207Y-219113983D01*
X172209926Y-219137098D01*
X172202361Y-219138200D01*
X172193685Y-219142031D01*
X172125000Y-219150000D01*
X170875000Y-219150000D01*
X170806315Y-219142031D01*
X170797638Y-219138200D01*
X170790074Y-219137098D01*
X170742787Y-219113981D01*
X170705459Y-219097499D01*
X170702002Y-219094042D01*
X170701079Y-219093591D01*
X170631408Y-219023920D01*
X170630956Y-219022996D01*
X170627501Y-219019541D01*
X170611025Y-218982228D01*
X170587901Y-218934926D01*
X170586798Y-218927357D01*
X170582969Y-218918685D01*
X170575000Y-218850000D01*
X170575000Y-218050000D01*
X170582969Y-217981315D01*
X170586798Y-217972642D01*
X170587901Y-217965074D01*
X170611028Y-217917766D01*
X170627501Y-217880459D01*
X170630955Y-217877004D01*
X170631408Y-217876079D01*
X170701079Y-217806408D01*
X170702004Y-217805955D01*
X170705459Y-217802501D01*
X170742761Y-217786030D01*
X170790073Y-217762901D01*
X170797642Y-217761798D01*
X170806315Y-217757969D01*
X170875000Y-217750000D01*
X172125000Y-217750000D01*
X172193685Y-217757969D01*
G37*
G36*
X174493685Y-216957969D02*
G01*
X174502358Y-216961798D01*
X174509925Y-216962901D01*
X174557223Y-216986023D01*
X174594541Y-217002501D01*
X174597996Y-217005956D01*
X174598920Y-217006408D01*
X174668591Y-217076079D01*
X174669042Y-217077002D01*
X174672499Y-217080459D01*
X174688978Y-217117782D01*
X174712098Y-217165073D01*
X174713200Y-217172639D01*
X174717031Y-217181315D01*
X174725000Y-217250000D01*
X174725000Y-218050000D01*
X174717031Y-218118685D01*
X174713199Y-218127361D01*
X174712098Y-218134925D01*
X174688985Y-218182202D01*
X174672499Y-218219541D01*
X174669041Y-218222998D01*
X174668591Y-218223920D01*
X174598920Y-218293591D01*
X174597998Y-218294041D01*
X174594541Y-218297499D01*
X174557207Y-218313983D01*
X174509926Y-218337098D01*
X174502361Y-218338200D01*
X174493685Y-218342031D01*
X174425000Y-218350000D01*
X173175000Y-218350000D01*
X173106315Y-218342031D01*
X173097638Y-218338200D01*
X173090074Y-218337098D01*
X173042787Y-218313981D01*
X173005459Y-218297499D01*
X173002002Y-218294042D01*
X173001079Y-218293591D01*
X172931408Y-218223920D01*
X172930956Y-218222996D01*
X172927501Y-218219541D01*
X172911025Y-218182228D01*
X172887901Y-218134926D01*
X172886798Y-218127357D01*
X172882969Y-218118685D01*
X172875000Y-218050000D01*
X172875000Y-217250000D01*
X172882969Y-217181315D01*
X172886798Y-217172642D01*
X172887901Y-217165074D01*
X172911028Y-217117766D01*
X172927501Y-217080459D01*
X172930955Y-217077004D01*
X172931408Y-217076079D01*
X173001079Y-217006408D01*
X173002004Y-217005955D01*
X173005459Y-217002501D01*
X173042761Y-216986030D01*
X173090073Y-216962901D01*
X173097642Y-216961798D01*
X173106315Y-216957969D01*
X173175000Y-216950000D01*
X174425000Y-216950000D01*
X174493685Y-216957969D01*
G37*
G36*
X169843685Y-216732969D02*
G01*
X169852358Y-216736798D01*
X169859925Y-216737901D01*
X169907223Y-216761023D01*
X169944541Y-216777501D01*
X169947996Y-216780956D01*
X169948920Y-216781408D01*
X170018591Y-216851079D01*
X170019042Y-216852002D01*
X170022499Y-216855459D01*
X170038978Y-216892782D01*
X170062098Y-216940073D01*
X170063200Y-216947639D01*
X170067031Y-216956315D01*
X170075000Y-217025000D01*
X170075000Y-217700000D01*
X170067031Y-217768685D01*
X170063199Y-217777361D01*
X170062098Y-217784925D01*
X170038985Y-217832202D01*
X170022499Y-217869541D01*
X170019041Y-217872998D01*
X170018591Y-217873920D01*
X169948920Y-217943591D01*
X169947998Y-217944041D01*
X169944541Y-217947499D01*
X169907207Y-217963983D01*
X169859926Y-217987098D01*
X169852361Y-217988200D01*
X169843685Y-217992031D01*
X169775000Y-218000000D01*
X168825000Y-218000000D01*
X168756315Y-217992031D01*
X168747638Y-217988200D01*
X168740074Y-217987098D01*
X168692787Y-217963981D01*
X168655459Y-217947499D01*
X168652002Y-217944042D01*
X168651079Y-217943591D01*
X168581408Y-217873920D01*
X168580956Y-217872996D01*
X168577501Y-217869541D01*
X168561025Y-217832228D01*
X168537901Y-217784926D01*
X168536798Y-217777357D01*
X168532969Y-217768685D01*
X168525000Y-217700000D01*
X168525000Y-217025000D01*
X168532969Y-216956315D01*
X168536798Y-216947642D01*
X168537901Y-216940074D01*
X168561028Y-216892766D01*
X168577501Y-216855459D01*
X168580955Y-216852004D01*
X168581408Y-216851079D01*
X168651079Y-216781408D01*
X168652004Y-216780955D01*
X168655459Y-216777501D01*
X168692761Y-216761030D01*
X168740073Y-216737901D01*
X168747642Y-216736798D01*
X168756315Y-216732969D01*
X168825000Y-216725000D01*
X169775000Y-216725000D01*
X169843685Y-216732969D01*
G37*
G36*
X172193685Y-214657969D02*
G01*
X172202358Y-214661798D01*
X172209925Y-214662901D01*
X172257223Y-214686023D01*
X172294541Y-214702501D01*
X172297996Y-214705956D01*
X172298920Y-214706408D01*
X172368591Y-214776079D01*
X172369042Y-214777002D01*
X172372499Y-214780459D01*
X172388978Y-214817782D01*
X172412098Y-214865073D01*
X172413200Y-214872639D01*
X172417031Y-214881315D01*
X172425000Y-214950000D01*
X172425000Y-215750000D01*
X172417031Y-215818685D01*
X172413199Y-215827361D01*
X172412098Y-215834925D01*
X172388985Y-215882202D01*
X172372499Y-215919541D01*
X172369041Y-215922998D01*
X172368591Y-215923920D01*
X172298920Y-215993591D01*
X172297998Y-215994041D01*
X172294541Y-215997499D01*
X172257207Y-216013983D01*
X172209926Y-216037098D01*
X172202361Y-216038200D01*
X172193685Y-216042031D01*
X172125000Y-216050000D01*
X170875000Y-216050000D01*
X170806315Y-216042031D01*
X170797638Y-216038200D01*
X170790074Y-216037098D01*
X170742787Y-216013981D01*
X170705459Y-215997499D01*
X170702002Y-215994042D01*
X170701079Y-215993591D01*
X170631408Y-215923920D01*
X170630956Y-215922996D01*
X170627501Y-215919541D01*
X170611025Y-215882228D01*
X170587901Y-215834926D01*
X170586798Y-215827357D01*
X170582969Y-215818685D01*
X170575000Y-215750000D01*
X170575000Y-214950000D01*
X170582969Y-214881315D01*
X170586798Y-214872642D01*
X170587901Y-214865074D01*
X170611028Y-214817766D01*
X170627501Y-214780459D01*
X170630955Y-214777004D01*
X170631408Y-214776079D01*
X170701079Y-214706408D01*
X170702004Y-214705955D01*
X170705459Y-214702501D01*
X170742761Y-214686030D01*
X170790073Y-214662901D01*
X170797642Y-214661798D01*
X170806315Y-214657969D01*
X170875000Y-214650000D01*
X172125000Y-214650000D01*
X172193685Y-214657969D01*
G37*
G36*
X168818685Y-212282969D02*
G01*
X168827358Y-212286798D01*
X168834925Y-212287901D01*
X168882223Y-212311023D01*
X168919541Y-212327501D01*
X168922996Y-212330956D01*
X168923920Y-212331408D01*
X168993591Y-212401079D01*
X168994042Y-212402002D01*
X168997499Y-212405459D01*
X169013978Y-212442782D01*
X169037098Y-212490073D01*
X169038200Y-212497639D01*
X169042031Y-212506315D01*
X169050000Y-212575000D01*
X169050000Y-213825000D01*
X169042031Y-213893685D01*
X169038199Y-213902361D01*
X169037098Y-213909925D01*
X169013985Y-213957202D01*
X168997499Y-213994541D01*
X168994041Y-213997998D01*
X168993591Y-213998920D01*
X168923920Y-214068591D01*
X168922998Y-214069041D01*
X168919541Y-214072499D01*
X168882207Y-214088983D01*
X168834926Y-214112098D01*
X168827361Y-214113200D01*
X168818685Y-214117031D01*
X168750000Y-214125000D01*
X167950000Y-214125000D01*
X167881315Y-214117031D01*
X167872638Y-214113200D01*
X167865074Y-214112098D01*
X167817787Y-214088981D01*
X167780459Y-214072499D01*
X167777002Y-214069042D01*
X167776079Y-214068591D01*
X167706408Y-213998920D01*
X167705956Y-213997996D01*
X167702501Y-213994541D01*
X167686025Y-213957228D01*
X167662901Y-213909926D01*
X167661798Y-213902357D01*
X167657969Y-213893685D01*
X167650000Y-213825000D01*
X167650000Y-212575000D01*
X167657969Y-212506315D01*
X167661798Y-212497642D01*
X167662901Y-212490074D01*
X167686028Y-212442766D01*
X167702501Y-212405459D01*
X167705955Y-212402004D01*
X167706408Y-212401079D01*
X167776079Y-212331408D01*
X167777004Y-212330955D01*
X167780459Y-212327501D01*
X167817761Y-212311030D01*
X167865073Y-212287901D01*
X167872642Y-212286798D01*
X167881315Y-212282969D01*
X167950000Y-212275000D01*
X168750000Y-212275000D01*
X168818685Y-212282969D01*
G37*
G36*
X171918685Y-212282969D02*
G01*
X171927358Y-212286798D01*
X171934925Y-212287901D01*
X171982223Y-212311023D01*
X172019541Y-212327501D01*
X172022996Y-212330956D01*
X172023920Y-212331408D01*
X172093591Y-212401079D01*
X172094042Y-212402002D01*
X172097499Y-212405459D01*
X172113978Y-212442782D01*
X172137098Y-212490073D01*
X172138200Y-212497639D01*
X172142031Y-212506315D01*
X172150000Y-212575000D01*
X172150000Y-213825000D01*
X172142031Y-213893685D01*
X172138199Y-213902361D01*
X172137098Y-213909925D01*
X172113985Y-213957202D01*
X172097499Y-213994541D01*
X172094041Y-213997998D01*
X172093591Y-213998920D01*
X172023920Y-214068591D01*
X172022998Y-214069041D01*
X172019541Y-214072499D01*
X171982207Y-214088983D01*
X171934926Y-214112098D01*
X171927361Y-214113200D01*
X171918685Y-214117031D01*
X171850000Y-214125000D01*
X171050000Y-214125000D01*
X170981315Y-214117031D01*
X170972638Y-214113200D01*
X170965074Y-214112098D01*
X170917787Y-214088981D01*
X170880459Y-214072499D01*
X170877002Y-214069042D01*
X170876079Y-214068591D01*
X170806408Y-213998920D01*
X170805956Y-213997996D01*
X170802501Y-213994541D01*
X170786025Y-213957228D01*
X170762901Y-213909926D01*
X170761798Y-213902357D01*
X170757969Y-213893685D01*
X170750000Y-213825000D01*
X170750000Y-212575000D01*
X170757969Y-212506315D01*
X170761798Y-212497642D01*
X170762901Y-212490074D01*
X170786028Y-212442766D01*
X170802501Y-212405459D01*
X170805955Y-212402004D01*
X170806408Y-212401079D01*
X170876079Y-212331408D01*
X170877004Y-212330955D01*
X170880459Y-212327501D01*
X170917761Y-212311030D01*
X170965073Y-212287901D01*
X170972642Y-212286798D01*
X170981315Y-212282969D01*
X171050000Y-212275000D01*
X171850000Y-212275000D01*
X171918685Y-212282969D01*
G37*
G36*
X140986256Y-208928754D02*
G01*
X141149257Y-208996271D01*
X141295954Y-209094291D01*
X141420709Y-209219046D01*
X141518729Y-209365743D01*
X141586246Y-209528744D01*
X141620666Y-209701785D01*
X141620666Y-209878215D01*
X141586246Y-210051256D01*
X141518729Y-210214257D01*
X141420709Y-210360954D01*
X141295954Y-210485709D01*
X141149257Y-210583729D01*
X140986256Y-210651246D01*
X140813215Y-210685666D01*
X140636785Y-210685666D01*
X140463744Y-210651246D01*
X140300743Y-210583729D01*
X140154046Y-210485709D01*
X140029291Y-210360954D01*
X139931271Y-210214257D01*
X139863754Y-210051256D01*
X139829334Y-209878215D01*
X139829334Y-209701785D01*
X139863754Y-209528744D01*
X139931271Y-209365743D01*
X140029291Y-209219046D01*
X140154046Y-209094291D01*
X140300743Y-208996271D01*
X140463744Y-208928754D01*
X140636785Y-208894334D01*
X140813215Y-208894334D01*
X140986256Y-208928754D01*
G37*
G36*
X141594134Y-206353806D02*
G01*
X141610355Y-206364645D01*
X141621194Y-206380866D01*
X141625000Y-206400000D01*
X141625000Y-208100000D01*
X141621194Y-208119134D01*
X141610355Y-208135355D01*
X141594134Y-208146194D01*
X141575000Y-208150000D01*
X139875000Y-208150000D01*
X139855866Y-208146194D01*
X139839645Y-208135355D01*
X139828806Y-208119134D01*
X139825000Y-208100000D01*
X139825000Y-206400000D01*
X139828806Y-206380866D01*
X139839645Y-206364645D01*
X139855866Y-206353806D01*
X139875000Y-206350000D01*
X141575000Y-206350000D01*
X141594134Y-206353806D01*
G37*
G36*
X165133939Y-204976642D02*
G01*
X165213067Y-205022326D01*
X165277674Y-205086933D01*
X165323358Y-205166061D01*
X165347006Y-205254316D01*
X165347006Y-205345684D01*
X165323358Y-205433939D01*
X165277674Y-205513067D01*
X165213067Y-205577674D01*
X165133939Y-205623358D01*
X165045684Y-205647006D01*
X164954316Y-205647006D01*
X164866061Y-205623358D01*
X164786933Y-205577674D01*
X164722326Y-205513067D01*
X164676642Y-205433939D01*
X164652994Y-205345684D01*
X164652994Y-205254316D01*
X164676642Y-205166061D01*
X164722326Y-205086933D01*
X164786933Y-205022326D01*
X164866061Y-204976642D01*
X164954316Y-204952994D01*
X165045684Y-204952994D01*
X165133939Y-204976642D01*
G37*
G36*
X166133939Y-204976642D02*
G01*
X166213067Y-205022326D01*
X166277674Y-205086933D01*
X166323358Y-205166061D01*
X166347006Y-205254316D01*
X166347006Y-205345684D01*
X166323358Y-205433939D01*
X166277674Y-205513067D01*
X166213067Y-205577674D01*
X166133939Y-205623358D01*
X166045684Y-205647006D01*
X165954316Y-205647006D01*
X165866061Y-205623358D01*
X165786933Y-205577674D01*
X165722326Y-205513067D01*
X165676642Y-205433939D01*
X165652994Y-205345684D01*
X165652994Y-205254316D01*
X165676642Y-205166061D01*
X165722326Y-205086933D01*
X165786933Y-205022326D01*
X165866061Y-204976642D01*
X165954316Y-204952994D01*
X166045684Y-204952994D01*
X166133939Y-204976642D01*
G37*
G36*
X167133939Y-204976642D02*
G01*
X167213067Y-205022326D01*
X167277674Y-205086933D01*
X167323358Y-205166061D01*
X167347006Y-205254316D01*
X167347006Y-205345684D01*
X167323358Y-205433939D01*
X167277674Y-205513067D01*
X167213067Y-205577674D01*
X167133939Y-205623358D01*
X167045684Y-205647006D01*
X166954316Y-205647006D01*
X166866061Y-205623358D01*
X166786933Y-205577674D01*
X166722326Y-205513067D01*
X166676642Y-205433939D01*
X166652994Y-205345684D01*
X166652994Y-205254316D01*
X166676642Y-205166061D01*
X166722326Y-205086933D01*
X166786933Y-205022326D01*
X166866061Y-204976642D01*
X166954316Y-204952994D01*
X167045684Y-204952994D01*
X167133939Y-204976642D01*
G37*
G36*
X168133939Y-204976642D02*
G01*
X168213067Y-205022326D01*
X168277674Y-205086933D01*
X168323358Y-205166061D01*
X168347006Y-205254316D01*
X168347006Y-205345684D01*
X168323358Y-205433939D01*
X168277674Y-205513067D01*
X168213067Y-205577674D01*
X168133939Y-205623358D01*
X168045684Y-205647006D01*
X167954316Y-205647006D01*
X167866061Y-205623358D01*
X167786933Y-205577674D01*
X167722326Y-205513067D01*
X167676642Y-205433939D01*
X167652994Y-205345684D01*
X167652994Y-205254316D01*
X167676642Y-205166061D01*
X167722326Y-205086933D01*
X167786933Y-205022326D01*
X167866061Y-204976642D01*
X167954316Y-204952994D01*
X168045684Y-204952994D01*
X168133939Y-204976642D01*
G37*
G36*
X169133939Y-204976642D02*
G01*
X169213067Y-205022326D01*
X169277674Y-205086933D01*
X169323358Y-205166061D01*
X169347006Y-205254316D01*
X169347006Y-205345684D01*
X169323358Y-205433939D01*
X169277674Y-205513067D01*
X169213067Y-205577674D01*
X169133939Y-205623358D01*
X169045684Y-205647006D01*
X168954316Y-205647006D01*
X168866061Y-205623358D01*
X168786933Y-205577674D01*
X168722326Y-205513067D01*
X168676642Y-205433939D01*
X168652994Y-205345684D01*
X168652994Y-205254316D01*
X168676642Y-205166061D01*
X168722326Y-205086933D01*
X168786933Y-205022326D01*
X168866061Y-204976642D01*
X168954316Y-204952994D01*
X169045684Y-204952994D01*
X169133939Y-204976642D01*
G37*
G36*
X165133939Y-203976642D02*
G01*
X165213067Y-204022326D01*
X165277674Y-204086933D01*
X165323358Y-204166061D01*
X165347006Y-204254316D01*
X165347006Y-204345684D01*
X165323358Y-204433939D01*
X165277674Y-204513067D01*
X165213067Y-204577674D01*
X165133939Y-204623358D01*
X165045684Y-204647006D01*
X164954316Y-204647006D01*
X164866061Y-204623358D01*
X164786933Y-204577674D01*
X164722326Y-204513067D01*
X164676642Y-204433939D01*
X164652994Y-204345684D01*
X164652994Y-204254316D01*
X164676642Y-204166061D01*
X164722326Y-204086933D01*
X164786933Y-204022326D01*
X164866061Y-203976642D01*
X164954316Y-203952994D01*
X165045684Y-203952994D01*
X165133939Y-203976642D01*
G37*
G36*
X166133939Y-203976642D02*
G01*
X166213067Y-204022326D01*
X166277674Y-204086933D01*
X166323358Y-204166061D01*
X166347006Y-204254316D01*
X166347006Y-204345684D01*
X166323358Y-204433939D01*
X166277674Y-204513067D01*
X166213067Y-204577674D01*
X166133939Y-204623358D01*
X166045684Y-204647006D01*
X165954316Y-204647006D01*
X165866061Y-204623358D01*
X165786933Y-204577674D01*
X165722326Y-204513067D01*
X165676642Y-204433939D01*
X165652994Y-204345684D01*
X165652994Y-204254316D01*
X165676642Y-204166061D01*
X165722326Y-204086933D01*
X165786933Y-204022326D01*
X165866061Y-203976642D01*
X165954316Y-203952994D01*
X166045684Y-203952994D01*
X166133939Y-203976642D01*
G37*
G36*
X167133939Y-203976642D02*
G01*
X167213067Y-204022326D01*
X167277674Y-204086933D01*
X167323358Y-204166061D01*
X167347006Y-204254316D01*
X167347006Y-204345684D01*
X167323358Y-204433939D01*
X167277674Y-204513067D01*
X167213067Y-204577674D01*
X167133939Y-204623358D01*
X167045684Y-204647006D01*
X166954316Y-204647006D01*
X166866061Y-204623358D01*
X166786933Y-204577674D01*
X166722326Y-204513067D01*
X166676642Y-204433939D01*
X166652994Y-204345684D01*
X166652994Y-204254316D01*
X166676642Y-204166061D01*
X166722326Y-204086933D01*
X166786933Y-204022326D01*
X166866061Y-203976642D01*
X166954316Y-203952994D01*
X167045684Y-203952994D01*
X167133939Y-203976642D01*
G37*
G36*
X168133939Y-203976642D02*
G01*
X168213067Y-204022326D01*
X168277674Y-204086933D01*
X168323358Y-204166061D01*
X168347006Y-204254316D01*
X168347006Y-204345684D01*
X168323358Y-204433939D01*
X168277674Y-204513067D01*
X168213067Y-204577674D01*
X168133939Y-204623358D01*
X168045684Y-204647006D01*
X167954316Y-204647006D01*
X167866061Y-204623358D01*
X167786933Y-204577674D01*
X167722326Y-204513067D01*
X167676642Y-204433939D01*
X167652994Y-204345684D01*
X167652994Y-204254316D01*
X167676642Y-204166061D01*
X167722326Y-204086933D01*
X167786933Y-204022326D01*
X167866061Y-203976642D01*
X167954316Y-203952994D01*
X168045684Y-203952994D01*
X168133939Y-203976642D01*
G37*
G36*
X169133939Y-203976642D02*
G01*
X169213067Y-204022326D01*
X169277674Y-204086933D01*
X169323358Y-204166061D01*
X169347006Y-204254316D01*
X169347006Y-204345684D01*
X169323358Y-204433939D01*
X169277674Y-204513067D01*
X169213067Y-204577674D01*
X169133939Y-204623358D01*
X169045684Y-204647006D01*
X168954316Y-204647006D01*
X168866061Y-204623358D01*
X168786933Y-204577674D01*
X168722326Y-204513067D01*
X168676642Y-204433939D01*
X168652994Y-204345684D01*
X168652994Y-204254316D01*
X168676642Y-204166061D01*
X168722326Y-204086933D01*
X168786933Y-204022326D01*
X168866061Y-203976642D01*
X168954316Y-203952994D01*
X169045684Y-203952994D01*
X169133939Y-203976642D01*
G37*
G36*
X165133939Y-202976642D02*
G01*
X165213067Y-203022326D01*
X165277674Y-203086933D01*
X165323358Y-203166061D01*
X165347006Y-203254316D01*
X165347006Y-203345684D01*
X165323358Y-203433939D01*
X165277674Y-203513067D01*
X165213067Y-203577674D01*
X165133939Y-203623358D01*
X165045684Y-203647006D01*
X164954316Y-203647006D01*
X164866061Y-203623358D01*
X164786933Y-203577674D01*
X164722326Y-203513067D01*
X164676642Y-203433939D01*
X164652994Y-203345684D01*
X164652994Y-203254316D01*
X164676642Y-203166061D01*
X164722326Y-203086933D01*
X164786933Y-203022326D01*
X164866061Y-202976642D01*
X164954316Y-202952994D01*
X165045684Y-202952994D01*
X165133939Y-202976642D01*
G37*
G36*
X166133939Y-202976642D02*
G01*
X166213067Y-203022326D01*
X166277674Y-203086933D01*
X166323358Y-203166061D01*
X166347006Y-203254316D01*
X166347006Y-203345684D01*
X166323358Y-203433939D01*
X166277674Y-203513067D01*
X166213067Y-203577674D01*
X166133939Y-203623358D01*
X166045684Y-203647006D01*
X165954316Y-203647006D01*
X165866061Y-203623358D01*
X165786933Y-203577674D01*
X165722326Y-203513067D01*
X165676642Y-203433939D01*
X165652994Y-203345684D01*
X165652994Y-203254316D01*
X165676642Y-203166061D01*
X165722326Y-203086933D01*
X165786933Y-203022326D01*
X165866061Y-202976642D01*
X165954316Y-202952994D01*
X166045684Y-202952994D01*
X166133939Y-202976642D01*
G37*
G36*
X167133939Y-202976642D02*
G01*
X167213067Y-203022326D01*
X167277674Y-203086933D01*
X167323358Y-203166061D01*
X167347006Y-203254316D01*
X167347006Y-203345684D01*
X167323358Y-203433939D01*
X167277674Y-203513067D01*
X167213067Y-203577674D01*
X167133939Y-203623358D01*
X167045684Y-203647006D01*
X166954316Y-203647006D01*
X166866061Y-203623358D01*
X166786933Y-203577674D01*
X166722326Y-203513067D01*
X166676642Y-203433939D01*
X166652994Y-203345684D01*
X166652994Y-203254316D01*
X166676642Y-203166061D01*
X166722326Y-203086933D01*
X166786933Y-203022326D01*
X166866061Y-202976642D01*
X166954316Y-202952994D01*
X167045684Y-202952994D01*
X167133939Y-202976642D01*
G37*
G36*
X168133939Y-202976642D02*
G01*
X168213067Y-203022326D01*
X168277674Y-203086933D01*
X168323358Y-203166061D01*
X168347006Y-203254316D01*
X168347006Y-203345684D01*
X168323358Y-203433939D01*
X168277674Y-203513067D01*
X168213067Y-203577674D01*
X168133939Y-203623358D01*
X168045684Y-203647006D01*
X167954316Y-203647006D01*
X167866061Y-203623358D01*
X167786933Y-203577674D01*
X167722326Y-203513067D01*
X167676642Y-203433939D01*
X167652994Y-203345684D01*
X167652994Y-203254316D01*
X167676642Y-203166061D01*
X167722326Y-203086933D01*
X167786933Y-203022326D01*
X167866061Y-202976642D01*
X167954316Y-202952994D01*
X168045684Y-202952994D01*
X168133939Y-202976642D01*
G37*
G36*
X169133939Y-202976642D02*
G01*
X169213067Y-203022326D01*
X169277674Y-203086933D01*
X169323358Y-203166061D01*
X169347006Y-203254316D01*
X169347006Y-203345684D01*
X169323358Y-203433939D01*
X169277674Y-203513067D01*
X169213067Y-203577674D01*
X169133939Y-203623358D01*
X169045684Y-203647006D01*
X168954316Y-203647006D01*
X168866061Y-203623358D01*
X168786933Y-203577674D01*
X168722326Y-203513067D01*
X168676642Y-203433939D01*
X168652994Y-203345684D01*
X168652994Y-203254316D01*
X168676642Y-203166061D01*
X168722326Y-203086933D01*
X168786933Y-203022326D01*
X168866061Y-202976642D01*
X168954316Y-202952994D01*
X169045684Y-202952994D01*
X169133939Y-202976642D01*
G37*
G36*
X158564034Y-178780764D02*
G01*
X158597125Y-178802875D01*
X158619236Y-178835966D01*
X158627000Y-178875000D01*
X158627000Y-181725000D01*
X158619236Y-181764034D01*
X158597125Y-181797125D01*
X158564034Y-181819236D01*
X158525000Y-181827000D01*
X155675000Y-181827000D01*
X155635966Y-181819236D01*
X155602875Y-181797125D01*
X155580764Y-181764034D01*
X155573000Y-181725000D01*
X155573000Y-178875000D01*
X155580764Y-178835966D01*
X155602875Y-178802875D01*
X155635966Y-178780764D01*
X155675000Y-178773000D01*
X158525000Y-178773000D01*
X158564034Y-178780764D01*
G37*
G36*
X151319455Y-173422553D02*
G01*
X151456376Y-173479268D01*
X151579601Y-173561604D01*
X151684396Y-173666399D01*
X151766732Y-173789624D01*
X151823447Y-173926545D01*
X151852360Y-174071899D01*
X151856000Y-174146000D01*
X151856000Y-175454000D01*
X151852360Y-175528101D01*
X151823447Y-175673455D01*
X151766732Y-175810376D01*
X151684396Y-175933601D01*
X151579601Y-176038396D01*
X151456376Y-176120732D01*
X151319455Y-176177447D01*
X151174101Y-176206360D01*
X151025899Y-176206360D01*
X150880545Y-176177447D01*
X150743624Y-176120732D01*
X150620399Y-176038396D01*
X150515604Y-175933601D01*
X150433268Y-175810376D01*
X150376553Y-175673455D01*
X150347640Y-175528101D01*
X150344000Y-175454000D01*
X150344000Y-174146000D01*
X150347640Y-174071899D01*
X150376553Y-173926545D01*
X150433268Y-173789624D01*
X150515604Y-173666399D01*
X150620399Y-173561604D01*
X150743624Y-173479268D01*
X150880545Y-173422553D01*
X151025899Y-173393640D01*
X151174101Y-173393640D01*
X151319455Y-173422553D01*
G37*
G36*
X163319455Y-173422553D02*
G01*
X163456376Y-173479268D01*
X163579601Y-173561604D01*
X163684396Y-173666399D01*
X163766732Y-173789624D01*
X163823447Y-173926545D01*
X163852360Y-174071899D01*
X163856000Y-174146000D01*
X163856000Y-175454000D01*
X163852360Y-175528101D01*
X163823447Y-175673455D01*
X163766732Y-175810376D01*
X163684396Y-175933601D01*
X163579601Y-176038396D01*
X163456376Y-176120732D01*
X163319455Y-176177447D01*
X163174101Y-176206360D01*
X163025899Y-176206360D01*
X162880545Y-176177447D01*
X162743624Y-176120732D01*
X162620399Y-176038396D01*
X162515604Y-175933601D01*
X162433268Y-175810376D01*
X162376553Y-175673455D01*
X162347640Y-175528101D01*
X162344000Y-175454000D01*
X162344000Y-174146000D01*
X162347640Y-174071899D01*
X162376553Y-173926545D01*
X162433268Y-173789624D01*
X162515604Y-173666399D01*
X162620399Y-173561604D01*
X162743624Y-173479268D01*
X162880545Y-173422553D01*
X163025899Y-173393640D01*
X163174101Y-173393640D01*
X163319455Y-173422553D01*
G37*
G36*
X157828101Y-172897640D02*
G01*
X157973455Y-172926553D01*
X158110376Y-172983268D01*
X158233601Y-173065604D01*
X158338396Y-173170399D01*
X158420732Y-173293624D01*
X158477447Y-173430545D01*
X158506360Y-173575899D01*
X158506360Y-173724101D01*
X158477447Y-173869455D01*
X158420732Y-174006376D01*
X158338396Y-174129601D01*
X158233601Y-174234396D01*
X158110376Y-174316732D01*
X157973455Y-174373447D01*
X157828101Y-174402360D01*
X157754000Y-174406000D01*
X157752768Y-174406000D01*
X156447232Y-174406000D01*
X156446000Y-174406000D01*
X156371899Y-174402360D01*
X156226545Y-174373447D01*
X156089624Y-174316732D01*
X155966399Y-174234396D01*
X155861604Y-174129601D01*
X155779268Y-174006376D01*
X155722553Y-173869455D01*
X155693640Y-173724101D01*
X155693640Y-173575899D01*
X155722553Y-173430545D01*
X155779268Y-173293624D01*
X155861604Y-173170399D01*
X155966399Y-173065604D01*
X156089624Y-172983268D01*
X156226545Y-172926553D01*
X156371899Y-172897640D01*
X156446000Y-172894000D01*
X157754000Y-172894000D01*
X157828101Y-172897640D01*
G37*
G36*
X151319455Y-168222553D02*
G01*
X151456376Y-168279268D01*
X151579601Y-168361604D01*
X151684396Y-168466399D01*
X151766732Y-168589624D01*
X151823447Y-168726545D01*
X151852360Y-168871899D01*
X151856000Y-168946000D01*
X151856000Y-170254000D01*
X151852360Y-170328101D01*
X151823447Y-170473455D01*
X151766732Y-170610376D01*
X151684396Y-170733601D01*
X151579601Y-170838396D01*
X151456376Y-170920732D01*
X151319455Y-170977447D01*
X151174101Y-171006360D01*
X151025899Y-171006360D01*
X150880545Y-170977447D01*
X150743624Y-170920732D01*
X150620399Y-170838396D01*
X150515604Y-170733601D01*
X150433268Y-170610376D01*
X150376553Y-170473455D01*
X150347640Y-170328101D01*
X150344000Y-170254000D01*
X150344000Y-168946000D01*
X150347640Y-168871899D01*
X150376553Y-168726545D01*
X150433268Y-168589624D01*
X150515604Y-168466399D01*
X150620399Y-168361604D01*
X150743624Y-168279268D01*
X150880545Y-168222553D01*
X151025899Y-168193640D01*
X151174101Y-168193640D01*
X151319455Y-168222553D01*
G37*
G36*
X163319455Y-168222553D02*
G01*
X163456376Y-168279268D01*
X163579601Y-168361604D01*
X163684396Y-168466399D01*
X163766732Y-168589624D01*
X163823447Y-168726545D01*
X163852360Y-168871899D01*
X163856000Y-168946000D01*
X163856000Y-170254000D01*
X163852360Y-170328101D01*
X163823447Y-170473455D01*
X163766732Y-170610376D01*
X163684396Y-170733601D01*
X163579601Y-170838396D01*
X163456376Y-170920732D01*
X163319455Y-170977447D01*
X163174101Y-171006360D01*
X163025899Y-171006360D01*
X162880545Y-170977447D01*
X162743624Y-170920732D01*
X162620399Y-170838396D01*
X162515604Y-170733601D01*
X162433268Y-170610376D01*
X162376553Y-170473455D01*
X162347640Y-170328101D01*
X162344000Y-170254000D01*
X162344000Y-168946000D01*
X162347640Y-168871899D01*
X162376553Y-168726545D01*
X162433268Y-168589624D01*
X162515604Y-168466399D01*
X162620399Y-168361604D01*
X162743624Y-168279268D01*
X162880545Y-168222553D01*
X163025899Y-168193640D01*
X163174101Y-168193640D01*
X163319455Y-168222553D01*
G37*
G36*
X157361256Y-167788754D02*
G01*
X157524257Y-167856271D01*
X157670954Y-167954291D01*
X157795709Y-168079046D01*
X157893729Y-168225743D01*
X157961246Y-168388744D01*
X157995666Y-168561785D01*
X157995666Y-168738215D01*
X157961246Y-168911256D01*
X157893729Y-169074257D01*
X157795709Y-169220954D01*
X157670954Y-169345709D01*
X157524257Y-169443729D01*
X157361256Y-169511246D01*
X157188215Y-169545666D01*
X157011785Y-169545666D01*
X156838744Y-169511246D01*
X156675743Y-169443729D01*
X156529046Y-169345709D01*
X156404291Y-169220954D01*
X156306271Y-169074257D01*
X156238754Y-168911256D01*
X156204334Y-168738215D01*
X156204334Y-168561785D01*
X156238754Y-168388744D01*
X156306271Y-168225743D01*
X156404291Y-168079046D01*
X156529046Y-167954291D01*
X156675743Y-167856271D01*
X156838744Y-167788754D01*
X157011785Y-167754334D01*
X157188215Y-167754334D01*
X157361256Y-167788754D01*
G37*
G36*
X141118894Y-165355086D02*
G01*
X141129458Y-165355086D01*
X141181477Y-165363325D01*
X141321877Y-165381809D01*
X141356138Y-165390989D01*
X141385185Y-165395590D01*
X141441045Y-165413740D01*
X141530338Y-165437666D01*
X141587309Y-165461264D01*
X141631428Y-165475599D01*
X141672755Y-165496656D01*
X141729733Y-165520257D01*
X141809803Y-165566485D01*
X141862123Y-165593144D01*
X141885909Y-165610425D01*
X141916624Y-165628159D01*
X142028975Y-165714369D01*
X142071589Y-165745330D01*
X142079058Y-165752799D01*
X142087848Y-165759544D01*
X142240455Y-165912151D01*
X142247199Y-165920940D01*
X142254670Y-165928411D01*
X142285634Y-165971030D01*
X142371840Y-166083375D01*
X142389572Y-166114087D01*
X142406856Y-166137877D01*
X142433517Y-166190203D01*
X142479742Y-166270266D01*
X142503340Y-166327237D01*
X142524401Y-166368572D01*
X142538738Y-166412696D01*
X142562333Y-166469661D01*
X142586255Y-166558941D01*
X142604410Y-166614815D01*
X142609011Y-166643867D01*
X142618190Y-166678122D01*
X142636673Y-166818514D01*
X142644914Y-166870542D01*
X142644914Y-166881105D01*
X142646360Y-166892089D01*
X142646360Y-167107910D01*
X142644914Y-167118893D01*
X142644914Y-167129458D01*
X142636672Y-167181490D01*
X142618190Y-167321877D01*
X142609011Y-167356129D01*
X142604410Y-167385185D01*
X142586254Y-167441063D01*
X142562333Y-167530338D01*
X142538739Y-167587298D01*
X142524401Y-167631428D01*
X142503337Y-167672766D01*
X142479742Y-167729733D01*
X142433521Y-167809788D01*
X142406856Y-167862123D01*
X142389569Y-167885916D01*
X142371840Y-167916624D01*
X142285648Y-168028950D01*
X142254670Y-168071589D01*
X142247195Y-168079063D01*
X142240455Y-168087848D01*
X142087848Y-168240455D01*
X142079063Y-168247195D01*
X142071589Y-168254670D01*
X142028950Y-168285648D01*
X141916624Y-168371840D01*
X141885916Y-168389569D01*
X141862123Y-168406856D01*
X141809788Y-168433521D01*
X141729733Y-168479742D01*
X141672766Y-168503337D01*
X141631428Y-168524401D01*
X141587298Y-168538739D01*
X141530338Y-168562333D01*
X141441063Y-168586254D01*
X141385185Y-168604410D01*
X141356129Y-168609011D01*
X141321877Y-168618190D01*
X141181490Y-168636672D01*
X141129458Y-168644914D01*
X141118893Y-168644914D01*
X141107910Y-168646360D01*
X140892090Y-168646360D01*
X140881107Y-168644914D01*
X140870542Y-168644914D01*
X140818511Y-168636672D01*
X140678122Y-168618190D01*
X140643867Y-168609011D01*
X140614815Y-168604410D01*
X140558941Y-168586255D01*
X140469661Y-168562333D01*
X140412696Y-168538738D01*
X140368572Y-168524401D01*
X140327237Y-168503340D01*
X140270266Y-168479742D01*
X140190203Y-168433517D01*
X140137877Y-168406856D01*
X140114087Y-168389572D01*
X140083375Y-168371840D01*
X139971030Y-168285634D01*
X139928411Y-168254670D01*
X139920940Y-168247199D01*
X139912151Y-168240455D01*
X139759544Y-168087848D01*
X139752799Y-168079058D01*
X139745330Y-168071589D01*
X139714369Y-168028975D01*
X139628159Y-167916624D01*
X139610425Y-167885909D01*
X139593144Y-167862123D01*
X139566485Y-167809803D01*
X139520257Y-167729733D01*
X139496656Y-167672755D01*
X139475599Y-167631428D01*
X139461264Y-167587309D01*
X139437666Y-167530338D01*
X139413740Y-167441045D01*
X139395590Y-167385185D01*
X139390989Y-167356138D01*
X139381809Y-167321877D01*
X139363325Y-167181477D01*
X139355086Y-167129458D01*
X139355086Y-167118893D01*
X139353640Y-167107910D01*
X139353640Y-166892089D01*
X139355086Y-166881105D01*
X139355086Y-166870542D01*
X139363324Y-166818527D01*
X139381809Y-166678122D01*
X139390989Y-166643858D01*
X139395590Y-166614815D01*
X139413738Y-166558959D01*
X139437666Y-166469661D01*
X139461265Y-166412685D01*
X139475599Y-166368572D01*
X139496654Y-166327248D01*
X139520257Y-166270266D01*
X139566489Y-166190188D01*
X139593144Y-166137877D01*
X139610423Y-166114094D01*
X139628159Y-166083375D01*
X139714383Y-165971005D01*
X139745330Y-165928411D01*
X139752796Y-165920944D01*
X139759544Y-165912151D01*
X139912151Y-165759544D01*
X139920944Y-165752796D01*
X139928411Y-165745330D01*
X139971005Y-165714383D01*
X140083375Y-165628159D01*
X140114094Y-165610423D01*
X140137877Y-165593144D01*
X140190188Y-165566489D01*
X140270266Y-165520257D01*
X140327248Y-165496654D01*
X140368572Y-165475599D01*
X140412685Y-165461265D01*
X140469661Y-165437666D01*
X140558959Y-165413738D01*
X140614815Y-165395590D01*
X140643858Y-165390989D01*
X140678122Y-165381809D01*
X140818524Y-165363324D01*
X140870542Y-165355086D01*
X140881106Y-165355086D01*
X140892090Y-165353640D01*
X141107910Y-165353640D01*
X141118894Y-165355086D01*
G37*
G36*
X195118894Y-165355086D02*
G01*
X195129458Y-165355086D01*
X195181477Y-165363325D01*
X195321877Y-165381809D01*
X195356138Y-165390989D01*
X195385185Y-165395590D01*
X195441045Y-165413740D01*
X195530338Y-165437666D01*
X195587309Y-165461264D01*
X195631428Y-165475599D01*
X195672755Y-165496656D01*
X195729733Y-165520257D01*
X195809803Y-165566485D01*
X195862123Y-165593144D01*
X195885909Y-165610425D01*
X195916624Y-165628159D01*
X196028975Y-165714369D01*
X196071589Y-165745330D01*
X196079058Y-165752799D01*
X196087848Y-165759544D01*
X196240455Y-165912151D01*
X196247199Y-165920940D01*
X196254670Y-165928411D01*
X196285634Y-165971030D01*
X196371840Y-166083375D01*
X196389572Y-166114087D01*
X196406856Y-166137877D01*
X196433517Y-166190203D01*
X196479742Y-166270266D01*
X196503340Y-166327237D01*
X196524401Y-166368572D01*
X196538738Y-166412696D01*
X196562333Y-166469661D01*
X196586255Y-166558941D01*
X196604410Y-166614815D01*
X196609011Y-166643867D01*
X196618190Y-166678122D01*
X196636673Y-166818514D01*
X196644914Y-166870542D01*
X196644914Y-166881105D01*
X196646360Y-166892089D01*
X196646360Y-167107910D01*
X196644914Y-167118893D01*
X196644914Y-167129458D01*
X196636672Y-167181490D01*
X196618190Y-167321877D01*
X196609011Y-167356129D01*
X196604410Y-167385185D01*
X196586254Y-167441063D01*
X196562333Y-167530338D01*
X196538739Y-167587298D01*
X196524401Y-167631428D01*
X196503337Y-167672766D01*
X196479742Y-167729733D01*
X196433521Y-167809788D01*
X196406856Y-167862123D01*
X196389569Y-167885916D01*
X196371840Y-167916624D01*
X196285648Y-168028950D01*
X196254670Y-168071589D01*
X196247195Y-168079063D01*
X196240455Y-168087848D01*
X196087848Y-168240455D01*
X196079063Y-168247195D01*
X196071589Y-168254670D01*
X196028950Y-168285648D01*
X195916624Y-168371840D01*
X195885916Y-168389569D01*
X195862123Y-168406856D01*
X195809788Y-168433521D01*
X195729733Y-168479742D01*
X195672766Y-168503337D01*
X195631428Y-168524401D01*
X195587298Y-168538739D01*
X195530338Y-168562333D01*
X195441063Y-168586254D01*
X195385185Y-168604410D01*
X195356129Y-168609011D01*
X195321877Y-168618190D01*
X195181490Y-168636672D01*
X195129458Y-168644914D01*
X195118893Y-168644914D01*
X195107910Y-168646360D01*
X194892090Y-168646360D01*
X194881107Y-168644914D01*
X194870542Y-168644914D01*
X194818511Y-168636672D01*
X194678122Y-168618190D01*
X194643867Y-168609011D01*
X194614815Y-168604410D01*
X194558941Y-168586255D01*
X194469661Y-168562333D01*
X194412696Y-168538738D01*
X194368572Y-168524401D01*
X194327237Y-168503340D01*
X194270266Y-168479742D01*
X194190203Y-168433517D01*
X194137877Y-168406856D01*
X194114087Y-168389572D01*
X194083375Y-168371840D01*
X193971030Y-168285634D01*
X193928411Y-168254670D01*
X193920940Y-168247199D01*
X193912151Y-168240455D01*
X193759544Y-168087848D01*
X193752799Y-168079058D01*
X193745330Y-168071589D01*
X193714369Y-168028975D01*
X193628159Y-167916624D01*
X193610425Y-167885909D01*
X193593144Y-167862123D01*
X193566485Y-167809803D01*
X193520257Y-167729733D01*
X193496656Y-167672755D01*
X193475599Y-167631428D01*
X193461264Y-167587309D01*
X193437666Y-167530338D01*
X193413740Y-167441045D01*
X193395590Y-167385185D01*
X193390989Y-167356138D01*
X193381809Y-167321877D01*
X193363325Y-167181477D01*
X193355086Y-167129458D01*
X193355086Y-167118893D01*
X193353640Y-167107910D01*
X193353640Y-166892089D01*
X193355086Y-166881105D01*
X193355086Y-166870542D01*
X193363324Y-166818527D01*
X193381809Y-166678122D01*
X193390989Y-166643858D01*
X193395590Y-166614815D01*
X193413738Y-166558959D01*
X193437666Y-166469661D01*
X193461265Y-166412685D01*
X193475599Y-166368572D01*
X193496654Y-166327248D01*
X193520257Y-166270266D01*
X193566489Y-166190188D01*
X193593144Y-166137877D01*
X193610423Y-166114094D01*
X193628159Y-166083375D01*
X193714383Y-165971005D01*
X193745330Y-165928411D01*
X193752796Y-165920944D01*
X193759544Y-165912151D01*
X193912151Y-165759544D01*
X193920944Y-165752796D01*
X193928411Y-165745330D01*
X193971005Y-165714383D01*
X194083375Y-165628159D01*
X194114094Y-165610423D01*
X194137877Y-165593144D01*
X194190188Y-165566489D01*
X194270266Y-165520257D01*
X194327248Y-165496654D01*
X194368572Y-165475599D01*
X194412685Y-165461265D01*
X194469661Y-165437666D01*
X194558959Y-165413738D01*
X194614815Y-165395590D01*
X194643858Y-165390989D01*
X194678122Y-165381809D01*
X194818524Y-165363324D01*
X194870542Y-165355086D01*
X194881106Y-165355086D01*
X194892090Y-165353640D01*
X195107910Y-165353640D01*
X195118894Y-165355086D01*
G37*
M02*
