M48
; DRILL file {KiCad 9.0.7} date 2026-04-26T22:53:39-0700
; FORMAT={-:-/ absolute / metric / decimal}
; #@! TF.CreationDate,2026-04-26T22:53:39-07:00
; #@! TF.GenerationSoftware,Kicad,Pcbnew,9.0.7
; #@! TF.FileFunction,Plated,1,2,PTH
FMAT,2
METRIC
; #@! TA.AperFunction,Plated,PTH,ViaDrill
T1C0.300
; #@! TA.AperFunction,Plated,PTH,ComponentDrill
T2C0.650
; #@! TA.AperFunction,Plated,PTH,ComponentDrill
T3C1.000
; #@! TA.AperFunction,Plated,PTH,ComponentDrill
T4C1.020
%
G90
G05
T1
X201.9Y-153.8
X201.9Y-158.6
X202.5Y-189.5
X203.0Y-156.4
X204.4Y-154.1
X204.5Y-158.5
X205.4Y-156.2
X210.8Y-190.1
X210.9Y-179.9
X211.8Y-180.9
X211.9Y-178.8
X213.1Y-179.8
X213.9Y-178.8
X213.9Y-180.9
X222.95Y-197.15
X223.225Y-194.9
X223.5Y-169.1
X223.5Y-181.9
X224.2Y-167.6
X224.5Y-180.1
X224.8Y-188.8
X225.0Y-165.9
X225.25Y-178.15
X225.5Y-160.8
X225.7Y-159.4
X225.9Y-187.2
X226.0Y-176.4
X226.1Y-164.5
X237.558Y-154.4
X241.958Y-150.4
X243.78Y-153.993
X244.419Y-151.811
X244.68Y-154.6
X244.98Y-152.7
X246.846Y-150.362
X251.058Y-154.4
X252.296Y-150.362
X254.958Y-146.0
X263.458Y-148.5
X270.65Y-173.15
X270.7Y-172.3
X271.645Y-198.15
X271.645Y-202.05
X272.27Y-198.75
X272.27Y-202.75
X272.97Y-199.45
X273.532Y-193.65
X274.35Y-173.15
X274.4Y-172.3
X274.9Y-163.5
X277.0Y-191.4
X277.3Y-186.3
X277.8Y-176.7
X278.07Y-187.15
X278.07Y-196.575
X278.87Y-196.575
X278.87Y-187.15
X279.67Y-187.15
X279.67Y-195.25
X279.8Y-173.6
X282.0Y-182.0
X282.0Y-183.0
X282.42Y-200.1
X283.4Y-158.7
X284.0Y-180.0
X284.0Y-185.0
X285.0Y-185.0
X287.0Y-182.0
X288.67Y-189.828
X289.57Y-177.45
X290.57Y-196.45
X290.6Y-160.3
X292.27Y-194.35
X293.12Y-177.65
X293.37Y-187.05
X293.37Y-187.95
X293.37Y-188.915
X293.37Y-189.715
X293.37Y-190.65
X293.37Y-191.75
X293.77Y-173.35
X300.47Y-171.3
X300.47Y-175.3
X310.67Y-170.7
X310.67Y-175.3
T3
X217.512Y-151.06
X217.512Y-153.6
X217.512Y-156.14
X217.512Y-158.68
X217.512Y-161.22
X217.512Y-163.76
X217.512Y-166.3
X217.512Y-168.84
X217.512Y-171.38
X217.512Y-173.92
X217.512Y-176.46
X217.512Y-179.0
X217.512Y-181.54
X217.512Y-184.08
X217.512Y-186.62
X217.512Y-189.16
X217.512Y-191.7
X217.512Y-194.24
X217.512Y-196.78
X217.512Y-199.32
X220.052Y-151.06
X220.052Y-153.6
X220.052Y-156.14
X220.052Y-158.68
X220.052Y-161.22
X220.052Y-163.76
X220.052Y-166.3
X220.052Y-168.84
X220.052Y-171.38
X220.052Y-173.92
X220.052Y-176.46
X220.052Y-179.0
X220.052Y-181.54
X220.052Y-184.08
X220.052Y-186.62
X220.052Y-189.16
X220.052Y-191.7
X220.052Y-194.24
X220.052Y-196.78
X220.052Y-199.32
X225.82Y-212.7
X225.82Y-215.24
X228.36Y-212.7
X228.36Y-215.24
X230.9Y-212.7
X230.9Y-215.24
X233.44Y-212.7
X233.44Y-215.24
X235.98Y-212.7
X235.98Y-215.24
X238.52Y-212.7
X238.52Y-215.24
X241.06Y-212.7
X241.06Y-215.24
X243.6Y-212.7
X243.6Y-215.24
X246.14Y-212.7
X246.14Y-215.24
X248.68Y-212.7
X248.68Y-215.24
X251.22Y-212.7
X251.22Y-215.24
X253.76Y-212.7
X253.76Y-215.24
X256.3Y-212.7
X256.3Y-215.24
X258.84Y-212.7
X258.84Y-215.24
X261.38Y-212.7
X261.38Y-215.24
X272.395Y-212.35
X273.62Y-166.1
X274.52Y-201.37
X274.52Y-203.91
X274.52Y-206.45
X274.935Y-212.35
X276.16Y-166.1
X277.06Y-201.37
X277.06Y-203.91
X277.06Y-206.45
X277.475Y-212.35
X278.7Y-166.1
X280.015Y-212.35
X281.24Y-166.1
X282.555Y-212.35
X283.78Y-166.1
X285.095Y-212.35
X286.32Y-166.1
X286.68Y-198.755
X287.635Y-212.35
X288.86Y-166.1
X289.22Y-198.755
X290.175Y-212.35
X291.4Y-166.1
X304.27Y-188.025
X304.27Y-192.0
X304.27Y-196.0
X304.27Y-200.0
X304.285Y-180.0
X304.285Y-184.0
X306.81Y-188.025
X306.81Y-192.0
X306.81Y-196.0
X306.81Y-200.0
X306.825Y-180.0
X306.825Y-184.0
X309.35Y-188.025
X309.35Y-192.0
X309.35Y-196.0
X309.35Y-200.0
X309.365Y-180.0
X309.365Y-184.0
T4
X210.3Y-152.58
X210.3Y-155.12
X210.3Y-157.66
X210.3Y-160.2
X210.3Y-165.3
X210.3Y-167.84
X210.3Y-170.38
X210.3Y-172.92
X279.2Y-146.82
X279.2Y-149.36
X279.2Y-151.9
X287.01Y-146.78
X287.01Y-149.32
X287.01Y-151.86
X292.76Y-206.3
X294.825Y-146.9
X294.825Y-149.44
X294.825Y-151.98
X295.3Y-206.3
X297.84Y-206.3
X300.38Y-206.3
X305.3Y-157.58
X305.3Y-160.12
X305.3Y-162.66
X305.3Y-165.2
X305.56Y-206.3
X308.1Y-206.3
X310.64Y-206.3
X313.18Y-206.3
T2
X238.76Y-144.45G85X238.76Y-143.55
G05
X238.76Y-148.25G85X238.76Y-147.75
G05
X250.0Y-144.45G85X250.0Y-143.55
G05
X250.0Y-148.25G85X250.0Y-147.75
G05
M30
