%TF.GenerationSoftware,KiCad,Pcbnew,9.0.7*%
%TF.CreationDate,2026-04-26T23:25:23-07:00*%
%TF.ProjectId,System PCB-Bucks Mk.2,53797374-656d-4205-9043-422d4275636b,rev?*%
%TF.SameCoordinates,Original*%
%TF.FileFunction,Copper,L2,Bot*%
%TF.FilePolarity,Positive*%
%FSLAX46Y46*%
G04 Gerber Fmt 4.6, Leading zero omitted, Abs format (unit mm)*
G04 Created by KiCad (PCBNEW 9.0.7) date 2026-04-26 23:25:23*
%MOMM*%
%LPD*%
G01*
G04 APERTURE LIST*
%TA.AperFunction,ComponentPad*%
%ADD10O,1.050000X1.550000*%
%TD*%
%TA.AperFunction,ComponentPad*%
%ADD11O,1.050000X1.950000*%
%TD*%
%TA.AperFunction,ComponentPad*%
%ADD12R,1.730000X2.030000*%
%TD*%
%TA.AperFunction,ComponentPad*%
%ADD13O,1.730000X2.030000*%
%TD*%
%TA.AperFunction,ComponentPad*%
%ADD14R,2.030000X1.730000*%
%TD*%
%TA.AperFunction,ComponentPad*%
%ADD15O,2.030000X1.730000*%
%TD*%
%TA.AperFunction,ComponentPad*%
%ADD16R,1.700000X1.700000*%
%TD*%
%TA.AperFunction,ComponentPad*%
%ADD17C,1.700000*%
%TD*%
%TA.AperFunction,ComponentPad*%
%ADD18R,2.850000X2.850000*%
%TD*%
%TA.AperFunction,ComponentPad*%
%ADD19O,2.616000X1.308000*%
%TD*%
%TA.AperFunction,ComponentPad*%
%ADD20O,1.308000X2.616000*%
%TD*%
%TA.AperFunction,ViaPad*%
%ADD21C,0.600000*%
%TD*%
%TA.AperFunction,Conductor*%
%ADD22C,1.000000*%
%TD*%
%TA.AperFunction,Conductor*%
%ADD23C,2.000000*%
%TD*%
%TA.AperFunction,Conductor*%
%ADD24C,0.250000*%
%TD*%
%TA.AperFunction,Conductor*%
%ADD25C,0.500000*%
%TD*%
G04 APERTURE END LIST*
D10*
%TO.P,J15,SH1,SHIELD*%
%TO.N,GND*%
X174760000Y-155000000D03*
%TO.P,J15,SH2,SHIELD__1*%
X186000000Y-155000000D03*
D11*
%TO.P,J15,SH3,SHIELD__2*%
X174760000Y-159000000D03*
%TO.P,J15,SH4,SHIELD__3*%
X186000000Y-159000000D03*
%TD*%
D12*
%TO.P,J17,1,Pin_1*%
%TO.N,GND*%
X163120000Y-155000000D03*
D13*
%TO.P,J17,2,Pin_2*%
X165660000Y-155000000D03*
%TO.P,J17,3,Pin_3*%
X168200000Y-155000000D03*
%TO.P,J17,4,Pin_4*%
X170740000Y-155000000D03*
%TD*%
D12*
%TO.P,J16,1,Pin_1*%
%TO.N,BatteryVIN*%
X149401300Y-155060000D03*
D13*
%TO.P,J16,2,Pin_2*%
X151941300Y-155060000D03*
%TO.P,J16,3,Pin_3*%
X154481300Y-155060000D03*
%TO.P,J16,4,Pin_4*%
X157021300Y-155060000D03*
%TD*%
D14*
%TO.P,J3,1,Pin_1*%
%TO.N,Vout5VPi*%
X210000000Y-145080000D03*
D15*
%TO.P,J3,2,Pin_2*%
X210000000Y-142540000D03*
%TO.P,J3,3,Pin_3*%
X210000000Y-140000000D03*
%TO.P,J3,4,Pin_4*%
X210000000Y-137460000D03*
%TD*%
D16*
%TO.P,J14,1,Pin_1*%
%TO.N,GND*%
X166581300Y-138000000D03*
D17*
%TO.P,J14,2,Pin_2*%
%TO.N,Net-(J14-Pin_2)*%
X166581300Y-135460000D03*
%TD*%
D12*
%TO.P,J7,1,Pin_1*%
%TO.N,GND*%
X192200000Y-93500000D03*
D13*
%TO.P,J7,2,Pin_2*%
X189660000Y-93500000D03*
%TO.P,J7,3,Pin_3*%
X187120000Y-93500000D03*
%TO.P,J7,4,Pin_4*%
X184580000Y-93500000D03*
%TD*%
D12*
%TO.P,J5,1,Pin_1*%
%TO.N,Vout3v3*%
X211980000Y-100640000D03*
D13*
%TO.P,J5,2,Pin_2*%
X209440000Y-100640000D03*
%TO.P,J5,3,Pin_3*%
%TO.N,GND*%
X206900000Y-100640000D03*
%TO.P,J5,4,Pin_4*%
X204360000Y-100640000D03*
%TD*%
D14*
%TO.P,J1,1,Pin_1*%
%TO.N,ChargingVin*%
X141600000Y-122600000D03*
D15*
%TO.P,J1,2,Pin_2*%
X141600000Y-125140000D03*
%TO.P,J1,3,Pin_3*%
X141600000Y-127680000D03*
%TO.P,J1,4,Pin_4*%
X141600000Y-130220000D03*
%TD*%
D12*
%TO.P,J6,1,Pin_1*%
%TO.N,Vout5V*%
X178980000Y-93500000D03*
D13*
%TO.P,J6,2,Pin_2*%
X176440000Y-93500000D03*
%TO.P,J6,3,Pin_3*%
X173900000Y-93500000D03*
%TO.P,J6,4,Pin_4*%
X171360000Y-93500000D03*
%TD*%
D14*
%TO.P,J2,1,Pin_1*%
%TO.N,GND*%
X141240000Y-99100000D03*
D15*
%TO.P,J2,2,Pin_2*%
X141240000Y-101640000D03*
%TO.P,J2,3,Pin_3*%
X141240000Y-104180000D03*
%TO.P,J2,4,Pin_4*%
X141240000Y-106720000D03*
%TD*%
D18*
%TO.P,J21,1*%
%TO.N,WALLVIN*%
X154440000Y-105300000D03*
D19*
%TO.P,J21,2*%
%TO.N,GND*%
X154440000Y-98650000D03*
D20*
%TO.P,J21,SH1,SHIELD*%
X160440000Y-99800000D03*
%TO.P,J21,SH2,SHIELD__1*%
X160440000Y-94600000D03*
%TO.P,J21,SH3,SHIELD__2*%
X148440000Y-99800000D03*
%TO.P,J21,SH4,SHIELD__3*%
X148440000Y-94600000D03*
%TD*%
D14*
%TO.P,J4,1,Pin_1*%
%TO.N,GND*%
X210000000Y-131000000D03*
D15*
%TO.P,J4,2,Pin_2*%
X210000000Y-128460000D03*
%TO.P,J4,3,Pin_3*%
X210000000Y-125920000D03*
%TO.P,J4,4,Pin_4*%
X210000000Y-123380000D03*
%TD*%
D21*
%TO.N,GND*%
X140600000Y-141600000D03*
X137800000Y-138900000D03*
X197700000Y-95500000D03*
X188500000Y-128500000D03*
X204700000Y-115500000D03*
X180200000Y-108000000D03*
X195700000Y-99500000D03*
X191000000Y-126000000D03*
X193500000Y-151000000D03*
X188500000Y-148500000D03*
X188500000Y-146000000D03*
X201200000Y-117000000D03*
X174200000Y-108000000D03*
X191000000Y-148500000D03*
X206200000Y-116500000D03*
X199700000Y-97500000D03*
X161700000Y-115000000D03*
X180200000Y-106000000D03*
X176200000Y-106000000D03*
X197700000Y-99500000D03*
X203700000Y-117000000D03*
X188500000Y-131000000D03*
X177200000Y-104500000D03*
X196000000Y-131000000D03*
X195700000Y-97500000D03*
X193500000Y-128500000D03*
X202700000Y-113500000D03*
X178200000Y-106000000D03*
X199700000Y-108900000D03*
X137700000Y-137000000D03*
X199700000Y-95500000D03*
X197700000Y-97500000D03*
X198500000Y-128500000D03*
X163200000Y-114500000D03*
X193500000Y-131000000D03*
X191000000Y-131000000D03*
X183962500Y-134200000D03*
X137600000Y-141400000D03*
X172200000Y-110000000D03*
X193500000Y-146000000D03*
X179200000Y-104500000D03*
X196000000Y-126000000D03*
X198500000Y-148500000D03*
X198500000Y-146000000D03*
X196000000Y-128500000D03*
X206200000Y-114500000D03*
X202700000Y-115500000D03*
X196000000Y-146000000D03*
X199700000Y-99500000D03*
X191000000Y-128500000D03*
X191000000Y-151000000D03*
X198500000Y-126000000D03*
X161700000Y-113000000D03*
X183862500Y-132600000D03*
X204700000Y-111500000D03*
X198500000Y-131000000D03*
X195700000Y-95500000D03*
X178200000Y-108000000D03*
X162200000Y-111500000D03*
X174700000Y-105000000D03*
X202700000Y-111500000D03*
X163200000Y-113000000D03*
X206200000Y-112500000D03*
X196000000Y-148500000D03*
X183262500Y-131900000D03*
X193500000Y-126000000D03*
X204700000Y-113500000D03*
X140381300Y-136900000D03*
X183462500Y-133400000D03*
X176200000Y-108000000D03*
%TO.N,Vout5V*%
X179600000Y-98000000D03*
X173700000Y-121500000D03*
%TO.N,Vout3v3*%
X187700000Y-110500000D03*
X213000000Y-116600000D03*
%TO.N,Net-(U3-LX)*%
X182750338Y-146071033D03*
X183400000Y-145400000D03*
X183400000Y-146050003D03*
X185324426Y-138646815D03*
%TO.N,Vout5VPi*%
X205862500Y-151000000D03*
X183100000Y-137625500D03*
%TO.N,Net-(U3-BIAS)*%
X183812500Y-135450000D03*
X182562500Y-139000000D03*
%TO.N,Net-(U1-EN)*%
X168450000Y-111650000D03*
X172200000Y-116900000D03*
%TO.N,Net-(U2-EN)*%
X198200000Y-105200000D03*
X193200000Y-109100000D03*
%TO.N,Net-(Q3-G)*%
X139700000Y-113300000D03*
X146450000Y-113950000D03*
%TO.N,Net-(Q6-G)*%
X146081300Y-135700000D03*
X152781300Y-136000000D03*
%TD*%
D22*
%TO.N,Vout5V*%
X182400000Y-112800000D02*
X182400000Y-112700000D01*
X182400000Y-112700000D02*
X182400000Y-100800000D01*
X182400000Y-100800000D02*
X179600000Y-98000000D01*
X173700000Y-121500000D02*
X182400000Y-112800000D01*
%TO.N,Vout3v3*%
X197600000Y-120400000D02*
X208500000Y-120400000D01*
X209200000Y-120400000D02*
X213000000Y-116600000D01*
X208500000Y-120400000D02*
X209200000Y-120400000D01*
X187700000Y-110500000D02*
X197600000Y-120400000D01*
D23*
%TO.N,Net-(U3-LX)*%
X183362500Y-145800000D02*
X183362500Y-140600000D01*
X183400000Y-145421371D02*
X183400000Y-145400000D01*
D24*
X184362500Y-139600000D02*
X184462500Y-139600000D01*
D25*
X184462500Y-139508741D02*
X185233167Y-138738074D01*
D23*
X182761750Y-146059621D02*
X183102879Y-146059621D01*
X183400000Y-145400000D02*
X183562500Y-145562500D01*
D22*
X183362500Y-140600000D02*
X184362500Y-139600000D01*
D25*
X184462500Y-139600000D02*
X184462500Y-139508741D01*
D23*
X183102879Y-146059621D02*
X183362500Y-145800000D01*
X182750338Y-146071033D02*
X182761750Y-146059621D01*
D25*
X185233167Y-138738074D02*
X185324426Y-138738074D01*
D24*
X185324426Y-138738074D02*
X185324426Y-138646815D01*
D23*
X182750338Y-146071033D02*
X183400000Y-145421371D01*
D24*
%TO.N,Vout5VPi*%
X189162500Y-141600000D02*
X185162500Y-137600000D01*
X196062500Y-151000000D02*
X189162500Y-144100000D01*
X205862500Y-151000000D02*
X196062500Y-151000000D01*
X185162500Y-137600000D02*
X183125500Y-137600000D01*
X183125500Y-137600000D02*
X183100000Y-137625500D01*
X189162500Y-144100000D02*
X189162500Y-141600000D01*
%TO.N,Net-(U3-BIAS)*%
X182462500Y-136800000D02*
X182462500Y-138900000D01*
X182462500Y-138900000D02*
X182562500Y-139000000D01*
X183812500Y-135450000D02*
X182462500Y-136800000D01*
D25*
%TO.N,Net-(U1-EN)*%
X172200000Y-116900000D02*
X168450000Y-113150000D01*
X168450000Y-113150000D02*
X168450000Y-111650000D01*
%TO.N,Net-(U2-EN)*%
X196600000Y-105200000D02*
X198200000Y-105200000D01*
X193200000Y-109100000D02*
X193200000Y-108600000D01*
X193200000Y-108600000D02*
X196600000Y-105200000D01*
%TO.N,Net-(Q3-G)*%
X140000000Y-113600000D02*
X139700000Y-113300000D01*
X146450000Y-113950000D02*
X146100000Y-113600000D01*
X146100000Y-113600000D02*
X140000000Y-113600000D01*
%TO.N,Net-(Q6-G)*%
X152481300Y-135700000D02*
X146081300Y-135700000D01*
X152781300Y-136000000D02*
X152481300Y-135700000D01*
%TD*%
%TA.AperFunction,Conductor*%
%TO.N,GND*%
G36*
X211002702Y-87500617D02*
G01*
X211386771Y-87517386D01*
X211397506Y-87518326D01*
X211775971Y-87568152D01*
X211786597Y-87570025D01*
X212159284Y-87652648D01*
X212169710Y-87655442D01*
X212533765Y-87770227D01*
X212543911Y-87773920D01*
X212896578Y-87920000D01*
X212906369Y-87924566D01*
X213244942Y-88100816D01*
X213254310Y-88106224D01*
X213576244Y-88311318D01*
X213585105Y-88317523D01*
X213887930Y-88549889D01*
X213896217Y-88556843D01*
X214177635Y-88814715D01*
X214185284Y-88822364D01*
X214443156Y-89103782D01*
X214450110Y-89112069D01*
X214682476Y-89414894D01*
X214688681Y-89423755D01*
X214893775Y-89745689D01*
X214899183Y-89755057D01*
X215075430Y-90093623D01*
X215080002Y-90103427D01*
X215226075Y-90456078D01*
X215229775Y-90466244D01*
X215344554Y-90830278D01*
X215347354Y-90840727D01*
X215429971Y-91213389D01*
X215431849Y-91224042D01*
X215481671Y-91602473D01*
X215482614Y-91613249D01*
X215499382Y-91997297D01*
X215499500Y-92002706D01*
X215499500Y-155997293D01*
X215499382Y-156002702D01*
X215482614Y-156386750D01*
X215481671Y-156397526D01*
X215431849Y-156775957D01*
X215429971Y-156786610D01*
X215347354Y-157159272D01*
X215344554Y-157169721D01*
X215229775Y-157533755D01*
X215226075Y-157543921D01*
X215080002Y-157896572D01*
X215075430Y-157906376D01*
X214899183Y-158244942D01*
X214893775Y-158254310D01*
X214688681Y-158576244D01*
X214682476Y-158585105D01*
X214450110Y-158887930D01*
X214443156Y-158896217D01*
X214185284Y-159177635D01*
X214177635Y-159185284D01*
X213896217Y-159443156D01*
X213887930Y-159450110D01*
X213585105Y-159682476D01*
X213576244Y-159688681D01*
X213254310Y-159893775D01*
X213244942Y-159899183D01*
X212906376Y-160075430D01*
X212896572Y-160080002D01*
X212543921Y-160226075D01*
X212533755Y-160229775D01*
X212169721Y-160344554D01*
X212159272Y-160347354D01*
X211786610Y-160429971D01*
X211775957Y-160431849D01*
X211397526Y-160481671D01*
X211386750Y-160482614D01*
X211002703Y-160499382D01*
X210997294Y-160499500D01*
X185624500Y-160499500D01*
X185557461Y-160479815D01*
X185511706Y-160427011D01*
X185500500Y-160375500D01*
X185500500Y-155886780D01*
X209272500Y-155886780D01*
X209272500Y-156113219D01*
X209272501Y-156113235D01*
X209302056Y-156337731D01*
X209302057Y-156337736D01*
X209302058Y-156337742D01*
X209318077Y-156397526D01*
X209360667Y-156556476D01*
X209447322Y-156765681D01*
X209447329Y-156765696D01*
X209560553Y-156961806D01*
X209698408Y-157141462D01*
X209698414Y-157141469D01*
X209858530Y-157301585D01*
X209858537Y-157301591D01*
X210038193Y-157439446D01*
X210234303Y-157552670D01*
X210234318Y-157552677D01*
X210342507Y-157597490D01*
X210443522Y-157639332D01*
X210662258Y-157697942D01*
X210886774Y-157727500D01*
X210886781Y-157727500D01*
X211113219Y-157727500D01*
X211113226Y-157727500D01*
X211337742Y-157697942D01*
X211556478Y-157639332D01*
X211765693Y-157552672D01*
X211961807Y-157439446D01*
X212141464Y-157301590D01*
X212301590Y-157141464D01*
X212439446Y-156961807D01*
X212552672Y-156765693D01*
X212639332Y-156556478D01*
X212697942Y-156337742D01*
X212727500Y-156113226D01*
X212727500Y-155886774D01*
X212697942Y-155662258D01*
X212639332Y-155443522D01*
X212552672Y-155234307D01*
X212439446Y-155038193D01*
X212333790Y-154900500D01*
X212301591Y-154858537D01*
X212301585Y-154858530D01*
X212141469Y-154698414D01*
X212141462Y-154698408D01*
X211961806Y-154560553D01*
X211765696Y-154447329D01*
X211765681Y-154447322D01*
X211556476Y-154360667D01*
X211425576Y-154325593D01*
X211337742Y-154302058D01*
X211337736Y-154302057D01*
X211337731Y-154302056D01*
X211113235Y-154272501D01*
X211113232Y-154272500D01*
X211113226Y-154272500D01*
X210886774Y-154272500D01*
X210886768Y-154272500D01*
X210886764Y-154272501D01*
X210662268Y-154302056D01*
X210662261Y-154302057D01*
X210662258Y-154302058D01*
X210616031Y-154314444D01*
X210443523Y-154360667D01*
X210234318Y-154447322D01*
X210234303Y-154447329D01*
X210038193Y-154560553D01*
X209858537Y-154698408D01*
X209858530Y-154698414D01*
X209698414Y-154858530D01*
X209698408Y-154858537D01*
X209560553Y-155038193D01*
X209447329Y-155234303D01*
X209447322Y-155234318D01*
X209360667Y-155443523D01*
X209302059Y-155662255D01*
X209302056Y-155662268D01*
X209272501Y-155886764D01*
X209272500Y-155886780D01*
X185500500Y-155886780D01*
X185500500Y-154326538D01*
X185500437Y-154325605D01*
X185500432Y-154317815D01*
X185475935Y-154207316D01*
X185464857Y-154157343D01*
X185464856Y-154157341D01*
X185464855Y-154157339D01*
X185395390Y-154008370D01*
X185311852Y-153899500D01*
X185295331Y-153877969D01*
X185295329Y-153877967D01*
X185295328Y-153877966D01*
X185169414Y-153772310D01*
X185023615Y-153696411D01*
X184864846Y-153653868D01*
X184864845Y-153653867D01*
X184864842Y-153653867D01*
X184708882Y-153647057D01*
X184700632Y-153646697D01*
X184700631Y-153646697D01*
X184700625Y-153646697D01*
X184538764Y-153675236D01*
X184538754Y-153675239D01*
X184386902Y-153738136D01*
X184386895Y-153738140D01*
X184252255Y-153832414D01*
X184227642Y-153859275D01*
X184167837Y-153895402D01*
X184136221Y-153899500D01*
X176623787Y-153899500D01*
X176556748Y-153879815D01*
X176532366Y-153859275D01*
X176507750Y-153832412D01*
X176373104Y-153738133D01*
X176272376Y-153696411D01*
X176221241Y-153675231D01*
X176221236Y-153675230D01*
X176059371Y-153646691D01*
X176059368Y-153646691D01*
X176041056Y-153647490D01*
X175895152Y-153653861D01*
X175736384Y-153696405D01*
X175736381Y-153696406D01*
X175590580Y-153772306D01*
X175464667Y-153877960D01*
X175364608Y-154008362D01*
X175364602Y-154008372D01*
X175295137Y-154157339D01*
X175295136Y-154157341D01*
X175259561Y-154317815D01*
X175259555Y-154325824D01*
X175259500Y-154326681D01*
X175259500Y-160375500D01*
X175239815Y-160442539D01*
X175187011Y-160488294D01*
X175135500Y-160499500D01*
X141002706Y-160499500D01*
X140997297Y-160499382D01*
X140613249Y-160482614D01*
X140602473Y-160481671D01*
X140224042Y-160431849D01*
X140213389Y-160429971D01*
X139840727Y-160347354D01*
X139830278Y-160344554D01*
X139466244Y-160229775D01*
X139456078Y-160226075D01*
X139103427Y-160080002D01*
X139093623Y-160075430D01*
X138755057Y-159899183D01*
X138745689Y-159893775D01*
X138423755Y-159688681D01*
X138414894Y-159682476D01*
X138112069Y-159450110D01*
X138103782Y-159443156D01*
X137822364Y-159185284D01*
X137814715Y-159177635D01*
X137556843Y-158896217D01*
X137549889Y-158887930D01*
X137317523Y-158585105D01*
X137311318Y-158576244D01*
X137106224Y-158254310D01*
X137100816Y-158244942D01*
X136924569Y-157906376D01*
X136919997Y-157896572D01*
X136849965Y-157727500D01*
X136773920Y-157543911D01*
X136770224Y-157533755D01*
X136740489Y-157439446D01*
X136655442Y-157169710D01*
X136652648Y-157159284D01*
X136570025Y-156786597D01*
X136568152Y-156775971D01*
X136518326Y-156397506D01*
X136517386Y-156386771D01*
X136500618Y-156002702D01*
X136500500Y-155997293D01*
X136500500Y-155886780D01*
X139272500Y-155886780D01*
X139272500Y-156113219D01*
X139272501Y-156113235D01*
X139302056Y-156337731D01*
X139302057Y-156337736D01*
X139302058Y-156337742D01*
X139318077Y-156397526D01*
X139360667Y-156556476D01*
X139447322Y-156765681D01*
X139447329Y-156765696D01*
X139560553Y-156961806D01*
X139698408Y-157141462D01*
X139698414Y-157141469D01*
X139858530Y-157301585D01*
X139858537Y-157301591D01*
X140038193Y-157439446D01*
X140234303Y-157552670D01*
X140234318Y-157552677D01*
X140342507Y-157597490D01*
X140443522Y-157639332D01*
X140662258Y-157697942D01*
X140886774Y-157727500D01*
X140886781Y-157727500D01*
X141113219Y-157727500D01*
X141113226Y-157727500D01*
X141337742Y-157697942D01*
X141556478Y-157639332D01*
X141765693Y-157552672D01*
X141961807Y-157439446D01*
X142141464Y-157301590D01*
X142301590Y-157141464D01*
X142439446Y-156961807D01*
X142552672Y-156765693D01*
X142639332Y-156556478D01*
X142697942Y-156337742D01*
X142727500Y-156113226D01*
X142727500Y-155886774D01*
X142697942Y-155662258D01*
X142639332Y-155443522D01*
X142552672Y-155234307D01*
X142439446Y-155038193D01*
X142333790Y-154900500D01*
X142301591Y-154858537D01*
X142301585Y-154858530D01*
X142141469Y-154698414D01*
X142141462Y-154698408D01*
X141961806Y-154560553D01*
X141765696Y-154447329D01*
X141765681Y-154447322D01*
X141556476Y-154360667D01*
X141425576Y-154325593D01*
X141337742Y-154302058D01*
X141337736Y-154302057D01*
X141337731Y-154302056D01*
X141113235Y-154272501D01*
X141113232Y-154272500D01*
X141113226Y-154272500D01*
X140886774Y-154272500D01*
X140886768Y-154272500D01*
X140886764Y-154272501D01*
X140662268Y-154302056D01*
X140662261Y-154302057D01*
X140662258Y-154302058D01*
X140616031Y-154314444D01*
X140443523Y-154360667D01*
X140234318Y-154447322D01*
X140234303Y-154447329D01*
X140038193Y-154560553D01*
X139858537Y-154698408D01*
X139858530Y-154698414D01*
X139698414Y-154858530D01*
X139698408Y-154858537D01*
X139560553Y-155038193D01*
X139447329Y-155234303D01*
X139447322Y-155234318D01*
X139360667Y-155443523D01*
X139302059Y-155662255D01*
X139302056Y-155662268D01*
X139272501Y-155886764D01*
X139272500Y-155886780D01*
X136500500Y-155886780D01*
X136500500Y-153997135D01*
X148035800Y-153997135D01*
X148035800Y-156122870D01*
X148035801Y-156122876D01*
X148042208Y-156182483D01*
X148092502Y-156317328D01*
X148092506Y-156317335D01*
X148178752Y-156432544D01*
X148178755Y-156432547D01*
X148293964Y-156518793D01*
X148293971Y-156518797D01*
X148428817Y-156569091D01*
X148428816Y-156569091D01*
X148435744Y-156569835D01*
X148488427Y-156575500D01*
X150314172Y-156575499D01*
X150373783Y-156569091D01*
X150508631Y-156518796D01*
X150623846Y-156432546D01*
X150710096Y-156317331D01*
X150753348Y-156201365D01*
X150795217Y-156145433D01*
X150860681Y-156121015D01*
X150928954Y-156135866D01*
X150957210Y-156157018D01*
X151051737Y-156251545D01*
X151225622Y-156377880D01*
X151264180Y-156397526D01*
X151417129Y-156475458D01*
X151417132Y-156475459D01*
X151607794Y-156537408D01*
X151621545Y-156541876D01*
X151833833Y-156575500D01*
X151833834Y-156575500D01*
X152048766Y-156575500D01*
X152048767Y-156575500D01*
X152261055Y-156541876D01*
X152261058Y-156541875D01*
X152261059Y-156541875D01*
X152465467Y-156475459D01*
X152465470Y-156475458D01*
X152656978Y-156377880D01*
X152830863Y-156251545D01*
X152982845Y-156099563D01*
X153109180Y-155925678D01*
X153109179Y-155925678D01*
X153110982Y-155923198D01*
X153166312Y-155880532D01*
X153235925Y-155874553D01*
X153297720Y-155907159D01*
X153311618Y-155923198D01*
X153313420Y-155925678D01*
X153439755Y-156099563D01*
X153591737Y-156251545D01*
X153765622Y-156377880D01*
X153804180Y-156397526D01*
X153957129Y-156475458D01*
X153957132Y-156475459D01*
X154147794Y-156537408D01*
X154161545Y-156541876D01*
X154373833Y-156575500D01*
X154373834Y-156575500D01*
X154588766Y-156575500D01*
X154588767Y-156575500D01*
X154801055Y-156541876D01*
X154801058Y-156541875D01*
X154801059Y-156541875D01*
X155005467Y-156475459D01*
X155005470Y-156475458D01*
X155196978Y-156377880D01*
X155370863Y-156251545D01*
X155522845Y-156099563D01*
X155649180Y-155925678D01*
X155649179Y-155925678D01*
X155650982Y-155923198D01*
X155706312Y-155880532D01*
X155775925Y-155874553D01*
X155837720Y-155907159D01*
X155851618Y-155923198D01*
X155853420Y-155925678D01*
X155979755Y-156099563D01*
X156131737Y-156251545D01*
X156305622Y-156377880D01*
X156344180Y-156397526D01*
X156497129Y-156475458D01*
X156497132Y-156475459D01*
X156687794Y-156537408D01*
X156701545Y-156541876D01*
X156913833Y-156575500D01*
X156913834Y-156575500D01*
X157128766Y-156575500D01*
X157128767Y-156575500D01*
X157341055Y-156541876D01*
X157341058Y-156541875D01*
X157341059Y-156541875D01*
X157545467Y-156475459D01*
X157545470Y-156475458D01*
X157736978Y-156377880D01*
X157910863Y-156251545D01*
X158062845Y-156099563D01*
X158189180Y-155925678D01*
X158286758Y-155734170D01*
X158310120Y-155662268D01*
X158353175Y-155529759D01*
X158353175Y-155529758D01*
X158353176Y-155529755D01*
X158386800Y-155317467D01*
X158386800Y-154802533D01*
X158353176Y-154590245D01*
X158353175Y-154590241D01*
X158353175Y-154590240D01*
X158286759Y-154385832D01*
X158286758Y-154385829D01*
X158198615Y-154212840D01*
X158189180Y-154194322D01*
X158062845Y-154020437D01*
X157910863Y-153868455D01*
X157736978Y-153742120D01*
X157729151Y-153738132D01*
X157545470Y-153644541D01*
X157545467Y-153644540D01*
X157341057Y-153578124D01*
X157198444Y-153555536D01*
X157128767Y-153544500D01*
X156913833Y-153544500D01*
X156844156Y-153555536D01*
X156701543Y-153578124D01*
X156701540Y-153578124D01*
X156497132Y-153644540D01*
X156497129Y-153644541D01*
X156305621Y-153742120D01*
X156222281Y-153802671D01*
X156131737Y-153868455D01*
X156131735Y-153868457D01*
X156131734Y-153868457D01*
X155979757Y-154020434D01*
X155979757Y-154020435D01*
X155979755Y-154020437D01*
X155882323Y-154154539D01*
X155851618Y-154196802D01*
X155796288Y-154239467D01*
X155726674Y-154245446D01*
X155664879Y-154212840D01*
X155650982Y-154196802D01*
X155622313Y-154157343D01*
X155522845Y-154020437D01*
X155370863Y-153868455D01*
X155196978Y-153742120D01*
X155189151Y-153738132D01*
X155005470Y-153644541D01*
X155005467Y-153644540D01*
X154963500Y-153630905D01*
X154905825Y-153591468D01*
X154878626Y-153527109D01*
X154890540Y-153458263D01*
X154914134Y-153425295D01*
X155007549Y-153331881D01*
X155081693Y-153220917D01*
X155132764Y-153097619D01*
X155158800Y-152966728D01*
X155158800Y-152833272D01*
X155158800Y-152833269D01*
X155158799Y-152833267D01*
X155150466Y-152791371D01*
X155146865Y-152773267D01*
X167522500Y-152773267D01*
X167522500Y-152906732D01*
X167548533Y-153037610D01*
X167548536Y-153037620D01*
X167599607Y-153160917D01*
X167599608Y-153160920D01*
X167673750Y-153271880D01*
X167673753Y-153271884D01*
X167768115Y-153366246D01*
X167768119Y-153366249D01*
X167879079Y-153440391D01*
X167879081Y-153440391D01*
X167879083Y-153440393D01*
X168002381Y-153491464D01*
X168002384Y-153491464D01*
X168002389Y-153491466D01*
X168133267Y-153517499D01*
X168133270Y-153517500D01*
X168133272Y-153517500D01*
X168266730Y-153517500D01*
X168266731Y-153517499D01*
X168331312Y-153504653D01*
X168397610Y-153491466D01*
X168397612Y-153491465D01*
X168397619Y-153491464D01*
X168520917Y-153440393D01*
X168631881Y-153366249D01*
X168726249Y-153271881D01*
X168800393Y-153160917D01*
X168851464Y-153037619D01*
X168877500Y-152906728D01*
X168877500Y-152773272D01*
X168877500Y-152773269D01*
X168877499Y-152773267D01*
X168851466Y-152642389D01*
X168851463Y-152642379D01*
X168825245Y-152579082D01*
X168800393Y-152519083D01*
X168800391Y-152519081D01*
X168800391Y-152519079D01*
X168726249Y-152408119D01*
X168726246Y-152408115D01*
X168631884Y-152313753D01*
X168631880Y-152313750D01*
X168520920Y-152239608D01*
X168520917Y-152239607D01*
X168397620Y-152188536D01*
X168397610Y-152188533D01*
X168266731Y-152162500D01*
X168266728Y-152162500D01*
X168133272Y-152162500D01*
X168133269Y-152162500D01*
X168002389Y-152188533D01*
X168002379Y-152188536D01*
X167879082Y-152239607D01*
X167879079Y-152239608D01*
X167768119Y-152313750D01*
X167768115Y-152313753D01*
X167673753Y-152408115D01*
X167673750Y-152408119D01*
X167599608Y-152519079D01*
X167599607Y-152519082D01*
X167548536Y-152642379D01*
X167548533Y-152642389D01*
X167522500Y-152773267D01*
X155146865Y-152773267D01*
X155136691Y-152722125D01*
X155132764Y-152702381D01*
X155081693Y-152579083D01*
X155081691Y-152579081D01*
X155081691Y-152579079D01*
X155007549Y-152468119D01*
X155007546Y-152468115D01*
X154913184Y-152373753D01*
X154913180Y-152373750D01*
X154802220Y-152299608D01*
X154802217Y-152299607D01*
X154678920Y-152248536D01*
X154678910Y-152248533D01*
X154548031Y-152222500D01*
X154548028Y-152222500D01*
X154414572Y-152222500D01*
X154414569Y-152222500D01*
X154283689Y-152248533D01*
X154283679Y-152248536D01*
X154160382Y-152299607D01*
X154160379Y-152299608D01*
X154049419Y-152373750D01*
X154049415Y-152373753D01*
X153955053Y-152468115D01*
X153955050Y-152468119D01*
X153880908Y-152579079D01*
X153880907Y-152579082D01*
X153829836Y-152702379D01*
X153829833Y-152702389D01*
X153803800Y-152833267D01*
X153803800Y-152966732D01*
X153829833Y-153097610D01*
X153829836Y-153097620D01*
X153880907Y-153220917D01*
X153880908Y-153220920D01*
X153955050Y-153331880D01*
X153955053Y-153331884D01*
X154048462Y-153425293D01*
X154081947Y-153486616D01*
X154076963Y-153556308D01*
X154035091Y-153612241D01*
X153999099Y-153630905D01*
X153957132Y-153644540D01*
X153957129Y-153644541D01*
X153765621Y-153742120D01*
X153682281Y-153802671D01*
X153591737Y-153868455D01*
X153591735Y-153868457D01*
X153591734Y-153868457D01*
X153439757Y-154020434D01*
X153439757Y-154020435D01*
X153439755Y-154020437D01*
X153342323Y-154154539D01*
X153311618Y-154196802D01*
X153256288Y-154239467D01*
X153186674Y-154245446D01*
X153124879Y-154212840D01*
X153110982Y-154196802D01*
X153082313Y-154157343D01*
X152982845Y-154020437D01*
X152830863Y-153868455D01*
X152656978Y-153742120D01*
X152649151Y-153738132D01*
X152465470Y-153644541D01*
X152465467Y-153644540D01*
X152261057Y-153578124D01*
X152118444Y-153555536D01*
X152048767Y-153544500D01*
X151833833Y-153544500D01*
X151764156Y-153555536D01*
X151621543Y-153578124D01*
X151621540Y-153578124D01*
X151417132Y-153644540D01*
X151417129Y-153644541D01*
X151225621Y-153742120D01*
X151051738Y-153868454D01*
X150957210Y-153962982D01*
X150895886Y-153996466D01*
X150826195Y-153991482D01*
X150770262Y-153949610D01*
X150753347Y-153918632D01*
X150746211Y-153899500D01*
X150721190Y-153832414D01*
X150710098Y-153802673D01*
X150710093Y-153802664D01*
X150623847Y-153687455D01*
X150623844Y-153687452D01*
X150508635Y-153601206D01*
X150508628Y-153601202D01*
X150373782Y-153550908D01*
X150373783Y-153550908D01*
X150314183Y-153544501D01*
X150314181Y-153544500D01*
X150314173Y-153544500D01*
X150314164Y-153544500D01*
X148488429Y-153544500D01*
X148488423Y-153544501D01*
X148428816Y-153550908D01*
X148293971Y-153601202D01*
X148293964Y-153601206D01*
X148178755Y-153687452D01*
X148178752Y-153687455D01*
X148092506Y-153802664D01*
X148092502Y-153802671D01*
X148042208Y-153937517D01*
X148035801Y-153997116D01*
X148035800Y-153997135D01*
X136500500Y-153997135D01*
X136500500Y-145952935D01*
X181249838Y-145952935D01*
X181249838Y-146189130D01*
X181286784Y-146422401D01*
X181359771Y-146647029D01*
X181426255Y-146777510D01*
X181466995Y-146857467D01*
X181605821Y-147048543D01*
X181772828Y-147215550D01*
X181963904Y-147354376D01*
X182063330Y-147405036D01*
X182174341Y-147461599D01*
X182174343Y-147461599D01*
X182174346Y-147461601D01*
X182294750Y-147500722D01*
X182398969Y-147534586D01*
X182632241Y-147571533D01*
X182632246Y-147571533D01*
X182868434Y-147571533D01*
X182930842Y-147561648D01*
X182950241Y-147560121D01*
X183220976Y-147560121D01*
X183454247Y-147523174D01*
X183678871Y-147450189D01*
X183889313Y-147342964D01*
X184080389Y-147204138D01*
X184507018Y-146777510D01*
X184600918Y-146648265D01*
X184613551Y-146633476D01*
X184707013Y-146540015D01*
X184707013Y-146540014D01*
X184707018Y-146540010D01*
X184845843Y-146348934D01*
X184953068Y-146138492D01*
X185026053Y-145913869D01*
X185056812Y-145719664D01*
X185063000Y-145680597D01*
X185063000Y-145444402D01*
X185026053Y-145211131D01*
X184987839Y-145093523D01*
X184953068Y-144986508D01*
X184876515Y-144836263D01*
X184863000Y-144779968D01*
X184863000Y-140565782D01*
X184882685Y-140498743D01*
X184899314Y-140478105D01*
X185139640Y-140237781D01*
X185249132Y-140073914D01*
X185324552Y-139891835D01*
X185362847Y-139699315D01*
X185395232Y-139637404D01*
X185396735Y-139635873D01*
X185576324Y-139456283D01*
X185616546Y-139429407D01*
X185679921Y-139403158D01*
X185802842Y-139321025D01*
X185813205Y-139310660D01*
X185874526Y-139277175D01*
X185944218Y-139282157D01*
X185988569Y-139310659D01*
X188500681Y-141822771D01*
X188534166Y-141884094D01*
X188537000Y-141910452D01*
X188537000Y-144161609D01*
X188554192Y-144248041D01*
X188559923Y-144276853D01*
X188561037Y-144282451D01*
X188591516Y-144356035D01*
X188608187Y-144396285D01*
X188608188Y-144396286D01*
X188634621Y-144435844D01*
X188676642Y-144498733D01*
X188763767Y-144585858D01*
X188763769Y-144585859D01*
X188774085Y-144596175D01*
X195663763Y-151485855D01*
X195663767Y-151485858D01*
X195766210Y-151554309D01*
X195766211Y-151554309D01*
X195766215Y-151554312D01*
X195819698Y-151576465D01*
X195880048Y-151601463D01*
X195900097Y-151605451D01*
X195908518Y-151607126D01*
X196000892Y-151625501D01*
X196000894Y-151625501D01*
X196130221Y-151625501D01*
X196130241Y-151625500D01*
X205320150Y-151625500D01*
X205387189Y-151645185D01*
X205389041Y-151646398D01*
X205483321Y-151709394D01*
X205483323Y-151709395D01*
X205483327Y-151709397D01*
X205628998Y-151769735D01*
X205629003Y-151769737D01*
X205783653Y-151800499D01*
X205783656Y-151800500D01*
X205783658Y-151800500D01*
X205941344Y-151800500D01*
X205941345Y-151800499D01*
X206095997Y-151769737D01*
X206241679Y-151709394D01*
X206372789Y-151621789D01*
X206484289Y-151510289D01*
X206571894Y-151379179D01*
X206632237Y-151233497D01*
X206663000Y-151078842D01*
X206663000Y-150921158D01*
X206663000Y-150921155D01*
X206662999Y-150921153D01*
X206632238Y-150766510D01*
X206632237Y-150766503D01*
X206632235Y-150766498D01*
X206571897Y-150620827D01*
X206571890Y-150620814D01*
X206484289Y-150489711D01*
X206484286Y-150489707D01*
X206372792Y-150378213D01*
X206372788Y-150378210D01*
X206241685Y-150290609D01*
X206241672Y-150290602D01*
X206096001Y-150230264D01*
X206095989Y-150230261D01*
X205941345Y-150199500D01*
X205941342Y-150199500D01*
X205783658Y-150199500D01*
X205783655Y-150199500D01*
X205629010Y-150230261D01*
X205628998Y-150230264D01*
X205483327Y-150290602D01*
X205483315Y-150290609D01*
X205389041Y-150353602D01*
X205322364Y-150374480D01*
X205320150Y-150374500D01*
X196372953Y-150374500D01*
X196305914Y-150354815D01*
X196285272Y-150338181D01*
X189824319Y-143877228D01*
X189790834Y-143815905D01*
X189788000Y-143789547D01*
X189788000Y-141538393D01*
X189787999Y-141538389D01*
X189763964Y-141417555D01*
X189763963Y-141417548D01*
X189716811Y-141303714D01*
X189716810Y-141303713D01*
X189716807Y-141303707D01*
X189648358Y-141201267D01*
X189648355Y-141201263D01*
X189558137Y-141111045D01*
X189558106Y-141111016D01*
X188380357Y-139933267D01*
X207162500Y-139933267D01*
X207162500Y-140066732D01*
X207188533Y-140197610D01*
X207188536Y-140197620D01*
X207239607Y-140320917D01*
X207239608Y-140320920D01*
X207313750Y-140431880D01*
X207313753Y-140431884D01*
X207408115Y-140526246D01*
X207408119Y-140526249D01*
X207519079Y-140600391D01*
X207519081Y-140600391D01*
X207519083Y-140600393D01*
X207642381Y-140651464D01*
X207642384Y-140651464D01*
X207642389Y-140651466D01*
X207773267Y-140677499D01*
X207773270Y-140677500D01*
X207773272Y-140677500D01*
X207906730Y-140677500D01*
X207906731Y-140677499D01*
X207971312Y-140664653D01*
X208037610Y-140651466D01*
X208037612Y-140651465D01*
X208037619Y-140651464D01*
X208160917Y-140600393D01*
X208271881Y-140526249D01*
X208365294Y-140432835D01*
X208426615Y-140399352D01*
X208496307Y-140404336D01*
X208552241Y-140446207D01*
X208570905Y-140482200D01*
X208584540Y-140524167D01*
X208584541Y-140524170D01*
X208623379Y-140600393D01*
X208682120Y-140715678D01*
X208808455Y-140889563D01*
X208960437Y-141041545D01*
X209060354Y-141114139D01*
X209136802Y-141169682D01*
X209179467Y-141225012D01*
X209185446Y-141294626D01*
X209152840Y-141356421D01*
X209136802Y-141370318D01*
X209134322Y-141372120D01*
X208960437Y-141498455D01*
X208960435Y-141498457D01*
X208960434Y-141498457D01*
X208808457Y-141650434D01*
X208808457Y-141650435D01*
X208808455Y-141650437D01*
X208754198Y-141725114D01*
X208682120Y-141824321D01*
X208584541Y-142015829D01*
X208584540Y-142015832D01*
X208518124Y-142220240D01*
X208518124Y-142220243D01*
X208484500Y-142432534D01*
X208484500Y-142647465D01*
X208518124Y-142859756D01*
X208518124Y-142859759D01*
X208584540Y-143064167D01*
X208584541Y-143064170D01*
X208682120Y-143255678D01*
X208808455Y-143429563D01*
X208808457Y-143429565D01*
X208902981Y-143524089D01*
X208936466Y-143585412D01*
X208931482Y-143655104D01*
X208889610Y-143711037D01*
X208858633Y-143727952D01*
X208742671Y-143771202D01*
X208742664Y-143771206D01*
X208627455Y-143857452D01*
X208627452Y-143857455D01*
X208541206Y-143972664D01*
X208541202Y-143972671D01*
X208490908Y-144107517D01*
X208485093Y-144161609D01*
X208484501Y-144167123D01*
X208484500Y-144167135D01*
X208484500Y-145992870D01*
X208484501Y-145992876D01*
X208490908Y-146052483D01*
X208541202Y-146187328D01*
X208541206Y-146187335D01*
X208627452Y-146302544D01*
X208627455Y-146302547D01*
X208742664Y-146388793D01*
X208742671Y-146388797D01*
X208877517Y-146439091D01*
X208877516Y-146439091D01*
X208884444Y-146439835D01*
X208937127Y-146445500D01*
X211062872Y-146445499D01*
X211122483Y-146439091D01*
X211257331Y-146388796D01*
X211372546Y-146302546D01*
X211458796Y-146187331D01*
X211509091Y-146052483D01*
X211515500Y-145992873D01*
X211515499Y-144167128D01*
X211509091Y-144107517D01*
X211458796Y-143972669D01*
X211458795Y-143972668D01*
X211458793Y-143972664D01*
X211372547Y-143857455D01*
X211372544Y-143857452D01*
X211257335Y-143771206D01*
X211257328Y-143771202D01*
X211141366Y-143727952D01*
X211085433Y-143686081D01*
X211061015Y-143620617D01*
X211075866Y-143552344D01*
X211097012Y-143524095D01*
X211191545Y-143429563D01*
X211317880Y-143255678D01*
X211415458Y-143064170D01*
X211481876Y-142859755D01*
X211515500Y-142647467D01*
X211515500Y-142432533D01*
X211481876Y-142220245D01*
X211481875Y-142220241D01*
X211481875Y-142220240D01*
X211415459Y-142015832D01*
X211415458Y-142015829D01*
X211317879Y-141824321D01*
X211316753Y-141822771D01*
X211191545Y-141650437D01*
X211039563Y-141498455D01*
X210865678Y-141372120D01*
X210863198Y-141370318D01*
X210820532Y-141314988D01*
X210814553Y-141245375D01*
X210847159Y-141183580D01*
X210863198Y-141169682D01*
X210939646Y-141114139D01*
X211039563Y-141041545D01*
X211191545Y-140889563D01*
X211317880Y-140715678D01*
X211415458Y-140524170D01*
X211456014Y-140399352D01*
X211481875Y-140319759D01*
X211481875Y-140319758D01*
X211481876Y-140319755D01*
X211515500Y-140107467D01*
X211515500Y-139892533D01*
X211481876Y-139680245D01*
X211481875Y-139680241D01*
X211481875Y-139680240D01*
X211415459Y-139475832D01*
X211415458Y-139475829D01*
X211365739Y-139378251D01*
X211317880Y-139284322D01*
X211191545Y-139110437D01*
X211039563Y-138958455D01*
X210865678Y-138832120D01*
X210863198Y-138830318D01*
X210820532Y-138774988D01*
X210814553Y-138705375D01*
X210847159Y-138643580D01*
X210863198Y-138629682D01*
X210922189Y-138586822D01*
X211039563Y-138501545D01*
X211191545Y-138349563D01*
X211317880Y-138175678D01*
X211415458Y-137984170D01*
X211481876Y-137779755D01*
X211515500Y-137567467D01*
X211515500Y-137352533D01*
X211481876Y-137140245D01*
X211481875Y-137140241D01*
X211481875Y-137140240D01*
X211415459Y-136935832D01*
X211415458Y-136935829D01*
X211346504Y-136800500D01*
X211317880Y-136744322D01*
X211191545Y-136570437D01*
X211039563Y-136418455D01*
X210865678Y-136292120D01*
X210674170Y-136194541D01*
X210674167Y-136194540D01*
X210469757Y-136128124D01*
X210328229Y-136105708D01*
X210257467Y-136094500D01*
X209742533Y-136094500D01*
X209671770Y-136105708D01*
X209530243Y-136128124D01*
X209530240Y-136128124D01*
X209325832Y-136194540D01*
X209325829Y-136194541D01*
X209134321Y-136292120D01*
X209104015Y-136314139D01*
X208960437Y-136418455D01*
X208960435Y-136418457D01*
X208960434Y-136418457D01*
X208808457Y-136570434D01*
X208808457Y-136570435D01*
X208808455Y-136570437D01*
X208776043Y-136615048D01*
X208682120Y-136744321D01*
X208584541Y-136935829D01*
X208584540Y-136935832D01*
X208518124Y-137140240D01*
X208518124Y-137140243D01*
X208484500Y-137352534D01*
X208484500Y-137567465D01*
X208518124Y-137779756D01*
X208518124Y-137779759D01*
X208584540Y-137984167D01*
X208584541Y-137984170D01*
X208682120Y-138175678D01*
X208808455Y-138349563D01*
X208960437Y-138501545D01*
X209077811Y-138586822D01*
X209136802Y-138629682D01*
X209179467Y-138685012D01*
X209185446Y-138754626D01*
X209152840Y-138816421D01*
X209136802Y-138830318D01*
X209134322Y-138832120D01*
X208960437Y-138958455D01*
X208960435Y-138958457D01*
X208960434Y-138958457D01*
X208808457Y-139110434D01*
X208808457Y-139110435D01*
X208808455Y-139110437D01*
X208754198Y-139185114D01*
X208682120Y-139284321D01*
X208584541Y-139475829D01*
X208584540Y-139475832D01*
X208570905Y-139517799D01*
X208531467Y-139575475D01*
X208467109Y-139602673D01*
X208398262Y-139590758D01*
X208365293Y-139567162D01*
X208271884Y-139473753D01*
X208271880Y-139473750D01*
X208160920Y-139399608D01*
X208160917Y-139399607D01*
X208037620Y-139348536D01*
X208037610Y-139348533D01*
X207906731Y-139322500D01*
X207906728Y-139322500D01*
X207773272Y-139322500D01*
X207773269Y-139322500D01*
X207642389Y-139348533D01*
X207642379Y-139348536D01*
X207519082Y-139399607D01*
X207519079Y-139399608D01*
X207408119Y-139473750D01*
X207408115Y-139473753D01*
X207313753Y-139568115D01*
X207313750Y-139568119D01*
X207239608Y-139679079D01*
X207239607Y-139679082D01*
X207188536Y-139802379D01*
X207188533Y-139802389D01*
X207162500Y-139933267D01*
X188380357Y-139933267D01*
X185655650Y-137208560D01*
X185648360Y-137201270D01*
X185648358Y-137201267D01*
X185561233Y-137114142D01*
X185510009Y-137079915D01*
X185458786Y-137045688D01*
X185458783Y-137045686D01*
X185458780Y-137045685D01*
X185385756Y-137015438D01*
X185385751Y-137015436D01*
X185378292Y-137012347D01*
X185344952Y-136998537D01*
X185264080Y-136982451D01*
X185260068Y-136981653D01*
X185260057Y-136981650D01*
X185231351Y-136975941D01*
X185224107Y-136974500D01*
X185224106Y-136974500D01*
X183604187Y-136974500D01*
X183587542Y-136969755D01*
X183571144Y-136970016D01*
X183542597Y-136956945D01*
X183538811Y-136955866D01*
X183537034Y-136954763D01*
X183479179Y-136916106D01*
X183465797Y-136910563D01*
X183457207Y-136905233D01*
X183440375Y-136886419D01*
X183420723Y-136870581D01*
X183417476Y-136860824D01*
X183410620Y-136853161D01*
X183406631Y-136828236D01*
X183398662Y-136804286D01*
X183401205Y-136794322D01*
X183399581Y-136784169D01*
X183409700Y-136761045D01*
X183415945Y-136736587D01*
X183426159Y-136723439D01*
X183427594Y-136720161D01*
X183429896Y-136718629D01*
X183434898Y-136712190D01*
X183871297Y-136275791D01*
X183932618Y-136242308D01*
X183934628Y-136241889D01*
X184045997Y-136219737D01*
X184191679Y-136159394D01*
X184322789Y-136071789D01*
X184434289Y-135960289D01*
X184521894Y-135829179D01*
X184582237Y-135683497D01*
X184613000Y-135528842D01*
X184613000Y-135371158D01*
X184613000Y-135371155D01*
X184612999Y-135371153D01*
X184602986Y-135320814D01*
X184582237Y-135216503D01*
X184582235Y-135216498D01*
X184521897Y-135070827D01*
X184521890Y-135070814D01*
X184434289Y-134939711D01*
X184434286Y-134939707D01*
X184322792Y-134828213D01*
X184322788Y-134828210D01*
X184191685Y-134740609D01*
X184191672Y-134740602D01*
X184046001Y-134680264D01*
X184045989Y-134680261D01*
X183891345Y-134649500D01*
X183891342Y-134649500D01*
X183733658Y-134649500D01*
X183733655Y-134649500D01*
X183579010Y-134680261D01*
X183578998Y-134680264D01*
X183433327Y-134740602D01*
X183433314Y-134740609D01*
X183302211Y-134828210D01*
X183302207Y-134828213D01*
X183190713Y-134939707D01*
X183190710Y-134939711D01*
X183103109Y-135070814D01*
X183103102Y-135070827D01*
X183042764Y-135216498D01*
X183042761Y-135216508D01*
X183020641Y-135327714D01*
X182988256Y-135389625D01*
X182986705Y-135391203D01*
X182065621Y-136312287D01*
X182065609Y-136312299D01*
X182063770Y-136314139D01*
X182063767Y-136314142D01*
X181976642Y-136401267D01*
X181962755Y-136422051D01*
X181957437Y-136430010D01*
X181908187Y-136503714D01*
X181905463Y-136510292D01*
X181883007Y-136564507D01*
X181861038Y-136617544D01*
X181861035Y-136617556D01*
X181837000Y-136738389D01*
X181837000Y-138635040D01*
X181827561Y-138682492D01*
X181792763Y-138766501D01*
X181792760Y-138766511D01*
X181762000Y-138921153D01*
X181762000Y-139078846D01*
X181792761Y-139233489D01*
X181792764Y-139233501D01*
X181853102Y-139379172D01*
X181853109Y-139379185D01*
X181940710Y-139510288D01*
X181940713Y-139510292D01*
X182052208Y-139621787D01*
X182052211Y-139621789D01*
X182056911Y-139624929D01*
X182101719Y-139678539D01*
X182110430Y-139747863D01*
X182088347Y-139800917D01*
X182079157Y-139813565D01*
X181971933Y-140024003D01*
X181898946Y-140248631D01*
X181862000Y-140481902D01*
X181862000Y-144785981D01*
X181842315Y-144853020D01*
X181825681Y-144873662D01*
X181605822Y-145093521D01*
X181466995Y-145284598D01*
X181359771Y-145495036D01*
X181286784Y-145719664D01*
X181249838Y-145952935D01*
X136500500Y-145952935D01*
X136500500Y-135621153D01*
X145280800Y-135621153D01*
X145280800Y-135778846D01*
X145311561Y-135933489D01*
X145311564Y-135933501D01*
X145371902Y-136079172D01*
X145371909Y-136079185D01*
X145459510Y-136210288D01*
X145459513Y-136210292D01*
X145571007Y-136321786D01*
X145571011Y-136321789D01*
X145702114Y-136409390D01*
X145702127Y-136409397D01*
X145801360Y-136450500D01*
X145847803Y-136469737D01*
X146002453Y-136500499D01*
X146002456Y-136500500D01*
X146002458Y-136500500D01*
X146160144Y-136500500D01*
X146160145Y-136500499D01*
X146236452Y-136485320D01*
X146314788Y-136469739D01*
X146314789Y-136469738D01*
X146314797Y-136469737D01*
X146338455Y-136459937D01*
X146385904Y-136450500D01*
X152053282Y-136450500D01*
X152120321Y-136470185D01*
X152156386Y-136505612D01*
X152159511Y-136510290D01*
X152271007Y-136621786D01*
X152271011Y-136621789D01*
X152402114Y-136709390D01*
X152402127Y-136709397D01*
X152486445Y-136744322D01*
X152547803Y-136769737D01*
X152702453Y-136800499D01*
X152702456Y-136800500D01*
X152702458Y-136800500D01*
X152860144Y-136800500D01*
X152860145Y-136800499D01*
X153014797Y-136769737D01*
X153138184Y-136718629D01*
X153160472Y-136709397D01*
X153160472Y-136709396D01*
X153160479Y-136709394D01*
X153291589Y-136621789D01*
X153403089Y-136510289D01*
X153490694Y-136379179D01*
X153551037Y-136233497D01*
X153581800Y-136078842D01*
X153581800Y-135921158D01*
X153581800Y-135921155D01*
X153581799Y-135921153D01*
X153563504Y-135829179D01*
X153551037Y-135766503D01*
X153490832Y-135621153D01*
X153490697Y-135620827D01*
X153490690Y-135620814D01*
X153403089Y-135489711D01*
X153403086Y-135489707D01*
X153291592Y-135378213D01*
X153291588Y-135378210D01*
X153254926Y-135353713D01*
X165230800Y-135353713D01*
X165230800Y-135566286D01*
X165262510Y-135766498D01*
X165264054Y-135776243D01*
X165323855Y-135960292D01*
X165329744Y-135978414D01*
X165426251Y-136167820D01*
X165551190Y-136339786D01*
X165701513Y-136490109D01*
X165873479Y-136615048D01*
X165873481Y-136615049D01*
X165873484Y-136615051D01*
X166062888Y-136711557D01*
X166265057Y-136777246D01*
X166475013Y-136810500D01*
X166475014Y-136810500D01*
X166687586Y-136810500D01*
X166687587Y-136810500D01*
X166897543Y-136777246D01*
X167099712Y-136711557D01*
X167289116Y-136615051D01*
X167311089Y-136599086D01*
X167461086Y-136490109D01*
X167461088Y-136490106D01*
X167461092Y-136490104D01*
X167611404Y-136339792D01*
X167611406Y-136339788D01*
X167611409Y-136339786D01*
X167736348Y-136167820D01*
X167736347Y-136167820D01*
X167736351Y-136167816D01*
X167832857Y-135978412D01*
X167898546Y-135776243D01*
X167931800Y-135566287D01*
X167931800Y-135353713D01*
X167898546Y-135143757D01*
X167832857Y-134941588D01*
X167736351Y-134752184D01*
X167736349Y-134752181D01*
X167736348Y-134752179D01*
X167611409Y-134580213D01*
X167461086Y-134429890D01*
X167289120Y-134304951D01*
X167099714Y-134208444D01*
X167099713Y-134208443D01*
X167099712Y-134208443D01*
X166897543Y-134142754D01*
X166897541Y-134142753D01*
X166897540Y-134142753D01*
X166736257Y-134117208D01*
X166687587Y-134109500D01*
X166475013Y-134109500D01*
X166426342Y-134117208D01*
X166265060Y-134142753D01*
X166062885Y-134208444D01*
X165873479Y-134304951D01*
X165701513Y-134429890D01*
X165551190Y-134580213D01*
X165426251Y-134752179D01*
X165329744Y-134941585D01*
X165329743Y-134941587D01*
X165329743Y-134941588D01*
X165317801Y-134978342D01*
X165264053Y-135143760D01*
X165230800Y-135353713D01*
X153254926Y-135353713D01*
X153160485Y-135290609D01*
X153160475Y-135290604D01*
X153136823Y-135280807D01*
X153096597Y-135253929D01*
X152959716Y-135117048D01*
X152959715Y-135117047D01*
X152959714Y-135117046D01*
X152861266Y-135051266D01*
X152861265Y-135051266D01*
X152836795Y-135034916D01*
X152836788Y-135034912D01*
X152700217Y-134978343D01*
X152700207Y-134978340D01*
X152555220Y-134949500D01*
X152555218Y-134949500D01*
X146385904Y-134949500D01*
X146338455Y-134940062D01*
X146314797Y-134930263D01*
X146314793Y-134930262D01*
X146314788Y-134930260D01*
X146160145Y-134899500D01*
X146160142Y-134899500D01*
X146002458Y-134899500D01*
X146002455Y-134899500D01*
X145847810Y-134930261D01*
X145847798Y-134930264D01*
X145702127Y-134990602D01*
X145702114Y-134990609D01*
X145571011Y-135078210D01*
X145571007Y-135078213D01*
X145459513Y-135189707D01*
X145459510Y-135189711D01*
X145371909Y-135320814D01*
X145371902Y-135320827D01*
X145311564Y-135466498D01*
X145311561Y-135466510D01*
X145280800Y-135621153D01*
X136500500Y-135621153D01*
X136500500Y-121687135D01*
X140084500Y-121687135D01*
X140084500Y-123512870D01*
X140084501Y-123512876D01*
X140090908Y-123572483D01*
X140141202Y-123707328D01*
X140141206Y-123707335D01*
X140227452Y-123822544D01*
X140227455Y-123822547D01*
X140342664Y-123908793D01*
X140342673Y-123908798D01*
X140410723Y-123934178D01*
X140458632Y-123952047D01*
X140514566Y-123993917D01*
X140538984Y-124059381D01*
X140524133Y-124127654D01*
X140502982Y-124155910D01*
X140408454Y-124250438D01*
X140282120Y-124424321D01*
X140184541Y-124615829D01*
X140184540Y-124615832D01*
X140118124Y-124820240D01*
X140118124Y-124820243D01*
X140084500Y-125032534D01*
X140084500Y-125247465D01*
X140118124Y-125459756D01*
X140118124Y-125459759D01*
X140184540Y-125664167D01*
X140184541Y-125664170D01*
X140249106Y-125790885D01*
X140282120Y-125855678D01*
X140408455Y-126029563D01*
X140560437Y-126181545D01*
X140642160Y-126240920D01*
X140736802Y-126309682D01*
X140779467Y-126365012D01*
X140785446Y-126434626D01*
X140752840Y-126496421D01*
X140736802Y-126510318D01*
X140722935Y-126520393D01*
X140560437Y-126638455D01*
X140560435Y-126638457D01*
X140560434Y-126638457D01*
X140408457Y-126790434D01*
X140408457Y-126790435D01*
X140408455Y-126790437D01*
X140354198Y-126865114D01*
X140282120Y-126964321D01*
X140184541Y-127155829D01*
X140184540Y-127155832D01*
X140118124Y-127360240D01*
X140118124Y-127360243D01*
X140084500Y-127572534D01*
X140084500Y-127787465D01*
X140118124Y-127999756D01*
X140118124Y-127999759D01*
X140184540Y-128204167D01*
X140184541Y-128204170D01*
X140223379Y-128280393D01*
X140282120Y-128395678D01*
X140408455Y-128569563D01*
X140560437Y-128721545D01*
X140706181Y-128827434D01*
X140736802Y-128849682D01*
X140779467Y-128905012D01*
X140785446Y-128974626D01*
X140752840Y-129036421D01*
X140736802Y-129050318D01*
X140734322Y-129052120D01*
X140560437Y-129178455D01*
X140560435Y-129178457D01*
X140560434Y-129178457D01*
X140408457Y-129330434D01*
X140408457Y-129330435D01*
X140408455Y-129330437D01*
X140354198Y-129405114D01*
X140282120Y-129504321D01*
X140184541Y-129695829D01*
X140184540Y-129695832D01*
X140118124Y-129900240D01*
X140118124Y-129900243D01*
X140084500Y-130112534D01*
X140084500Y-130327465D01*
X140118124Y-130539756D01*
X140118124Y-130539759D01*
X140184540Y-130744167D01*
X140184541Y-130744170D01*
X140282120Y-130935678D01*
X140408455Y-131109563D01*
X140560437Y-131261545D01*
X140734322Y-131387880D01*
X140828251Y-131435739D01*
X140925829Y-131485458D01*
X140925832Y-131485459D01*
X141116494Y-131547408D01*
X141130245Y-131551876D01*
X141342533Y-131585500D01*
X141342534Y-131585500D01*
X141857466Y-131585500D01*
X141857467Y-131585500D01*
X142069755Y-131551876D01*
X142069758Y-131551875D01*
X142069759Y-131551875D01*
X142274167Y-131485459D01*
X142274170Y-131485458D01*
X142465678Y-131387880D01*
X142639563Y-131261545D01*
X142791545Y-131109563D01*
X142917880Y-130935678D01*
X143015458Y-130744170D01*
X143081876Y-130539755D01*
X143115500Y-130327467D01*
X143115500Y-130112533D01*
X143081876Y-129900245D01*
X143081875Y-129900241D01*
X143081875Y-129900240D01*
X143015459Y-129695832D01*
X143015458Y-129695829D01*
X142917879Y-129504321D01*
X142791545Y-129330437D01*
X142639563Y-129178455D01*
X142465678Y-129052120D01*
X142463198Y-129050318D01*
X142420532Y-128994988D01*
X142414553Y-128925375D01*
X142447159Y-128863580D01*
X142463198Y-128849682D01*
X142491381Y-128829205D01*
X142639563Y-128721545D01*
X142791545Y-128569563D01*
X142917880Y-128395678D01*
X143015458Y-128204170D01*
X143029094Y-128162200D01*
X143068529Y-128104526D01*
X143132887Y-128077327D01*
X143201734Y-128089239D01*
X143234706Y-128112837D01*
X143328115Y-128206246D01*
X143328119Y-128206249D01*
X143439079Y-128280391D01*
X143439081Y-128280391D01*
X143439083Y-128280393D01*
X143562381Y-128331464D01*
X143562384Y-128331464D01*
X143562389Y-128331466D01*
X143693267Y-128357499D01*
X143693270Y-128357500D01*
X143693272Y-128357500D01*
X143826730Y-128357500D01*
X143826731Y-128357499D01*
X143891312Y-128344653D01*
X143957610Y-128331466D01*
X143957612Y-128331465D01*
X143957619Y-128331464D01*
X144080917Y-128280393D01*
X144191881Y-128206249D01*
X144286249Y-128111881D01*
X144360393Y-128000917D01*
X144411464Y-127877619D01*
X144437500Y-127746728D01*
X144437500Y-127613272D01*
X144437500Y-127613269D01*
X144437499Y-127613267D01*
X144411466Y-127482389D01*
X144411463Y-127482379D01*
X144360872Y-127360240D01*
X144360393Y-127359083D01*
X144360391Y-127359081D01*
X144360391Y-127359079D01*
X144286249Y-127248119D01*
X144286246Y-127248115D01*
X144191884Y-127153753D01*
X144191880Y-127153750D01*
X144080920Y-127079608D01*
X144080917Y-127079607D01*
X143957620Y-127028536D01*
X143957610Y-127028533D01*
X143826731Y-127002500D01*
X143826728Y-127002500D01*
X143693272Y-127002500D01*
X143693269Y-127002500D01*
X143562389Y-127028533D01*
X143562379Y-127028536D01*
X143439082Y-127079607D01*
X143439079Y-127079608D01*
X143328119Y-127153750D01*
X143234706Y-127247163D01*
X143173382Y-127280647D01*
X143103691Y-127275663D01*
X143047758Y-127233791D01*
X143029095Y-127197801D01*
X143015458Y-127155830D01*
X142917880Y-126964322D01*
X142791545Y-126790437D01*
X142639563Y-126638455D01*
X142639559Y-126638452D01*
X142463198Y-126510318D01*
X142420532Y-126454988D01*
X142414553Y-126385375D01*
X142447159Y-126323580D01*
X142463198Y-126309682D01*
X142557840Y-126240920D01*
X142639563Y-126181545D01*
X142791545Y-126029563D01*
X142917880Y-125855678D01*
X142919108Y-125853267D01*
X207162500Y-125853267D01*
X207162500Y-125986732D01*
X207188533Y-126117610D01*
X207188536Y-126117620D01*
X207239607Y-126240917D01*
X207239608Y-126240920D01*
X207313750Y-126351880D01*
X207313753Y-126351884D01*
X207408115Y-126446246D01*
X207408119Y-126446249D01*
X207519079Y-126520391D01*
X207519081Y-126520391D01*
X207519083Y-126520393D01*
X207642381Y-126571464D01*
X207642384Y-126571464D01*
X207642389Y-126571466D01*
X207773267Y-126597499D01*
X207773270Y-126597500D01*
X207773272Y-126597500D01*
X207906730Y-126597500D01*
X207906731Y-126597499D01*
X207971312Y-126584653D01*
X208037610Y-126571466D01*
X208037612Y-126571465D01*
X208037619Y-126571464D01*
X208160917Y-126520393D01*
X208271881Y-126446249D01*
X208366249Y-126351881D01*
X208440393Y-126240917D01*
X208491464Y-126117619D01*
X208517500Y-125986728D01*
X208517500Y-125853272D01*
X208517500Y-125853269D01*
X208517499Y-125853267D01*
X208491466Y-125722389D01*
X208491463Y-125722379D01*
X208440393Y-125599083D01*
X208440391Y-125599081D01*
X208440391Y-125599079D01*
X208366249Y-125488119D01*
X208366246Y-125488115D01*
X208271884Y-125393753D01*
X208271880Y-125393750D01*
X208160920Y-125319608D01*
X208160917Y-125319607D01*
X208037620Y-125268536D01*
X208037610Y-125268533D01*
X207906731Y-125242500D01*
X207906728Y-125242500D01*
X207773272Y-125242500D01*
X207773269Y-125242500D01*
X207642389Y-125268533D01*
X207642379Y-125268536D01*
X207519082Y-125319607D01*
X207519079Y-125319608D01*
X207408119Y-125393750D01*
X207408115Y-125393753D01*
X207313753Y-125488115D01*
X207313750Y-125488119D01*
X207239608Y-125599079D01*
X207239607Y-125599082D01*
X207188536Y-125722379D01*
X207188533Y-125722389D01*
X207162500Y-125853267D01*
X142919108Y-125853267D01*
X143015458Y-125664170D01*
X143072660Y-125488119D01*
X143081875Y-125459759D01*
X143081875Y-125459758D01*
X143081876Y-125459755D01*
X143115500Y-125247467D01*
X143115500Y-125032533D01*
X143081876Y-124820245D01*
X143081875Y-124820241D01*
X143081875Y-124820240D01*
X143015459Y-124615832D01*
X143015458Y-124615829D01*
X142917879Y-124424321D01*
X142791545Y-124250437D01*
X142697018Y-124155910D01*
X142663533Y-124094587D01*
X142668517Y-124024895D01*
X142710389Y-123968962D01*
X142741362Y-123952049D01*
X142857331Y-123908796D01*
X142972546Y-123822546D01*
X143058796Y-123707331D01*
X143109091Y-123572483D01*
X143115500Y-123512873D01*
X143115499Y-121687128D01*
X143109091Y-121627517D01*
X143098283Y-121598540D01*
X143058797Y-121492671D01*
X143058795Y-121492668D01*
X143041586Y-121469680D01*
X142990513Y-121401455D01*
X172699500Y-121401455D01*
X172699500Y-121598544D01*
X172737947Y-121791828D01*
X172737949Y-121791836D01*
X172813367Y-121973910D01*
X172813372Y-121973920D01*
X172922860Y-122137780D01*
X172922863Y-122137784D01*
X173062215Y-122277136D01*
X173062219Y-122277139D01*
X173226079Y-122386627D01*
X173226083Y-122386629D01*
X173226086Y-122386631D01*
X173408164Y-122462051D01*
X173601455Y-122500499D01*
X173601458Y-122500500D01*
X173601460Y-122500500D01*
X173798542Y-122500500D01*
X173798543Y-122500499D01*
X173991836Y-122462051D01*
X174173914Y-122386631D01*
X174337781Y-122277139D01*
X183037778Y-113577141D01*
X183037782Y-113577139D01*
X183177139Y-113437782D01*
X183286632Y-113273914D01*
X183362051Y-113091835D01*
X183391357Y-112944506D01*
X183400500Y-112898543D01*
X183400500Y-110401455D01*
X186699500Y-110401455D01*
X186699500Y-110598544D01*
X186737947Y-110791828D01*
X186737949Y-110791836D01*
X186813367Y-110973910D01*
X186813372Y-110973920D01*
X186922860Y-111137780D01*
X186922863Y-111137784D01*
X191911157Y-116126078D01*
X196822860Y-121037781D01*
X196822861Y-121037782D01*
X196962218Y-121177139D01*
X196962219Y-121177140D01*
X197126079Y-121286628D01*
X197126092Y-121286635D01*
X197254833Y-121339961D01*
X197283998Y-121352041D01*
X197308164Y-121362051D01*
X197385600Y-121377454D01*
X197414564Y-121383215D01*
X197501456Y-121400500D01*
X197501459Y-121400500D01*
X209298543Y-121400500D01*
X209336136Y-121393021D01*
X209414400Y-121377454D01*
X209491836Y-121362051D01*
X209545165Y-121339961D01*
X209673914Y-121286632D01*
X209837782Y-121177139D01*
X209977139Y-121037782D01*
X209977139Y-121037780D01*
X209987347Y-121027573D01*
X209987348Y-121027570D01*
X213777140Y-117237781D01*
X213886632Y-117073914D01*
X213962052Y-116891835D01*
X214000501Y-116698540D01*
X214000501Y-116501459D01*
X214000501Y-116501456D01*
X214000500Y-116501454D01*
X213962053Y-116308171D01*
X213962052Y-116308164D01*
X213886632Y-116126085D01*
X213886631Y-116126084D01*
X213886628Y-116126078D01*
X213777140Y-115962218D01*
X213777137Y-115962214D01*
X213637785Y-115822862D01*
X213637781Y-115822859D01*
X213473921Y-115713371D01*
X213473912Y-115713366D01*
X213291836Y-115637948D01*
X213291828Y-115637946D01*
X213098544Y-115599499D01*
X213098541Y-115599499D01*
X212901460Y-115599499D01*
X212901457Y-115599499D01*
X212708172Y-115637946D01*
X212708164Y-115637948D01*
X212526088Y-115713366D01*
X212526079Y-115713371D01*
X212362219Y-115822859D01*
X212362215Y-115822862D01*
X208821899Y-119363181D01*
X208760576Y-119396666D01*
X208734218Y-119399500D01*
X198065783Y-119399500D01*
X197998744Y-119379815D01*
X197978102Y-119363181D01*
X188337784Y-109722863D01*
X188337780Y-109722860D01*
X188173920Y-109613372D01*
X188173910Y-109613367D01*
X187991836Y-109537949D01*
X187991828Y-109537947D01*
X187798543Y-109499500D01*
X187798540Y-109499500D01*
X187601460Y-109499500D01*
X187601457Y-109499500D01*
X187408171Y-109537947D01*
X187408163Y-109537949D01*
X187226089Y-109613367D01*
X187226079Y-109613372D01*
X187062219Y-109722860D01*
X187062215Y-109722863D01*
X186922863Y-109862215D01*
X186922860Y-109862219D01*
X186813372Y-110026079D01*
X186813367Y-110026089D01*
X186737949Y-110208163D01*
X186737947Y-110208171D01*
X186699500Y-110401455D01*
X183400500Y-110401455D01*
X183400500Y-109021158D01*
X192399500Y-109021158D01*
X192399500Y-109029001D01*
X192399500Y-109178846D01*
X192430261Y-109333489D01*
X192430264Y-109333501D01*
X192490602Y-109479172D01*
X192490609Y-109479185D01*
X192578210Y-109610288D01*
X192578213Y-109610292D01*
X192689707Y-109721786D01*
X192689711Y-109721789D01*
X192820814Y-109809390D01*
X192820827Y-109809397D01*
X192966498Y-109869735D01*
X192966503Y-109869737D01*
X193121153Y-109900499D01*
X193121156Y-109900500D01*
X193121158Y-109900500D01*
X193278844Y-109900500D01*
X193278845Y-109900499D01*
X193433497Y-109869737D01*
X193579179Y-109809394D01*
X193710289Y-109721789D01*
X193821789Y-109610289D01*
X193909394Y-109479179D01*
X193969737Y-109333497D01*
X194000500Y-109178842D01*
X194000500Y-109021158D01*
X193986836Y-108952465D01*
X193993063Y-108882876D01*
X194020770Y-108840596D01*
X196874548Y-105986819D01*
X196935871Y-105953334D01*
X196962229Y-105950500D01*
X197895396Y-105950500D01*
X197942844Y-105959937D01*
X197966503Y-105969737D01*
X197966508Y-105969738D01*
X197966511Y-105969739D01*
X198121153Y-106000499D01*
X198121156Y-106000500D01*
X198121158Y-106000500D01*
X198278844Y-106000500D01*
X198278845Y-106000499D01*
X198433497Y-105969737D01*
X198579179Y-105909394D01*
X198710289Y-105821789D01*
X198821789Y-105710289D01*
X198909394Y-105579179D01*
X198969737Y-105433497D01*
X199000500Y-105278842D01*
X199000500Y-105121158D01*
X199000500Y-105121155D01*
X199000499Y-105121153D01*
X198969738Y-104966510D01*
X198969737Y-104966503D01*
X198924587Y-104857500D01*
X198909397Y-104820827D01*
X198909390Y-104820814D01*
X198821789Y-104689711D01*
X198821786Y-104689707D01*
X198710292Y-104578213D01*
X198710288Y-104578210D01*
X198579185Y-104490609D01*
X198579172Y-104490602D01*
X198433501Y-104430264D01*
X198433489Y-104430261D01*
X198278845Y-104399500D01*
X198278842Y-104399500D01*
X198121158Y-104399500D01*
X198121155Y-104399500D01*
X197966511Y-104430260D01*
X197966506Y-104430262D01*
X197966504Y-104430262D01*
X197966503Y-104430263D01*
X197942844Y-104440062D01*
X197895396Y-104449500D01*
X196526080Y-104449500D01*
X196381092Y-104478340D01*
X196381082Y-104478343D01*
X196244511Y-104534912D01*
X196244498Y-104534919D01*
X196121584Y-104617048D01*
X196121580Y-104617051D01*
X192617050Y-108121580D01*
X192617044Y-108121588D01*
X192567812Y-108195268D01*
X192567813Y-108195269D01*
X192534921Y-108244496D01*
X192534914Y-108244508D01*
X192478342Y-108381086D01*
X192478340Y-108381092D01*
X192449500Y-108526079D01*
X192449500Y-108795396D01*
X192448049Y-108802687D01*
X192446408Y-108822916D01*
X192444079Y-108833147D01*
X192430263Y-108866503D01*
X192399500Y-109021158D01*
X183400500Y-109021158D01*
X183400500Y-102733267D01*
X206222500Y-102733267D01*
X206222500Y-102866732D01*
X206248533Y-102997610D01*
X206248536Y-102997620D01*
X206299607Y-103120917D01*
X206299608Y-103120920D01*
X206373750Y-103231880D01*
X206373753Y-103231884D01*
X206468115Y-103326246D01*
X206468119Y-103326249D01*
X206579079Y-103400391D01*
X206579081Y-103400391D01*
X206579083Y-103400393D01*
X206702381Y-103451464D01*
X206702384Y-103451464D01*
X206702389Y-103451466D01*
X206833267Y-103477499D01*
X206833270Y-103477500D01*
X206833272Y-103477500D01*
X206966730Y-103477500D01*
X206966731Y-103477499D01*
X207031312Y-103464653D01*
X207097610Y-103451466D01*
X207097612Y-103451465D01*
X207097619Y-103451464D01*
X207220917Y-103400393D01*
X207331881Y-103326249D01*
X207426249Y-103231881D01*
X207500393Y-103120917D01*
X207551464Y-102997619D01*
X207577500Y-102866728D01*
X207577500Y-102733272D01*
X207577500Y-102733269D01*
X207577499Y-102733267D01*
X207551466Y-102602389D01*
X207551463Y-102602379D01*
X207500393Y-102479083D01*
X207500391Y-102479081D01*
X207500391Y-102479079D01*
X207426249Y-102368119D01*
X207426246Y-102368115D01*
X207331884Y-102273753D01*
X207331880Y-102273750D01*
X207220920Y-102199608D01*
X207220917Y-102199607D01*
X207097620Y-102148536D01*
X207097610Y-102148533D01*
X206966731Y-102122500D01*
X206966728Y-102122500D01*
X206833272Y-102122500D01*
X206833269Y-102122500D01*
X206702389Y-102148533D01*
X206702379Y-102148536D01*
X206579082Y-102199607D01*
X206579079Y-102199608D01*
X206468119Y-102273750D01*
X206468115Y-102273753D01*
X206373753Y-102368115D01*
X206373750Y-102368119D01*
X206299608Y-102479079D01*
X206299607Y-102479082D01*
X206248536Y-102602379D01*
X206248533Y-102602389D01*
X206222500Y-102733267D01*
X183400500Y-102733267D01*
X183400500Y-100701456D01*
X183362052Y-100508170D01*
X183362051Y-100508169D01*
X183362051Y-100508165D01*
X183310013Y-100382534D01*
X208074500Y-100382534D01*
X208074500Y-100897465D01*
X208108124Y-101109756D01*
X208108124Y-101109759D01*
X208174540Y-101314167D01*
X208174541Y-101314170D01*
X208265499Y-101492683D01*
X208272120Y-101505678D01*
X208398455Y-101679563D01*
X208550437Y-101831545D01*
X208724322Y-101957880D01*
X208818251Y-102005739D01*
X208915829Y-102055458D01*
X208915832Y-102055459D01*
X209106494Y-102117408D01*
X209120245Y-102121876D01*
X209332533Y-102155500D01*
X209332534Y-102155500D01*
X209547466Y-102155500D01*
X209547467Y-102155500D01*
X209759755Y-102121876D01*
X209759758Y-102121875D01*
X209759759Y-102121875D01*
X209964167Y-102055459D01*
X209964170Y-102055458D01*
X210155678Y-101957880D01*
X210329563Y-101831545D01*
X210424092Y-101737015D01*
X210485411Y-101703533D01*
X210555103Y-101708517D01*
X210611037Y-101750388D01*
X210627952Y-101781366D01*
X210671202Y-101897328D01*
X210671206Y-101897335D01*
X210757452Y-102012544D01*
X210757455Y-102012547D01*
X210872664Y-102098793D01*
X210872671Y-102098797D01*
X211007517Y-102149091D01*
X211007516Y-102149091D01*
X211014444Y-102149835D01*
X211067127Y-102155500D01*
X212892872Y-102155499D01*
X212952483Y-102149091D01*
X213087331Y-102098796D01*
X213202546Y-102012546D01*
X213288796Y-101897331D01*
X213339091Y-101762483D01*
X213345500Y-101702873D01*
X213345499Y-99577128D01*
X213339091Y-99517517D01*
X213313333Y-99448457D01*
X213288797Y-99382671D01*
X213288793Y-99382664D01*
X213202547Y-99267455D01*
X213202544Y-99267452D01*
X213087335Y-99181206D01*
X213087328Y-99181202D01*
X212952482Y-99130908D01*
X212952483Y-99130908D01*
X212892883Y-99124501D01*
X212892881Y-99124500D01*
X212892873Y-99124500D01*
X212892864Y-99124500D01*
X211067129Y-99124500D01*
X211067123Y-99124501D01*
X211007516Y-99130908D01*
X210872671Y-99181202D01*
X210872664Y-99181206D01*
X210757455Y-99267452D01*
X210757452Y-99267455D01*
X210671206Y-99382664D01*
X210671202Y-99382671D01*
X210627952Y-99498633D01*
X210586081Y-99554567D01*
X210520617Y-99578984D01*
X210452344Y-99564133D01*
X210424089Y-99542981D01*
X210329565Y-99448457D01*
X210329563Y-99448455D01*
X210155678Y-99322120D01*
X209964170Y-99224541D01*
X209964167Y-99224540D01*
X209759757Y-99158124D01*
X209618229Y-99135708D01*
X209547467Y-99124500D01*
X209332533Y-99124500D01*
X209261770Y-99135708D01*
X209120243Y-99158124D01*
X209120240Y-99158124D01*
X208915832Y-99224540D01*
X208915829Y-99224541D01*
X208724321Y-99322120D01*
X208640981Y-99382671D01*
X208550437Y-99448455D01*
X208550435Y-99448457D01*
X208550434Y-99448457D01*
X208398457Y-99600434D01*
X208398457Y-99600435D01*
X208398455Y-99600437D01*
X208344198Y-99675114D01*
X208272120Y-99774321D01*
X208174541Y-99965829D01*
X208174540Y-99965832D01*
X208108124Y-100170240D01*
X208108124Y-100170243D01*
X208074500Y-100382534D01*
X183310013Y-100382534D01*
X183305733Y-100372200D01*
X183286635Y-100326092D01*
X183286628Y-100326079D01*
X183177139Y-100162218D01*
X183177136Y-100162214D01*
X183034686Y-100019764D01*
X183034655Y-100019735D01*
X180237784Y-97222863D01*
X180237780Y-97222860D01*
X180073920Y-97113372D01*
X180073910Y-97113367D01*
X179891836Y-97037949D01*
X179891828Y-97037947D01*
X179698543Y-96999500D01*
X179698540Y-96999500D01*
X179501460Y-96999500D01*
X179501457Y-96999500D01*
X179308171Y-97037947D01*
X179308163Y-97037949D01*
X179126089Y-97113367D01*
X179126079Y-97113372D01*
X178962219Y-97222860D01*
X178962215Y-97222863D01*
X178822863Y-97362215D01*
X178822860Y-97362219D01*
X178713372Y-97526079D01*
X178713367Y-97526089D01*
X178637949Y-97708163D01*
X178637947Y-97708171D01*
X178599500Y-97901455D01*
X178599500Y-98098544D01*
X178637947Y-98291828D01*
X178637949Y-98291836D01*
X178713367Y-98473910D01*
X178713372Y-98473920D01*
X178822860Y-98637780D01*
X178822863Y-98637784D01*
X181363181Y-101178101D01*
X181396666Y-101239424D01*
X181399500Y-101265782D01*
X181399500Y-112334217D01*
X181379815Y-112401256D01*
X181363181Y-112421898D01*
X172922863Y-120862215D01*
X172922860Y-120862219D01*
X172813372Y-121026079D01*
X172813367Y-121026089D01*
X172737949Y-121208163D01*
X172737947Y-121208171D01*
X172699500Y-121401455D01*
X142990513Y-121401455D01*
X142972546Y-121377454D01*
X142918937Y-121337322D01*
X142857335Y-121291206D01*
X142857328Y-121291202D01*
X142722482Y-121240908D01*
X142722483Y-121240908D01*
X142662883Y-121234501D01*
X142662881Y-121234500D01*
X142662873Y-121234500D01*
X142662864Y-121234500D01*
X140537129Y-121234500D01*
X140537123Y-121234501D01*
X140477516Y-121240908D01*
X140342671Y-121291202D01*
X140342664Y-121291206D01*
X140227455Y-121377452D01*
X140227454Y-121377454D01*
X140141206Y-121492664D01*
X140141202Y-121492671D01*
X140090908Y-121627517D01*
X140084501Y-121687116D01*
X140084501Y-121687123D01*
X140084500Y-121687135D01*
X136500500Y-121687135D01*
X136500500Y-113221153D01*
X138899500Y-113221153D01*
X138899500Y-113378846D01*
X138930261Y-113533489D01*
X138930264Y-113533501D01*
X138990602Y-113679172D01*
X138990609Y-113679185D01*
X139078210Y-113810288D01*
X139078213Y-113810292D01*
X139189710Y-113921789D01*
X139320815Y-114009390D01*
X139320821Y-114009394D01*
X139344475Y-114019191D01*
X139384703Y-114046071D01*
X139521586Y-114182954D01*
X139551058Y-114202645D01*
X139595270Y-114232186D01*
X139644505Y-114265084D01*
X139644506Y-114265084D01*
X139644507Y-114265085D01*
X139644509Y-114265086D01*
X139781082Y-114321656D01*
X139781087Y-114321658D01*
X139781091Y-114321658D01*
X139781092Y-114321659D01*
X139926079Y-114350500D01*
X139926082Y-114350500D01*
X139926083Y-114350500D01*
X140073917Y-114350500D01*
X145688573Y-114350500D01*
X145755612Y-114370185D01*
X145791675Y-114405610D01*
X145828207Y-114460284D01*
X145828213Y-114460292D01*
X145939707Y-114571786D01*
X145939711Y-114571789D01*
X146070814Y-114659390D01*
X146070827Y-114659397D01*
X146216498Y-114719735D01*
X146216503Y-114719737D01*
X146371153Y-114750499D01*
X146371156Y-114750500D01*
X146371158Y-114750500D01*
X146528844Y-114750500D01*
X146528845Y-114750499D01*
X146683497Y-114719737D01*
X146829179Y-114659394D01*
X146960289Y-114571789D01*
X147071789Y-114460289D01*
X147159394Y-114329179D01*
X147219737Y-114183497D01*
X147250500Y-114028842D01*
X147250500Y-113871158D01*
X147250500Y-113871155D01*
X147250499Y-113871153D01*
X147219738Y-113716510D01*
X147219737Y-113716503D01*
X147219735Y-113716498D01*
X147159397Y-113570827D01*
X147159390Y-113570814D01*
X147071789Y-113439711D01*
X147071786Y-113439707D01*
X146960292Y-113328213D01*
X146960288Y-113328210D01*
X146829185Y-113240609D01*
X146829175Y-113240604D01*
X146805523Y-113230807D01*
X146765295Y-113203927D01*
X146578421Y-113017052D01*
X146578420Y-113017051D01*
X146469847Y-112944506D01*
X146455495Y-112934916D01*
X146455490Y-112934913D01*
X146318917Y-112878343D01*
X146318907Y-112878340D01*
X146173920Y-112849500D01*
X146173918Y-112849500D01*
X140428018Y-112849500D01*
X140360979Y-112829815D01*
X140324914Y-112794388D01*
X140321788Y-112789709D01*
X140210292Y-112678213D01*
X140210288Y-112678210D01*
X140079185Y-112590609D01*
X140079172Y-112590602D01*
X139933501Y-112530264D01*
X139933489Y-112530261D01*
X139778845Y-112499500D01*
X139778842Y-112499500D01*
X139621158Y-112499500D01*
X139621155Y-112499500D01*
X139466510Y-112530261D01*
X139466498Y-112530264D01*
X139320827Y-112590602D01*
X139320814Y-112590609D01*
X139189711Y-112678210D01*
X139189707Y-112678213D01*
X139078213Y-112789707D01*
X139078210Y-112789711D01*
X138990609Y-112920814D01*
X138990602Y-112920827D01*
X138930264Y-113066498D01*
X138930261Y-113066510D01*
X138899500Y-113221153D01*
X136500500Y-113221153D01*
X136500500Y-111571153D01*
X167649500Y-111571153D01*
X167649500Y-111728846D01*
X167680261Y-111883489D01*
X167680263Y-111883497D01*
X167690061Y-111907151D01*
X167699500Y-111954604D01*
X167699500Y-113223918D01*
X167699500Y-113223920D01*
X167699499Y-113223920D01*
X167728340Y-113368907D01*
X167728343Y-113368917D01*
X167784913Y-113505490D01*
X167784914Y-113505491D01*
X167784916Y-113505495D01*
X167804852Y-113535331D01*
X167828560Y-113570814D01*
X167867051Y-113628420D01*
X167867052Y-113628421D01*
X171453927Y-117215295D01*
X171480807Y-117255523D01*
X171490604Y-117279175D01*
X171490609Y-117279185D01*
X171578210Y-117410288D01*
X171578213Y-117410292D01*
X171689707Y-117521786D01*
X171689711Y-117521789D01*
X171820814Y-117609390D01*
X171820827Y-117609397D01*
X171966498Y-117669735D01*
X171966503Y-117669737D01*
X172121153Y-117700499D01*
X172121156Y-117700500D01*
X172121158Y-117700500D01*
X172278844Y-117700500D01*
X172278845Y-117700499D01*
X172433497Y-117669737D01*
X172579179Y-117609394D01*
X172710289Y-117521789D01*
X172821789Y-117410289D01*
X172909394Y-117279179D01*
X172969737Y-117133497D01*
X173000500Y-116978842D01*
X173000500Y-116821158D01*
X173000500Y-116821155D01*
X173000499Y-116821153D01*
X172976110Y-116698542D01*
X172969737Y-116666503D01*
X172969735Y-116666498D01*
X172909397Y-116520827D01*
X172909390Y-116520814D01*
X172821789Y-116389711D01*
X172821786Y-116389707D01*
X172710292Y-116278213D01*
X172710288Y-116278210D01*
X172579185Y-116190609D01*
X172579175Y-116190604D01*
X172555523Y-116180807D01*
X172515295Y-116153927D01*
X169236819Y-112875451D01*
X169203334Y-112814128D01*
X169200500Y-112787770D01*
X169200500Y-111954604D01*
X169209939Y-111907151D01*
X169219737Y-111883497D01*
X169250500Y-111728842D01*
X169250500Y-111571158D01*
X169250500Y-111571155D01*
X169250499Y-111571153D01*
X169219738Y-111416510D01*
X169219737Y-111416503D01*
X169219735Y-111416498D01*
X169159397Y-111270827D01*
X169159390Y-111270814D01*
X169071789Y-111139711D01*
X169071786Y-111139707D01*
X168960292Y-111028213D01*
X168960288Y-111028210D01*
X168829185Y-110940609D01*
X168829172Y-110940602D01*
X168683501Y-110880264D01*
X168683489Y-110880261D01*
X168528845Y-110849500D01*
X168528842Y-110849500D01*
X168371158Y-110849500D01*
X168371155Y-110849500D01*
X168216510Y-110880261D01*
X168216498Y-110880264D01*
X168070827Y-110940602D01*
X168070814Y-110940609D01*
X167939711Y-111028210D01*
X167939707Y-111028213D01*
X167828213Y-111139707D01*
X167828210Y-111139711D01*
X167740609Y-111270814D01*
X167740602Y-111270827D01*
X167680264Y-111416498D01*
X167680261Y-111416510D01*
X167649500Y-111571153D01*
X136500500Y-111571153D01*
X136500500Y-104113267D01*
X142722500Y-104113267D01*
X142722500Y-104246732D01*
X142748533Y-104377610D01*
X142748536Y-104377620D01*
X142799607Y-104500917D01*
X142799608Y-104500920D01*
X142873750Y-104611880D01*
X142873753Y-104611884D01*
X142968115Y-104706246D01*
X142968119Y-104706249D01*
X143079079Y-104780391D01*
X143079081Y-104780391D01*
X143079083Y-104780393D01*
X143202381Y-104831464D01*
X143202384Y-104831464D01*
X143202389Y-104831466D01*
X143333267Y-104857499D01*
X143333270Y-104857500D01*
X143333272Y-104857500D01*
X143466730Y-104857500D01*
X143466731Y-104857499D01*
X143531312Y-104844653D01*
X143597610Y-104831466D01*
X143597612Y-104831465D01*
X143597619Y-104831464D01*
X143720917Y-104780393D01*
X143831881Y-104706249D01*
X143926249Y-104611881D01*
X144000393Y-104500917D01*
X144051464Y-104377619D01*
X144077500Y-104246728D01*
X144077500Y-104113272D01*
X144077500Y-104113269D01*
X144077499Y-104113267D01*
X144051466Y-103982389D01*
X144051463Y-103982379D01*
X144000393Y-103859083D01*
X143979046Y-103827135D01*
X152514500Y-103827135D01*
X152514500Y-106772870D01*
X152514501Y-106772876D01*
X152520908Y-106832483D01*
X152571202Y-106967328D01*
X152571206Y-106967335D01*
X152657452Y-107082544D01*
X152657455Y-107082547D01*
X152772664Y-107168793D01*
X152772671Y-107168797D01*
X152907517Y-107219091D01*
X152907516Y-107219091D01*
X152914444Y-107219835D01*
X152967127Y-107225500D01*
X155912872Y-107225499D01*
X155972483Y-107219091D01*
X156107331Y-107168796D01*
X156222546Y-107082546D01*
X156308796Y-106967331D01*
X156359091Y-106832483D01*
X156365500Y-106772873D01*
X156365499Y-103827128D01*
X156359091Y-103767517D01*
X156308796Y-103632669D01*
X156308795Y-103632668D01*
X156308793Y-103632664D01*
X156222547Y-103517455D01*
X156222544Y-103517452D01*
X156107335Y-103431206D01*
X156107328Y-103431202D01*
X155972482Y-103380908D01*
X155972483Y-103380908D01*
X155912883Y-103374501D01*
X155912881Y-103374500D01*
X155912873Y-103374500D01*
X155912864Y-103374500D01*
X152967129Y-103374500D01*
X152967123Y-103374501D01*
X152907516Y-103380908D01*
X152772671Y-103431202D01*
X152772664Y-103431206D01*
X152657455Y-103517452D01*
X152657452Y-103517455D01*
X152571206Y-103632664D01*
X152571202Y-103632671D01*
X152520908Y-103767517D01*
X152514501Y-103827116D01*
X152514501Y-103827123D01*
X152514500Y-103827135D01*
X143979046Y-103827135D01*
X143979041Y-103827128D01*
X143926249Y-103748119D01*
X143926246Y-103748115D01*
X143831884Y-103653753D01*
X143831880Y-103653750D01*
X143720920Y-103579608D01*
X143720917Y-103579607D01*
X143597620Y-103528536D01*
X143597610Y-103528533D01*
X143466731Y-103502500D01*
X143466728Y-103502500D01*
X143333272Y-103502500D01*
X143333269Y-103502500D01*
X143202389Y-103528533D01*
X143202379Y-103528536D01*
X143079082Y-103579607D01*
X143079079Y-103579608D01*
X142968119Y-103653750D01*
X142968115Y-103653753D01*
X142873753Y-103748115D01*
X142873750Y-103748119D01*
X142799608Y-103859079D01*
X142799607Y-103859082D01*
X142748536Y-103982379D01*
X142748533Y-103982389D01*
X142722500Y-104113267D01*
X136500500Y-104113267D01*
X136500500Y-92002706D01*
X136500618Y-91997297D01*
X136505443Y-91886780D01*
X139272500Y-91886780D01*
X139272500Y-92113219D01*
X139272501Y-92113235D01*
X139302056Y-92337731D01*
X139302057Y-92337736D01*
X139302058Y-92337742D01*
X139312716Y-92377517D01*
X139360667Y-92556476D01*
X139447322Y-92765681D01*
X139447329Y-92765696D01*
X139560553Y-92961806D01*
X139698408Y-93141462D01*
X139698414Y-93141469D01*
X139858530Y-93301585D01*
X139858537Y-93301591D01*
X140038193Y-93439446D01*
X140234303Y-93552670D01*
X140234318Y-93552677D01*
X140342507Y-93597490D01*
X140443522Y-93639332D01*
X140662258Y-93697942D01*
X140886774Y-93727500D01*
X140886781Y-93727500D01*
X141113219Y-93727500D01*
X141113226Y-93727500D01*
X141337742Y-93697942D01*
X141556478Y-93639332D01*
X141763163Y-93553720D01*
X153462500Y-93553720D01*
X153462500Y-93746279D01*
X153500062Y-93935118D01*
X153500066Y-93935132D01*
X153573746Y-94113013D01*
X153573753Y-94113026D01*
X153680725Y-94273119D01*
X153680728Y-94273123D01*
X153816876Y-94409271D01*
X153816880Y-94409274D01*
X153976973Y-94516246D01*
X153976986Y-94516253D01*
X154089538Y-94562873D01*
X154154874Y-94589936D01*
X154343720Y-94627499D01*
X154343724Y-94627500D01*
X154343725Y-94627500D01*
X154536276Y-94627500D01*
X154536277Y-94627499D01*
X154725126Y-94589936D01*
X154903020Y-94516250D01*
X155063120Y-94409274D01*
X155199274Y-94273120D01*
X155306250Y-94113020D01*
X155379936Y-93935126D01*
X155417500Y-93746275D01*
X155417500Y-93553725D01*
X155379936Y-93364874D01*
X155329261Y-93242534D01*
X169994500Y-93242534D01*
X169994500Y-93757465D01*
X170028124Y-93969756D01*
X170028124Y-93969759D01*
X170094540Y-94174167D01*
X170094541Y-94174170D01*
X170169117Y-94320532D01*
X170192120Y-94365678D01*
X170318455Y-94539563D01*
X170470437Y-94691545D01*
X170644322Y-94817880D01*
X170738251Y-94865739D01*
X170835829Y-94915458D01*
X170835832Y-94915459D01*
X170999170Y-94968530D01*
X171040245Y-94981876D01*
X171252533Y-95015500D01*
X171252534Y-95015500D01*
X171467466Y-95015500D01*
X171467467Y-95015500D01*
X171679755Y-94981876D01*
X171679758Y-94981875D01*
X171679759Y-94981875D01*
X171884167Y-94915459D01*
X171884170Y-94915458D01*
X171884172Y-94915457D01*
X172075678Y-94817880D01*
X172249563Y-94691545D01*
X172401545Y-94539563D01*
X172527880Y-94365678D01*
X172527879Y-94365678D01*
X172529682Y-94363198D01*
X172585012Y-94320532D01*
X172654625Y-94314553D01*
X172716420Y-94347159D01*
X172730318Y-94363198D01*
X172732120Y-94365678D01*
X172858455Y-94539563D01*
X173010437Y-94691545D01*
X173184322Y-94817880D01*
X173375830Y-94915458D01*
X173417799Y-94929094D01*
X173475473Y-94968530D01*
X173502672Y-95032888D01*
X173490759Y-95101734D01*
X173467163Y-95134706D01*
X173373750Y-95228119D01*
X173299608Y-95339079D01*
X173299607Y-95339082D01*
X173248536Y-95462379D01*
X173248533Y-95462389D01*
X173222500Y-95593267D01*
X173222500Y-95726732D01*
X173248533Y-95857610D01*
X173248536Y-95857620D01*
X173299607Y-95980917D01*
X173299608Y-95980920D01*
X173373750Y-96091880D01*
X173373753Y-96091884D01*
X173468115Y-96186246D01*
X173468119Y-96186249D01*
X173579079Y-96260391D01*
X173579081Y-96260391D01*
X173579083Y-96260393D01*
X173702381Y-96311464D01*
X173702384Y-96311464D01*
X173702389Y-96311466D01*
X173833267Y-96337499D01*
X173833270Y-96337500D01*
X173833272Y-96337500D01*
X173966730Y-96337500D01*
X173966731Y-96337499D01*
X174031312Y-96324653D01*
X174097610Y-96311466D01*
X174097612Y-96311465D01*
X174097619Y-96311464D01*
X174220917Y-96260393D01*
X174331881Y-96186249D01*
X174426249Y-96091881D01*
X174500393Y-95980917D01*
X174551464Y-95857619D01*
X174577500Y-95726728D01*
X174577500Y-95593272D01*
X174577500Y-95593269D01*
X174577499Y-95593267D01*
X186442500Y-95593267D01*
X186442500Y-95726732D01*
X186468533Y-95857610D01*
X186468536Y-95857620D01*
X186519607Y-95980917D01*
X186519608Y-95980920D01*
X186593750Y-96091880D01*
X186593753Y-96091884D01*
X186688115Y-96186246D01*
X186688119Y-96186249D01*
X186799079Y-96260391D01*
X186799081Y-96260391D01*
X186799083Y-96260393D01*
X186922381Y-96311464D01*
X186922384Y-96311464D01*
X186922389Y-96311466D01*
X187053267Y-96337499D01*
X187053270Y-96337500D01*
X187053272Y-96337500D01*
X187186730Y-96337500D01*
X187186731Y-96337499D01*
X187251312Y-96324653D01*
X187317610Y-96311466D01*
X187317612Y-96311465D01*
X187317619Y-96311464D01*
X187440917Y-96260393D01*
X187551881Y-96186249D01*
X187646249Y-96091881D01*
X187720393Y-95980917D01*
X187771464Y-95857619D01*
X187797500Y-95726728D01*
X187797500Y-95593272D01*
X187797500Y-95593269D01*
X187797499Y-95593267D01*
X187771466Y-95462389D01*
X187771463Y-95462379D01*
X187720393Y-95339083D01*
X187720391Y-95339081D01*
X187720391Y-95339079D01*
X187646249Y-95228119D01*
X187646246Y-95228115D01*
X187551884Y-95133753D01*
X187551880Y-95133750D01*
X187440920Y-95059608D01*
X187440917Y-95059607D01*
X187317620Y-95008536D01*
X187317610Y-95008533D01*
X187186731Y-94982500D01*
X187186728Y-94982500D01*
X187053272Y-94982500D01*
X187053269Y-94982500D01*
X186922389Y-95008533D01*
X186922379Y-95008536D01*
X186799082Y-95059607D01*
X186799079Y-95059608D01*
X186688119Y-95133750D01*
X186688115Y-95133753D01*
X186593753Y-95228115D01*
X186593750Y-95228119D01*
X186519608Y-95339079D01*
X186519607Y-95339082D01*
X186468536Y-95462379D01*
X186468533Y-95462389D01*
X186442500Y-95593267D01*
X174577499Y-95593267D01*
X174551466Y-95462389D01*
X174551463Y-95462379D01*
X174500393Y-95339083D01*
X174500391Y-95339081D01*
X174500391Y-95339079D01*
X174426249Y-95228119D01*
X174426246Y-95228115D01*
X174332837Y-95134706D01*
X174299352Y-95073383D01*
X174304336Y-95003691D01*
X174346208Y-94947758D01*
X174382198Y-94929095D01*
X174424170Y-94915458D01*
X174615678Y-94817880D01*
X174789563Y-94691545D01*
X174941545Y-94539563D01*
X175067880Y-94365678D01*
X175067879Y-94365678D01*
X175069682Y-94363198D01*
X175125012Y-94320532D01*
X175194625Y-94314553D01*
X175256420Y-94347159D01*
X175270318Y-94363198D01*
X175272120Y-94365678D01*
X175398455Y-94539563D01*
X175550437Y-94691545D01*
X175724322Y-94817880D01*
X175818251Y-94865739D01*
X175915829Y-94915458D01*
X175915832Y-94915459D01*
X176079170Y-94968530D01*
X176120245Y-94981876D01*
X176332533Y-95015500D01*
X176332534Y-95015500D01*
X176547466Y-95015500D01*
X176547467Y-95015500D01*
X176759755Y-94981876D01*
X176759758Y-94981875D01*
X176759759Y-94981875D01*
X176964167Y-94915459D01*
X176964170Y-94915458D01*
X176964172Y-94915457D01*
X177155678Y-94817880D01*
X177329563Y-94691545D01*
X177424092Y-94597015D01*
X177485411Y-94563533D01*
X177555103Y-94568517D01*
X177611037Y-94610388D01*
X177627952Y-94641366D01*
X177671202Y-94757328D01*
X177671206Y-94757335D01*
X177757452Y-94872544D01*
X177757455Y-94872547D01*
X177872664Y-94958793D01*
X177872671Y-94958797D01*
X178007517Y-95009091D01*
X178007516Y-95009091D01*
X178014444Y-95009835D01*
X178067127Y-95015500D01*
X179892872Y-95015499D01*
X179952483Y-95009091D01*
X180087331Y-94958796D01*
X180202546Y-94872546D01*
X180288796Y-94757331D01*
X180339091Y-94622483D01*
X180345500Y-94562873D01*
X180345499Y-92437128D01*
X180339091Y-92377517D01*
X180313333Y-92308457D01*
X180288797Y-92242671D01*
X180288793Y-92242664D01*
X180202547Y-92127455D01*
X180202544Y-92127452D01*
X180087335Y-92041206D01*
X180087328Y-92041202D01*
X179973901Y-91998897D01*
X179973900Y-91998896D01*
X179952485Y-91990909D01*
X179952483Y-91990908D01*
X179892883Y-91984501D01*
X179892881Y-91984500D01*
X179892873Y-91984500D01*
X179892864Y-91984500D01*
X178067129Y-91984500D01*
X178067123Y-91984501D01*
X178007516Y-91990908D01*
X177872671Y-92041202D01*
X177872664Y-92041206D01*
X177757455Y-92127452D01*
X177757452Y-92127455D01*
X177671206Y-92242664D01*
X177671202Y-92242671D01*
X177627952Y-92358633D01*
X177586081Y-92414567D01*
X177520617Y-92438984D01*
X177452344Y-92424133D01*
X177424089Y-92402981D01*
X177329565Y-92308457D01*
X177329563Y-92308455D01*
X177155678Y-92182120D01*
X176964170Y-92084541D01*
X176964167Y-92084540D01*
X176759757Y-92018124D01*
X176618229Y-91995708D01*
X176547467Y-91984500D01*
X176332533Y-91984500D01*
X176261770Y-91995708D01*
X176120243Y-92018124D01*
X176120240Y-92018124D01*
X175915832Y-92084540D01*
X175915829Y-92084541D01*
X175724321Y-92182120D01*
X175640981Y-92242671D01*
X175550437Y-92308455D01*
X175550435Y-92308457D01*
X175550434Y-92308457D01*
X175398457Y-92460434D01*
X175398457Y-92460435D01*
X175398455Y-92460437D01*
X175328677Y-92556478D01*
X175270318Y-92636802D01*
X175214988Y-92679467D01*
X175145374Y-92685446D01*
X175083579Y-92652840D01*
X175069682Y-92636802D01*
X175056836Y-92619121D01*
X174941545Y-92460437D01*
X174789563Y-92308455D01*
X174615678Y-92182120D01*
X174424170Y-92084541D01*
X174424167Y-92084540D01*
X174219757Y-92018124D01*
X174078229Y-91995708D01*
X174007467Y-91984500D01*
X173792533Y-91984500D01*
X173721770Y-91995708D01*
X173580243Y-92018124D01*
X173580240Y-92018124D01*
X173375832Y-92084540D01*
X173375829Y-92084541D01*
X173184321Y-92182120D01*
X173100981Y-92242671D01*
X173010437Y-92308455D01*
X173010435Y-92308457D01*
X173010434Y-92308457D01*
X172858457Y-92460434D01*
X172858457Y-92460435D01*
X172858455Y-92460437D01*
X172788677Y-92556478D01*
X172730318Y-92636802D01*
X172674988Y-92679467D01*
X172605374Y-92685446D01*
X172543579Y-92652840D01*
X172529682Y-92636802D01*
X172516836Y-92619121D01*
X172401545Y-92460437D01*
X172249563Y-92308455D01*
X172075678Y-92182120D01*
X171884170Y-92084541D01*
X171884167Y-92084540D01*
X171679757Y-92018124D01*
X171538229Y-91995708D01*
X171467467Y-91984500D01*
X171252533Y-91984500D01*
X171181770Y-91995708D01*
X171040243Y-92018124D01*
X171040240Y-92018124D01*
X170835832Y-92084540D01*
X170835829Y-92084541D01*
X170644321Y-92182120D01*
X170560981Y-92242671D01*
X170470437Y-92308455D01*
X170470435Y-92308457D01*
X170470434Y-92308457D01*
X170318457Y-92460434D01*
X170318457Y-92460435D01*
X170318455Y-92460437D01*
X170264198Y-92535114D01*
X170192120Y-92634321D01*
X170094541Y-92825829D01*
X170094540Y-92825832D01*
X170028124Y-93030240D01*
X170028124Y-93030243D01*
X169994500Y-93242534D01*
X155329261Y-93242534D01*
X155325975Y-93234601D01*
X155306253Y-93186986D01*
X155306246Y-93186973D01*
X155199274Y-93026880D01*
X155199271Y-93026876D01*
X155063123Y-92890728D01*
X155063119Y-92890725D01*
X154903026Y-92783753D01*
X154903013Y-92783746D01*
X154725132Y-92710066D01*
X154725128Y-92710064D01*
X154725126Y-92710064D01*
X154725122Y-92710063D01*
X154725118Y-92710062D01*
X154536279Y-92672500D01*
X154536275Y-92672500D01*
X154343725Y-92672500D01*
X154343720Y-92672500D01*
X154154881Y-92710062D01*
X154154867Y-92710066D01*
X153976986Y-92783746D01*
X153976973Y-92783753D01*
X153816880Y-92890725D01*
X153816876Y-92890728D01*
X153680728Y-93026876D01*
X153680725Y-93026880D01*
X153573753Y-93186973D01*
X153573746Y-93186986D01*
X153500066Y-93364867D01*
X153500062Y-93364881D01*
X153462500Y-93553720D01*
X141763163Y-93553720D01*
X141765693Y-93552672D01*
X141847077Y-93505685D01*
X141960422Y-93440246D01*
X141960965Y-93439931D01*
X141961807Y-93439446D01*
X142141464Y-93301590D01*
X142301590Y-93141464D01*
X142439446Y-92961807D01*
X142552672Y-92765693D01*
X142639332Y-92556478D01*
X142697942Y-92337742D01*
X142727500Y-92113226D01*
X142727500Y-91886780D01*
X209272500Y-91886780D01*
X209272500Y-92113219D01*
X209272501Y-92113235D01*
X209302056Y-92337731D01*
X209302057Y-92337736D01*
X209302058Y-92337742D01*
X209312716Y-92377517D01*
X209360667Y-92556476D01*
X209447322Y-92765681D01*
X209447329Y-92765696D01*
X209560553Y-92961806D01*
X209698408Y-93141462D01*
X209698414Y-93141469D01*
X209858530Y-93301585D01*
X209858537Y-93301591D01*
X210038193Y-93439446D01*
X210234303Y-93552670D01*
X210234318Y-93552677D01*
X210342507Y-93597490D01*
X210443522Y-93639332D01*
X210662258Y-93697942D01*
X210886774Y-93727500D01*
X210886781Y-93727500D01*
X211113219Y-93727500D01*
X211113226Y-93727500D01*
X211337742Y-93697942D01*
X211556478Y-93639332D01*
X211765693Y-93552672D01*
X211961807Y-93439446D01*
X212141464Y-93301590D01*
X212301590Y-93141464D01*
X212439446Y-92961807D01*
X212552672Y-92765693D01*
X212639332Y-92556478D01*
X212697942Y-92337742D01*
X212727500Y-92113226D01*
X212727500Y-91886774D01*
X212697942Y-91662258D01*
X212639332Y-91443522D01*
X212552672Y-91234307D01*
X212439446Y-91038193D01*
X212301590Y-90858536D01*
X212301585Y-90858530D01*
X212141469Y-90698414D01*
X212141462Y-90698408D01*
X211961806Y-90560553D01*
X211765696Y-90447329D01*
X211765681Y-90447322D01*
X211556476Y-90360667D01*
X211447110Y-90331363D01*
X211337742Y-90302058D01*
X211337736Y-90302057D01*
X211337731Y-90302056D01*
X211113235Y-90272501D01*
X211113232Y-90272500D01*
X211113226Y-90272500D01*
X210886774Y-90272500D01*
X210886768Y-90272500D01*
X210886764Y-90272501D01*
X210662268Y-90302056D01*
X210662261Y-90302057D01*
X210662258Y-90302058D01*
X210616031Y-90314444D01*
X210443523Y-90360667D01*
X210234318Y-90447322D01*
X210234303Y-90447329D01*
X210038193Y-90560553D01*
X209858537Y-90698408D01*
X209858530Y-90698414D01*
X209698414Y-90858530D01*
X209698408Y-90858537D01*
X209560553Y-91038193D01*
X209447329Y-91234303D01*
X209447322Y-91234318D01*
X209360667Y-91443523D01*
X209302059Y-91662255D01*
X209302056Y-91662268D01*
X209272501Y-91886764D01*
X209272500Y-91886780D01*
X142727500Y-91886780D01*
X142727500Y-91886774D01*
X142697942Y-91662258D01*
X142639332Y-91443522D01*
X142552672Y-91234307D01*
X142439446Y-91038193D01*
X142301590Y-90858536D01*
X142301585Y-90858530D01*
X142141469Y-90698414D01*
X142141462Y-90698408D01*
X141961806Y-90560553D01*
X141765696Y-90447329D01*
X141765681Y-90447322D01*
X141556476Y-90360667D01*
X141447110Y-90331363D01*
X141337742Y-90302058D01*
X141337736Y-90302057D01*
X141337731Y-90302056D01*
X141113235Y-90272501D01*
X141113232Y-90272500D01*
X141113226Y-90272500D01*
X140886774Y-90272500D01*
X140886768Y-90272500D01*
X140886764Y-90272501D01*
X140662268Y-90302056D01*
X140662261Y-90302057D01*
X140662258Y-90302058D01*
X140616031Y-90314444D01*
X140443523Y-90360667D01*
X140234318Y-90447322D01*
X140234303Y-90447329D01*
X140038193Y-90560553D01*
X139858537Y-90698408D01*
X139858530Y-90698414D01*
X139698414Y-90858530D01*
X139698408Y-90858537D01*
X139560553Y-91038193D01*
X139447329Y-91234303D01*
X139447322Y-91234318D01*
X139360667Y-91443523D01*
X139302059Y-91662255D01*
X139302056Y-91662268D01*
X139272501Y-91886764D01*
X139272500Y-91886780D01*
X136505443Y-91886780D01*
X136505857Y-91877306D01*
X136505857Y-91877305D01*
X136510433Y-91772498D01*
X136517386Y-91613228D01*
X136518326Y-91602495D01*
X136568152Y-91224025D01*
X136570025Y-91213405D01*
X136652649Y-90840709D01*
X136655440Y-90830295D01*
X136770230Y-90466227D01*
X136773917Y-90456095D01*
X136920003Y-90103412D01*
X136924561Y-90093638D01*
X137100822Y-89755045D01*
X137106217Y-89745700D01*
X137311325Y-89423744D01*
X137317515Y-89414905D01*
X137549896Y-89112060D01*
X137556834Y-89103791D01*
X137814726Y-88822352D01*
X137822352Y-88814726D01*
X138103791Y-88556834D01*
X138112060Y-88549896D01*
X138414905Y-88317515D01*
X138423744Y-88311325D01*
X138745700Y-88106217D01*
X138755045Y-88100822D01*
X139093638Y-87924561D01*
X139103412Y-87920003D01*
X139456095Y-87773917D01*
X139466227Y-87770230D01*
X139830295Y-87655440D01*
X139840709Y-87652649D01*
X140213405Y-87570025D01*
X140224025Y-87568152D01*
X140602495Y-87518326D01*
X140613226Y-87517386D01*
X140997297Y-87500617D01*
X141002706Y-87500500D01*
X141065892Y-87500500D01*
X210934108Y-87500500D01*
X210997294Y-87500500D01*
X211002702Y-87500617D01*
G37*
%TD.AperFunction*%
%TD*%
M02*
