M48
; DRILL file {KiCad 9.0.7} date 2026-04-26T23:25:32-0700
; FORMAT={-:-/ absolute / metric / decimal}
; #@! TF.CreationDate,2026-04-26T23:25:32-07:00
; #@! TF.GenerationSoftware,Kicad,Pcbnew,9.0.7
; #@! TF.FileFunction,Plated,1,2,PTH
FMAT,2
METRIC
; #@! TA.AperFunction,Plated,PTH,ViaDrill
T1C0.300
; #@! TA.AperFunction,Plated,PTH,ComponentDrill
T2C0.650
; #@! TA.AperFunction,Plated,PTH,ComponentDrill
T3C0.800
; #@! TA.AperFunction,Plated,PTH,ComponentDrill
T4C1.000
; #@! TA.AperFunction,Plated,PTH,ComponentDrill
T5C1.020
; #@! TA.AperFunction,Plated,PTH,ComponentDrill
T6C1.900
%
G90
G05
T1
X137.6Y-141.4
X137.7Y-137.0
X137.8Y-138.9
X139.7Y-113.3
X140.381Y-136.9
X140.6Y-141.6
X146.081Y-135.7
X146.45Y-113.95
X152.781Y-136.0
X161.7Y-113.0
X161.7Y-115.0
X162.2Y-111.5
X163.2Y-113.0
X163.2Y-114.5
X168.45Y-111.65
X172.2Y-110.0
X172.2Y-116.9
X173.7Y-121.5
X174.2Y-108.0
X174.7Y-105.0
X176.2Y-106.0
X176.2Y-108.0
X177.2Y-104.5
X178.2Y-106.0
X178.2Y-108.0
X179.2Y-104.5
X179.6Y-98.0
X180.2Y-106.0
X180.2Y-108.0
X182.562Y-139.0
X182.75Y-146.071
X183.1Y-137.625
X183.262Y-131.9
X183.4Y-145.4
X183.4Y-146.05
X183.463Y-133.4
X183.812Y-135.45
X183.862Y-132.6
X183.963Y-134.2
X185.324Y-138.647
X187.7Y-110.5
X188.5Y-128.5
X188.5Y-131.0
X188.5Y-146.0
X188.5Y-148.5
X191.0Y-126.0
X191.0Y-128.5
X191.0Y-131.0
X191.0Y-148.5
X191.0Y-151.0
X193.2Y-109.1
X193.5Y-126.0
X193.5Y-128.5
X193.5Y-131.0
X193.5Y-146.0
X193.5Y-151.0
X195.7Y-95.5
X195.7Y-97.5
X195.7Y-99.5
X196.0Y-126.0
X196.0Y-128.5
X196.0Y-131.0
X196.0Y-146.0
X196.0Y-148.5
X197.7Y-95.5
X197.7Y-97.5
X197.7Y-99.5
X198.2Y-105.2
X198.5Y-126.0
X198.5Y-128.5
X198.5Y-131.0
X198.5Y-146.0
X198.5Y-148.5
X199.7Y-95.5
X199.7Y-97.5
X199.7Y-99.5
X199.7Y-108.9
X201.2Y-117.0
X202.7Y-111.5
X202.7Y-113.5
X202.7Y-115.5
X203.7Y-117.0
X204.7Y-111.5
X204.7Y-113.5
X204.7Y-115.5
X205.862Y-151.0
X206.2Y-112.5
X206.2Y-114.5
X206.2Y-116.5
X213.0Y-116.6
T4
X166.581Y-135.46
X166.581Y-138.0
T5
X141.24Y-99.1
X141.24Y-101.64
X141.24Y-104.18
X141.24Y-106.72
X141.6Y-122.6
X141.6Y-125.14
X141.6Y-127.68
X141.6Y-130.22
X149.401Y-155.06
X151.941Y-155.06
X154.481Y-155.06
X157.021Y-155.06
X163.12Y-155.0
X165.66Y-155.0
X168.2Y-155.0
X170.74Y-155.0
X171.36Y-93.5
X173.9Y-93.5
X176.44Y-93.5
X178.98Y-93.5
X184.58Y-93.5
X187.12Y-93.5
X189.66Y-93.5
X192.2Y-93.5
X204.36Y-100.64
X206.9Y-100.64
X209.44Y-100.64
X210.0Y-123.38
X210.0Y-125.92
X210.0Y-128.46
X210.0Y-131.0
X210.0Y-137.46
X210.0Y-140.0
X210.0Y-142.54
X210.0Y-145.08
X211.98Y-100.64
T6
X154.44Y-105.3
T2
X174.76Y-154.75G85X174.76Y-155.25
G05
X174.76Y-158.55G85X174.76Y-159.45
G05
X186.0Y-154.75G85X186.0Y-155.25
G05
X186.0Y-158.55G85X186.0Y-159.45
G05
T3
X148.44Y-94.0G85X148.44Y-95.2
G05
X148.44Y-99.2G85X148.44Y-100.4
G05
X155.14Y-98.65G85X153.74Y-98.65
G05
X160.44Y-94.0G85X160.44Y-95.2
G05
X160.44Y-99.2G85X160.44Y-100.4
G05
M30
