%TF.GenerationSoftware,KiCad,Pcbnew,9.0.7*%
%TF.CreationDate,2026-04-26T23:25:23-07:00*%
%TF.ProjectId,System PCB-Bucks Mk.2,53797374-656d-4205-9043-422d4275636b,rev?*%
%TF.SameCoordinates,Original*%
%TF.FileFunction,Copper,L1,Top*%
%TF.FilePolarity,Positive*%
%FSLAX46Y46*%
G04 Gerber Fmt 4.6, Leading zero omitted, Abs format (unit mm)*
G04 Created by KiCad (PCBNEW 9.0.7) date 2026-04-26 23:25:23*
%MOMM*%
%LPD*%
G01*
G04 APERTURE LIST*
G04 Aperture macros list*
%AMRoundRect*
0 Rectangle with rounded corners*
0 $1 Rounding radius*
0 $2 $3 $4 $5 $6 $7 $8 $9 X,Y pos of 4 corners*
0 Add a 4 corners polygon primitive as box body*
4,1,4,$2,$3,$4,$5,$6,$7,$8,$9,$2,$3,0*
0 Add four circle primitives for the rounded corners*
1,1,$1+$1,$2,$3*
1,1,$1+$1,$4,$5*
1,1,$1+$1,$6,$7*
1,1,$1+$1,$8,$9*
0 Add four rect primitives between the rounded corners*
20,1,$1+$1,$2,$3,$4,$5,0*
20,1,$1+$1,$4,$5,$6,$7,0*
20,1,$1+$1,$6,$7,$8,$9,0*
20,1,$1+$1,$8,$9,$2,$3,0*%
%AMFreePoly0*
4,1,45,2.751036,2.213536,2.752500,2.210000,2.752500,1.600000,2.751036,1.596464,2.747500,1.595000,2.042500,1.595000,2.042500,0.945000,2.747500,0.945000,2.751036,0.943536,2.752500,0.940000,2.752500,0.330000,2.751036,0.326464,2.747500,0.325000,2.042500,0.325000,2.042500,-0.325000,2.747500,-0.325000,2.751036,-0.326464,2.752500,-0.330000,2.752500,-0.940000,2.751036,-0.943536,
2.747500,-0.945000,2.042500,-0.945000,2.042500,-1.595000,2.747500,-1.595000,2.751036,-1.596464,2.752500,-1.600000,2.752500,-2.210000,2.751036,-2.213536,2.747500,-2.215000,1.727500,-2.215000,1.723964,-2.213536,1.722500,-2.210000,1.722500,-1.960000,-1.772500,-1.960000,-1.776036,-1.958536,-1.777500,-1.955000,-1.777500,1.955000,-1.776036,1.958536,-1.772500,1.960000,1.722500,1.960000,
1.722500,2.210000,1.723964,2.213536,1.727500,2.215000,2.747500,2.215000,2.751036,2.213536,2.751036,2.213536,$1*%
%AMFreePoly1*
4,1,11,1.099496,0.087508,1.099496,-0.087504,1.061996,-0.125004,0.524505,-0.125004,0.524505,-0.725004,0.074505,-0.725004,0.074505,-0.125004,-0.425495,-0.125004,-0.425495,0.125008,1.061996,0.125008,1.099496,0.087508,1.099496,0.087508,$1*%
%AMFreePoly2*
4,1,29,-0.090000,0.162500,-0.052500,0.125000,0.322500,0.125000,0.360000,0.162500,0.360000,0.300000,0.610000,0.300000,0.610000,0.162500,0.647500,0.125000,1.022500,0.125000,1.060000,0.162500,1.060000,0.300000,1.310000,0.300000,1.310000,-0.300000,1.060000,-0.300000,1.060000,-0.162500,1.022500,-0.125000,0.647500,-0.125000,0.610000,-0.162500,0.610000,-0.300000,0.360000,-0.300000,
0.360000,-0.162500,0.322500,-0.125000,-0.052500,-0.125000,-0.090000,-0.162500,-0.090000,-0.300000,-0.590000,-0.300000,-0.590000,0.300000,-0.090000,0.300000,-0.090000,0.162500,-0.090000,0.162500,$1*%
%AMFreePoly3*
4,1,11,0.425495,-0.125004,-0.074505,-0.125004,-0.074505,-0.725004,-0.524505,-0.725004,-0.524505,-0.125004,-1.061996,-0.125004,-1.099496,-0.087504,-1.099496,0.087508,-1.061996,0.125008,0.425495,0.125008,0.425495,-0.125004,0.425495,-0.125004,$1*%
%AMFreePoly4*
4,1,8,0.424998,-0.225000,-0.100002,-0.225000,-0.100002,-0.725000,-0.450002,-0.725000,-0.450002,0.187500,-0.412502,0.225000,0.424998,0.225000,0.424998,-0.225000,0.424998,-0.225000,$1*%
%AMFreePoly5*
4,1,8,-0.100000,0.225000,0.425000,0.225000,0.425000,-0.225000,-0.412500,-0.225000,-0.450000,-0.187500,-0.450000,0.725000,-0.100000,0.725000,-0.100000,0.225000,-0.100000,0.225000,$1*%
G04 Aperture macros list end*
%TA.AperFunction,SMDPad,CuDef*%
%ADD10R,0.600000X1.100000*%
%TD*%
%TA.AperFunction,SMDPad,CuDef*%
%ADD11R,0.300000X1.100000*%
%TD*%
%TA.AperFunction,ComponentPad*%
%ADD12O,1.050000X1.550000*%
%TD*%
%TA.AperFunction,ComponentPad*%
%ADD13O,1.050000X1.950000*%
%TD*%
%TA.AperFunction,SMDPad,CuDef*%
%ADD14RoundRect,0.250000X0.400000X0.625000X-0.400000X0.625000X-0.400000X-0.625000X0.400000X-0.625000X0*%
%TD*%
%TA.AperFunction,SMDPad,CuDef*%
%ADD15RoundRect,0.250000X0.337500X0.475000X-0.337500X0.475000X-0.337500X-0.475000X0.337500X-0.475000X0*%
%TD*%
%TA.AperFunction,SMDPad,CuDef*%
%ADD16RoundRect,0.250000X0.625000X-0.400000X0.625000X0.400000X-0.625000X0.400000X-0.625000X-0.400000X0*%
%TD*%
%TA.AperFunction,SMDPad,CuDef*%
%ADD17RoundRect,0.250000X1.100000X-0.412500X1.100000X0.412500X-1.100000X0.412500X-1.100000X-0.412500X0*%
%TD*%
%TA.AperFunction,SMDPad,CuDef*%
%ADD18R,2.150000X2.800000*%
%TD*%
%TA.AperFunction,SMDPad,CuDef*%
%ADD19R,3.352800X1.320800*%
%TD*%
%TA.AperFunction,ComponentPad*%
%ADD20R,1.730000X2.030000*%
%TD*%
%TA.AperFunction,ComponentPad*%
%ADD21O,1.730000X2.030000*%
%TD*%
%TA.AperFunction,SMDPad,CuDef*%
%ADD22RoundRect,0.250000X0.412500X0.650000X-0.412500X0.650000X-0.412500X-0.650000X0.412500X-0.650000X0*%
%TD*%
%TA.AperFunction,SMDPad,CuDef*%
%ADD23RoundRect,0.155000X0.155000X-0.212500X0.155000X0.212500X-0.155000X0.212500X-0.155000X-0.212500X0*%
%TD*%
%TA.AperFunction,ComponentPad*%
%ADD24R,2.030000X1.730000*%
%TD*%
%TA.AperFunction,ComponentPad*%
%ADD25O,2.030000X1.730000*%
%TD*%
%TA.AperFunction,SMDPad,CuDef*%
%ADD26RoundRect,0.250000X-0.475000X0.337500X-0.475000X-0.337500X0.475000X-0.337500X0.475000X0.337500X0*%
%TD*%
%TA.AperFunction,SMDPad,CuDef*%
%ADD27RoundRect,0.250000X-0.625000X0.400000X-0.625000X-0.400000X0.625000X-0.400000X0.625000X0.400000X0*%
%TD*%
%TA.AperFunction,ComponentPad*%
%ADD28R,1.700000X1.700000*%
%TD*%
%TA.AperFunction,ComponentPad*%
%ADD29C,1.700000*%
%TD*%
%TA.AperFunction,SMDPad,CuDef*%
%ADD30R,2.006600X4.343400*%
%TD*%
%TA.AperFunction,SMDPad,CuDef*%
%ADD31RoundRect,0.073750X-0.651250X-0.221250X0.651250X-0.221250X0.651250X0.221250X-0.651250X0.221250X0*%
%TD*%
%TA.AperFunction,SMDPad,CuDef*%
%ADD32RoundRect,0.250000X0.412500X1.100000X-0.412500X1.100000X-0.412500X-1.100000X0.412500X-1.100000X0*%
%TD*%
%TA.AperFunction,SMDPad,CuDef*%
%ADD33RoundRect,0.250000X-1.100000X0.412500X-1.100000X-0.412500X1.100000X-0.412500X1.100000X0.412500X0*%
%TD*%
%TA.AperFunction,SMDPad,CuDef*%
%ADD34R,4.343400X2.006600*%
%TD*%
%TA.AperFunction,SMDPad,CuDef*%
%ADD35RoundRect,0.250000X-0.412500X-1.100000X0.412500X-1.100000X0.412500X1.100000X-0.412500X1.100000X0*%
%TD*%
%TA.AperFunction,SMDPad,CuDef*%
%ADD36RoundRect,0.250000X-0.412500X-0.650000X0.412500X-0.650000X0.412500X0.650000X-0.412500X0.650000X0*%
%TD*%
%TA.AperFunction,SMDPad,CuDef*%
%ADD37RoundRect,0.050000X0.100000X-0.285000X0.100000X0.285000X-0.100000X0.285000X-0.100000X-0.285000X0*%
%TD*%
%TA.AperFunction,SMDPad,CuDef*%
%ADD38R,0.610000X1.270000*%
%TD*%
%TA.AperFunction,SMDPad,CuDef*%
%ADD39R,3.910000X3.810000*%
%TD*%
%TA.AperFunction,SMDPad,CuDef*%
%ADD40R,0.610000X1.020000*%
%TD*%
%TA.AperFunction,SMDPad,CuDef*%
%ADD41R,3.100000X5.000000*%
%TD*%
%TA.AperFunction,ComponentPad*%
%ADD42R,2.850000X2.850000*%
%TD*%
%TA.AperFunction,ComponentPad*%
%ADD43O,2.616000X1.308000*%
%TD*%
%TA.AperFunction,ComponentPad*%
%ADD44O,1.308000X2.616000*%
%TD*%
%TA.AperFunction,SMDPad,CuDef*%
%ADD45RoundRect,0.250000X0.475000X-0.337500X0.475000X0.337500X-0.475000X0.337500X-0.475000X-0.337500X0*%
%TD*%
%TA.AperFunction,SMDPad,CuDef*%
%ADD46RoundRect,0.073750X0.651250X0.221250X-0.651250X0.221250X-0.651250X-0.221250X0.651250X-0.221250X0*%
%TD*%
%TA.AperFunction,SMDPad,CuDef*%
%ADD47RoundRect,0.250000X-0.400000X-0.625000X0.400000X-0.625000X0.400000X0.625000X-0.400000X0.625000X0*%
%TD*%
%TA.AperFunction,SMDPad,CuDef*%
%ADD48RoundRect,0.250000X-0.337500X-0.475000X0.337500X-0.475000X0.337500X0.475000X-0.337500X0.475000X0*%
%TD*%
%TA.AperFunction,SMDPad,CuDef*%
%ADD49R,1.270000X0.610000*%
%TD*%
%TA.AperFunction,SMDPad,CuDef*%
%ADD50FreePoly0,0.000000*%
%TD*%
%TA.AperFunction,SMDPad,CuDef*%
%ADD51R,0.299999X0.875005*%
%TD*%
%TA.AperFunction,SMDPad,CuDef*%
%ADD52R,0.250012X1.524991*%
%TD*%
%TA.AperFunction,SMDPad,CuDef*%
%ADD53FreePoly1,90.000000*%
%TD*%
%TA.AperFunction,SMDPad,CuDef*%
%ADD54FreePoly2,180.000000*%
%TD*%
%TA.AperFunction,SMDPad,CuDef*%
%ADD55FreePoly3,90.000000*%
%TD*%
%TA.AperFunction,SMDPad,CuDef*%
%ADD56FreePoly4,180.000000*%
%TD*%
%TA.AperFunction,SMDPad,CuDef*%
%ADD57R,0.875005X0.299999*%
%TD*%
%TA.AperFunction,SMDPad,CuDef*%
%ADD58FreePoly5,180.000000*%
%TD*%
%TA.AperFunction,SMDPad,CuDef*%
%ADD59RoundRect,0.050000X0.285000X0.100000X-0.285000X0.100000X-0.285000X-0.100000X0.285000X-0.100000X0*%
%TD*%
%TA.AperFunction,ViaPad*%
%ADD60C,0.600000*%
%TD*%
%TA.AperFunction,Conductor*%
%ADD61C,0.500000*%
%TD*%
%TA.AperFunction,Conductor*%
%ADD62C,0.250000*%
%TD*%
%TA.AperFunction,Conductor*%
%ADD63C,1.000000*%
%TD*%
%TA.AperFunction,Conductor*%
%ADD64C,2.000000*%
%TD*%
G04 APERTURE END LIST*
D10*
%TO.P,J15,A1_B12,GND_A*%
%TO.N,GND*%
X177180000Y-153850000D03*
%TO.P,J15,A4_B9,VBUS_A*%
%TO.N,ConversionVIN*%
X177980000Y-153850000D03*
D11*
%TO.P,J15,A5,CC1*%
%TO.N,unconnected-(J15-CC1-PadA5)*%
X179130000Y-153850000D03*
%TO.P,J15,A6,DP1*%
%TO.N,unconnected-(J15-DP1-PadA6)*%
X180130000Y-153850000D03*
%TO.P,J15,A7,DN1*%
%TO.N,unconnected-(J15-DN1-PadA7)*%
X180630000Y-153850000D03*
%TO.P,J15,A8,SBU1*%
%TO.N,unconnected-(J15-SBU1-PadA8)*%
X181630000Y-153850000D03*
D10*
%TO.P,J15,B1_A12,GND_B*%
%TO.N,GND*%
X183580000Y-153850000D03*
%TO.P,J15,B4_A9,VBUS_B*%
%TO.N,ConversionVIN*%
X182780000Y-153850000D03*
D11*
%TO.P,J15,B5,CC2*%
%TO.N,unconnected-(J15-CC2-PadB5)*%
X182130000Y-153850000D03*
%TO.P,J15,B6,DP2*%
%TO.N,unconnected-(J15-DP2-PadB6)*%
X181130000Y-153850000D03*
%TO.P,J15,B7,DN2*%
%TO.N,unconnected-(J15-DN2-PadB7)*%
X179630000Y-153850000D03*
%TO.P,J15,B8,SBU2*%
%TO.N,unconnected-(J15-SBU2-PadB8)*%
X178630000Y-153850000D03*
D12*
%TO.P,J15,SH1,SHIELD*%
%TO.N,GND*%
X174760000Y-155000000D03*
%TO.P,J15,SH2,SHIELD__1*%
X186000000Y-155000000D03*
D13*
%TO.P,J15,SH3,SHIELD__2*%
X174760000Y-159000000D03*
%TO.P,J15,SH4,SHIELD__3*%
X186000000Y-159000000D03*
%TD*%
D14*
%TO.P,R10,1*%
%TO.N,ConversionVIN*%
X196050000Y-110737500D03*
%TO.P,R10,2*%
%TO.N,Net-(U2-EN)*%
X192950000Y-110737500D03*
%TD*%
D15*
%TO.P,C16,1*%
%TO.N,Net-(C16-Pad1)*%
X187637500Y-103400000D03*
%TO.P,C16,2*%
%TO.N,Vout3v3*%
X185562500Y-103400000D03*
%TD*%
D16*
%TO.P,R9,1*%
%TO.N,Net-(U2-EN)*%
X199200000Y-103687500D03*
%TO.P,R9,2*%
%TO.N,GND*%
X199200000Y-100587500D03*
%TD*%
D17*
%TO.P,C1,1*%
%TO.N,ConversionVIN*%
X176700000Y-112362500D03*
%TO.P,C1,2*%
%TO.N,GND*%
X176700000Y-109237500D03*
%TD*%
D18*
%TO.P,F3,1*%
%TO.N,ChargingVin*%
X149545000Y-123100000D03*
%TO.P,F3,2*%
%TO.N,PowerVOUT*%
X154455000Y-123100000D03*
%TD*%
D19*
%TO.P,C48,1*%
%TO.N,BatteryVIN*%
X155218700Y-139600000D03*
%TO.P,C48,2*%
%TO.N,GND*%
X160781300Y-139600000D03*
%TD*%
D20*
%TO.P,J17,1,Pin_1*%
%TO.N,GND*%
X163120000Y-155000000D03*
D21*
%TO.P,J17,2,Pin_2*%
X165660000Y-155000000D03*
%TO.P,J17,3,Pin_3*%
X168200000Y-155000000D03*
%TO.P,J17,4,Pin_4*%
X170740000Y-155000000D03*
%TD*%
D22*
%TO.P,C47,1*%
%TO.N,BatteryVIN*%
X145062500Y-139100000D03*
%TO.P,C47,2*%
%TO.N,GND*%
X141937500Y-139100000D03*
%TD*%
%TO.P,C18,1*%
%TO.N,GND*%
X188562500Y-143300000D03*
%TO.P,C18,2*%
%TO.N,ConversionVIN*%
X185437500Y-143300000D03*
%TD*%
D23*
%TO.P,C25,1*%
%TO.N,Vout5VPi*%
X182300000Y-137567500D03*
%TO.P,C25,2*%
%TO.N,Net-(U3-FB)*%
X182300000Y-136432500D03*
%TD*%
D20*
%TO.P,J16,1,Pin_1*%
%TO.N,BatteryVIN*%
X149401300Y-155060000D03*
D21*
%TO.P,J16,2,Pin_2*%
X151941300Y-155060000D03*
%TO.P,J16,3,Pin_3*%
X154481300Y-155060000D03*
%TO.P,J16,4,Pin_4*%
X157021300Y-155060000D03*
%TD*%
D24*
%TO.P,J3,1,Pin_1*%
%TO.N,Vout5VPi*%
X210000000Y-145080000D03*
D25*
%TO.P,J3,2,Pin_2*%
X210000000Y-142540000D03*
%TO.P,J3,3,Pin_3*%
X210000000Y-140000000D03*
%TO.P,J3,4,Pin_4*%
X210000000Y-137460000D03*
%TD*%
D14*
%TO.P,R18,1*%
%TO.N,Net-(U3-FB)*%
X180312500Y-134800000D03*
%TO.P,R18,2*%
%TO.N,Net-(R17-Pad2)*%
X177212500Y-134800000D03*
%TD*%
D26*
%TO.P,C12,1*%
%TO.N,Net-(U2-BST)*%
X201400000Y-105000000D03*
%TO.P,C12,2*%
%TO.N,Net-(U2-SW)*%
X201400000Y-107075000D03*
%TD*%
D19*
%TO.P,C49,1*%
%TO.N,BatteryVIN*%
X156618700Y-147500000D03*
%TO.P,C49,2*%
%TO.N,GND*%
X162181300Y-147500000D03*
%TD*%
D27*
%TO.P,R2,1*%
%TO.N,ConversionVIN*%
X173800000Y-114250000D03*
%TO.P,R2,2*%
%TO.N,Net-(U1-EN)*%
X173800000Y-117350000D03*
%TD*%
%TO.P,R3,1*%
%TO.N,Net-(U1-PG)*%
X171500000Y-119250000D03*
%TO.P,R3,2*%
%TO.N,Vout5V*%
X171500000Y-122350000D03*
%TD*%
D28*
%TO.P,J14,1,Pin_1*%
%TO.N,GND*%
X166581300Y-138000000D03*
D29*
%TO.P,J14,2,Pin_2*%
%TO.N,Net-(J14-Pin_2)*%
X166581300Y-135460000D03*
%TD*%
D30*
%TO.P,L2,1,1*%
%TO.N,Net-(U2-SW)*%
X205998200Y-106700000D03*
%TO.P,L2,2,2*%
%TO.N,Vout3v3*%
X209401800Y-106700000D03*
%TD*%
D31*
%TO.P,U9,1,VS*%
%TO.N,ChargingVin*%
X142181300Y-134750000D03*
%TO.P,U9,2,GND*%
%TO.N,GND*%
X142181300Y-135700000D03*
%TO.P,U9,3,OFF*%
X142181300Y-136650000D03*
%TO.P,U9,4,IN*%
%TO.N,BatteryVIN*%
X144491300Y-136650000D03*
%TO.P,U9,5,GATE*%
%TO.N,Net-(Q6-G)*%
X144491300Y-135700000D03*
%TO.P,U9,6,OUT*%
%TO.N,ChargingVin*%
X144491300Y-134750000D03*
%TD*%
D32*
%TO.P,C14,1*%
%TO.N,Vout3v3*%
X210762500Y-116237500D03*
%TO.P,C14,2*%
%TO.N,GND*%
X207637500Y-116237500D03*
%TD*%
D33*
%TO.P,C5,1*%
%TO.N,Vout5V*%
X175800000Y-100137500D03*
%TO.P,C5,2*%
%TO.N,GND*%
X175800000Y-103262500D03*
%TD*%
D20*
%TO.P,J7,1,Pin_1*%
%TO.N,GND*%
X192200000Y-93500000D03*
D21*
%TO.P,J7,2,Pin_2*%
X189660000Y-93500000D03*
%TO.P,J7,3,Pin_3*%
X187120000Y-93500000D03*
%TO.P,J7,4,Pin_4*%
X184580000Y-93500000D03*
%TD*%
D14*
%TO.P,R19,1*%
%TO.N,Vout5VPi*%
X180712500Y-140037500D03*
%TO.P,R19,2*%
%TO.N,Net-(U3-FB)*%
X177612500Y-140037500D03*
%TD*%
D34*
%TO.P,L1,1,1*%
%TO.N,Net-(U1-SW)*%
X169800000Y-104898600D03*
%TO.P,L1,2,2*%
%TO.N,Vout5V*%
X169800000Y-101495000D03*
%TD*%
D27*
%TO.P,R7,1*%
%TO.N,Net-(R6-Pad2)*%
X165100000Y-120312500D03*
%TO.P,R7,2*%
%TO.N,Vout5V*%
X165100000Y-123412500D03*
%TD*%
D35*
%TO.P,C19,1*%
%TO.N,GND*%
X201437500Y-150100000D03*
%TO.P,C19,2*%
%TO.N,Vout5VPi*%
X204562500Y-150100000D03*
%TD*%
D36*
%TO.P,C10,1*%
%TO.N,ConversionVIN*%
X197937500Y-115137500D03*
%TO.P,C10,2*%
%TO.N,GND*%
X201062500Y-115137500D03*
%TD*%
D35*
%TO.P,C22,1*%
%TO.N,GND*%
X201437500Y-129900000D03*
%TO.P,C22,2*%
%TO.N,Vout5VPi*%
X204562500Y-129900000D03*
%TD*%
D26*
%TO.P,C17,1*%
%TO.N,Net-(U3-BST)*%
X183400000Y-142262500D03*
%TO.P,C17,2*%
%TO.N,Net-(U3-LX)*%
X183400000Y-144337500D03*
%TD*%
D20*
%TO.P,J5,1,Pin_1*%
%TO.N,Vout3v3*%
X211980000Y-100640000D03*
D21*
%TO.P,J5,2,Pin_2*%
X209440000Y-100640000D03*
%TO.P,J5,3,Pin_3*%
%TO.N,GND*%
X206900000Y-100640000D03*
%TO.P,J5,4,Pin_4*%
X204360000Y-100640000D03*
%TD*%
D37*
%TO.P,U2,1,PG*%
%TO.N,Net-(U2-PG)*%
X196900000Y-108037500D03*
%TO.P,U2,2,VIN*%
%TO.N,ConversionVIN*%
X197400000Y-108037500D03*
%TO.P,U2,3,SW*%
%TO.N,Net-(U2-SW)*%
X197900000Y-108037500D03*
%TO.P,U2,4,GND*%
%TO.N,GND*%
X198400000Y-108037500D03*
%TO.P,U2,5,BST*%
%TO.N,Net-(U2-BST)*%
X198400000Y-106557500D03*
%TO.P,U2,6,EN*%
%TO.N,Net-(U2-EN)*%
X197900000Y-106557500D03*
%TO.P,U2,7,SS*%
%TO.N,Net-(U2-SS)*%
X197400000Y-106557500D03*
%TO.P,U2,8,FB*%
%TO.N,Net-(U2-FB)*%
X196900000Y-106557500D03*
%TD*%
D32*
%TO.P,C13,1*%
%TO.N,Vout3v3*%
X210762500Y-112837500D03*
%TO.P,C13,2*%
%TO.N,GND*%
X207637500Y-112837500D03*
%TD*%
D24*
%TO.P,J1,1,Pin_1*%
%TO.N,ChargingVin*%
X141600000Y-122600000D03*
D25*
%TO.P,J1,2,Pin_2*%
X141600000Y-125140000D03*
%TO.P,J1,3,Pin_3*%
X141600000Y-127680000D03*
%TO.P,J1,4,Pin_4*%
X141600000Y-130220000D03*
%TD*%
D26*
%TO.P,C7,1*%
%TO.N,Net-(C7-Pad1)*%
X169300000Y-120225000D03*
%TO.P,C7,2*%
%TO.N,Vout5V*%
X169300000Y-122300000D03*
%TD*%
D38*
%TO.P,Q3,1,S*%
%TO.N,WALLVIN*%
X144905000Y-112535000D03*
%TO.P,Q3,2,S*%
X143635000Y-112535000D03*
%TO.P,Q3,3,S*%
X142365000Y-112535000D03*
%TO.P,Q3,4,G*%
%TO.N,Net-(Q3-G)*%
X141095000Y-112535000D03*
D39*
%TO.P,Q3,5,D*%
%TO.N,ChargingVin*%
X143000000Y-115895000D03*
D40*
X144905000Y-118000000D03*
X143635000Y-118000000D03*
X142365000Y-118000000D03*
X141095000Y-118000000D03*
%TD*%
D14*
%TO.P,R46,1*%
%TO.N,Net-(J14-Pin_2)*%
X162950000Y-132400000D03*
%TO.P,R46,2*%
%TO.N,PowerVOUT*%
X159850000Y-132400000D03*
%TD*%
D20*
%TO.P,J6,1,Pin_1*%
%TO.N,Vout5V*%
X178980000Y-93500000D03*
D21*
%TO.P,J6,2,Pin_2*%
X176440000Y-93500000D03*
%TO.P,J6,3,Pin_3*%
X173900000Y-93500000D03*
%TO.P,J6,4,Pin_4*%
X171360000Y-93500000D03*
%TD*%
D24*
%TO.P,J2,1,Pin_1*%
%TO.N,GND*%
X141240000Y-99100000D03*
D25*
%TO.P,J2,2,Pin_2*%
X141240000Y-101640000D03*
%TO.P,J2,3,Pin_3*%
X141240000Y-104180000D03*
%TO.P,J2,4,Pin_4*%
X141240000Y-106720000D03*
%TD*%
D14*
%TO.P,R14,1*%
%TO.N,Net-(C16-Pad1)*%
X190050000Y-105837500D03*
%TO.P,R14,2*%
%TO.N,Vout3v3*%
X186950000Y-105837500D03*
%TD*%
%TO.P,R1,1*%
%TO.N,Net-(U1-EN)*%
X166950000Y-111300000D03*
%TO.P,R1,2*%
%TO.N,GND*%
X163850000Y-111300000D03*
%TD*%
D36*
%TO.P,C23,1*%
%TO.N,ConversionVIN*%
X185437500Y-133300000D03*
%TO.P,C23,2*%
%TO.N,GND*%
X188562500Y-133300000D03*
%TD*%
D41*
%TO.P,L3,1,1*%
%TO.N,Net-(U3-LX)*%
X191450000Y-138300000D03*
%TO.P,L3,2,2*%
%TO.N,Vout5VPi*%
X202550000Y-138300000D03*
%TD*%
D14*
%TO.P,R6,1*%
%TO.N,Net-(C7-Pad1)*%
X166950000Y-118200000D03*
%TO.P,R6,2*%
%TO.N,Net-(R6-Pad2)*%
X163850000Y-118200000D03*
%TD*%
D42*
%TO.P,J21,1*%
%TO.N,WALLVIN*%
X154440000Y-105300000D03*
D43*
%TO.P,J21,2*%
%TO.N,GND*%
X154440000Y-98650000D03*
D44*
%TO.P,J21,SH1,SHIELD*%
X160440000Y-99800000D03*
%TO.P,J21,SH2,SHIELD__1*%
X160440000Y-94600000D03*
%TO.P,J21,SH3,SHIELD__2*%
X148440000Y-99800000D03*
%TO.P,J21,SH4,SHIELD__3*%
X148440000Y-94600000D03*
%TD*%
D15*
%TO.P,C6,1*%
%TO.N,Net-(U1-SS)*%
X166874000Y-113500000D03*
%TO.P,C6,2*%
%TO.N,GND*%
X164799000Y-113500000D03*
%TD*%
D14*
%TO.P,R13,1*%
%TO.N,Net-(R12-Pad1)*%
X192550000Y-103437500D03*
%TO.P,R13,2*%
%TO.N,Net-(C16-Pad1)*%
X189450000Y-103437500D03*
%TD*%
D45*
%TO.P,C15,1*%
%TO.N,Net-(U2-SS)*%
X196900000Y-103737500D03*
%TO.P,C15,2*%
%TO.N,GND*%
X196900000Y-101662500D03*
%TD*%
D16*
%TO.P,R12,1*%
%TO.N,Net-(R12-Pad1)*%
X194700000Y-103687500D03*
%TO.P,R12,2*%
%TO.N,GND*%
X194700000Y-100587500D03*
%TD*%
D46*
%TO.P,U11,1,VS*%
%TO.N,ChargingVin*%
X150310000Y-114900000D03*
%TO.P,U11,2,GND*%
%TO.N,GND*%
X150310000Y-113950000D03*
%TO.P,U11,3,OFF*%
X150310000Y-113000000D03*
%TO.P,U11,4,IN*%
%TO.N,WALLVIN*%
X148000000Y-113000000D03*
%TO.P,U11,5,GATE*%
%TO.N,Net-(Q3-G)*%
X148000000Y-113950000D03*
%TO.P,U11,6,OUT*%
%TO.N,ChargingVin*%
X148000000Y-114900000D03*
%TD*%
D47*
%TO.P,R5,1*%
%TO.N,GND*%
X163850000Y-115900000D03*
%TO.P,R5,2*%
%TO.N,Net-(C7-Pad1)*%
X166950000Y-115900000D03*
%TD*%
D24*
%TO.P,J4,1,Pin_1*%
%TO.N,GND*%
X210000000Y-131000000D03*
D25*
%TO.P,J4,2,Pin_2*%
X210000000Y-128460000D03*
%TO.P,J4,3,Pin_3*%
X210000000Y-125920000D03*
%TO.P,J4,4,Pin_4*%
X210000000Y-123380000D03*
%TD*%
D26*
%TO.P,C8,1*%
%TO.N,Net-(C7-Pad1)*%
X167300000Y-120225000D03*
%TO.P,C8,2*%
%TO.N,Vout5V*%
X167300000Y-122300000D03*
%TD*%
D27*
%TO.P,R8,1*%
%TO.N,Net-(U1-FB)*%
X169100000Y-114950000D03*
%TO.P,R8,2*%
%TO.N,Net-(C7-Pad1)*%
X169100000Y-118050000D03*
%TD*%
D16*
%TO.P,R16,1*%
%TO.N,ConversionVIN*%
X180762500Y-147450000D03*
%TO.P,R16,2*%
%TO.N,Net-(U3-EN)*%
X180762500Y-144350000D03*
%TD*%
D14*
%TO.P,R20,1*%
%TO.N,Vout5VPi*%
X180712500Y-137700000D03*
%TO.P,R20,2*%
%TO.N,Net-(U3-FB)*%
X177612500Y-137700000D03*
%TD*%
D48*
%TO.P,C3,1*%
%TO.N,Net-(U1-BST)*%
X167862500Y-109100000D03*
%TO.P,C3,2*%
%TO.N,Net-(U1-SW)*%
X169937500Y-109100000D03*
%TD*%
D35*
%TO.P,C21,1*%
%TO.N,GND*%
X201437500Y-146700000D03*
%TO.P,C21,2*%
%TO.N,Vout5VPi*%
X204562500Y-146700000D03*
%TD*%
D48*
%TO.P,C11,1*%
%TO.N,ConversionVIN*%
X197962500Y-110537500D03*
%TO.P,C11,2*%
%TO.N,GND*%
X200037500Y-110537500D03*
%TD*%
D33*
%TO.P,C4,1*%
%TO.N,Vout5V*%
X179100000Y-100137500D03*
%TO.P,C4,2*%
%TO.N,GND*%
X179100000Y-103262500D03*
%TD*%
D49*
%TO.P,Q2,1*%
%TO.N,PowerVOUT*%
X163000000Y-126500000D03*
%TO.P,Q2,2*%
X163000000Y-127770000D03*
%TO.P,Q2,3*%
X163000000Y-129040000D03*
%TO.P,Q2,4*%
%TO.N,Net-(J14-Pin_2)*%
X163000000Y-130310000D03*
D50*
%TO.P,Q2,5*%
%TO.N,ConversionVIN*%
X166227500Y-128405000D03*
%TD*%
D51*
%TO.P,U3,1,EN*%
%TO.N,Net-(U3-EN)*%
X184879998Y-139988502D03*
%TO.P,U3,2,BST*%
%TO.N,Net-(U3-BST)*%
X185380000Y-139988502D03*
D52*
%TO.P,U3,3,SUP*%
%TO.N,ConversionVIN*%
X185879999Y-139663502D03*
%TO.P,U3,4,PGND*%
%TO.N,GND*%
X186579998Y-139663502D03*
D53*
%TO.P,U3,5,PGND*%
X187280000Y-140000502D03*
D54*
%TO.P,U3,6,LX*%
%TO.N,Net-(U3-LX)*%
X187414999Y-138375501D03*
D55*
%TO.P,U3,7,PGND*%
%TO.N,GND*%
X187280000Y-136750500D03*
D52*
%TO.P,U3,8,PGND*%
X186579998Y-137087500D03*
%TO.P,U3,9,SUP*%
%TO.N,ConversionVIN*%
X185879999Y-137087500D03*
D51*
%TO.P,U3,10,GND*%
%TO.N,GND*%
X185380000Y-136762500D03*
%TO.P,U3,11,BIAS*%
%TO.N,Net-(U3-BIAS)*%
X184879998Y-136762500D03*
D56*
%TO.P,U3,12,FB*%
%TO.N,Net-(U3-FB)*%
X184079997Y-137050501D03*
D57*
%TO.P,U3,13,OUT*%
%TO.N,Vout5VPi*%
X184092997Y-137625500D03*
%TO.P,U3,14,VEA*%
%TO.N,unconnected-(U3-VEA-Pad14)*%
X184092997Y-138125501D03*
%TO.P,U3,15,PGOOD*%
%TO.N,unconnected-(U3-PGOOD-Pad15)*%
X184092997Y-138625501D03*
%TO.P,U3,16,SYNC*%
%TO.N,Net-(U3-BIAS)*%
X184092997Y-139125502D03*
D58*
%TO.P,U3,17,SYNCOUT*%
%TO.N,unconnected-(U3-SYNCOUT-Pad17)*%
X184079999Y-139700501D03*
%TD*%
D14*
%TO.P,R15,1*%
%TO.N,Net-(U2-FB)*%
X195250000Y-105837500D03*
%TO.P,R15,2*%
%TO.N,Net-(C16-Pad1)*%
X192150000Y-105837500D03*
%TD*%
%TO.P,R11,1*%
%TO.N,Net-(U2-PG)*%
X190050000Y-108237500D03*
%TO.P,R11,2*%
%TO.N,Vout3v3*%
X186950000Y-108237500D03*
%TD*%
D59*
%TO.P,U1,1,PG*%
%TO.N,Net-(U1-PG)*%
X171440000Y-113250000D03*
%TO.P,U1,2,VIN*%
%TO.N,ConversionVIN*%
X171440000Y-112750000D03*
%TO.P,U1,3,SW*%
%TO.N,Net-(U1-SW)*%
X171440000Y-112250000D03*
%TO.P,U1,4,GND*%
%TO.N,GND*%
X171440000Y-111750000D03*
%TO.P,U1,5,BST*%
%TO.N,Net-(U1-BST)*%
X169960000Y-111750000D03*
%TO.P,U1,6,EN*%
%TO.N,Net-(U1-EN)*%
X169960000Y-112250000D03*
%TO.P,U1,7,SS*%
%TO.N,Net-(U1-SS)*%
X169960000Y-112750000D03*
%TO.P,U1,8,FB*%
%TO.N,Net-(U1-FB)*%
X169960000Y-113250000D03*
%TD*%
D35*
%TO.P,C20,1*%
%TO.N,GND*%
X201437500Y-126500000D03*
%TO.P,C20,2*%
%TO.N,Vout5VPi*%
X204562500Y-126500000D03*
%TD*%
D38*
%TO.P,Q6,1,S*%
%TO.N,BatteryVIN*%
X147776300Y-136875000D03*
%TO.P,Q6,2,S*%
X149046300Y-136875000D03*
%TO.P,Q6,3,S*%
X150316300Y-136875000D03*
%TO.P,Q6,4,G*%
%TO.N,Net-(Q6-G)*%
X151586300Y-136875000D03*
D39*
%TO.P,Q6,5,D*%
%TO.N,ChargingVin*%
X149681300Y-133515000D03*
D40*
X147776300Y-131410000D03*
X149046300Y-131410000D03*
X150316300Y-131410000D03*
X151586300Y-131410000D03*
%TD*%
D14*
%TO.P,R17,1*%
%TO.N,GND*%
X180312500Y-132400000D03*
%TO.P,R17,2*%
%TO.N,Net-(R17-Pad2)*%
X177212500Y-132400000D03*
%TD*%
D36*
%TO.P,C9,1*%
%TO.N,ConversionVIN*%
X197937500Y-112737500D03*
%TO.P,C9,2*%
%TO.N,GND*%
X201062500Y-112737500D03*
%TD*%
D45*
%TO.P,C24,1*%
%TO.N,Net-(U3-BIAS)*%
X182262500Y-134937500D03*
%TO.P,C24,2*%
%TO.N,GND*%
X182262500Y-132862500D03*
%TD*%
%TO.P,C2,1*%
%TO.N,ConversionVIN*%
X173600000Y-112337500D03*
%TO.P,C2,2*%
%TO.N,GND*%
X173600000Y-110262500D03*
%TD*%
D60*
%TO.N,GND*%
X140600000Y-141600000D03*
X137800000Y-138900000D03*
X197700000Y-95500000D03*
X188500000Y-128500000D03*
X204700000Y-115500000D03*
X180200000Y-108000000D03*
X195700000Y-99500000D03*
X191000000Y-126000000D03*
X193500000Y-151000000D03*
X188500000Y-148500000D03*
X188500000Y-146000000D03*
X201200000Y-117000000D03*
X174200000Y-108000000D03*
X191000000Y-148500000D03*
X206200000Y-116500000D03*
X199700000Y-97500000D03*
X161700000Y-115000000D03*
X180200000Y-106000000D03*
X176200000Y-106000000D03*
X197700000Y-99500000D03*
X203700000Y-117000000D03*
X188500000Y-131000000D03*
X177200000Y-104500000D03*
X196000000Y-131000000D03*
X195700000Y-97500000D03*
X193500000Y-128500000D03*
X202700000Y-113500000D03*
X178200000Y-106000000D03*
X199700000Y-108900000D03*
X137700000Y-137000000D03*
X199700000Y-95500000D03*
X197700000Y-97500000D03*
X198500000Y-128500000D03*
X163200000Y-114500000D03*
X193500000Y-131000000D03*
X191000000Y-131000000D03*
X183962500Y-134200000D03*
X137600000Y-141400000D03*
X172200000Y-110000000D03*
X193500000Y-146000000D03*
X179200000Y-104500000D03*
X196000000Y-126000000D03*
X198500000Y-148500000D03*
X198500000Y-146000000D03*
X196000000Y-128500000D03*
X206200000Y-114500000D03*
X202700000Y-115500000D03*
X196000000Y-146000000D03*
X199700000Y-99500000D03*
X191000000Y-128500000D03*
X191000000Y-151000000D03*
X198500000Y-126000000D03*
X161700000Y-113000000D03*
X183862500Y-132600000D03*
X204700000Y-111500000D03*
X198500000Y-131000000D03*
X195700000Y-95500000D03*
X178200000Y-108000000D03*
X162200000Y-111500000D03*
X174700000Y-105000000D03*
X202700000Y-111500000D03*
X163200000Y-113000000D03*
X206200000Y-112500000D03*
X196000000Y-148500000D03*
X183262500Y-131900000D03*
X193500000Y-126000000D03*
X204700000Y-113500000D03*
X140381300Y-136900000D03*
X183462500Y-133400000D03*
X176200000Y-108000000D03*
%TO.N,Vout5V*%
X179600000Y-98000000D03*
X173700000Y-121500000D03*
%TO.N,Vout3v3*%
X187700000Y-110500000D03*
X213000000Y-116600000D03*
%TO.N,Net-(U3-LX)*%
X182750338Y-146071033D03*
X183400000Y-145400000D03*
X183400000Y-146050003D03*
X185324426Y-138646815D03*
%TO.N,Vout5VPi*%
X205862500Y-151000000D03*
X183100000Y-137625500D03*
%TO.N,Net-(U3-BIAS)*%
X183812500Y-135450000D03*
X182562500Y-139000000D03*
%TO.N,Net-(U1-EN)*%
X168450000Y-111650000D03*
X172200000Y-116900000D03*
%TO.N,Net-(U2-EN)*%
X198200000Y-105200000D03*
X193200000Y-109100000D03*
%TO.N,Net-(Q3-G)*%
X139700000Y-113300000D03*
X146450000Y-113950000D03*
%TO.N,Net-(Q6-G)*%
X146081300Y-135700000D03*
X152781300Y-136000000D03*
%TD*%
D61*
%TO.N,ConversionVIN*%
X177920000Y-152320000D02*
X177300000Y-151700000D01*
X177980000Y-152320000D02*
X177920000Y-152320000D01*
X177980000Y-152400000D02*
X177980000Y-152320000D01*
X177980000Y-152320000D02*
X178600000Y-151700000D01*
X177980000Y-153850000D02*
X177980000Y-152400000D01*
X182100000Y-151700000D02*
X182100000Y-151600000D01*
X182700000Y-152300000D02*
X182100000Y-151700000D01*
X182800000Y-152300000D02*
X183400000Y-151700000D01*
X182780000Y-152300000D02*
X182800000Y-152300000D01*
X182780000Y-152300000D02*
X182700000Y-152300000D01*
X182780000Y-152300000D02*
X182780000Y-151720000D01*
X177980000Y-151680000D02*
X177900000Y-151600000D01*
X177980000Y-152400000D02*
X177980000Y-151680000D01*
X182780000Y-151720000D02*
X182800000Y-151700000D01*
X182780000Y-153850000D02*
X182780000Y-152300000D01*
%TO.N,GND*%
X184029000Y-153200000D02*
X183580000Y-153649000D01*
X185200000Y-153200000D02*
X184029000Y-153200000D01*
X186000000Y-154000000D02*
X185200000Y-153200000D01*
X186000000Y-155000000D02*
X186000000Y-154000000D01*
X176849000Y-153649000D02*
X177180000Y-153649000D01*
X176400000Y-153200000D02*
X176849000Y-153649000D01*
X174760000Y-153740000D02*
X175300000Y-153200000D01*
X174760000Y-155000000D02*
X174760000Y-153740000D01*
X175300000Y-153200000D02*
X176400000Y-153200000D01*
D62*
X171440000Y-111750000D02*
X171690000Y-111500000D01*
D63*
X163850000Y-113600000D02*
X163850000Y-111300000D01*
D62*
X198700000Y-108300000D02*
X198700000Y-108200000D01*
X171440000Y-110960000D02*
X171600000Y-110800000D01*
D63*
X163850000Y-115900000D02*
X163850000Y-113600000D01*
D62*
X185380000Y-136762500D02*
X185380000Y-135717500D01*
D63*
X164799000Y-113500000D02*
X163950000Y-113500000D01*
D62*
X171950000Y-111750000D02*
X172200000Y-111500000D01*
X198400000Y-108037500D02*
X198600000Y-108237500D01*
X171800000Y-111500000D02*
X171800000Y-111750000D01*
X198400000Y-108400000D02*
X198700000Y-108700000D01*
X171690000Y-111500000D02*
X171800000Y-111500000D01*
X185380000Y-135717500D02*
X184262500Y-134600000D01*
X198600000Y-108400000D02*
X198700000Y-108300000D01*
X198600000Y-108237500D02*
X198600000Y-108400000D01*
X171440000Y-111750000D02*
X171440000Y-110960000D01*
X171800000Y-111750000D02*
X171950000Y-111750000D01*
D63*
X163950000Y-113500000D02*
X163850000Y-113600000D01*
D62*
%TO.N,ConversionVIN*%
X171440000Y-112750000D02*
X171950000Y-112750000D01*
X185879999Y-137087500D02*
X185879999Y-133742499D01*
X185879999Y-133742499D02*
X185437500Y-133300000D01*
X197400000Y-108600000D02*
X197700000Y-108900000D01*
X197400000Y-108037500D02*
X197400000Y-108600000D01*
X172200000Y-112500000D02*
X172400000Y-112500000D01*
X171440000Y-112750000D02*
X172250000Y-112750000D01*
X197400000Y-108600000D02*
X197000000Y-109000000D01*
X171950000Y-112750000D02*
X172400000Y-113200000D01*
X172200000Y-112500000D02*
X171950000Y-112750000D01*
X185879999Y-139663502D02*
X185879999Y-142857501D01*
X185879999Y-142857501D02*
X185437500Y-143300000D01*
%TO.N,Net-(U1-BST)*%
X167862500Y-109652500D02*
X167862500Y-109100000D01*
X169960000Y-111750000D02*
X167862500Y-109652500D01*
%TO.N,Net-(U1-SW)*%
X171021870Y-112250000D02*
X170700000Y-111928130D01*
X171440000Y-112250000D02*
X171021870Y-112250000D01*
X170700000Y-111928130D02*
X170700000Y-111400000D01*
X170700000Y-111400000D02*
X170800000Y-111300000D01*
X170700000Y-111400000D02*
X170400000Y-111100000D01*
X170800000Y-111300000D02*
X170800000Y-110700000D01*
X170400000Y-111100000D02*
X170400000Y-110900000D01*
D63*
%TO.N,Vout5V*%
X165100000Y-123412500D02*
X166187500Y-123412500D01*
X166187500Y-123412500D02*
X167300000Y-122300000D01*
X171450000Y-122300000D02*
X171500000Y-122350000D01*
X172850000Y-122350000D02*
X173700000Y-121500000D01*
X167300000Y-122300000D02*
X171450000Y-122300000D01*
X171500000Y-122350000D02*
X172850000Y-122350000D01*
D62*
%TO.N,Net-(U1-SS)*%
X169960000Y-112750000D02*
X168650000Y-112750000D01*
X168650000Y-112750000D02*
X167900000Y-113500000D01*
X167900000Y-113500000D02*
X166874000Y-113500000D01*
D63*
%TO.N,Net-(C7-Pad1)*%
X169300000Y-120225000D02*
X169300000Y-118250000D01*
X166950000Y-118200000D02*
X166950000Y-119875000D01*
X166950000Y-118200000D02*
X166950000Y-115900000D01*
X167100000Y-118050000D02*
X166950000Y-118200000D01*
X169300000Y-118250000D02*
X169100000Y-118050000D01*
X166950000Y-119875000D02*
X167300000Y-120225000D01*
X169100000Y-118050000D02*
X167100000Y-118050000D01*
X169300000Y-120225000D02*
X167300000Y-120225000D01*
D62*
%TO.N,Net-(U2-SW)*%
X197900000Y-107619370D02*
X198219370Y-107300000D01*
X198800000Y-107300000D02*
X199000000Y-107100000D01*
X197900000Y-108037500D02*
X197900000Y-107619370D01*
X198219370Y-107300000D02*
X198800000Y-107300000D01*
X198800000Y-107300000D02*
X199000000Y-107500000D01*
X199000000Y-107100000D02*
X199200000Y-107100000D01*
%TO.N,Net-(U2-BST)*%
X198400000Y-106557500D02*
X198642500Y-106557500D01*
X200200000Y-105000000D02*
X201400000Y-105000000D01*
X198642500Y-106557500D02*
X200200000Y-105000000D01*
D63*
%TO.N,Vout3v3*%
X186950000Y-109750000D02*
X187700000Y-110500000D01*
X186950000Y-105837500D02*
X185562500Y-104450000D01*
X186950000Y-109750000D02*
X186950000Y-108237500D01*
X185562500Y-104450000D02*
X185562500Y-103400000D01*
X186950000Y-105837500D02*
X186950000Y-108237500D01*
D62*
%TO.N,Net-(U2-SS)*%
X196900000Y-103737500D02*
X197400000Y-104237500D01*
X197400000Y-104237500D02*
X197400000Y-106557500D01*
D63*
%TO.N,Net-(C16-Pad1)*%
X189450000Y-103437500D02*
X189450000Y-104587500D01*
X190050000Y-105837500D02*
X190700000Y-105837500D01*
X190700000Y-105837500D02*
X192150000Y-105837500D01*
X189412500Y-103400000D02*
X189450000Y-103437500D01*
X187637500Y-103400000D02*
X189412500Y-103400000D01*
X189450000Y-104587500D02*
X190700000Y-105837500D01*
D62*
%TO.N,Net-(U3-BST)*%
X185380000Y-140982500D02*
X185380000Y-139988502D01*
X183400000Y-142262500D02*
X184100000Y-142262500D01*
X184100000Y-142262500D02*
X185380000Y-140982500D01*
%TO.N,Net-(U3-LX)*%
X185326877Y-138648262D02*
X185336222Y-138648262D01*
D64*
X183400000Y-145421371D02*
X183400000Y-144337500D01*
X182750338Y-146071033D02*
X183400000Y-145421371D01*
D62*
X185336222Y-138648262D02*
X185608983Y-138375501D01*
X185324426Y-138646815D02*
X185325430Y-138646815D01*
X185325430Y-138646815D02*
X185326877Y-138648262D01*
X185608983Y-138375501D02*
X187414999Y-138375501D01*
%TO.N,Vout5VPi*%
X182300000Y-137567500D02*
X180845000Y-137567500D01*
X183100000Y-137625500D02*
X182358000Y-137625500D01*
X180845000Y-137567500D02*
X180712500Y-137700000D01*
X180712500Y-140037500D02*
X180712500Y-137700000D01*
X182358000Y-137625500D02*
X182300000Y-137567500D01*
X184092997Y-137625500D02*
X183100000Y-137625500D01*
%TO.N,Net-(U3-BIAS)*%
X184879998Y-136762500D02*
X184879998Y-136074998D01*
X184879998Y-136074998D02*
X184305000Y-135500000D01*
X183300000Y-134937500D02*
X182262500Y-134937500D01*
X184305000Y-135500000D02*
X183862500Y-135500000D01*
X183862500Y-135500000D02*
X183812500Y-135450000D01*
X182688002Y-139125502D02*
X182562500Y-139000000D01*
X184092997Y-139125502D02*
X182688002Y-139125502D01*
X183812500Y-135450000D02*
X183300000Y-134937500D01*
%TO.N,Net-(U3-FB)*%
X177612500Y-137500000D02*
X180312500Y-134800000D01*
X182862500Y-136800000D02*
X183829496Y-136800000D01*
X181945000Y-136432500D02*
X182300000Y-136432500D01*
X183829496Y-136800000D02*
X184079997Y-137050501D01*
X180312500Y-134800000D02*
X181945000Y-136432500D01*
X182300000Y-136432500D02*
X182495000Y-136432500D01*
X177612500Y-137700000D02*
X177612500Y-137500000D01*
X177612500Y-140037500D02*
X177612500Y-137700000D01*
X182495000Y-136432500D02*
X182862500Y-136800000D01*
D61*
%TO.N,Net-(U1-EN)*%
X168700000Y-111900000D02*
X168450000Y-111650000D01*
X172650000Y-117350000D02*
X172200000Y-116900000D01*
X168450000Y-111650000D02*
X168100000Y-111300000D01*
D62*
X168700000Y-111900000D02*
X169050000Y-112250000D01*
X169050000Y-112250000D02*
X169960000Y-112250000D01*
D61*
X168100000Y-111300000D02*
X166950000Y-111300000D01*
X173800000Y-117350000D02*
X172650000Y-117350000D01*
D62*
%TO.N,Net-(U1-PG)*%
X171440000Y-119790000D02*
X171500000Y-119850000D01*
X171440000Y-113250000D02*
X171440000Y-119790000D01*
D63*
%TO.N,Net-(R6-Pad2)*%
X163850000Y-119062500D02*
X165100000Y-120312500D01*
X163850000Y-118200000D02*
X163850000Y-119062500D01*
D62*
%TO.N,Net-(U1-FB)*%
X169960000Y-113940000D02*
X169100000Y-114800000D01*
X169100000Y-114800000D02*
X169100000Y-114950000D01*
X169960000Y-113250000D02*
X169960000Y-113940000D01*
D61*
%TO.N,Net-(U2-EN)*%
X192950000Y-110737500D02*
X192950000Y-109350000D01*
X198200000Y-105200000D02*
X199200000Y-104200000D01*
D62*
X199200000Y-104200000D02*
X199200000Y-103687500D01*
X197900000Y-105500000D02*
X198200000Y-105200000D01*
D61*
X192950000Y-109350000D02*
X193200000Y-109100000D01*
D62*
X197900000Y-106557500D02*
X197900000Y-105500000D01*
%TO.N,Net-(U2-PG)*%
X196700000Y-108237500D02*
X196900000Y-108037500D01*
X190050000Y-108237500D02*
X196700000Y-108237500D01*
D63*
%TO.N,Net-(R12-Pad1)*%
X192800000Y-103687500D02*
X192550000Y-103437500D01*
X194700000Y-103687500D02*
X192800000Y-103687500D01*
D62*
%TO.N,Net-(U2-FB)*%
X196900000Y-106557500D02*
X195970000Y-106557500D01*
X195970000Y-106557500D02*
X195250000Y-105837500D01*
%TO.N,Net-(U3-EN)*%
X180762500Y-142300000D02*
X180762500Y-144350000D01*
X181862500Y-141200000D02*
X180762500Y-142300000D01*
X184879998Y-139988502D02*
X184879998Y-140676004D01*
X184356002Y-141200000D02*
X181862500Y-141200000D01*
X184879998Y-140676004D02*
X184356002Y-141200000D01*
%TO.N,Net-(R17-Pad2)*%
X177212500Y-134800000D02*
X177212500Y-132400000D01*
D61*
%TO.N,Net-(Q3-G)*%
X139700000Y-112900000D02*
X139700000Y-113300000D01*
X140065000Y-112535000D02*
X139800000Y-112800000D01*
X141095000Y-112535000D02*
X140065000Y-112535000D01*
X139800000Y-112800000D02*
X139700000Y-112900000D01*
X148000000Y-113950000D02*
X146450000Y-113950000D01*
%TO.N,Net-(Q6-G)*%
X151586300Y-136875000D02*
X152406300Y-136875000D01*
X144491300Y-135700000D02*
X146081300Y-135700000D01*
X152781300Y-136500000D02*
X152781300Y-136000000D01*
X152406300Y-136875000D02*
X152781300Y-136500000D01*
D63*
%TO.N,Net-(J14-Pin_2)*%
X163521300Y-132400000D02*
X166581300Y-135460000D01*
X162950000Y-132400000D02*
X163521300Y-132400000D01*
X163000000Y-130700000D02*
X163000000Y-132350000D01*
X163000000Y-132350000D02*
X162950000Y-132400000D01*
%TD*%
%TA.AperFunction,Conductor*%
%TO.N,PowerVOUT*%
G36*
X160015677Y-119019685D02*
G01*
X160036319Y-119036319D01*
X160963681Y-119963681D01*
X160997166Y-120025004D01*
X161000000Y-120051362D01*
X161000000Y-125000000D01*
X161999997Y-125999998D01*
X161999998Y-125999998D01*
X162000000Y-126000000D01*
X163512986Y-126472808D01*
X163571103Y-126511593D01*
X163599025Y-126575641D01*
X163600000Y-126591164D01*
X163600000Y-129176000D01*
X163580315Y-129243039D01*
X163527511Y-129288794D01*
X163476000Y-129300000D01*
X162300000Y-129300000D01*
X160300001Y-131499998D01*
X160300000Y-131500001D01*
X160300000Y-133558666D01*
X160280315Y-133625705D01*
X160275200Y-133633066D01*
X160037200Y-133950400D01*
X159981229Y-133992221D01*
X159938000Y-134000000D01*
X155051362Y-134000000D01*
X154984323Y-133980315D01*
X154963681Y-133963681D01*
X154036319Y-133036319D01*
X154002834Y-132974996D01*
X154000000Y-132948638D01*
X154000000Y-120051362D01*
X154019685Y-119984323D01*
X154036319Y-119963681D01*
X154963681Y-119036319D01*
X155025004Y-119002834D01*
X155051362Y-119000000D01*
X159948638Y-119000000D01*
X160015677Y-119019685D01*
G37*
%TD.AperFunction*%
%TD*%
%TA.AperFunction,Conductor*%
%TO.N,Vout5V*%
G36*
X180343039Y-91619685D02*
G01*
X180388794Y-91672489D01*
X180400000Y-91724000D01*
X180400000Y-100576000D01*
X180380315Y-100643039D01*
X180327511Y-100688794D01*
X180276000Y-100700000D01*
X174499998Y-100700000D01*
X172031560Y-102378539D01*
X171965055Y-102399958D01*
X171961834Y-102400000D01*
X167828500Y-102400000D01*
X167761461Y-102380315D01*
X167715706Y-102327511D01*
X167704500Y-102276000D01*
X167704500Y-98544831D01*
X167724185Y-98477792D01*
X167733164Y-98465541D01*
X169503340Y-96337500D01*
X170122418Y-95593267D01*
X173222500Y-95593267D01*
X173222500Y-95726732D01*
X173248533Y-95857610D01*
X173248536Y-95857620D01*
X173299607Y-95980917D01*
X173299608Y-95980920D01*
X173373750Y-96091880D01*
X173373753Y-96091884D01*
X173468115Y-96186246D01*
X173468119Y-96186249D01*
X173579079Y-96260391D01*
X173579081Y-96260391D01*
X173579083Y-96260393D01*
X173702381Y-96311464D01*
X173702384Y-96311464D01*
X173702389Y-96311466D01*
X173833267Y-96337499D01*
X173833270Y-96337500D01*
X173833272Y-96337500D01*
X173966730Y-96337500D01*
X173966731Y-96337499D01*
X174031312Y-96324653D01*
X174097610Y-96311466D01*
X174097612Y-96311465D01*
X174097619Y-96311464D01*
X174220917Y-96260393D01*
X174331881Y-96186249D01*
X174426249Y-96091881D01*
X174500393Y-95980917D01*
X174551464Y-95857619D01*
X174577500Y-95726728D01*
X174577500Y-95593272D01*
X174577500Y-95593269D01*
X174577499Y-95593267D01*
X174551466Y-95462389D01*
X174551463Y-95462379D01*
X174500393Y-95339083D01*
X174500391Y-95339081D01*
X174500391Y-95339079D01*
X174426249Y-95228119D01*
X174426246Y-95228115D01*
X174331884Y-95133753D01*
X174331880Y-95133750D01*
X174220920Y-95059608D01*
X174220917Y-95059607D01*
X174097620Y-95008536D01*
X174097610Y-95008533D01*
X173966731Y-94982500D01*
X173966728Y-94982500D01*
X173833272Y-94982500D01*
X173833269Y-94982500D01*
X173702389Y-95008533D01*
X173702379Y-95008536D01*
X173579082Y-95059607D01*
X173579079Y-95059608D01*
X173468119Y-95133750D01*
X173468115Y-95133753D01*
X173373753Y-95228115D01*
X173373750Y-95228119D01*
X173299608Y-95339079D01*
X173299607Y-95339082D01*
X173248536Y-95462379D01*
X173248533Y-95462389D01*
X173222500Y-95593267D01*
X170122418Y-95593267D01*
X170193444Y-95507882D01*
X170200000Y-95500000D01*
X170200000Y-91724000D01*
X170219685Y-91656961D01*
X170272489Y-91611206D01*
X170324000Y-91600000D01*
X180276000Y-91600000D01*
X180343039Y-91619685D01*
G37*
%TD.AperFunction*%
%TD*%
%TA.AperFunction,Conductor*%
%TO.N,GND*%
G36*
X183473271Y-131519685D02*
G01*
X183499552Y-131542345D01*
X184137489Y-132271416D01*
X184166820Y-132334831D01*
X184167211Y-132337691D01*
X184273542Y-133188339D01*
X184274500Y-133203719D01*
X184274500Y-134000001D01*
X184274501Y-134000019D01*
X184285000Y-134102796D01*
X184285002Y-134102801D01*
X184288205Y-134112467D01*
X184294500Y-134151473D01*
X184294500Y-134201548D01*
X184297397Y-134255596D01*
X184297397Y-134255597D01*
X184300229Y-134281930D01*
X184300232Y-134281957D01*
X184308885Y-134335353D01*
X184308885Y-134335355D01*
X184339137Y-134416462D01*
X184359168Y-134470165D01*
X184392653Y-134531488D01*
X184403395Y-134545838D01*
X184431516Y-134583402D01*
X184437425Y-134598049D01*
X184445974Y-134608291D01*
X184455291Y-134642333D01*
X184459067Y-134672541D01*
X184447850Y-134741504D01*
X184401129Y-134793455D01*
X184333738Y-134811900D01*
X184267134Y-134791023D01*
X184191685Y-134740609D01*
X184191672Y-134740602D01*
X184046001Y-134680264D01*
X184045989Y-134680261D01*
X183937546Y-134658690D01*
X183922483Y-134651071D01*
X183907286Y-134648478D01*
X183878108Y-134628627D01*
X183852513Y-134605246D01*
X183848487Y-134601397D01*
X183792928Y-134545838D01*
X183792925Y-134545834D01*
X183792925Y-134545835D01*
X183785858Y-134538768D01*
X183785858Y-134538767D01*
X183698733Y-134451642D01*
X183698732Y-134451641D01*
X183698730Y-134451639D01*
X183653032Y-134421104D01*
X183638292Y-134409555D01*
X183557063Y-134335353D01*
X183302490Y-134102801D01*
X183296988Y-134097775D01*
X183296986Y-134097773D01*
X183293001Y-134094133D01*
X183206156Y-134007288D01*
X183141714Y-133967540D01*
X183134799Y-133961740D01*
X183120238Y-133939864D01*
X183102663Y-133920324D01*
X183101931Y-133918768D01*
X182862500Y-133400000D01*
X181776111Y-133400000D01*
X181749212Y-133397047D01*
X180862500Y-133200000D01*
X179928222Y-133200000D01*
X179861183Y-133180315D01*
X179815428Y-133127511D01*
X179805484Y-133058353D01*
X179809261Y-133041011D01*
X180236320Y-131589011D01*
X180274121Y-131530250D01*
X180337689Y-131501254D01*
X180355281Y-131500000D01*
X183406232Y-131500000D01*
X183473271Y-131519685D01*
G37*
%TD.AperFunction*%
%TD*%
%TA.AperFunction,Conductor*%
%TO.N,GND*%
G36*
X198721954Y-108061866D02*
G01*
X198730318Y-108065331D01*
X198741163Y-108071273D01*
X198746829Y-108073664D01*
X198750424Y-108075829D01*
X198850407Y-108145668D01*
X198912797Y-108177119D01*
X198912800Y-108177120D01*
X199049188Y-108222942D01*
X199049191Y-108222943D01*
X199329047Y-108274249D01*
X199932903Y-108384956D01*
X199957919Y-108392333D01*
X200436306Y-108590200D01*
X200477862Y-108618391D01*
X201810000Y-109990000D01*
X208064403Y-111496966D01*
X208124964Y-111531805D01*
X208157077Y-111593858D01*
X208159352Y-111618332D01*
X208120815Y-117466317D01*
X208100689Y-117533225D01*
X208047585Y-117578631D01*
X207996316Y-117589499D01*
X200765311Y-117560223D01*
X200698352Y-117540267D01*
X200673214Y-117518695D01*
X200593160Y-117428809D01*
X200500857Y-117325169D01*
X200470971Y-117262016D01*
X200469457Y-117242917D01*
X200460000Y-111540000D01*
X199528546Y-111074273D01*
X199477387Y-111026686D01*
X199460000Y-110963364D01*
X199460000Y-109639999D01*
X198540559Y-108643295D01*
X198509572Y-108580673D01*
X198516347Y-108513729D01*
X198539877Y-108454064D01*
X198550500Y-108365602D01*
X198550500Y-108176426D01*
X198570185Y-108109387D01*
X198622989Y-108063632D01*
X198692147Y-108053688D01*
X198721954Y-108061866D01*
G37*
%TD.AperFunction*%
%TD*%
%TA.AperFunction,Conductor*%
%TO.N,GND*%
G36*
X167596977Y-137019685D02*
G01*
X167617619Y-137036319D01*
X168544981Y-137963681D01*
X168578466Y-138025004D01*
X168581300Y-138051362D01*
X168581300Y-147000000D01*
X172833024Y-152773269D01*
X172975846Y-152967202D01*
X172999750Y-153032855D01*
X173000000Y-153040733D01*
X173000000Y-159948638D01*
X172980315Y-160015677D01*
X172963681Y-160036319D01*
X172536819Y-160463181D01*
X172475496Y-160496666D01*
X172449138Y-160499500D01*
X160132162Y-160499500D01*
X160065123Y-160479815D01*
X160044481Y-160463181D01*
X159617619Y-160036319D01*
X159584134Y-159974996D01*
X159581300Y-159948638D01*
X159581300Y-153071959D01*
X159600985Y-153004920D01*
X159643777Y-152964298D01*
X159978081Y-152773267D01*
X167522500Y-152773267D01*
X167522500Y-152906732D01*
X167548533Y-153037610D01*
X167548536Y-153037620D01*
X167599607Y-153160917D01*
X167599608Y-153160920D01*
X167673750Y-153271880D01*
X167673753Y-153271884D01*
X167768115Y-153366246D01*
X167768119Y-153366249D01*
X167879079Y-153440391D01*
X167879081Y-153440391D01*
X167879083Y-153440393D01*
X168002381Y-153491464D01*
X168002384Y-153491464D01*
X168002389Y-153491466D01*
X168133267Y-153517499D01*
X168133270Y-153517500D01*
X168133272Y-153517500D01*
X168266730Y-153517500D01*
X168266731Y-153517499D01*
X168331312Y-153504653D01*
X168397610Y-153491466D01*
X168397612Y-153491465D01*
X168397619Y-153491464D01*
X168520917Y-153440393D01*
X168631881Y-153366249D01*
X168726249Y-153271881D01*
X168800393Y-153160917D01*
X168851464Y-153037619D01*
X168877500Y-152906728D01*
X168877500Y-152773272D01*
X168877500Y-152773269D01*
X168877499Y-152773267D01*
X168851466Y-152642389D01*
X168851463Y-152642379D01*
X168800393Y-152519083D01*
X168800391Y-152519081D01*
X168800391Y-152519079D01*
X168726249Y-152408119D01*
X168726246Y-152408115D01*
X168631884Y-152313753D01*
X168631880Y-152313750D01*
X168520920Y-152239608D01*
X168520917Y-152239607D01*
X168397620Y-152188536D01*
X168397610Y-152188533D01*
X168266731Y-152162500D01*
X168266728Y-152162500D01*
X168133272Y-152162500D01*
X168133269Y-152162500D01*
X168002389Y-152188533D01*
X168002379Y-152188536D01*
X167879082Y-152239607D01*
X167879079Y-152239608D01*
X167768119Y-152313750D01*
X167768115Y-152313753D01*
X167673753Y-152408115D01*
X167673750Y-152408119D01*
X167599608Y-152519079D01*
X167599607Y-152519082D01*
X167548536Y-152642379D01*
X167548533Y-152642389D01*
X167522500Y-152773267D01*
X159978081Y-152773267D01*
X163081300Y-151000000D01*
X163081300Y-144000000D01*
X163081300Y-143999999D01*
X161636517Y-143036811D01*
X161591656Y-142983246D01*
X161581300Y-142933637D01*
X161581300Y-138051362D01*
X161600985Y-137984323D01*
X161617619Y-137963681D01*
X162544981Y-137036319D01*
X162606304Y-137002834D01*
X162632662Y-137000000D01*
X167529938Y-137000000D01*
X167596977Y-137019685D01*
G37*
%TD.AperFunction*%
%TD*%
%TA.AperFunction,Conductor*%
%TO.N,GND*%
G36*
X187970297Y-139519685D02*
G01*
X187999723Y-139546086D01*
X190034965Y-142065909D01*
X190061775Y-142130430D01*
X190062500Y-142143823D01*
X190062500Y-142500000D01*
X190062500Y-144500000D01*
X190762500Y-145300000D01*
X201938500Y-145300000D01*
X202005539Y-145319685D01*
X202051294Y-145372489D01*
X202062500Y-145424000D01*
X202062500Y-151233637D01*
X202042815Y-151300676D01*
X202007283Y-151336811D01*
X201793739Y-151479174D01*
X201727040Y-151499982D01*
X201724956Y-151500000D01*
X189210734Y-151500000D01*
X189143695Y-151480315D01*
X189126944Y-151467407D01*
X188002710Y-150436859D01*
X187966593Y-150377048D01*
X187962500Y-150345452D01*
X187962500Y-142700000D01*
X186527047Y-140594668D01*
X186521052Y-140576135D01*
X186510522Y-140559749D01*
X186506335Y-140530633D01*
X186505545Y-140528189D01*
X186505499Y-140524814D01*
X186505499Y-140477350D01*
X186505504Y-140477129D01*
X186505504Y-140473880D01*
X186505505Y-140473871D01*
X186505504Y-139623998D01*
X186525188Y-139556961D01*
X186577992Y-139511206D01*
X186629504Y-139500000D01*
X187903258Y-139500000D01*
X187970297Y-139519685D01*
G37*
%TD.AperFunction*%
%TD*%
%TA.AperFunction,Conductor*%
%TO.N,WALLVIN*%
G36*
X162015677Y-97019685D02*
G01*
X162036319Y-97036319D01*
X162963681Y-97963681D01*
X162997166Y-98025004D01*
X163000000Y-98051362D01*
X163000000Y-106948638D01*
X162980315Y-107015677D01*
X162963681Y-107036319D01*
X159036319Y-110963681D01*
X158974996Y-110997166D01*
X158948638Y-111000000D01*
X150000000Y-111000000D01*
X148800000Y-111999999D01*
X148713265Y-113040798D01*
X148688081Y-113105971D01*
X148631659Y-113147183D01*
X148589693Y-113154500D01*
X147311112Y-113154500D01*
X147296003Y-113156490D01*
X147276119Y-113157496D01*
X142120300Y-113003591D01*
X142053878Y-112981915D01*
X142009719Y-112927769D01*
X142000000Y-112879646D01*
X142000000Y-111000000D01*
X137051362Y-111000000D01*
X136984323Y-110980315D01*
X136963681Y-110963681D01*
X136536819Y-110536819D01*
X136503334Y-110475496D01*
X136500500Y-110449138D01*
X136500500Y-98187135D01*
X139724500Y-98187135D01*
X139724500Y-100012870D01*
X139724501Y-100012876D01*
X139730908Y-100072483D01*
X139781202Y-100207328D01*
X139781206Y-100207335D01*
X139867452Y-100322544D01*
X139867455Y-100322547D01*
X139982664Y-100408793D01*
X139982673Y-100408798D01*
X140050723Y-100434178D01*
X140098632Y-100452047D01*
X140154566Y-100493917D01*
X140178984Y-100559381D01*
X140164133Y-100627654D01*
X140142982Y-100655910D01*
X140048454Y-100750438D01*
X139922120Y-100924321D01*
X139824541Y-101115829D01*
X139824540Y-101115832D01*
X139758124Y-101320240D01*
X139758124Y-101320243D01*
X139724500Y-101532534D01*
X139724500Y-101747465D01*
X139758124Y-101959756D01*
X139758124Y-101959759D01*
X139824540Y-102164167D01*
X139824541Y-102164170D01*
X139922120Y-102355678D01*
X140048455Y-102529563D01*
X140200437Y-102681545D01*
X140346181Y-102787434D01*
X140376802Y-102809682D01*
X140419467Y-102865012D01*
X140425446Y-102934626D01*
X140392840Y-102996421D01*
X140376802Y-103010318D01*
X140374322Y-103012120D01*
X140200437Y-103138455D01*
X140200435Y-103138457D01*
X140200434Y-103138457D01*
X140048457Y-103290434D01*
X140048457Y-103290435D01*
X140048455Y-103290437D01*
X139994198Y-103365114D01*
X139922120Y-103464321D01*
X139824541Y-103655829D01*
X139824540Y-103655832D01*
X139758124Y-103860240D01*
X139758124Y-103860243D01*
X139724500Y-104072534D01*
X139724500Y-104287465D01*
X139758124Y-104499756D01*
X139758124Y-104499759D01*
X139824540Y-104704167D01*
X139824541Y-104704170D01*
X139863379Y-104780393D01*
X139922120Y-104895678D01*
X140048455Y-105069563D01*
X140200437Y-105221545D01*
X140346181Y-105327434D01*
X140376802Y-105349682D01*
X140419467Y-105405012D01*
X140425446Y-105474626D01*
X140392840Y-105536421D01*
X140376802Y-105550318D01*
X140374322Y-105552120D01*
X140200437Y-105678455D01*
X140200435Y-105678457D01*
X140200434Y-105678457D01*
X140048457Y-105830434D01*
X140048457Y-105830435D01*
X140048455Y-105830437D01*
X139994198Y-105905114D01*
X139922120Y-106004321D01*
X139824541Y-106195829D01*
X139824540Y-106195832D01*
X139758124Y-106400240D01*
X139758124Y-106400243D01*
X139724500Y-106612534D01*
X139724500Y-106827465D01*
X139758124Y-107039756D01*
X139758124Y-107039759D01*
X139824540Y-107244167D01*
X139824541Y-107244170D01*
X139922120Y-107435678D01*
X140048455Y-107609563D01*
X140200437Y-107761545D01*
X140374322Y-107887880D01*
X140468251Y-107935739D01*
X140565829Y-107985458D01*
X140565832Y-107985459D01*
X140756494Y-108047408D01*
X140770245Y-108051876D01*
X140982533Y-108085500D01*
X140982534Y-108085500D01*
X141497466Y-108085500D01*
X141497467Y-108085500D01*
X141709755Y-108051876D01*
X141709758Y-108051875D01*
X141709759Y-108051875D01*
X141914167Y-107985459D01*
X141914170Y-107985458D01*
X142105678Y-107887880D01*
X142279563Y-107761545D01*
X142431545Y-107609563D01*
X142557880Y-107435678D01*
X142655458Y-107244170D01*
X142721876Y-107039755D01*
X142755500Y-106827467D01*
X142755500Y-106612533D01*
X142721876Y-106400245D01*
X142721875Y-106400241D01*
X142721875Y-106400240D01*
X142655459Y-106195832D01*
X142655458Y-106195829D01*
X142557879Y-106004321D01*
X142431545Y-105830437D01*
X142279563Y-105678455D01*
X142105678Y-105552120D01*
X142103198Y-105550318D01*
X142060532Y-105494988D01*
X142054553Y-105425375D01*
X142087159Y-105363580D01*
X142103198Y-105349682D01*
X142131381Y-105329205D01*
X142279563Y-105221545D01*
X142431545Y-105069563D01*
X142557880Y-104895678D01*
X142655458Y-104704170D01*
X142669094Y-104662200D01*
X142708529Y-104604526D01*
X142772887Y-104577327D01*
X142841734Y-104589239D01*
X142874706Y-104612837D01*
X142968115Y-104706246D01*
X142968119Y-104706249D01*
X143079079Y-104780391D01*
X143079081Y-104780391D01*
X143079083Y-104780393D01*
X143202381Y-104831464D01*
X143202384Y-104831464D01*
X143202389Y-104831466D01*
X143333267Y-104857499D01*
X143333270Y-104857500D01*
X143333272Y-104857500D01*
X143466730Y-104857500D01*
X143466731Y-104857499D01*
X143531312Y-104844653D01*
X143597610Y-104831466D01*
X143597612Y-104831465D01*
X143597619Y-104831464D01*
X143720917Y-104780393D01*
X143831881Y-104706249D01*
X143926249Y-104611881D01*
X144000393Y-104500917D01*
X144051464Y-104377619D01*
X144077500Y-104246728D01*
X144077500Y-104113272D01*
X144077500Y-104113269D01*
X144077499Y-104113267D01*
X144051466Y-103982389D01*
X144051463Y-103982379D01*
X144000872Y-103860240D01*
X144000393Y-103859083D01*
X144000391Y-103859081D01*
X144000391Y-103859079D01*
X143926249Y-103748119D01*
X143926246Y-103748115D01*
X143831884Y-103653753D01*
X143831880Y-103653750D01*
X143720920Y-103579608D01*
X143720917Y-103579607D01*
X143597620Y-103528536D01*
X143597610Y-103528533D01*
X143466731Y-103502500D01*
X143466728Y-103502500D01*
X143333272Y-103502500D01*
X143333269Y-103502500D01*
X143202389Y-103528533D01*
X143202379Y-103528536D01*
X143079082Y-103579607D01*
X143079079Y-103579608D01*
X142968119Y-103653750D01*
X142874706Y-103747163D01*
X142813382Y-103780647D01*
X142743691Y-103775663D01*
X142687758Y-103733791D01*
X142669095Y-103697801D01*
X142655458Y-103655830D01*
X142557880Y-103464322D01*
X142431545Y-103290437D01*
X142279563Y-103138455D01*
X142105678Y-103012120D01*
X142103198Y-103010318D01*
X142060532Y-102954988D01*
X142054553Y-102885375D01*
X142087159Y-102823580D01*
X142103198Y-102809682D01*
X142131381Y-102789205D01*
X142279563Y-102681545D01*
X142431545Y-102529563D01*
X142557880Y-102355678D01*
X142655458Y-102164170D01*
X142721876Y-101959755D01*
X142755500Y-101747467D01*
X142755500Y-101532533D01*
X142721876Y-101320245D01*
X142721875Y-101320241D01*
X142721875Y-101320240D01*
X142655459Y-101115832D01*
X142655458Y-101115829D01*
X142557879Y-100924321D01*
X142431545Y-100750437D01*
X142337018Y-100655910D01*
X142303533Y-100594587D01*
X142308517Y-100524895D01*
X142350389Y-100468962D01*
X142381362Y-100452049D01*
X142497331Y-100408796D01*
X142612546Y-100322546D01*
X142698796Y-100207331D01*
X142749091Y-100072483D01*
X142755500Y-100012873D01*
X142755499Y-99055139D01*
X147285500Y-99055139D01*
X147285500Y-100544860D01*
X147313928Y-100724347D01*
X147313928Y-100724350D01*
X147370081Y-100897171D01*
X147370083Y-100897174D01*
X147452583Y-101059090D01*
X147559397Y-101206106D01*
X147687894Y-101334603D01*
X147834910Y-101441417D01*
X147996826Y-101523917D01*
X147996828Y-101523918D01*
X148158029Y-101576294D01*
X148169654Y-101580072D01*
X148349139Y-101608500D01*
X148349140Y-101608500D01*
X148530860Y-101608500D01*
X148530861Y-101608500D01*
X148710346Y-101580072D01*
X148710349Y-101580071D01*
X148710350Y-101580071D01*
X148883171Y-101523918D01*
X148883171Y-101523917D01*
X148883174Y-101523917D01*
X149045090Y-101441417D01*
X149192106Y-101334603D01*
X149320603Y-101206106D01*
X149427417Y-101059090D01*
X149509917Y-100897174D01*
X149566072Y-100724346D01*
X149594500Y-100544861D01*
X149594500Y-99055139D01*
X149566072Y-98875654D01*
X149566071Y-98875650D01*
X149566071Y-98875649D01*
X149509918Y-98702828D01*
X149509917Y-98702825D01*
X149462906Y-98610562D01*
X149462905Y-98610560D01*
X149436705Y-98559139D01*
X152631500Y-98559139D01*
X152631500Y-98740860D01*
X152659928Y-98920347D01*
X152659928Y-98920350D01*
X152716081Y-99093171D01*
X152716083Y-99093174D01*
X152798583Y-99255090D01*
X152905397Y-99402106D01*
X153033894Y-99530603D01*
X153180910Y-99637417D01*
X153342826Y-99719917D01*
X153342828Y-99719918D01*
X153504029Y-99772294D01*
X153515654Y-99776072D01*
X153695139Y-99804500D01*
X153695140Y-99804500D01*
X155184860Y-99804500D01*
X155184861Y-99804500D01*
X155364346Y-99776072D01*
X155364349Y-99776071D01*
X155364350Y-99776071D01*
X155537171Y-99719918D01*
X155537171Y-99719917D01*
X155537174Y-99719917D01*
X155699090Y-99637417D01*
X155846106Y-99530603D01*
X155974603Y-99402106D01*
X156081417Y-99255090D01*
X156163917Y-99093174D01*
X156163918Y-99093171D01*
X156176276Y-99055139D01*
X159285500Y-99055139D01*
X159285500Y-100544860D01*
X159313928Y-100724347D01*
X159313928Y-100724350D01*
X159370081Y-100897171D01*
X159370083Y-100897174D01*
X159452583Y-101059090D01*
X159559397Y-101206106D01*
X159687894Y-101334603D01*
X159834910Y-101441417D01*
X159996826Y-101523917D01*
X159996828Y-101523918D01*
X160158029Y-101576294D01*
X160169654Y-101580072D01*
X160349139Y-101608500D01*
X160349140Y-101608500D01*
X160530860Y-101608500D01*
X160530861Y-101608500D01*
X160710346Y-101580072D01*
X160710349Y-101580071D01*
X160710350Y-101580071D01*
X160883171Y-101523918D01*
X160883171Y-101523917D01*
X160883174Y-101523917D01*
X161045090Y-101441417D01*
X161192106Y-101334603D01*
X161320603Y-101206106D01*
X161427417Y-101059090D01*
X161509917Y-100897174D01*
X161566072Y-100724346D01*
X161594500Y-100544861D01*
X161594500Y-99055139D01*
X161566072Y-98875654D01*
X161566071Y-98875650D01*
X161566071Y-98875649D01*
X161509918Y-98702828D01*
X161509916Y-98702825D01*
X161427418Y-98540911D01*
X161427417Y-98540910D01*
X161320603Y-98393894D01*
X161192106Y-98265397D01*
X161045090Y-98158583D01*
X160883174Y-98076083D01*
X160883171Y-98076081D01*
X160710348Y-98019928D01*
X160590689Y-98000976D01*
X160530861Y-97991500D01*
X160349139Y-97991500D01*
X160289310Y-98000976D01*
X160169652Y-98019928D01*
X160169649Y-98019928D01*
X159996828Y-98076081D01*
X159996825Y-98076083D01*
X159834909Y-98158583D01*
X159768507Y-98206828D01*
X159687894Y-98265397D01*
X159687892Y-98265399D01*
X159687891Y-98265399D01*
X159559399Y-98393891D01*
X159559399Y-98393892D01*
X159559397Y-98393894D01*
X159513525Y-98457030D01*
X159452583Y-98540909D01*
X159370083Y-98702825D01*
X159370081Y-98702828D01*
X159313928Y-98875649D01*
X159313928Y-98875652D01*
X159285500Y-99055139D01*
X156176276Y-99055139D01*
X156190309Y-99011949D01*
X156220071Y-98920350D01*
X156220071Y-98920349D01*
X156220072Y-98920346D01*
X156248500Y-98740861D01*
X156248500Y-98559139D01*
X156220072Y-98379654D01*
X156220071Y-98379650D01*
X156220071Y-98379649D01*
X156163918Y-98206828D01*
X156163916Y-98206825D01*
X156153884Y-98187135D01*
X156081417Y-98044910D01*
X155974603Y-97897894D01*
X155846106Y-97769397D01*
X155699090Y-97662583D01*
X155537174Y-97580083D01*
X155537171Y-97580081D01*
X155364348Y-97523928D01*
X155244689Y-97504976D01*
X155184861Y-97495500D01*
X153695139Y-97495500D01*
X153635310Y-97504976D01*
X153515652Y-97523928D01*
X153515649Y-97523928D01*
X153342828Y-97580081D01*
X153342825Y-97580083D01*
X153180909Y-97662583D01*
X153097030Y-97723525D01*
X153033894Y-97769397D01*
X153033892Y-97769399D01*
X153033891Y-97769399D01*
X152905399Y-97897891D01*
X152905399Y-97897892D01*
X152905397Y-97897894D01*
X152859525Y-97961030D01*
X152798583Y-98044909D01*
X152716083Y-98206825D01*
X152716081Y-98206828D01*
X152659928Y-98379649D01*
X152659928Y-98379652D01*
X152631500Y-98559139D01*
X149436705Y-98559139D01*
X149427418Y-98540911D01*
X149411371Y-98518825D01*
X149320603Y-98393894D01*
X149192106Y-98265397D01*
X149045090Y-98158583D01*
X148883174Y-98076083D01*
X148883171Y-98076081D01*
X148710348Y-98019928D01*
X148590689Y-98000976D01*
X148530861Y-97991500D01*
X148349139Y-97991500D01*
X148289310Y-98000976D01*
X148169652Y-98019928D01*
X148169649Y-98019928D01*
X147996828Y-98076081D01*
X147996825Y-98076083D01*
X147834909Y-98158583D01*
X147768507Y-98206828D01*
X147687894Y-98265397D01*
X147687892Y-98265399D01*
X147687891Y-98265399D01*
X147559399Y-98393891D01*
X147559399Y-98393892D01*
X147559397Y-98393894D01*
X147513525Y-98457030D01*
X147452583Y-98540909D01*
X147370083Y-98702825D01*
X147370081Y-98702828D01*
X147313928Y-98875649D01*
X147313928Y-98875652D01*
X147285500Y-99055139D01*
X142755499Y-99055139D01*
X142755499Y-98187128D01*
X142749091Y-98127517D01*
X142729907Y-98076083D01*
X142698797Y-97992671D01*
X142698793Y-97992664D01*
X142612547Y-97877455D01*
X142612544Y-97877452D01*
X142497335Y-97791206D01*
X142497328Y-97791202D01*
X142362482Y-97740908D01*
X142362483Y-97740908D01*
X142302883Y-97734501D01*
X142302881Y-97734500D01*
X142302873Y-97734500D01*
X142302864Y-97734500D01*
X140177129Y-97734500D01*
X140177123Y-97734501D01*
X140117516Y-97740908D01*
X139982671Y-97791202D01*
X139982664Y-97791206D01*
X139867455Y-97877452D01*
X139867452Y-97877455D01*
X139781206Y-97992664D01*
X139781202Y-97992671D01*
X139730908Y-98127517D01*
X139724501Y-98187116D01*
X139724501Y-98187123D01*
X139724500Y-98187135D01*
X136500500Y-98187135D01*
X136500500Y-97550862D01*
X136520185Y-97483823D01*
X136536819Y-97463181D01*
X136963681Y-97036319D01*
X137025004Y-97002834D01*
X137051362Y-97000000D01*
X161948638Y-97000000D01*
X162015677Y-97019685D01*
G37*
%TD.AperFunction*%
%TD*%
%TA.AperFunction,Conductor*%
%TO.N,GND*%
G36*
X200119456Y-94919685D02*
G01*
X200135360Y-94931824D01*
X201058954Y-95763059D01*
X201095613Y-95822534D01*
X201100000Y-95855224D01*
X201100000Y-98671780D01*
X201087789Y-98725439D01*
X199933764Y-101129659D01*
X199887008Y-101181578D01*
X199821975Y-101200000D01*
X198400000Y-101200000D01*
X197536943Y-102158952D01*
X197477465Y-102195613D01*
X197444775Y-102200000D01*
X196355225Y-102200000D01*
X196288186Y-102180315D01*
X196263057Y-102158952D01*
X195400000Y-101200000D01*
X194051362Y-101200000D01*
X194021921Y-101191355D01*
X193991935Y-101184832D01*
X193986919Y-101181077D01*
X193984323Y-101180315D01*
X193963681Y-101163681D01*
X193936319Y-101136319D01*
X193902834Y-101074996D01*
X193900000Y-101048638D01*
X193900000Y-95943497D01*
X193919685Y-95876458D01*
X193927172Y-95866035D01*
X194662770Y-94946538D01*
X194720021Y-94906486D01*
X194759598Y-94900000D01*
X200052417Y-94900000D01*
X200119456Y-94919685D01*
G37*
%TD.AperFunction*%
%TD*%
%TA.AperFunction,Conductor*%
%TO.N,GND*%
G36*
X142519065Y-135565184D02*
G01*
X142564820Y-135617988D01*
X142575967Y-135673313D01*
X142382811Y-141950881D01*
X142361074Y-142017283D01*
X142346551Y-142034748D01*
X141417619Y-142963681D01*
X141356296Y-142997166D01*
X141329938Y-143000000D01*
X137051362Y-143000000D01*
X136984323Y-142980315D01*
X136963681Y-142963681D01*
X136536819Y-142536819D01*
X136503334Y-142475496D01*
X136500500Y-142449138D01*
X136500500Y-136550862D01*
X136520185Y-136483823D01*
X136536819Y-136463181D01*
X136968192Y-136031807D01*
X137029513Y-135998324D01*
X137044791Y-135995987D01*
X142067893Y-135545993D01*
X142078932Y-135545499D01*
X142452027Y-135545499D01*
X142519065Y-135565184D01*
G37*
%TD.AperFunction*%
%TD*%
%TA.AperFunction,Conductor*%
%TO.N,Vout5VPi*%
G36*
X206586042Y-125219685D02*
G01*
X206596465Y-125227172D01*
X207133373Y-125656698D01*
X207173425Y-125713948D01*
X207177528Y-125777717D01*
X207162500Y-125853267D01*
X207162500Y-125986732D01*
X207188533Y-126117610D01*
X207188536Y-126117620D01*
X207239607Y-126240917D01*
X207239608Y-126240920D01*
X207313750Y-126351880D01*
X207313753Y-126351884D01*
X207408116Y-126446247D01*
X207408119Y-126446249D01*
X207507391Y-126512581D01*
X207552196Y-126566191D01*
X207562500Y-126615682D01*
X207562500Y-134000000D01*
X208512030Y-135000000D01*
X211521271Y-135000000D01*
X211588310Y-135019685D01*
X211595522Y-135024689D01*
X212850027Y-135962637D01*
X212891932Y-136018545D01*
X212899775Y-136062395D01*
X212882693Y-140800000D01*
X212862946Y-146276447D01*
X212843020Y-146343415D01*
X212790051Y-146388979D01*
X212738947Y-146400000D01*
X208562499Y-146400000D01*
X207562500Y-147299999D01*
X207562500Y-149957825D01*
X207542815Y-150024864D01*
X207536785Y-150033429D01*
X206599728Y-151251604D01*
X206543251Y-151292739D01*
X206501443Y-151300000D01*
X204024000Y-151300000D01*
X203956961Y-151280315D01*
X203911206Y-151227511D01*
X203900000Y-151176000D01*
X203900000Y-140800000D01*
X201524000Y-140800000D01*
X201456961Y-140780315D01*
X201411206Y-140727511D01*
X201400000Y-140676000D01*
X201400000Y-139933267D01*
X207162500Y-139933267D01*
X207162500Y-140066732D01*
X207188533Y-140197610D01*
X207188536Y-140197620D01*
X207239607Y-140320917D01*
X207239608Y-140320920D01*
X207313750Y-140431880D01*
X207313753Y-140431884D01*
X207408115Y-140526246D01*
X207408119Y-140526249D01*
X207519079Y-140600391D01*
X207519081Y-140600391D01*
X207519083Y-140600393D01*
X207642381Y-140651464D01*
X207642384Y-140651464D01*
X207642389Y-140651466D01*
X207773267Y-140677499D01*
X207773270Y-140677500D01*
X207773272Y-140677500D01*
X207906730Y-140677500D01*
X207906731Y-140677499D01*
X207971312Y-140664653D01*
X208037610Y-140651466D01*
X208037612Y-140651465D01*
X208037619Y-140651464D01*
X208160917Y-140600393D01*
X208271881Y-140526249D01*
X208366249Y-140431881D01*
X208440393Y-140320917D01*
X208491464Y-140197619D01*
X208517500Y-140066728D01*
X208517500Y-139933272D01*
X208517500Y-139933269D01*
X208517499Y-139933267D01*
X208491466Y-139802389D01*
X208491463Y-139802379D01*
X208440393Y-139679083D01*
X208440391Y-139679081D01*
X208440391Y-139679079D01*
X208366249Y-139568119D01*
X208366246Y-139568115D01*
X208271884Y-139473753D01*
X208271880Y-139473750D01*
X208160920Y-139399608D01*
X208160917Y-139399607D01*
X208037620Y-139348536D01*
X208037610Y-139348533D01*
X207906731Y-139322500D01*
X207906728Y-139322500D01*
X207773272Y-139322500D01*
X207773269Y-139322500D01*
X207642389Y-139348533D01*
X207642379Y-139348536D01*
X207519082Y-139399607D01*
X207519079Y-139399608D01*
X207408119Y-139473750D01*
X207408115Y-139473753D01*
X207313753Y-139568115D01*
X207313750Y-139568119D01*
X207239608Y-139679079D01*
X207239607Y-139679082D01*
X207188536Y-139802379D01*
X207188533Y-139802389D01*
X207162500Y-139933267D01*
X201400000Y-139933267D01*
X201400000Y-135924000D01*
X201419685Y-135856961D01*
X201472489Y-135811206D01*
X201524000Y-135800000D01*
X203900000Y-135800000D01*
X203900000Y-125324000D01*
X203919685Y-125256961D01*
X203972489Y-125211206D01*
X204024000Y-125200000D01*
X206519003Y-125200000D01*
X206586042Y-125219685D01*
G37*
%TD.AperFunction*%
%TD*%
%TA.AperFunction,Conductor*%
%TO.N,BatteryVIN*%
G36*
X150524339Y-136419685D02*
G01*
X150570094Y-136472489D01*
X150581300Y-136524000D01*
X150581300Y-137900001D01*
X152847316Y-138523154D01*
X154490181Y-138974942D01*
X154549600Y-139011696D01*
X154579716Y-139074742D01*
X154581300Y-139094502D01*
X154581300Y-143000001D01*
X155554091Y-144214821D01*
X155580630Y-144279455D01*
X155581300Y-144292329D01*
X155581300Y-151000000D01*
X158526084Y-152963189D01*
X158570944Y-153016753D01*
X158581300Y-153066362D01*
X158581300Y-159948638D01*
X158561615Y-160015677D01*
X158544981Y-160036319D01*
X158118119Y-160463181D01*
X158056796Y-160496666D01*
X158030438Y-160499500D01*
X148132162Y-160499500D01*
X148065123Y-160479815D01*
X148044481Y-160463181D01*
X147617619Y-160036319D01*
X147584134Y-159974996D01*
X147581300Y-159948638D01*
X147581300Y-152999999D01*
X147511942Y-152895963D01*
X147470145Y-152833267D01*
X153803800Y-152833267D01*
X153803800Y-152966732D01*
X153829833Y-153097610D01*
X153829836Y-153097620D01*
X153880907Y-153220917D01*
X153880908Y-153220920D01*
X153955050Y-153331880D01*
X153955053Y-153331884D01*
X154049415Y-153426246D01*
X154049419Y-153426249D01*
X154160379Y-153500391D01*
X154160381Y-153500391D01*
X154160383Y-153500393D01*
X154283681Y-153551464D01*
X154283684Y-153551464D01*
X154283689Y-153551466D01*
X154414567Y-153577499D01*
X154414570Y-153577500D01*
X154414572Y-153577500D01*
X154548030Y-153577500D01*
X154548031Y-153577499D01*
X154612612Y-153564653D01*
X154678910Y-153551466D01*
X154678912Y-153551465D01*
X154678919Y-153551464D01*
X154802217Y-153500393D01*
X154913181Y-153426249D01*
X155007549Y-153331881D01*
X155081693Y-153220917D01*
X155132764Y-153097619D01*
X155138982Y-153066362D01*
X155158799Y-152966732D01*
X155158800Y-152966730D01*
X155158800Y-152833269D01*
X155158799Y-152833267D01*
X155132766Y-152702389D01*
X155132763Y-152702379D01*
X155081693Y-152579083D01*
X155081691Y-152579081D01*
X155081691Y-152579079D01*
X155007549Y-152468119D01*
X155007546Y-152468115D01*
X154913184Y-152373753D01*
X154913180Y-152373750D01*
X154802220Y-152299608D01*
X154802217Y-152299607D01*
X154678920Y-152248536D01*
X154678910Y-152248533D01*
X154548031Y-152222500D01*
X154548028Y-152222500D01*
X154414572Y-152222500D01*
X154414569Y-152222500D01*
X154283689Y-152248533D01*
X154283679Y-152248536D01*
X154160382Y-152299607D01*
X154160379Y-152299608D01*
X154049419Y-152373750D01*
X154049415Y-152373753D01*
X153955053Y-152468115D01*
X153955050Y-152468119D01*
X153880908Y-152579079D01*
X153880907Y-152579082D01*
X153829836Y-152702379D01*
X153829833Y-152702389D01*
X153803800Y-152833267D01*
X147470145Y-152833267D01*
X147062967Y-152222500D01*
X145602199Y-150031349D01*
X145581392Y-149964652D01*
X145581374Y-149962419D01*
X145600000Y-140600000D01*
X145599998Y-140599998D01*
X144581624Y-140229681D01*
X144525348Y-140188272D01*
X144500393Y-140123010D01*
X144500000Y-140113147D01*
X144500000Y-138300001D01*
X144500000Y-138300000D01*
X143929852Y-137634827D01*
X143901169Y-137571116D01*
X143900000Y-137554129D01*
X143900000Y-136619499D01*
X143919685Y-136552460D01*
X143972489Y-136506705D01*
X144023996Y-136495499D01*
X145180186Y-136495499D01*
X145180188Y-136495499D01*
X145292451Y-136480720D01*
X145292450Y-136480720D01*
X145292459Y-136480719D01*
X145328391Y-136465835D01*
X145342627Y-136459939D01*
X145390079Y-136450500D01*
X145776696Y-136450500D01*
X145824144Y-136459937D01*
X145847803Y-136469737D01*
X145847808Y-136469738D01*
X145847811Y-136469739D01*
X146002453Y-136500499D01*
X146002456Y-136500500D01*
X146002458Y-136500500D01*
X146160144Y-136500500D01*
X146160145Y-136500499D01*
X146314797Y-136469737D01*
X146363648Y-136449502D01*
X146460372Y-136409439D01*
X146507824Y-136400000D01*
X150457300Y-136400000D01*
X150524339Y-136419685D01*
G37*
%TD.AperFunction*%
%TD*%
%TA.AperFunction,Conductor*%
%TO.N,GND*%
G36*
X164000676Y-110019685D02*
G01*
X164036811Y-110055217D01*
X164379174Y-110568761D01*
X164399982Y-110635460D01*
X164400000Y-110637544D01*
X164400000Y-116576000D01*
X164380315Y-116643039D01*
X164327511Y-116688794D01*
X164276000Y-116700000D01*
X152124000Y-116700000D01*
X152056961Y-116680315D01*
X152011206Y-116627511D01*
X152000000Y-116576000D01*
X152000000Y-114400000D01*
X151800000Y-114200000D01*
X151322732Y-114200000D01*
X151258014Y-114180996D01*
X151257893Y-114181208D01*
X151257022Y-114180705D01*
X151255693Y-114180315D01*
X151252695Y-114178207D01*
X151250853Y-114177143D01*
X151111162Y-114119282D01*
X151111160Y-114119281D01*
X151111159Y-114119281D01*
X151097125Y-114117433D01*
X150998894Y-114104500D01*
X150124000Y-114104500D01*
X150056961Y-114084815D01*
X150011206Y-114032011D01*
X150000000Y-113980500D01*
X150000000Y-112124000D01*
X150019685Y-112056961D01*
X150072489Y-112011206D01*
X150124000Y-112000000D01*
X159000000Y-112000000D01*
X161968761Y-110020826D01*
X162035460Y-110000018D01*
X162037544Y-110000000D01*
X163933637Y-110000000D01*
X164000676Y-110019685D01*
G37*
%TD.AperFunction*%
%TD*%
%TA.AperFunction,Conductor*%
%TO.N,ChargingVin*%
G36*
X146191636Y-114709437D02*
G01*
X146216503Y-114719737D01*
X146216510Y-114719738D01*
X146216511Y-114719739D01*
X146371153Y-114750499D01*
X146371156Y-114750500D01*
X146371158Y-114750500D01*
X146528844Y-114750500D01*
X146528845Y-114750499D01*
X146628297Y-114730717D01*
X146683488Y-114719739D01*
X146683489Y-114719738D01*
X146683497Y-114719737D01*
X146707155Y-114709937D01*
X146754604Y-114700500D01*
X147101221Y-114700500D01*
X147148673Y-114709939D01*
X147172075Y-114719632D01*
X147198841Y-114730719D01*
X147311113Y-114745500D01*
X148688886Y-114745499D01*
X148688888Y-114745499D01*
X148801151Y-114730720D01*
X148801150Y-114730720D01*
X148801159Y-114730719D01*
X148852534Y-114709438D01*
X148899986Y-114700000D01*
X149410014Y-114700000D01*
X149457465Y-114709438D01*
X149508841Y-114730719D01*
X149621113Y-114745500D01*
X150876000Y-114745499D01*
X150943039Y-114765184D01*
X150988794Y-114817987D01*
X151000000Y-114869499D01*
X151000000Y-125000000D01*
X151963681Y-125963681D01*
X151997166Y-126025004D01*
X152000000Y-126051362D01*
X152000000Y-133948638D01*
X151980315Y-134015677D01*
X151963681Y-134036319D01*
X151036319Y-134963681D01*
X150974996Y-134997166D01*
X150948638Y-135000000D01*
X146507824Y-135000000D01*
X146460372Y-134990561D01*
X146314801Y-134930264D01*
X146314789Y-134930261D01*
X146160145Y-134899500D01*
X146160142Y-134899500D01*
X146002458Y-134899500D01*
X146002455Y-134899500D01*
X145847811Y-134930260D01*
X145847806Y-134930262D01*
X145847804Y-134930262D01*
X145847803Y-134930263D01*
X145824144Y-134940062D01*
X145776696Y-134949500D01*
X145390079Y-134949500D01*
X145342627Y-134940061D01*
X145292462Y-134919282D01*
X145292460Y-134919281D01*
X145292459Y-134919281D01*
X145180187Y-134904500D01*
X143802411Y-134904500D01*
X143690148Y-134919279D01*
X143690137Y-134919282D01*
X143550446Y-134977143D01*
X143543407Y-134981208D01*
X143542124Y-134978987D01*
X143488886Y-134999570D01*
X143478568Y-135000000D01*
X143194032Y-135000000D01*
X143129314Y-134980996D01*
X143129193Y-134981208D01*
X143128322Y-134980705D01*
X143126993Y-134980315D01*
X143123995Y-134978207D01*
X143122153Y-134977143D01*
X142982462Y-134919282D01*
X142982460Y-134919281D01*
X142982459Y-134919281D01*
X142870187Y-134904500D01*
X141492411Y-134904500D01*
X141380148Y-134919279D01*
X141380137Y-134919282D01*
X141240446Y-134977143D01*
X141233407Y-134981208D01*
X141232124Y-134978987D01*
X141178886Y-134999570D01*
X141168568Y-135000000D01*
X137051362Y-135000000D01*
X136984323Y-134980315D01*
X136963681Y-134963681D01*
X136536819Y-134536819D01*
X136503334Y-134475496D01*
X136500500Y-134449138D01*
X136500500Y-127613267D01*
X143082500Y-127613267D01*
X143082500Y-127746732D01*
X143108533Y-127877610D01*
X143108536Y-127877620D01*
X143159607Y-128000917D01*
X143159608Y-128000920D01*
X143233750Y-128111880D01*
X143233753Y-128111884D01*
X143328115Y-128206246D01*
X143328119Y-128206249D01*
X143439079Y-128280391D01*
X143439081Y-128280391D01*
X143439083Y-128280393D01*
X143562381Y-128331464D01*
X143562384Y-128331464D01*
X143562389Y-128331466D01*
X143693267Y-128357499D01*
X143693270Y-128357500D01*
X143693272Y-128357500D01*
X143826730Y-128357500D01*
X143826731Y-128357499D01*
X143891312Y-128344653D01*
X143957610Y-128331466D01*
X143957612Y-128331465D01*
X143957619Y-128331464D01*
X144080917Y-128280393D01*
X144191881Y-128206249D01*
X144286249Y-128111881D01*
X144360393Y-128000917D01*
X144411464Y-127877619D01*
X144437500Y-127746728D01*
X144437500Y-127613272D01*
X144437500Y-127613269D01*
X144437499Y-127613267D01*
X144411466Y-127482389D01*
X144411463Y-127482379D01*
X144360393Y-127359083D01*
X144360391Y-127359081D01*
X144360391Y-127359079D01*
X144286249Y-127248119D01*
X144286246Y-127248115D01*
X144191884Y-127153753D01*
X144191880Y-127153750D01*
X144080920Y-127079608D01*
X144080917Y-127079607D01*
X143957620Y-127028536D01*
X143957610Y-127028533D01*
X143826731Y-127002500D01*
X143826728Y-127002500D01*
X143693272Y-127002500D01*
X143693269Y-127002500D01*
X143562389Y-127028533D01*
X143562379Y-127028536D01*
X143439082Y-127079607D01*
X143439079Y-127079608D01*
X143328119Y-127153750D01*
X143328115Y-127153753D01*
X143233753Y-127248115D01*
X143233750Y-127248119D01*
X143159608Y-127359079D01*
X143159607Y-127359082D01*
X143108536Y-127482379D01*
X143108533Y-127482389D01*
X143082500Y-127613267D01*
X136500500Y-127613267D01*
X136500500Y-115250862D01*
X136520185Y-115183823D01*
X136536819Y-115163181D01*
X136963681Y-114736319D01*
X137025004Y-114702834D01*
X137051362Y-114700000D01*
X146144189Y-114700000D01*
X146191636Y-114709437D01*
G37*
%TD.AperFunction*%
%TD*%
%TA.AperFunction,Conductor*%
%TO.N,Net-(U1-SW)*%
G36*
X171843039Y-103919685D02*
G01*
X171888794Y-103972489D01*
X171900000Y-104024000D01*
X171900000Y-105886389D01*
X171897047Y-105913288D01*
X171300001Y-108599990D01*
X171300001Y-108599992D01*
X170998651Y-110483428D01*
X170968622Y-110546515D01*
X170963892Y-110551515D01*
X170954148Y-110561259D01*
X170954138Y-110561270D01*
X170942732Y-110578340D01*
X170942733Y-110578341D01*
X170885689Y-110663712D01*
X170885685Y-110663719D01*
X170854756Y-110738391D01*
X170838538Y-110777543D01*
X170838538Y-110777545D01*
X170838537Y-110777548D01*
X170819253Y-110874500D01*
X170814500Y-110898396D01*
X170814500Y-111141327D01*
X170794815Y-111208366D01*
X170742011Y-111254121D01*
X170672853Y-111264065D01*
X170615575Y-111240131D01*
X170517343Y-111165639D01*
X170376561Y-111110122D01*
X170353217Y-111107319D01*
X170342110Y-111105985D01*
X170277896Y-111078449D01*
X170252055Y-111049087D01*
X169419159Y-109730335D01*
X169400000Y-109664120D01*
X169400000Y-108600000D01*
X167719067Y-105930282D01*
X167700000Y-105864213D01*
X167700000Y-104024000D01*
X167719685Y-103956961D01*
X167772489Y-103911206D01*
X167824000Y-103900000D01*
X171776000Y-103900000D01*
X171843039Y-103919685D01*
G37*
%TD.AperFunction*%
%TD*%
%TA.AperFunction,Conductor*%
%TO.N,ConversionVIN*%
G36*
X197458749Y-108756477D02*
G01*
X197474926Y-108766873D01*
X197527656Y-108806860D01*
X197527657Y-108806860D01*
X197527658Y-108806861D01*
X197668436Y-108862377D01*
X197756898Y-108873000D01*
X197827581Y-108873000D01*
X197894620Y-108892685D01*
X197932558Y-108931002D01*
X198504341Y-109840487D01*
X198523364Y-109906705D01*
X198500118Y-122933779D01*
X198480314Y-123000783D01*
X198444901Y-123036732D01*
X197031239Y-123979174D01*
X196964540Y-123999982D01*
X196962456Y-124000000D01*
X187999999Y-124000000D01*
X187000000Y-124999999D01*
X187000000Y-129989439D01*
X186998215Y-130010405D01*
X186094836Y-135276321D01*
X186064099Y-135339067D01*
X186004319Y-135375235D01*
X185934475Y-135373342D01*
X185876742Y-135333989D01*
X185869518Y-135324244D01*
X185865859Y-135318768D01*
X185865855Y-135318763D01*
X184836319Y-134289227D01*
X184802834Y-134227904D01*
X184800000Y-134201546D01*
X184800000Y-132199999D01*
X183999998Y-130999997D01*
X183999995Y-130999994D01*
X183000000Y-130000000D01*
X176400000Y-130000000D01*
X176000000Y-130500000D01*
X176000000Y-142000000D01*
X179900000Y-146900000D01*
X181427038Y-146900000D01*
X181494077Y-146919685D01*
X181535433Y-146963780D01*
X181555555Y-147000000D01*
X182000000Y-147800000D01*
X184000000Y-147800000D01*
X184800000Y-147000000D01*
X184800000Y-145987973D01*
X184806068Y-145949657D01*
X184863553Y-145772739D01*
X184871959Y-145719665D01*
X184900500Y-145539468D01*
X184900500Y-144219402D01*
X184879005Y-144083697D01*
X184863553Y-143986132D01*
X184863552Y-143986128D01*
X184863552Y-143986127D01*
X184806069Y-143809214D01*
X184800000Y-143770896D01*
X184800000Y-142577668D01*
X184819685Y-142510629D01*
X184823388Y-142505189D01*
X185027478Y-142221882D01*
X185040403Y-142206686D01*
X185865857Y-141381234D01*
X185875515Y-141366780D01*
X185880293Y-141359631D01*
X185934307Y-141278792D01*
X185934307Y-141278791D01*
X185934311Y-141278786D01*
X185942626Y-141258709D01*
X185986465Y-141204307D01*
X186052759Y-141182240D01*
X186120459Y-141199518D01*
X186168071Y-141250654D01*
X186177339Y-141275507D01*
X186996151Y-144484913D01*
X187000000Y-144515567D01*
X187000000Y-150948638D01*
X186980315Y-151015677D01*
X186963681Y-151036319D01*
X186036319Y-151963681D01*
X185974996Y-151997166D01*
X185948638Y-152000000D01*
X175058078Y-152000000D01*
X174991039Y-151980315D01*
X174962819Y-151955383D01*
X170028741Y-146034489D01*
X170000945Y-145970386D01*
X170000000Y-145955106D01*
X170000000Y-134000000D01*
X168000000Y-132000000D01*
X165084788Y-131028262D01*
X165027413Y-130988388D01*
X165000705Y-130923824D01*
X165000000Y-130910625D01*
X165000000Y-126051362D01*
X165019685Y-125984323D01*
X165036319Y-125963681D01*
X165963681Y-125036319D01*
X166025004Y-125002834D01*
X166051362Y-125000000D01*
X174000000Y-125000000D01*
X176000000Y-123000000D01*
X176000000Y-115500000D01*
X175300000Y-114800000D01*
X172984825Y-114800000D01*
X172917786Y-114780315D01*
X172872031Y-114727511D01*
X172869256Y-114720943D01*
X172283931Y-113215821D01*
X172275500Y-113170878D01*
X172275500Y-113106903D01*
X172275500Y-113106898D01*
X172264877Y-113018436D01*
X172209361Y-112877658D01*
X172209360Y-112877657D01*
X172209360Y-112877656D01*
X172169373Y-112824926D01*
X172144549Y-112759615D01*
X172158977Y-112691251D01*
X172169373Y-112675074D01*
X172209360Y-112622343D01*
X172209359Y-112622343D01*
X172209361Y-112622342D01*
X172264877Y-112481564D01*
X172275500Y-112393102D01*
X172275500Y-112385934D01*
X172295185Y-112318895D01*
X172319403Y-112291274D01*
X172865623Y-111829087D01*
X172929513Y-111800812D01*
X172945029Y-111799751D01*
X190956119Y-111700242D01*
X191023265Y-111719556D01*
X191034265Y-111727412D01*
X192000000Y-112500000D01*
X194999999Y-112500000D01*
X195000000Y-112500000D01*
X195500000Y-111970847D01*
X195522624Y-109971034D01*
X195543066Y-109904224D01*
X195585113Y-109864766D01*
X196800000Y-109170847D01*
X196923038Y-108938894D01*
X196971842Y-108888894D01*
X197032581Y-108873000D01*
X197043097Y-108873000D01*
X197043102Y-108873000D01*
X197131564Y-108862377D01*
X197272342Y-108806861D01*
X197325074Y-108766873D01*
X197390385Y-108742049D01*
X197458749Y-108756477D01*
G37*
%TD.AperFunction*%
%TD*%
%TA.AperFunction,Conductor*%
%TO.N,Net-(U2-SW)*%
G36*
X206743039Y-104619685D02*
G01*
X206788794Y-104672489D01*
X206800000Y-104724000D01*
X206800000Y-108676000D01*
X206780315Y-108743039D01*
X206727511Y-108788794D01*
X206676000Y-108800000D01*
X205011272Y-108800000D01*
X204988911Y-108797967D01*
X199140344Y-107725729D01*
X199077954Y-107694278D01*
X199042471Y-107634089D01*
X199040463Y-107623255D01*
X199039877Y-107620939D01*
X199039877Y-107620936D01*
X198984361Y-107480158D01*
X198902663Y-107372423D01*
X198893882Y-107349321D01*
X198881293Y-107328060D01*
X198881688Y-107317238D01*
X198877841Y-107307114D01*
X198882944Y-107282933D01*
X198883848Y-107258237D01*
X198891028Y-107244627D01*
X198892269Y-107238750D01*
X198899674Y-107226690D01*
X198901119Y-107224612D01*
X198984361Y-107114842D01*
X198993370Y-107091995D01*
X199001625Y-107080129D01*
X199018036Y-107066927D01*
X199030968Y-107050307D01*
X199034505Y-107047853D01*
X199041233Y-107043358D01*
X199128358Y-106956233D01*
X199128358Y-106956231D01*
X199134885Y-106949705D01*
X199191421Y-106917360D01*
X200784684Y-106503974D01*
X200815826Y-106500000D01*
X202199999Y-106500000D01*
X202200000Y-106500000D01*
X204968473Y-104621392D01*
X205034999Y-104600039D01*
X205038099Y-104600000D01*
X206676000Y-104600000D01*
X206743039Y-104619685D01*
G37*
%TD.AperFunction*%
%TD*%
%TA.AperFunction,Conductor*%
%TO.N,GND*%
G36*
X201791995Y-125232672D02*
G01*
X201793739Y-125233813D01*
X202007284Y-125376176D01*
X202052144Y-125429740D01*
X202062500Y-125479349D01*
X202062500Y-131288987D01*
X202042815Y-131356026D01*
X201990011Y-131401781D01*
X201938500Y-131412987D01*
X190762500Y-131412987D01*
X190062500Y-132212987D01*
X190062500Y-132212988D01*
X190062500Y-134569163D01*
X190042815Y-134636202D01*
X190034965Y-134647077D01*
X187999723Y-137166901D01*
X187942286Y-137206685D01*
X187903258Y-137212987D01*
X186629505Y-137212987D01*
X186562466Y-137193302D01*
X186516711Y-137140498D01*
X186505505Y-137088987D01*
X186505504Y-136273941D01*
X186505499Y-136273751D01*
X186505499Y-136188171D01*
X186525184Y-136121132D01*
X186527022Y-136118353D01*
X187962500Y-134012987D01*
X187962500Y-126367534D01*
X187982185Y-126300495D01*
X188002706Y-126276130D01*
X189126944Y-125245580D01*
X189189664Y-125214790D01*
X189210734Y-125212987D01*
X201724956Y-125212987D01*
X201791995Y-125232672D01*
G37*
%TD.AperFunction*%
%TD*%
%TA.AperFunction,Conductor*%
%TO.N,Net-(U3-LX)*%
G36*
X190405539Y-135819685D02*
G01*
X190451294Y-135872489D01*
X190462500Y-135924000D01*
X190462500Y-140676000D01*
X190442815Y-140743039D01*
X190390011Y-140788794D01*
X190338500Y-140800000D01*
X189917529Y-140800000D01*
X189850490Y-140780315D01*
X189825579Y-140759193D01*
X189810963Y-140743039D01*
X188440850Y-139228703D01*
X188387035Y-139144965D01*
X188285430Y-139056923D01*
X187962500Y-138700000D01*
X187913551Y-138700000D01*
X187909168Y-138698713D01*
X187904705Y-138699684D01*
X187875950Y-138688959D01*
X187846512Y-138680315D01*
X187842326Y-138676418D01*
X187839240Y-138675267D01*
X187814284Y-138650310D01*
X187787233Y-138614174D01*
X187762816Y-138548710D01*
X187762500Y-138539864D01*
X187762500Y-138224000D01*
X187782185Y-138156961D01*
X187834989Y-138111206D01*
X187886500Y-138100000D01*
X187962500Y-138100000D01*
X188319815Y-137667460D01*
X188336036Y-137657036D01*
X188430258Y-137548299D01*
X188445099Y-137515800D01*
X189825304Y-135845027D01*
X189883176Y-135805879D01*
X189920903Y-135800000D01*
X190338500Y-135800000D01*
X190405539Y-135819685D01*
G37*
%TD.AperFunction*%
%TD*%
%TA.AperFunction,Conductor*%
%TO.N,Vout3v3*%
G36*
X213715677Y-97919685D02*
G01*
X213736319Y-97936319D01*
X214663681Y-98863681D01*
X214697166Y-98925004D01*
X214700000Y-98951362D01*
X214700000Y-117040402D01*
X214680315Y-117107441D01*
X214653462Y-117137230D01*
X214233965Y-117472828D01*
X214169319Y-117499336D01*
X214156503Y-117500000D01*
X210324000Y-117500000D01*
X210256961Y-117480315D01*
X210211206Y-117427511D01*
X210200000Y-117376000D01*
X210200000Y-111600002D01*
X210200000Y-111600000D01*
X208514745Y-108460469D01*
X208500000Y-108401823D01*
X208500000Y-104200528D01*
X208500005Y-104199433D01*
X208510597Y-103000000D01*
X208500124Y-98651535D01*
X208519647Y-98584449D01*
X208536438Y-98563561D01*
X209163681Y-97936319D01*
X209225004Y-97902834D01*
X209251362Y-97900000D01*
X213648638Y-97900000D01*
X213715677Y-97919685D01*
G37*
%TD.AperFunction*%
%TD*%
%TA.AperFunction,Conductor*%
%TO.N,GND*%
G36*
X180643039Y-102719685D02*
G01*
X180688794Y-102772489D01*
X180700000Y-102824000D01*
X180700000Y-108457825D01*
X180680315Y-108524864D01*
X180674285Y-108533429D01*
X179737228Y-109751604D01*
X179680751Y-109792739D01*
X179638943Y-109800000D01*
X174900000Y-109800000D01*
X174899999Y-109800000D01*
X174899998Y-109800001D01*
X174434273Y-110731454D01*
X174386686Y-110782613D01*
X174323364Y-110800000D01*
X173000000Y-110800000D01*
X172201327Y-111678538D01*
X172141666Y-111714901D01*
X172071817Y-111713237D01*
X172034650Y-111693930D01*
X171997343Y-111665639D01*
X171856561Y-111610122D01*
X171810926Y-111604642D01*
X171768102Y-111599500D01*
X171768097Y-111599500D01*
X171529275Y-111599500D01*
X171462236Y-111579815D01*
X171416481Y-111527011D01*
X171406537Y-111457853D01*
X171407653Y-111451328D01*
X171425500Y-111361606D01*
X171425500Y-110790839D01*
X171428092Y-110779360D01*
X171427057Y-110771250D01*
X171437536Y-110737547D01*
X171440436Y-110731454D01*
X171454613Y-110701670D01*
X171455030Y-110700815D01*
X171455083Y-110700683D01*
X171497802Y-110563292D01*
X171710244Y-109235527D01*
X171740272Y-109172443D01*
X171757879Y-109156228D01*
X173300000Y-107990000D01*
X174478094Y-102796567D01*
X174512122Y-102735545D01*
X174573739Y-102702605D01*
X174599022Y-102700000D01*
X180576000Y-102700000D01*
X180643039Y-102719685D01*
G37*
%TD.AperFunction*%
%TD*%
%TA.AperFunction,Conductor*%
%TO.N,GND*%
G36*
X185503361Y-136178424D02*
G01*
X185506629Y-136184774D01*
X185529513Y-136322083D01*
X185529042Y-136327793D01*
X185509453Y-136385060D01*
X185406099Y-136687200D01*
X185406099Y-136687199D01*
X185406098Y-136687200D01*
X185406098Y-136687199D01*
X185391069Y-136731137D01*
X185385149Y-136737855D01*
X185376212Y-136738420D01*
X185369494Y-136732500D01*
X185368932Y-136731144D01*
X185230498Y-136326449D01*
X185230498Y-136322014D01*
X185255000Y-136174997D01*
X185462500Y-136174997D01*
X185495088Y-136174997D01*
X185503361Y-136178424D01*
G37*
%TD.AperFunction*%
%TD*%
%TA.AperFunction,Conductor*%
%TO.N,GND*%
G36*
X164524125Y-113246447D02*
G01*
X164791630Y-113491882D01*
X164795409Y-113500000D01*
X164792837Y-113507835D01*
X164400000Y-113996322D01*
X164400000Y-113996323D01*
X164280304Y-114145164D01*
X164203553Y-113953553D01*
X163496447Y-113246447D01*
X164222498Y-112969705D01*
X164524125Y-113246447D01*
G37*
%TD.AperFunction*%
%TD*%
%TA.AperFunction,Conductor*%
%TO.N,ConversionVIN*%
G36*
X171729720Y-112600590D02*
G01*
X171925000Y-112625000D01*
X171925000Y-112875000D01*
X171729000Y-112899500D01*
X171726928Y-112899500D01*
X171721494Y-112898161D01*
X171650554Y-112860955D01*
X171458753Y-112760360D01*
X171453019Y-112753484D01*
X171453827Y-112744566D01*
X171458752Y-112739640D01*
X171677335Y-112624999D01*
X171721494Y-112601839D01*
X171726928Y-112600500D01*
X171728269Y-112600500D01*
X171729720Y-112600590D01*
G37*
%TD.AperFunction*%
%TD*%
%TA.AperFunction,Conductor*%
%TO.N,ConversionVIN*%
G36*
X197405434Y-108051327D02*
G01*
X197410359Y-108056252D01*
X197548161Y-108318995D01*
X197549500Y-108324426D01*
X197549500Y-108326500D01*
X197525000Y-108522500D01*
X197275000Y-108522500D01*
X197250500Y-108326500D01*
X197250500Y-108324426D01*
X197251838Y-108318995D01*
X197389639Y-108056253D01*
X197396516Y-108050519D01*
X197405434Y-108051327D01*
G37*
%TD.AperFunction*%
%TD*%
%TA.AperFunction,Conductor*%
%TO.N,ConversionVIN*%
G36*
X171729720Y-112600590D02*
G01*
X171925000Y-112625000D01*
X171925000Y-112875000D01*
X171729000Y-112899500D01*
X171726928Y-112899500D01*
X171721494Y-112898161D01*
X171650554Y-112860955D01*
X171458753Y-112760360D01*
X171453019Y-112753484D01*
X171453827Y-112744566D01*
X171458752Y-112739640D01*
X171677335Y-112624999D01*
X171721494Y-112601839D01*
X171726928Y-112600500D01*
X171728269Y-112600500D01*
X171729720Y-112600590D01*
G37*
%TD.AperFunction*%
%TD*%
%TA.AperFunction,Conductor*%
%TO.N,Net-(U1-BST)*%
G36*
X168445465Y-108962677D02*
G01*
X168450729Y-108969921D01*
X168451020Y-108971785D01*
X168538415Y-110146687D01*
X168535611Y-110155192D01*
X168535020Y-110155828D01*
X168368691Y-110322157D01*
X168360418Y-110325584D01*
X168354110Y-110323738D01*
X167583192Y-109830194D01*
X167578072Y-109822847D01*
X167578617Y-109816042D01*
X167859558Y-109104948D01*
X167865785Y-109098515D01*
X167867695Y-109097875D01*
X168436621Y-108961276D01*
X168445465Y-108962677D01*
G37*
%TD.AperFunction*%
%TD*%
%TA.AperFunction,Conductor*%
%TO.N,Net-(U1-BST)*%
G36*
X169800539Y-111412498D02*
G01*
X169995567Y-111577522D01*
X170015650Y-111594515D01*
X170019752Y-111602475D01*
X170018927Y-111607863D01*
X169964946Y-111740304D01*
X169958650Y-111746672D01*
X169950139Y-111746893D01*
X169634511Y-111632989D01*
X169627893Y-111626958D01*
X169627195Y-111625061D01*
X169622507Y-111607863D01*
X169617331Y-111588871D01*
X169618461Y-111579989D01*
X169620342Y-111577526D01*
X169784711Y-111413157D01*
X169792983Y-111409731D01*
X169800539Y-111412498D01*
G37*
%TD.AperFunction*%
%TD*%
%TA.AperFunction,Conductor*%
%TO.N,Net-(U1-SW)*%
G36*
X171158509Y-112101851D02*
G01*
X171416989Y-112238196D01*
X171422707Y-112245087D01*
X171421879Y-112254004D01*
X171415404Y-112259585D01*
X171112268Y-112365946D01*
X171104600Y-112365974D01*
X170903935Y-112297184D01*
X170897221Y-112291260D01*
X170896662Y-112282323D01*
X170899455Y-112277846D01*
X171060275Y-112117026D01*
X171066743Y-112113741D01*
X171150896Y-112100639D01*
X171152696Y-112100500D01*
X171153050Y-112100500D01*
X171158509Y-112101851D01*
G37*
%TD.AperFunction*%
%TD*%
%TA.AperFunction,Conductor*%
%TO.N,Vout5V*%
G36*
X166146693Y-122752975D02*
G01*
X166838780Y-123445062D01*
X166842207Y-123453335D01*
X166838780Y-123461608D01*
X166835608Y-123463865D01*
X165965419Y-123885420D01*
X165956479Y-123885942D01*
X165954666Y-123885134D01*
X165104642Y-123416158D01*
X165099054Y-123409161D01*
X165098658Y-123407137D01*
X165032576Y-122775265D01*
X165035124Y-122766681D01*
X165042996Y-122762412D01*
X165044055Y-122762351D01*
X166138380Y-122749645D01*
X166146693Y-122752975D01*
G37*
%TD.AperFunction*%
%TD*%
%TA.AperFunction,Conductor*%
%TO.N,Vout5V*%
G36*
X166581480Y-122195088D02*
G01*
X167294110Y-122298337D01*
X167301806Y-122302915D01*
X167303248Y-122305454D01*
X167540121Y-122879673D01*
X167540108Y-122888628D01*
X167536926Y-122893013D01*
X166677520Y-123630750D01*
X166669010Y-123633538D01*
X166661626Y-123630145D01*
X165969736Y-122938255D01*
X165966309Y-122929982D01*
X165969015Y-122922499D01*
X166482395Y-122305454D01*
X166570811Y-122199184D01*
X166578736Y-122195017D01*
X166581480Y-122195088D01*
G37*
%TD.AperFunction*%
%TD*%
%TA.AperFunction,Conductor*%
%TO.N,Vout5V*%
G36*
X170877876Y-121703128D02*
G01*
X170878994Y-121704148D01*
X170981392Y-121810471D01*
X171492414Y-122341085D01*
X171495685Y-122349420D01*
X171492103Y-122357627D01*
X171491616Y-122358070D01*
X170777053Y-122972663D01*
X170768546Y-122975460D01*
X170766896Y-122975217D01*
X169984172Y-122802029D01*
X169976835Y-122796895D01*
X169975000Y-122790605D01*
X169975000Y-121810471D01*
X169978427Y-121802198D01*
X169985406Y-121798843D01*
X170869275Y-121700636D01*
X170877876Y-121703128D01*
G37*
%TD.AperFunction*%
%TD*%
%TA.AperFunction,Conductor*%
%TO.N,Vout5V*%
G36*
X168602017Y-121798904D02*
G01*
X168609888Y-121803172D01*
X168612500Y-121810541D01*
X168612500Y-122789458D01*
X168609073Y-122797731D01*
X168602016Y-122801095D01*
X167781311Y-122886840D01*
X167772726Y-122884291D01*
X167771004Y-122882568D01*
X167304967Y-122307365D01*
X167302422Y-122298780D01*
X167304967Y-122292635D01*
X167771005Y-121717430D01*
X167778875Y-121713160D01*
X167781307Y-121713159D01*
X168602017Y-121798904D01*
G37*
%TD.AperFunction*%
%TD*%
%TA.AperFunction,Conductor*%
%TO.N,Vout5V*%
G36*
X172227264Y-121721566D02*
G01*
X172617874Y-121871811D01*
X172621946Y-121874458D01*
X173314039Y-122566551D01*
X173317466Y-122574824D01*
X173314039Y-122583097D01*
X173309562Y-122585891D01*
X172293033Y-122934514D01*
X172284095Y-122933957D01*
X172282256Y-122932836D01*
X171510921Y-122359352D01*
X171506327Y-122351666D01*
X171508513Y-122342982D01*
X171510191Y-122341163D01*
X172215356Y-121723683D01*
X172223838Y-121720812D01*
X172227264Y-121721566D01*
G37*
%TD.AperFunction*%
%TD*%
%TA.AperFunction,Conductor*%
%TO.N,Net-(U1-SS)*%
G36*
X169657558Y-112604516D02*
G01*
X169659009Y-112604606D01*
X169659917Y-112604634D01*
X169671718Y-112605000D01*
X169671731Y-112605000D01*
X169673066Y-112605000D01*
X169673072Y-112605000D01*
X169678765Y-112604308D01*
X169685604Y-112605561D01*
X169941246Y-112739639D01*
X169946980Y-112746515D01*
X169946172Y-112755433D01*
X169941245Y-112760360D01*
X169678506Y-112898161D01*
X169673072Y-112899500D01*
X169671731Y-112899500D01*
X169670280Y-112899410D01*
X169485249Y-112876281D01*
X169477465Y-112871854D01*
X169475000Y-112864671D01*
X169475000Y-112635328D01*
X169478427Y-112627055D01*
X169485246Y-112623719D01*
X169645609Y-112603673D01*
X169648131Y-112603635D01*
X169657558Y-112604516D01*
G37*
%TD.AperFunction*%
%TD*%
%TA.AperFunction,Conductor*%
%TO.N,Net-(U1-SS)*%
G36*
X167406073Y-112869159D02*
G01*
X167406236Y-112869296D01*
X167916623Y-113305956D01*
X167917290Y-113306573D01*
X168084823Y-113474106D01*
X168088250Y-113482379D01*
X168084823Y-113490652D01*
X168084175Y-113491253D01*
X167457139Y-114030000D01*
X167448630Y-114032793D01*
X167441542Y-114029690D01*
X167245255Y-113846967D01*
X166881332Y-113508191D01*
X166877612Y-113500046D01*
X166880255Y-113492212D01*
X167389607Y-112870790D01*
X167397502Y-112866565D01*
X167406073Y-112869159D01*
G37*
%TD.AperFunction*%
%TD*%
%TA.AperFunction,Conductor*%
%TO.N,Net-(C7-Pad1)*%
G36*
X169798114Y-119053427D02*
G01*
X169801425Y-119060059D01*
X169886654Y-119661803D01*
X169884422Y-119670475D01*
X169883129Y-119671926D01*
X169308059Y-120218342D01*
X169299701Y-120221556D01*
X169291941Y-120218342D01*
X168716870Y-119671926D01*
X168713233Y-119663743D01*
X168713344Y-119661811D01*
X168798575Y-119060058D01*
X168803128Y-119052348D01*
X168810159Y-119050000D01*
X169789841Y-119050000D01*
X169798114Y-119053427D01*
G37*
%TD.AperFunction*%
%TD*%
%TA.AperFunction,Conductor*%
%TO.N,Net-(C7-Pad1)*%
G36*
X169108848Y-118056196D02*
G01*
X169846867Y-118656441D01*
X169851123Y-118664320D01*
X169851152Y-118666391D01*
X169800810Y-119339173D01*
X169796776Y-119347167D01*
X169789143Y-119350000D01*
X168807949Y-119350000D01*
X168799676Y-119346573D01*
X168797072Y-119342610D01*
X168545040Y-118706560D01*
X168545178Y-118697606D01*
X168547026Y-118694645D01*
X169092582Y-118057660D01*
X169100564Y-118053608D01*
X169108848Y-118056196D01*
G37*
%TD.AperFunction*%
%TD*%
%TA.AperFunction,Conductor*%
%TO.N,Net-(C7-Pad1)*%
G36*
X166958116Y-118206816D02*
G01*
X167595562Y-118820726D01*
X167599144Y-118828933D01*
X167598987Y-118831076D01*
X167451630Y-119715223D01*
X167446889Y-119722821D01*
X167440089Y-119725000D01*
X166459911Y-119725000D01*
X166451638Y-119721573D01*
X166448370Y-119715223D01*
X166301012Y-118831074D01*
X166303032Y-118822353D01*
X166304432Y-118820730D01*
X166941884Y-118206815D01*
X166950220Y-118203545D01*
X166958116Y-118206816D01*
G37*
%TD.AperFunction*%
%TD*%
%TA.AperFunction,Conductor*%
%TO.N,Net-(C7-Pad1)*%
G36*
X167450976Y-119053427D02*
G01*
X167453210Y-119056553D01*
X167734680Y-119631093D01*
X167735242Y-119640030D01*
X167733560Y-119643224D01*
X167305857Y-120218126D01*
X167298170Y-120222718D01*
X167291226Y-120221601D01*
X166584890Y-119867456D01*
X166579030Y-119860685D01*
X166578579Y-119858834D01*
X166542375Y-119631093D01*
X166452152Y-119063537D01*
X166454238Y-119054828D01*
X166461870Y-119050145D01*
X166463707Y-119050000D01*
X167442703Y-119050000D01*
X167450976Y-119053427D01*
G37*
%TD.AperFunction*%
%TD*%
%TA.AperFunction,Conductor*%
%TO.N,Net-(C7-Pad1)*%
G36*
X166958116Y-115906816D02*
G01*
X167595562Y-116520726D01*
X167599144Y-116528933D01*
X167598987Y-116531076D01*
X167451630Y-117415223D01*
X167446889Y-117422821D01*
X167440089Y-117425000D01*
X166459911Y-117425000D01*
X166451638Y-117421573D01*
X166448370Y-117415223D01*
X166301012Y-116531074D01*
X166303032Y-116522353D01*
X166304432Y-116520730D01*
X166941884Y-115906815D01*
X166950220Y-115903545D01*
X166958116Y-115906816D01*
G37*
%TD.AperFunction*%
%TD*%
%TA.AperFunction,Conductor*%
%TO.N,Net-(C7-Pad1)*%
G36*
X167448362Y-116678427D02*
G01*
X167451630Y-116684777D01*
X167598987Y-117568923D01*
X167596967Y-117577646D01*
X167595562Y-117579273D01*
X166958116Y-118193183D01*
X166949780Y-118196454D01*
X166941884Y-118193183D01*
X166304437Y-117579273D01*
X166300855Y-117571066D01*
X166301011Y-117568931D01*
X166448370Y-116684775D01*
X166453111Y-116677179D01*
X166459911Y-116675000D01*
X167440089Y-116675000D01*
X167448362Y-116678427D01*
G37*
%TD.AperFunction*%
%TD*%
%TA.AperFunction,Conductor*%
%TO.N,Net-(C7-Pad1)*%
G36*
X167583070Y-117473993D02*
G01*
X168239626Y-117548817D01*
X168247457Y-117553159D01*
X168250000Y-117560442D01*
X168250000Y-118541719D01*
X168246573Y-118549992D01*
X168242192Y-118552753D01*
X167606511Y-118776951D01*
X167597569Y-118776471D01*
X167594842Y-118774658D01*
X166957615Y-118207665D01*
X166953712Y-118199605D01*
X166956538Y-118191275D01*
X167572900Y-117477967D01*
X167580900Y-117473950D01*
X167583070Y-117473993D01*
G37*
%TD.AperFunction*%
%TD*%
%TA.AperFunction,Conductor*%
%TO.N,Net-(C7-Pad1)*%
G36*
X168477646Y-117403032D02*
G01*
X168479273Y-117404437D01*
X169093183Y-118041884D01*
X169096454Y-118050220D01*
X169093183Y-118058116D01*
X168479273Y-118695562D01*
X168471066Y-118699144D01*
X168468923Y-118698987D01*
X167584777Y-118551629D01*
X167577179Y-118546888D01*
X167575000Y-118540088D01*
X167575000Y-117559911D01*
X167578427Y-117551638D01*
X167584775Y-117548370D01*
X168468925Y-117401012D01*
X168477646Y-117403032D01*
G37*
%TD.AperFunction*%
%TD*%
%TA.AperFunction,Conductor*%
%TO.N,Net-(C7-Pad1)*%
G36*
X168827273Y-119640708D02*
G01*
X168828995Y-119642431D01*
X169295032Y-120217635D01*
X169297577Y-120226220D01*
X169295032Y-120232365D01*
X168828995Y-120807568D01*
X168821124Y-120811839D01*
X168818688Y-120811840D01*
X167997984Y-120726095D01*
X167990112Y-120721827D01*
X167987500Y-120714458D01*
X167987500Y-119735541D01*
X167990927Y-119727268D01*
X167997982Y-119723904D01*
X168818689Y-119638159D01*
X168827273Y-119640708D01*
G37*
%TD.AperFunction*%
%TD*%
%TA.AperFunction,Conductor*%
%TO.N,Net-(C7-Pad1)*%
G36*
X168602017Y-119723904D02*
G01*
X168609888Y-119728172D01*
X168612500Y-119735541D01*
X168612500Y-120714458D01*
X168609073Y-120722731D01*
X168602016Y-120726095D01*
X167781311Y-120811840D01*
X167772726Y-120809291D01*
X167771004Y-120807568D01*
X167304967Y-120232365D01*
X167302422Y-120223780D01*
X167304967Y-120217635D01*
X167771005Y-119642430D01*
X167778875Y-119638160D01*
X167781307Y-119638159D01*
X168602017Y-119723904D01*
G37*
%TD.AperFunction*%
%TD*%
%TA.AperFunction,Conductor*%
%TO.N,Net-(U2-SW)*%
G36*
X197872155Y-107496957D02*
G01*
X198032971Y-107657773D01*
X198036259Y-107664246D01*
X198049361Y-107748395D01*
X198049500Y-107750195D01*
X198049500Y-107750549D01*
X198048149Y-107756008D01*
X197911803Y-108014489D01*
X197904912Y-108020207D01*
X197895995Y-108019379D01*
X197890415Y-108012905D01*
X197784051Y-107709766D01*
X197784024Y-107702103D01*
X197852815Y-107501433D01*
X197858739Y-107494721D01*
X197867676Y-107494162D01*
X197872155Y-107496957D01*
G37*
%TD.AperFunction*%
%TD*%
%TA.AperFunction,Conductor*%
%TO.N,Net-(U2-BST)*%
G36*
X198558364Y-106392872D02*
G01*
X198558874Y-106393342D01*
X198594725Y-106428409D01*
X198594817Y-106428500D01*
X198758670Y-106592353D01*
X198762097Y-106600626D01*
X198758670Y-106608899D01*
X198754484Y-106611589D01*
X198556475Y-106685414D01*
X198547526Y-106685093D01*
X198544759Y-106683321D01*
X198408205Y-106565872D01*
X198404167Y-106557880D01*
X198406964Y-106549373D01*
X198541861Y-106394033D01*
X198549871Y-106390035D01*
X198558364Y-106392872D01*
G37*
%TD.AperFunction*%
%TD*%
%TA.AperFunction,Conductor*%
%TO.N,Net-(U2-BST)*%
G36*
X200755077Y-104491118D02*
G01*
X201390332Y-104991127D01*
X201394714Y-104998937D01*
X201392290Y-105007557D01*
X201391353Y-105008610D01*
X200836009Y-105561815D01*
X200827729Y-105565226D01*
X200821407Y-105563356D01*
X200209884Y-105168612D01*
X200207956Y-105167055D01*
X200041885Y-105000984D01*
X200038458Y-104992711D01*
X200041885Y-104984438D01*
X200043412Y-104983152D01*
X200741096Y-104490752D01*
X200749830Y-104488782D01*
X200755077Y-104491118D01*
G37*
%TD.AperFunction*%
%TD*%
%TA.AperFunction,Conductor*%
%TO.N,Vout3v3*%
G36*
X186206175Y-104384412D02*
G01*
X186989159Y-104958774D01*
X186993803Y-104966431D01*
X186993925Y-104968789D01*
X186951075Y-105830801D01*
X186947241Y-105838894D01*
X186943852Y-105841035D01*
X186308155Y-106103372D01*
X186299200Y-106103361D01*
X186294522Y-106099823D01*
X185497446Y-105093749D01*
X185494996Y-105085138D01*
X185498344Y-105078213D01*
X186190984Y-104385573D01*
X186199256Y-104382147D01*
X186206175Y-104384412D01*
G37*
%TD.AperFunction*%
%TD*%
%TA.AperFunction,Conductor*%
%TO.N,Vout3v3*%
G36*
X186957000Y-108245753D02*
G01*
X186958104Y-108246856D01*
X187575348Y-108951751D01*
X187578220Y-108960233D01*
X187576576Y-108965484D01*
X187313130Y-109404056D01*
X187311373Y-109406304D01*
X186619929Y-110097748D01*
X186611656Y-110101175D01*
X186603383Y-110097748D01*
X186600301Y-110092293D01*
X186320498Y-108964090D01*
X186321833Y-108955237D01*
X186323039Y-108953582D01*
X186940493Y-108246864D01*
X186948515Y-108242890D01*
X186957000Y-108245753D01*
G37*
%TD.AperFunction*%
%TD*%
%TA.AperFunction,Conductor*%
%TO.N,Vout3v3*%
G36*
X185570892Y-103406664D02*
G01*
X185571278Y-103406964D01*
X186144977Y-103870938D01*
X186149255Y-103878805D01*
X186149238Y-103881414D01*
X186102146Y-104278035D01*
X186098801Y-104284929D01*
X185407685Y-104976045D01*
X185399412Y-104979472D01*
X185391139Y-104976045D01*
X185388381Y-104971670D01*
X185070056Y-104070848D01*
X185070530Y-104061906D01*
X185071685Y-104059986D01*
X185554526Y-103409088D01*
X185562205Y-103404487D01*
X185570892Y-103406664D01*
G37*
%TD.AperFunction*%
%TD*%
%TA.AperFunction,Conductor*%
%TO.N,Vout3v3*%
G36*
X186958116Y-105844316D02*
G01*
X187595562Y-106458226D01*
X187599144Y-106466433D01*
X187598987Y-106468576D01*
X187451630Y-107352723D01*
X187446889Y-107360321D01*
X187440089Y-107362500D01*
X186459911Y-107362500D01*
X186451638Y-107359073D01*
X186448370Y-107352723D01*
X186301012Y-106468574D01*
X186303032Y-106459853D01*
X186304432Y-106458230D01*
X186941884Y-105844315D01*
X186950220Y-105841045D01*
X186958116Y-105844316D01*
G37*
%TD.AperFunction*%
%TD*%
%TA.AperFunction,Conductor*%
%TO.N,Vout3v3*%
G36*
X187448362Y-106715927D02*
G01*
X187451630Y-106722277D01*
X187598987Y-107606423D01*
X187596967Y-107615146D01*
X187595562Y-107616773D01*
X186958116Y-108230683D01*
X186949780Y-108233954D01*
X186941884Y-108230683D01*
X186304437Y-107616773D01*
X186300855Y-107608566D01*
X186301011Y-107606431D01*
X186448370Y-106722275D01*
X186453111Y-106714679D01*
X186459911Y-106712500D01*
X187440089Y-106712500D01*
X187448362Y-106715927D01*
G37*
%TD.AperFunction*%
%TD*%
%TA.AperFunction,Conductor*%
%TO.N,Net-(U2-SS)*%
G36*
X196909160Y-103740776D02*
G01*
X197617324Y-104071416D01*
X197623369Y-104078020D01*
X197623989Y-104083409D01*
X197526237Y-104897224D01*
X197521849Y-104905028D01*
X197514622Y-104907527D01*
X197278957Y-104907527D01*
X197271854Y-104905124D01*
X197271728Y-104905028D01*
X197045293Y-104732046D01*
X196521131Y-104331621D01*
X196516637Y-104323876D01*
X196518461Y-104315890D01*
X196894441Y-103744941D01*
X196901851Y-103739918D01*
X196909160Y-103740776D01*
G37*
%TD.AperFunction*%
%TD*%
%TA.AperFunction,Conductor*%
%TO.N,Net-(U2-SS)*%
G36*
X197522944Y-106075927D02*
G01*
X197526281Y-106082749D01*
X197549410Y-106267780D01*
X197549500Y-106269231D01*
X197549500Y-106270572D01*
X197548161Y-106276006D01*
X197410361Y-106538745D01*
X197403484Y-106544480D01*
X197394566Y-106543672D01*
X197389639Y-106538745D01*
X197251839Y-106276006D01*
X197250500Y-106270572D01*
X197250500Y-106269231D01*
X197250590Y-106267780D01*
X197273719Y-106082749D01*
X197278146Y-106074965D01*
X197285329Y-106072500D01*
X197514671Y-106072500D01*
X197522944Y-106075927D01*
G37*
%TD.AperFunction*%
%TD*%
%TA.AperFunction,Conductor*%
%TO.N,Net-(C16-Pad1)*%
G36*
X189457796Y-103445414D02*
G01*
X189459975Y-103447065D01*
X190096048Y-104058700D01*
X190099636Y-104066904D01*
X190099608Y-104067969D01*
X190069029Y-104494760D01*
X190065632Y-104502197D01*
X189373587Y-105194242D01*
X189365314Y-105197669D01*
X189357041Y-105194242D01*
X189354649Y-105190780D01*
X188950495Y-104294764D01*
X188950217Y-104285813D01*
X188951071Y-104284029D01*
X189441781Y-103449567D01*
X189448927Y-103444174D01*
X189457796Y-103445414D01*
G37*
%TD.AperFunction*%
%TD*%
%TA.AperFunction,Conductor*%
%TO.N,Net-(C16-Pad1)*%
G36*
X191507470Y-105190443D02*
G01*
X191509551Y-105192106D01*
X192142802Y-105829252D01*
X192146204Y-105837536D01*
X192142802Y-105845748D01*
X191509551Y-106482893D01*
X191501289Y-106486345D01*
X191498642Y-106486050D01*
X191302261Y-106441075D01*
X190859088Y-106339581D01*
X190851789Y-106334393D01*
X190850000Y-106328176D01*
X190850000Y-105346823D01*
X190853427Y-105338550D01*
X190859085Y-105335419D01*
X191498643Y-105188949D01*
X191507470Y-105190443D01*
G37*
%TD.AperFunction*%
%TD*%
%TA.AperFunction,Conductor*%
%TO.N,Net-(C16-Pad1)*%
G36*
X188200688Y-102813344D02*
G01*
X188802441Y-102898575D01*
X188810152Y-102903128D01*
X188812500Y-102910159D01*
X188812500Y-103889840D01*
X188809073Y-103898113D01*
X188802441Y-103901424D01*
X188200695Y-103986654D01*
X188192023Y-103984422D01*
X188190572Y-103983129D01*
X187644157Y-103408059D01*
X187640943Y-103399701D01*
X187644157Y-103391941D01*
X188101932Y-102910159D01*
X188190573Y-102816869D01*
X188198755Y-102813233D01*
X188200688Y-102813344D01*
G37*
%TD.AperFunction*%
%TD*%
%TA.AperFunction,Conductor*%
%TO.N,Net-(C16-Pad1)*%
G36*
X188811204Y-102771711D02*
G01*
X188813147Y-102773338D01*
X189442944Y-103429112D01*
X189446203Y-103437452D01*
X189442660Y-103445606D01*
X188806022Y-104064452D01*
X188797701Y-104067761D01*
X188794928Y-104067387D01*
X188158761Y-103902273D01*
X188151614Y-103896877D01*
X188150000Y-103890948D01*
X188150000Y-102909597D01*
X188153427Y-102901324D01*
X188159410Y-102898124D01*
X188802423Y-102769968D01*
X188811204Y-102771711D01*
G37*
%TD.AperFunction*%
%TD*%
%TA.AperFunction,Conductor*%
%TO.N,Net-(U3-BST)*%
G36*
X185390505Y-140018500D02*
G01*
X185391069Y-140019863D01*
X185529042Y-140423208D01*
X185529513Y-140428918D01*
X185506629Y-140566228D01*
X185501889Y-140573826D01*
X185495088Y-140576005D01*
X185264912Y-140576005D01*
X185256639Y-140572578D01*
X185253371Y-140566229D01*
X185250706Y-140550244D01*
X185234136Y-140450820D01*
X185234070Y-140447452D01*
X185234142Y-140446875D01*
X185234301Y-140444952D01*
X185235000Y-140428018D01*
X185235000Y-140426497D01*
X185234195Y-140416761D01*
X185234784Y-140412022D01*
X185368931Y-140019860D01*
X185374849Y-140013144D01*
X185383786Y-140012580D01*
X185390505Y-140018500D01*
G37*
%TD.AperFunction*%
%TD*%
%TA.AperFunction,Conductor*%
%TO.N,Net-(U3-BST)*%
G36*
X184447893Y-141733265D02*
G01*
X184454981Y-141736632D01*
X184621775Y-141903426D01*
X184625202Y-141911699D01*
X184622995Y-141918538D01*
X184128045Y-142605604D01*
X184120429Y-142610313D01*
X184113450Y-142609294D01*
X183412555Y-142269634D01*
X183406604Y-142262942D01*
X183407128Y-142254003D01*
X183408560Y-142251748D01*
X183871019Y-141679922D01*
X183878885Y-141675645D01*
X183881292Y-141675640D01*
X184447893Y-141733265D01*
G37*
%TD.AperFunction*%
%TD*%
%TA.AperFunction,Conductor*%
%TO.N,Vout5VPi*%
G36*
X182033427Y-137264427D02*
G01*
X182294163Y-137559757D01*
X182297069Y-137568226D01*
X182294163Y-137575244D01*
X182033427Y-137870573D01*
X182025382Y-137874506D01*
X182019156Y-137873155D01*
X181686200Y-137695802D01*
X181680509Y-137688888D01*
X181680000Y-137685476D01*
X181680000Y-137449523D01*
X181683427Y-137441250D01*
X181686197Y-137439198D01*
X182019156Y-137261843D01*
X182028068Y-137260979D01*
X182033427Y-137264427D01*
G37*
%TD.AperFunction*%
%TD*%
%TA.AperFunction,Conductor*%
%TO.N,Vout5VPi*%
G36*
X181352593Y-136988102D02*
G01*
X182007435Y-137439012D01*
X182012306Y-137446526D01*
X182012500Y-137448648D01*
X182012500Y-137687345D01*
X182009073Y-137695618D01*
X182008697Y-137695978D01*
X181370340Y-138279888D01*
X181361922Y-138282943D01*
X181354608Y-138279944D01*
X180720090Y-137707746D01*
X180716241Y-137699660D01*
X180719146Y-137691323D01*
X181337182Y-136990002D01*
X181345222Y-136986062D01*
X181352593Y-136988102D01*
G37*
%TD.AperFunction*%
%TD*%
%TA.AperFunction,Conductor*%
%TO.N,Vout5VPi*%
G36*
X182597810Y-137288500D02*
G01*
X182914731Y-137497033D01*
X182919759Y-137504443D01*
X182920000Y-137506807D01*
X182920000Y-137742615D01*
X182916573Y-137750888D01*
X182912693Y-137753459D01*
X182554556Y-137898525D01*
X182545601Y-137898455D01*
X182540754Y-137894635D01*
X182436424Y-137753459D01*
X182305058Y-137575698D01*
X182302898Y-137567008D01*
X182306291Y-137560378D01*
X182583204Y-137289903D01*
X182591517Y-137286575D01*
X182597810Y-137288500D01*
G37*
%TD.AperFunction*%
%TD*%
%TA.AperFunction,Conductor*%
%TO.N,Vout5VPi*%
G36*
X180839311Y-138515927D02*
G01*
X180840941Y-138517970D01*
X181338831Y-139309455D01*
X181340336Y-139318283D01*
X181337736Y-139323386D01*
X180721308Y-140028425D01*
X180713283Y-140032398D01*
X180704799Y-140029532D01*
X180703692Y-140028425D01*
X180087263Y-139323386D01*
X180084397Y-139314902D01*
X180086167Y-139309457D01*
X180584059Y-138517969D01*
X180591364Y-138512792D01*
X180593962Y-138512500D01*
X180831038Y-138512500D01*
X180839311Y-138515927D01*
G37*
%TD.AperFunction*%
%TD*%
%TA.AperFunction,Conductor*%
%TO.N,Vout5VPi*%
G36*
X180720201Y-137707967D02*
G01*
X180721308Y-137709074D01*
X181337736Y-138414113D01*
X181340602Y-138422597D01*
X181338831Y-138428044D01*
X180840941Y-139219530D01*
X180833636Y-139224708D01*
X180831038Y-139225000D01*
X180593962Y-139225000D01*
X180585689Y-139221573D01*
X180584059Y-139219530D01*
X180086168Y-138428044D01*
X180084663Y-138419216D01*
X180087261Y-138414115D01*
X180703692Y-137709073D01*
X180711717Y-137705101D01*
X180720201Y-137707967D01*
G37*
%TD.AperFunction*%
%TD*%
%TA.AperFunction,Conductor*%
%TO.N,Vout5VPi*%
G36*
X183643523Y-137478381D02*
G01*
X183654999Y-137481001D01*
X183655002Y-137481001D01*
X183669628Y-137481001D01*
X183673413Y-137481630D01*
X184061636Y-137614430D01*
X184068354Y-137620349D01*
X184068918Y-137629286D01*
X184062998Y-137636005D01*
X184061635Y-137636569D01*
X183658792Y-137774371D01*
X183655005Y-137775001D01*
X183653475Y-137775001D01*
X183651552Y-137774842D01*
X183515271Y-137752129D01*
X183507673Y-137747389D01*
X183505494Y-137740588D01*
X183505494Y-137510411D01*
X183508921Y-137502138D01*
X183515269Y-137498870D01*
X183639009Y-137478248D01*
X183643523Y-137478381D01*
G37*
%TD.AperFunction*%
%TD*%
%TA.AperFunction,Conductor*%
%TO.N,Net-(U3-BIAS)*%
G36*
X185003359Y-136178424D02*
G01*
X185006627Y-136184774D01*
X185026251Y-136302529D01*
X185026370Y-136305416D01*
X185024998Y-136322008D01*
X185024998Y-136326452D01*
X185025986Y-136332394D01*
X185025514Y-136338099D01*
X184891067Y-136731138D01*
X184885147Y-136737857D01*
X184876210Y-136738421D01*
X184869491Y-136732501D01*
X184868932Y-136731150D01*
X184736129Y-136342916D01*
X184735499Y-136339129D01*
X184735499Y-136325498D01*
X184734797Y-136319277D01*
X184733429Y-136307129D01*
X184733513Y-136303907D01*
X184753369Y-136184773D01*
X184758110Y-136177176D01*
X184764910Y-136174997D01*
X184995086Y-136174997D01*
X185003359Y-136178424D01*
G37*
%TD.AperFunction*%
%TD*%
%TA.AperFunction,Conductor*%
%TO.N,Net-(U3-BIAS)*%
G36*
X182937823Y-134454343D02*
G01*
X183436405Y-134909796D01*
X183573804Y-135035310D01*
X183577601Y-135043420D01*
X183574551Y-135051839D01*
X183574186Y-135052221D01*
X183407413Y-135218994D01*
X183404360Y-135221192D01*
X182840692Y-135502219D01*
X182831759Y-135502843D01*
X182827215Y-135500037D01*
X182271489Y-134946452D01*
X182268046Y-134938186D01*
X182271457Y-134929906D01*
X182272834Y-134928723D01*
X182923031Y-134453535D01*
X182931732Y-134451421D01*
X182937823Y-134454343D01*
G37*
%TD.AperFunction*%
%TD*%
%TA.AperFunction,Conductor*%
%TO.N,Net-(U3-BIAS)*%
G36*
X183658791Y-138976630D02*
G01*
X183733364Y-139002140D01*
X184061635Y-139114432D01*
X184068354Y-139120352D01*
X184068918Y-139129289D01*
X184062998Y-139136008D01*
X184061633Y-139136572D01*
X183673413Y-139269371D01*
X183669628Y-139270001D01*
X183654999Y-139270001D01*
X183643453Y-139271301D01*
X183637227Y-139272003D01*
X183633995Y-139271917D01*
X183515271Y-139252131D01*
X183507673Y-139247391D01*
X183505494Y-139240590D01*
X183505494Y-139010413D01*
X183508921Y-139002140D01*
X183515269Y-138998872D01*
X183651552Y-138976160D01*
X183653475Y-138976001D01*
X183655005Y-138976001D01*
X183658791Y-138976630D01*
G37*
%TD.AperFunction*%
%TD*%
%TA.AperFunction,Conductor*%
%TO.N,Net-(U3-FB)*%
G36*
X179673220Y-134535185D02*
G01*
X180306352Y-134796464D01*
X180312693Y-134802787D01*
X180313575Y-134806698D01*
X180356283Y-135665850D01*
X180353271Y-135674283D01*
X180347963Y-135677636D01*
X179302112Y-135991847D01*
X179293203Y-135990946D01*
X179290473Y-135988915D01*
X179124212Y-135822654D01*
X179120785Y-135814381D01*
X179121708Y-135809828D01*
X179657984Y-134541442D01*
X179664360Y-134535159D01*
X179673220Y-134535185D01*
G37*
%TD.AperFunction*%
%TD*%
%TA.AperFunction,Conductor*%
%TO.N,Net-(U3-FB)*%
G36*
X178576124Y-136370804D02*
G01*
X178742111Y-136536791D01*
X178745538Y-136545064D01*
X178744889Y-136548906D01*
X178266392Y-137925362D01*
X178260439Y-137932051D01*
X178251499Y-137932571D01*
X178251354Y-137932520D01*
X177618493Y-137703135D01*
X177611883Y-137697094D01*
X177610877Y-137693638D01*
X177499462Y-136833770D01*
X177501797Y-136825126D01*
X177506452Y-136821514D01*
X178563241Y-136368323D01*
X178572194Y-136368213D01*
X178576124Y-136370804D01*
G37*
%TD.AperFunction*%
%TD*%
%TA.AperFunction,Conductor*%
%TO.N,Net-(U3-FB)*%
G36*
X182085733Y-136080394D02*
G01*
X182090520Y-136084816D01*
X182295119Y-136423945D01*
X182296459Y-136432799D01*
X182291911Y-136439503D01*
X181999895Y-136648546D01*
X181991174Y-136650575D01*
X181984835Y-136647329D01*
X181677549Y-136341778D01*
X181674099Y-136333514D01*
X181677500Y-136325234D01*
X181844055Y-136158679D01*
X181848622Y-136155856D01*
X182076801Y-136079761D01*
X182085733Y-136080394D01*
G37*
%TD.AperFunction*%
%TD*%
%TA.AperFunction,Conductor*%
%TO.N,Net-(U3-FB)*%
G36*
X180960733Y-134535197D02*
G01*
X180967016Y-134541444D01*
X181079166Y-134806698D01*
X181503290Y-135809825D01*
X181503356Y-135818779D01*
X181500787Y-135822654D01*
X181334526Y-135988915D01*
X181326253Y-135992342D01*
X181322887Y-135991847D01*
X180277036Y-135677636D01*
X180270098Y-135671974D01*
X180268716Y-135665853D01*
X180311425Y-134806695D01*
X180315258Y-134798605D01*
X180318644Y-134796465D01*
X180951779Y-134535186D01*
X180960733Y-134535197D01*
G37*
%TD.AperFunction*%
%TD*%
%TA.AperFunction,Conductor*%
%TO.N,Net-(U3-FB)*%
G36*
X177739311Y-138515927D02*
G01*
X177740941Y-138517970D01*
X178238831Y-139309455D01*
X178240336Y-139318283D01*
X178237736Y-139323386D01*
X177621308Y-140028425D01*
X177613283Y-140032398D01*
X177604799Y-140029532D01*
X177603692Y-140028425D01*
X176987263Y-139323386D01*
X176984397Y-139314902D01*
X176986167Y-139309457D01*
X177484059Y-138517969D01*
X177491364Y-138512792D01*
X177493962Y-138512500D01*
X177731038Y-138512500D01*
X177739311Y-138515927D01*
G37*
%TD.AperFunction*%
%TD*%
%TA.AperFunction,Conductor*%
%TO.N,Net-(U3-FB)*%
G36*
X177620201Y-137707967D02*
G01*
X177621308Y-137709074D01*
X178237736Y-138414113D01*
X178240602Y-138422597D01*
X178238831Y-138428044D01*
X177740941Y-139219530D01*
X177733636Y-139224708D01*
X177731038Y-139225000D01*
X177493962Y-139225000D01*
X177485689Y-139221573D01*
X177484059Y-139219530D01*
X176986168Y-138428044D01*
X176984663Y-138419216D01*
X176987261Y-138414115D01*
X177603692Y-137709073D01*
X177611717Y-137705101D01*
X177620201Y-137707967D01*
G37*
%TD.AperFunction*%
%TD*%
%TA.AperFunction,Conductor*%
%TO.N,Net-(U3-FB)*%
G36*
X182616071Y-136269669D02*
G01*
X182911613Y-136670213D01*
X182913767Y-136678905D01*
X182910471Y-136685433D01*
X182744862Y-136851042D01*
X182736589Y-136854469D01*
X182735133Y-136854378D01*
X182311818Y-136801276D01*
X182304035Y-136796846D01*
X182301574Y-136789743D01*
X182299337Y-136438769D01*
X182302711Y-136430476D01*
X182305406Y-136428441D01*
X182601032Y-136266356D01*
X182609933Y-136265384D01*
X182616071Y-136269669D01*
G37*
%TD.AperFunction*%
%TD*%
%TA.AperFunction,Conductor*%
%TO.N,Net-(U1-EN)*%
G36*
X169678506Y-112101839D02*
G01*
X169941245Y-112239639D01*
X169946980Y-112246516D01*
X169946172Y-112255434D01*
X169941245Y-112260361D01*
X169678506Y-112398161D01*
X169673072Y-112399500D01*
X169671731Y-112399500D01*
X169670280Y-112399410D01*
X169485249Y-112376281D01*
X169477465Y-112371854D01*
X169475000Y-112364671D01*
X169475000Y-112135328D01*
X169478427Y-112127055D01*
X169485246Y-112123719D01*
X169670280Y-112100590D01*
X169671731Y-112100500D01*
X169673072Y-112100500D01*
X169678506Y-112101839D01*
G37*
%TD.AperFunction*%
%TD*%
%TA.AperFunction,Conductor*%
%TO.N,Net-(U1-EN)*%
G36*
X167607649Y-110707383D02*
G01*
X168371058Y-111221356D01*
X168376007Y-111228819D01*
X168374229Y-111237595D01*
X168372797Y-111239334D01*
X168029409Y-111582722D01*
X168029191Y-111582935D01*
X167592695Y-111997278D01*
X167584335Y-112000488D01*
X167576154Y-111996847D01*
X167575938Y-111996612D01*
X167204187Y-111582935D01*
X166957031Y-111307904D01*
X166954051Y-111299461D01*
X166957822Y-111291466D01*
X167593206Y-110708466D01*
X167601618Y-110705399D01*
X167607649Y-110707383D01*
G37*
%TD.AperFunction*%
%TD*%
%TA.AperFunction,Conductor*%
%TO.N,Net-(U1-EN)*%
G36*
X173081767Y-116721787D02*
G01*
X173084541Y-116723594D01*
X173788517Y-117340033D01*
X173792483Y-117348061D01*
X173789611Y-117356543D01*
X173786740Y-117358920D01*
X172955191Y-117847915D01*
X172946322Y-117849155D01*
X172941964Y-117846977D01*
X172218293Y-117269774D01*
X172213962Y-117261936D01*
X172216442Y-117253331D01*
X172217307Y-117252363D01*
X172559784Y-116909886D01*
X172564039Y-116907172D01*
X173072821Y-116721406D01*
X173081767Y-116721787D01*
G37*
%TD.AperFunction*%
%TD*%
%TA.AperFunction,Conductor*%
%TO.N,Net-(U1-PG)*%
G36*
X171567882Y-117953427D02*
G01*
X171568502Y-117954097D01*
X172113802Y-118591969D01*
X172116573Y-118600485D01*
X172113377Y-118607646D01*
X171508020Y-119242587D01*
X171499831Y-119246210D01*
X171491534Y-119243034D01*
X170827408Y-118618147D01*
X170823731Y-118609982D01*
X170826061Y-118602612D01*
X171311490Y-117954685D01*
X171319193Y-117950118D01*
X171320854Y-117950000D01*
X171559609Y-117950000D01*
X171567882Y-117953427D01*
G37*
%TD.AperFunction*%
%TD*%
%TA.AperFunction,Conductor*%
%TO.N,Net-(U1-PG)*%
G36*
X171448246Y-113257301D02*
G01*
X171585774Y-113395746D01*
X171589173Y-113404030D01*
X171589014Y-113405914D01*
X171566630Y-113540223D01*
X171561890Y-113547821D01*
X171555089Y-113550000D01*
X171324911Y-113550000D01*
X171316638Y-113546573D01*
X171313370Y-113540223D01*
X171290985Y-113405912D01*
X171293005Y-113397191D01*
X171294214Y-113395757D01*
X171431699Y-113257355D01*
X171439961Y-113253902D01*
X171448246Y-113257301D01*
G37*
%TD.AperFunction*%
%TD*%
%TA.AperFunction,Conductor*%
%TO.N,Net-(R6-Pad2)*%
G36*
X164356248Y-118859946D02*
G01*
X165362323Y-119657021D01*
X165366679Y-119664845D01*
X165365872Y-119670655D01*
X165103535Y-120306352D01*
X165097212Y-120312693D01*
X165093301Y-120313575D01*
X164231289Y-120356425D01*
X164222856Y-120353413D01*
X164221274Y-120351659D01*
X163646912Y-119568675D01*
X163644783Y-119559979D01*
X163648072Y-119553485D01*
X164340713Y-118860844D01*
X164348985Y-118857418D01*
X164356248Y-118859946D01*
G37*
%TD.AperFunction*%
%TD*%
%TA.AperFunction,Conductor*%
%TO.N,Net-(R6-Pad2)*%
G36*
X164497105Y-118093569D02*
G01*
X164501859Y-118101157D01*
X164501873Y-118101243D01*
X164674721Y-119175162D01*
X164672653Y-119183874D01*
X164671443Y-119185294D01*
X163979056Y-119877681D01*
X163970783Y-119881108D01*
X163962510Y-119877681D01*
X163960809Y-119875525D01*
X163473007Y-119080185D01*
X163471603Y-119071341D01*
X163472243Y-119069422D01*
X163846767Y-118205121D01*
X163853200Y-118198893D01*
X163855556Y-118198237D01*
X164488377Y-118091565D01*
X164497105Y-118093569D01*
G37*
%TD.AperFunction*%
%TD*%
%TA.AperFunction,Conductor*%
%TO.N,Net-(U1-FB)*%
G36*
X170080304Y-113802544D02*
G01*
X170083731Y-113810817D01*
X170083669Y-113812017D01*
X169975981Y-114856000D01*
X169971724Y-114863878D01*
X169965481Y-114866445D01*
X169108009Y-114950217D01*
X169099441Y-114947610D01*
X169096404Y-114943800D01*
X168780204Y-114310698D01*
X168779573Y-114301765D01*
X168785443Y-114295003D01*
X168785627Y-114294913D01*
X169832627Y-113800237D01*
X169837625Y-113799117D01*
X170072031Y-113799117D01*
X170080304Y-113802544D01*
G37*
%TD.AperFunction*%
%TD*%
%TA.AperFunction,Conductor*%
%TO.N,Net-(U1-FB)*%
G36*
X169968246Y-113257301D02*
G01*
X170105774Y-113395746D01*
X170109173Y-113404030D01*
X170109014Y-113405914D01*
X170086630Y-113540223D01*
X170081890Y-113547821D01*
X170075089Y-113550000D01*
X169844911Y-113550000D01*
X169836638Y-113546573D01*
X169833370Y-113540223D01*
X169810985Y-113405912D01*
X169813005Y-113397191D01*
X169814214Y-113395757D01*
X169951699Y-113257355D01*
X169959961Y-113253902D01*
X169968246Y-113257301D01*
G37*
%TD.AperFunction*%
%TD*%
%TA.AperFunction,Conductor*%
%TO.N,Net-(U2-EN)*%
G36*
X192878806Y-109084900D02*
G01*
X192881193Y-109086739D01*
X193223008Y-109428554D01*
X193224733Y-109430750D01*
X193576514Y-110009498D01*
X193577883Y-110018347D01*
X193575318Y-110023283D01*
X192958584Y-110727595D01*
X192950556Y-110731561D01*
X192942074Y-110728689D01*
X192940583Y-110727116D01*
X192353237Y-109979218D01*
X192350824Y-109970597D01*
X192352326Y-109966112D01*
X192862809Y-109089124D01*
X192869932Y-109083700D01*
X192878806Y-109084900D01*
G37*
%TD.AperFunction*%
%TD*%
%TA.AperFunction,Conductor*%
%TO.N,Net-(U2-EN)*%
G36*
X199206080Y-103695808D02*
G01*
X199583316Y-104328670D01*
X199584608Y-104337531D01*
X199580500Y-104343856D01*
X198787820Y-104967473D01*
X198779199Y-104969896D01*
X198772313Y-104966551D01*
X198428653Y-104622891D01*
X198425432Y-104616801D01*
X198326708Y-104096503D01*
X198328533Y-104087738D01*
X198333332Y-104083687D01*
X199191163Y-103691159D01*
X199200111Y-103690834D01*
X199206080Y-103695808D01*
G37*
%TD.AperFunction*%
%TD*%
%TA.AperFunction,Conductor*%
%TO.N,Net-(U2-EN)*%
G36*
X198022944Y-106075927D02*
G01*
X198026281Y-106082749D01*
X198049410Y-106267780D01*
X198049500Y-106269231D01*
X198049500Y-106270572D01*
X198048161Y-106276006D01*
X197910360Y-106538745D01*
X197903483Y-106544480D01*
X197894565Y-106543672D01*
X197889640Y-106538747D01*
X197755561Y-106283104D01*
X197754308Y-106276265D01*
X197755000Y-106270572D01*
X197755000Y-106269231D01*
X197754606Y-106256509D01*
X197754516Y-106255058D01*
X197753635Y-106245631D01*
X197753673Y-106243109D01*
X197773719Y-106082749D01*
X197778146Y-106074965D01*
X197785329Y-106072500D01*
X198014671Y-106072500D01*
X198022944Y-106075927D01*
G37*
%TD.AperFunction*%
%TD*%
%TA.AperFunction,Conductor*%
%TO.N,Net-(U2-PG)*%
G36*
X196758212Y-107965137D02*
G01*
X196763820Y-107967979D01*
X196890501Y-108032179D01*
X196896330Y-108038974D01*
X196895647Y-108047903D01*
X196895615Y-108047966D01*
X196753618Y-108323987D01*
X196746786Y-108329776D01*
X196746152Y-108329960D01*
X196635349Y-108358702D01*
X196626480Y-108357462D01*
X196621086Y-108350315D01*
X196620711Y-108347377D01*
X196620711Y-108116812D01*
X196623511Y-108109218D01*
X196744024Y-107967978D01*
X196751999Y-107963910D01*
X196758212Y-107965137D01*
G37*
%TD.AperFunction*%
%TD*%
%TA.AperFunction,Conductor*%
%TO.N,Net-(U2-PG)*%
G36*
X190703231Y-107594076D02*
G01*
X191345618Y-108108988D01*
X191349930Y-108116835D01*
X191350000Y-108118116D01*
X191350000Y-108356883D01*
X191346573Y-108365156D01*
X191345618Y-108366012D01*
X190703231Y-108880923D01*
X190694632Y-108883424D01*
X190687615Y-108880042D01*
X190176726Y-108366012D01*
X190057196Y-108245746D01*
X190053795Y-108237464D01*
X190057196Y-108229253D01*
X190687615Y-107594956D01*
X190695877Y-107591505D01*
X190703231Y-107594076D01*
G37*
%TD.AperFunction*%
%TD*%
%TA.AperFunction,Conductor*%
%TO.N,Net-(R12-Pad1)*%
G36*
X194077646Y-103040532D02*
G01*
X194079273Y-103041937D01*
X194693183Y-103679384D01*
X194696454Y-103687720D01*
X194693183Y-103695616D01*
X194079273Y-104333062D01*
X194071066Y-104336644D01*
X194068923Y-104336487D01*
X193184777Y-104189129D01*
X193177179Y-104184388D01*
X193175000Y-104177588D01*
X193175000Y-103197411D01*
X193178427Y-103189138D01*
X193184775Y-103185870D01*
X194068925Y-103038512D01*
X194077646Y-103040532D01*
G37*
%TD.AperFunction*%
%TD*%
%TA.AperFunction,Conductor*%
%TO.N,Net-(R12-Pad1)*%
G36*
X193206599Y-102903614D02*
G01*
X193843023Y-103184421D01*
X193849209Y-103190896D01*
X193850000Y-103195125D01*
X193850000Y-104176226D01*
X193846573Y-104184499D01*
X193838734Y-104187918D01*
X193149906Y-104213476D01*
X193141511Y-104210358D01*
X193140186Y-104208901D01*
X193115145Y-104176226D01*
X192555866Y-103446459D01*
X192553554Y-103437810D01*
X192557709Y-103430318D01*
X193194435Y-102905291D01*
X193202997Y-102902673D01*
X193206599Y-102903614D01*
G37*
%TD.AperFunction*%
%TD*%
%TA.AperFunction,Conductor*%
%TO.N,Net-(U2-FB)*%
G36*
X196752808Y-106410505D02*
G01*
X196754248Y-106411720D01*
X196773526Y-106430870D01*
X196892643Y-106549199D01*
X196896097Y-106557461D01*
X196892698Y-106565746D01*
X196892643Y-106565801D01*
X196754254Y-106703274D01*
X196745969Y-106706673D01*
X196744085Y-106706514D01*
X196609777Y-106684129D01*
X196602179Y-106679388D01*
X196600000Y-106672588D01*
X196600000Y-106442411D01*
X196603427Y-106434138D01*
X196609775Y-106430870D01*
X196744087Y-106408485D01*
X196752808Y-106410505D01*
G37*
%TD.AperFunction*%
%TD*%
%TA.AperFunction,Conductor*%
%TO.N,Net-(U2-FB)*%
G36*
X195906018Y-105469465D02*
G01*
X196513327Y-106429635D01*
X196515139Y-106435889D01*
X196515139Y-106671198D01*
X196511712Y-106679471D01*
X196503844Y-106682891D01*
X195657792Y-106712229D01*
X195649406Y-106709091D01*
X195646751Y-106705410D01*
X195253428Y-105847162D01*
X195253096Y-105838214D01*
X195258192Y-105832168D01*
X195890261Y-105465597D01*
X195899136Y-105464412D01*
X195906018Y-105469465D01*
G37*
%TD.AperFunction*%
%TD*%
%TA.AperFunction,Conductor*%
%TO.N,Net-(U3-EN)*%
G36*
X180890156Y-143053427D02*
G01*
X180891012Y-143054382D01*
X181405923Y-143696767D01*
X181408424Y-143705366D01*
X181405042Y-143712383D01*
X180770748Y-144342802D01*
X180762464Y-144346204D01*
X180754252Y-144342802D01*
X180119957Y-143712383D01*
X180116505Y-143704121D01*
X180119075Y-143696768D01*
X180633988Y-143054382D01*
X180641836Y-143050070D01*
X180643117Y-143050000D01*
X180881883Y-143050000D01*
X180890156Y-143053427D01*
G37*
%TD.AperFunction*%
%TD*%
%TA.AperFunction,Conductor*%
%TO.N,Net-(U3-EN)*%
G36*
X184890503Y-140018500D02*
G01*
X184891067Y-140019863D01*
X185028870Y-140422710D01*
X185029500Y-140426497D01*
X185029500Y-140428018D01*
X185029341Y-140429941D01*
X185006627Y-140566228D01*
X185001887Y-140573826D01*
X184995086Y-140576005D01*
X184764910Y-140576005D01*
X184756637Y-140572578D01*
X184753369Y-140566229D01*
X184749653Y-140543937D01*
X184732650Y-140441912D01*
X184732785Y-140437391D01*
X184735499Y-140425501D01*
X184735499Y-140411871D01*
X184736129Y-140408084D01*
X184868929Y-140019860D01*
X184874847Y-140013144D01*
X184883784Y-140012580D01*
X184890503Y-140018500D01*
G37*
%TD.AperFunction*%
%TD*%
%TA.AperFunction,Conductor*%
%TO.N,Net-(R17-Pad2)*%
G36*
X177339311Y-133278427D02*
G01*
X177340941Y-133280470D01*
X177838831Y-134071955D01*
X177840336Y-134080783D01*
X177837736Y-134085886D01*
X177221308Y-134790925D01*
X177213283Y-134794898D01*
X177204799Y-134792032D01*
X177203692Y-134790925D01*
X176587263Y-134085886D01*
X176584397Y-134077402D01*
X176586167Y-134071957D01*
X177084059Y-133280469D01*
X177091364Y-133275292D01*
X177093962Y-133275000D01*
X177331038Y-133275000D01*
X177339311Y-133278427D01*
G37*
%TD.AperFunction*%
%TD*%
%TA.AperFunction,Conductor*%
%TO.N,Net-(R17-Pad2)*%
G36*
X177220201Y-132407967D02*
G01*
X177221308Y-132409074D01*
X177837736Y-133114113D01*
X177840602Y-133122597D01*
X177838831Y-133128044D01*
X177340941Y-133919530D01*
X177333636Y-133924708D01*
X177331038Y-133925000D01*
X177093962Y-133925000D01*
X177085689Y-133921573D01*
X177084059Y-133919530D01*
X176586168Y-133128044D01*
X176584663Y-133119216D01*
X176587261Y-133114115D01*
X177203692Y-132409073D01*
X177211717Y-132405101D01*
X177220201Y-132407967D01*
G37*
%TD.AperFunction*%
%TD*%
M02*
